<svg xmlns="http://www.w3.org/2000/svg" width="23.559" height="19.134" viewBox="0 0 23.559 19.134"><path d="M21.138,8.149c.015.209.015.419.015.628A13.644,13.644,0,0,1,7.415,22.515,13.645,13.645,0,0,1,0,20.348a9.989,9.989,0,0,0,1.166.06,9.67,9.67,0,0,0,5.995-2.063A4.837,4.837,0,0,1,2.646,15a6.089,6.089,0,0,0,.912.075,5.107,5.107,0,0,0,1.271-.164A4.829,4.829,0,0,1,.957,10.168v-.06a4.863,4.863,0,0,0,2.183.613A4.836,4.836,0,0,1,1.644,4.263,13.725,13.725,0,0,0,11.6,9.315a5.451,5.451,0,0,1-.12-1.106,4.833,4.833,0,0,1,8.356-3.3A9.506,9.506,0,0,0,22.9,3.74,4.815,4.815,0,0,1,20.779,6.4a9.68,9.68,0,0,0,2.78-.747,10.379,10.379,0,0,1-2.422,2.5Z" transform="translate(0 -3.381)" fill="#727677"/></svg>