<svg xmlns="http://www.w3.org/2000/svg" width="22.823" height="22.823" viewBox="0 0 22.823 22.823"><path d="M3.033,7.989,7.7,20.781A9.791,9.791,0,0,1,3.033,7.989Zm15.548,3.493a5.162,5.162,0,0,0-.805-2.7,4.578,4.578,0,0,1-.962-2.3,1.694,1.694,0,0,1,1.643-1.739c.041,0,.083,0,.129.009A9.788,9.788,0,0,0,3.793,6.6c.23.009.446.014.63.014,1.022,0,2.609-.124,2.609-.124A.4.4,0,0,1,7.1,7.29s-.529.06-1.118.092l3.566,10.6,2.144-6.424L10.166,7.382C9.637,7.35,9.14,7.29,9.14,7.29a.4.4,0,0,1,.06-.805s1.615.124,2.577.124c1.022,0,2.609-.124,2.609-.124a.4.4,0,0,1,.064.805s-.529.06-1.118.092L16.87,17.905l.976-3.262A12.083,12.083,0,0,0,18.582,11.482ZM12.144,12.83,9.209,21.366a9.754,9.754,0,0,0,6.014-.156.733.733,0,0,1-.069-.133L12.144,12.83Zm8.421-5.554a7.626,7.626,0,0,1,.064,1.008,9.2,9.2,0,0,1-.745,3.506l-2.991,8.646a9.8,9.8,0,0,0,3.672-13.16Zm2.821,4.7A11.412,11.412,0,1,1,11.974.563,11.424,11.424,0,0,1,23.386,11.974Zm-.525,0A10.887,10.887,0,1,0,11.974,22.861,10.9,10.9,0,0,0,22.861,11.974Z" transform="translate(-0.563 -0.563)" fill="#727677"/></svg>