<svg xmlns="http://www.w3.org/2000/svg" width="2443.551" height="1167.603" viewBox="0 0 2443.551 1167.603">
  <g id="Group_177" data-name="Group 177" transform="translate(288.83 -4078)">
    <path id="Path_279" data-name="Path 279" d="M0,2326.153S239.2,2135.8,493.094,2160s224.647,168.244,632.6,55.3,760.235-34.243,833.79,126.9,338.756,353.656,93.088,577.6-612.018,317.853-1075.76,318.173S539.3,3057.942,0,3237.87s-157.219,46.554-161.336-77.853c-2.157-65.189,42.245-291.017,85.033-491.371C-37.488,2486.9,0,2326.153,0,2326.153Z" transform="translate(0 1920.13)" fill="#2e5987" opacity="0.039"/>
    <text id="As_one_of_the_top_information_return_e-filers_authorized_by_the_IRS_eFile360_is_here_to_help_guide_you_through_the_e-filing_process_and_complete_it_on_your_behalf." data-name="As one of the top information return e-filers authorized by the IRS, eFile360 is here to help guide you through  the e-filing process and complete it on your behalf." transform="translate(265 4233)" fill="#3c3c3c" font-size="40" font-family="Heebo-Regular, Heebo" letter-spacing="-0.025em"><tspan x="12.244" y="42">As one of the top information return e-filers authorized by the IRS, eFile360 is here </tspan><tspan x="50.68" y="98" xml:space="preserve">to help guide you through  the e-filing process and complete it on your behalf.</tspan></text>
    <text id="E-filing_with_eFile360_eliminates_the_need_to_download_software_fill_out_and_mail_paper_copies_and_stay_up-to-date_on_the_latest_IRS_regulations._eFile360_manages_these_aspects_for_you_so_all_you_have_to_do_is_create_a_free_account_and_enter_form_detai" data-name="E-filing with eFile360 eliminates the need to download software, fill out and mail paper copies, and stay up-to-date on the latest IRS regulations. eFile360 manages  these aspects for you, so all you have to do is create a free account and enter form detai" transform="translate(221 4396)" fill="#727677" font-size="22" font-family="Heebo-Regular, Heebo" letter-spacing="-0.025em"><tspan x="41.236" y="23">E-filing with eFile360 eliminates the need to download software, fill out and mail paper copies, and stay up-to-date on the latest IRS regulations. eFile360 </tspan><tspan x="86.014" y="59" xml:space="preserve">manages  these aspects for you, so all you have to do is create a free account and enter form details, which typically  takes just a few minutes.</tspan></text>
    <text id="Benefits_of_using_eFile360_for_your_e-filing_needs:" data-name="Benefits of using eFile360 for your e-filing needs:" transform="translate(960 4593)" fill="#3c3c3c" font-size="40" font-family="Heebo-Medium, Heebo" font-weight="500"><tspan x="-440.742" y="0">Benefits of using eFile360 for your e-filing needs:</tspan></text>
    <rect id="Rectangle_110" data-name="Rectangle 110" width="257" height="294" transform="translate(212 4701)" fill="#f4a50f"/>
    <text id="Fast_form_creation_through_bulk_upload" data-name="Fast form creation 
through bulk upload" transform="translate(243 4890)" fill="#fff" font-size="18" font-family="Heebo-Regular, Heebo"><tspan x="0" y="19">Fast form creation </tspan><tspan x="0" y="47">through bulk upload</tspan></text>
    <text id="Fast_form" data-name="Fast form" transform="translate(243 4787)" fill="#fff" font-size="36" font-family="Heebo-Regular, Heebo"><tspan x="0" y="38">Fast form</tspan></text>
    <path id="Icon_awesome-file-upload" data-name="Icon awesome-file-upload" d="M15.75,9.563V0H1.688A1.683,1.683,0,0,0,0,1.688V34.313A1.683,1.683,0,0,0,1.688,36H25.313A1.683,1.683,0,0,0,27,34.313V11.25H17.438A1.692,1.692,0,0,1,15.75,9.563Zm4.583,15.188H15.75v5.625A1.125,1.125,0,0,1,14.625,31.5h-2.25a1.125,1.125,0,0,1-1.125-1.125V24.751H6.667a1.125,1.125,0,0,1-.792-1.924l6.78-6.729a1.2,1.2,0,0,1,1.69,0l6.78,6.729A1.125,1.125,0,0,1,20.333,24.751ZM26.508,7.383,19.624.492A1.686,1.686,0,0,0,18.429,0H18V9h9V8.571A1.682,1.682,0,0,0,26.508,7.383Z" transform="translate(243.2 4724)" fill="#fff"/>
    <rect id="Rectangle_111" data-name="Rectangle 111" width="257" height="294" transform="translate(522 4701)" fill="#fff"/>
    <text id="Fast_delivery" data-name="Fast delivery" transform="translate(552 4787)" fill="#3c3c3c" font-size="36" font-family="Heebo-Regular, Heebo" letter-spacing="-0.025em"><tspan x="0" y="38">Fast delivery</tspan></text>
    <path id="Icon_awesome-shipping-fast" data-name="Icon awesome-shipping-fast" d="M43.875,24.75H42.75v-7.6a3.375,3.375,0,0,0-.991-2.384L34.734,7.741a3.375,3.375,0,0,0-2.384-.991h-3.1V3.375A3.376,3.376,0,0,0,25.875,0h-18A3.376,3.376,0,0,0,4.5,3.375V6.75H.563A.564.564,0,0,0,0,7.313V8.438A.564.564,0,0,0,.563,9H19.688a.564.564,0,0,1,.563.563v1.125a.564.564,0,0,1-.562.563H2.813a.564.564,0,0,0-.562.563v1.125a.564.564,0,0,0,.563.563H17.438a.564.564,0,0,1,.563.563v1.125a.564.564,0,0,1-.562.563H.563A.564.564,0,0,0,0,16.313v1.125A.564.564,0,0,0,.563,18H15.188a.564.564,0,0,1,.563.563v1.125a.564.564,0,0,1-.562.563H4.5v9a6.75,6.75,0,0,0,13.5,0h9a6.75,6.75,0,0,0,13.5,0h3.375A1.128,1.128,0,0,0,45,28.125v-2.25A1.128,1.128,0,0,0,43.875,24.75ZM11.25,32.625a3.375,3.375,0,1,1,3.375-3.375A3.376,3.376,0,0,1,11.25,32.625Zm22.5,0a3.375,3.375,0,1,1,3.375-3.375A3.376,3.376,0,0,1,33.75,32.625ZM39.375,18H29.25V10.125h3.1l7.024,7.024Z" transform="translate(552 4724)" fill="#2e5987"/>
    <text id="Fast_delivery_using_e-filing_and_e-delivery" data-name="Fast delivery using e-filing and e-delivery" transform="translate(552 4890)" fill="#727677" font-size="18" font-family="Heebo-Regular, Heebo"><tspan x="0" y="19">Fast delivery using e-</tspan><tspan x="0" y="47">filing and e-delivery</tspan></text>
    <rect id="Rectangle_113" data-name="Rectangle 113" width="257" height="294" transform="translate(1142 4701)" fill="#fff"/>
    <text id="No_software_" data-name="No 
software " transform="translate(1172 4787)" fill="#3c3c3c" font-size="36" font-family="Heebo-Regular, Heebo"><tspan x="0" y="38">No </tspan><tspan x="0" y="76">software </tspan></text>
    <path id="Icon_awesome-globe" data-name="Icon awesome-globe" d="M23.66,11.25C22.641,4.971,20.236.563,17.438.563s-5.2,4.409-6.223,10.688ZM10.688,18a44.071,44.071,0,0,0,.232,4.5H23.948A44.071,44.071,0,0,0,24.18,18a44.071,44.071,0,0,0-.232-4.5H10.92A44.071,44.071,0,0,0,10.688,18Zm22.83-6.75A17.474,17.474,0,0,0,22.409,1.294c1.716,2.377,2.9,5.955,3.516,9.956ZM12.459,1.294a17.463,17.463,0,0,0-11.1,9.956H8.951c.612-4,1.793-7.58,3.509-9.956ZM34.27,13.5H26.205c.148,1.477.232,2.988.232,4.5s-.084,3.023-.232,4.5h8.058a17.287,17.287,0,0,0,.6-4.5A17.589,17.589,0,0,0,34.27,13.5ZM8.438,18c0-1.512.084-3.023.232-4.5H.6a17.047,17.047,0,0,0,0,9H8.663C8.522,21.023,8.438,19.512,8.438,18Zm2.777,6.75c1.02,6.279,3.424,10.688,6.223,10.688s5.2-4.409,6.223-10.687Zm11.2,9.956A17.491,17.491,0,0,0,33.525,24.75H25.931c-.619,4-1.8,7.58-3.516,9.956ZM1.357,24.75a17.474,17.474,0,0,0,11.109,9.956c-1.716-2.377-2.9-5.955-3.516-9.956H1.357Z" transform="translate(1172 4723.438)" fill="#2e5987"/>
    <text id="No_software_to_purchase_or_download" data-name="No software to purchase 
or download" transform="translate(1172 4890)" fill="#727677" font-size="18" font-family="Heebo-Regular, Heebo"><tspan x="0" y="19">No software to purchase </tspan><tspan x="0" y="47">or download</tspan></text>
    <rect id="Rectangle_112" data-name="Rectangle 112" width="257" height="294" transform="translate(832 4701)" fill="#2e5987"/>
    <text id="Secure" transform="translate(862 4787)" fill="#fff" font-size="36" font-family="Heebo-Regular, Heebo"><tspan x="0" y="38">Secure</tspan></text>
    <path id="Icon_awesome-shield-alt" data-name="Icon awesome-shield-alt" d="M32.8,5.885,19.3.26a3.386,3.386,0,0,0-2.595,0L3.206,5.885A3.371,3.371,0,0,0,1.125,9c0,13.957,8.051,23.6,15.574,26.74a3.386,3.386,0,0,0,2.595,0C25.32,33.23,34.875,24.56,34.875,9A3.376,3.376,0,0,0,32.8,5.885ZM18.007,31.38,18,4.591,30.368,9.745C30.136,20.391,24.6,28.1,18.007,31.38Z" transform="translate(861.35 4723.998)" fill="#fff"/>
    <text id="Secure_website_keeps_your_data_safe" data-name="Secure website keeps 
your data safe" transform="translate(861 4890)" fill="#fff" font-size="18" font-family="Heebo-Regular, Heebo"><tspan x="0" y="19">Secure website keeps </tspan><tspan x="0" y="47">your data safe</tspan></text>
    <rect id="Rectangle_114" data-name="Rectangle 114" width="257" height="294" transform="translate(1452 4701)" fill="#7ea44b"/>
    <text id="Lowest_prices" data-name="Lowest prices" transform="translate(1482 4787)" fill="#fff" font-size="36" font-family="Heebo-Regular, Heebo"><tspan x="0" y="38">Lowest </tspan><tspan x="0" y="76">prices</tspan></text>
    <path id="Icon_awesome-sort-amount-down" data-name="Icon awesome-sort-amount-down" d="M21.375,29.25h-4.5a1.125,1.125,0,0,0-1.125,1.125v2.25a1.125,1.125,0,0,0,1.125,1.125h4.5A1.125,1.125,0,0,0,22.5,32.625v-2.25A1.125,1.125,0,0,0,21.375,29.25Zm-9-4.5H9V3.375A1.125,1.125,0,0,0,7.875,2.25H5.625A1.125,1.125,0,0,0,4.5,3.375V24.75H1.125a1.125,1.125,0,0,0-.794,1.92l5.625,6.75a1.125,1.125,0,0,0,1.59,0l5.625-6.75A1.127,1.127,0,0,0,12.375,24.75Zm18-13.5h-13.5a1.125,1.125,0,0,0-1.125,1.125v2.25a1.125,1.125,0,0,0,1.125,1.125h13.5A1.125,1.125,0,0,0,31.5,14.625v-2.25A1.125,1.125,0,0,0,30.375,11.25Zm-4.5,9h-9a1.125,1.125,0,0,0-1.125,1.125v2.25a1.125,1.125,0,0,0,1.125,1.125h9A1.125,1.125,0,0,0,27,23.625v-2.25A1.125,1.125,0,0,0,25.875,20.25Zm9-18h-18A1.125,1.125,0,0,0,15.75,3.375v2.25A1.125,1.125,0,0,0,16.875,6.75h18A1.125,1.125,0,0,0,36,5.625V3.375A1.125,1.125,0,0,0,34.875,2.25Z" transform="translate(1481.955 4721.75)" fill="#fff"/>
    <text id="Lowest_e-filing_prices_available" data-name="Lowest e-filing prices 
available" transform="translate(1482 4890)" fill="#fff" font-size="18" font-family="Heebo-Regular, Heebo"><tspan x="0" y="19">Lowest e-filing prices </tspan><tspan x="0" y="47">available</tspan></text>
  </g>
</svg>
