<?xml version="1.0" encoding="utf-8"?>
<!-- Generator: Adobe Illustrator 23.0.6, SVG Export Plug-In . SVG Version: 6.00 Build 0)  -->
<svg version="1.1" id="Layer_1" xmlns="http://www.w3.org/2000/svg" xmlns:xlink="http://www.w3.org/1999/xlink" x="0px" y="0px"
	 viewBox="0 0 1594.7 1057.7" style="enable-background:new 0 0 1594.7 1057.7;" xml:space="preserve">
<style type="text/css">
	.st0{fill:#2E5987;}
</style>
<path class="st0" d="M1588.1,277.5c-21.7-93.6-95.2-171.7-179.3-214.4c-92.5-46.9-197.9-56.9-300.5-55.3c-5.9-2.2-11.9-4.3-17.9-6.4
	c-9.2-3.2-19.7-0.7-27.7,5.1C955,10.1,821.2,59.8,669.3,185.3c-360.9,298.3-90.7,324.5-385.7,313.8s-427.6,665-60,487.9
	s129.6,71,445.7,70.7c144.3-0.1,292.5-62.1,411.1-129.5c18.7-8.4,36.8-18.2,54.4-28.9c47.1-28.7,91.8-61.9,134.7-96.5
	c79.7-64.3,152.3-137.6,215.8-218.1c11.5-11.5,22.6-23.4,33.1-35.8c27.9-33.2,53-70.9,62.9-113.7c2.3-10.1,3.8-20.3,4.4-30.4
	C1596.5,363.3,1597.8,319.6,1588.1,277.5z"/>
</svg>
