<?xml version="1.0" encoding="utf-8"?>
<!-- Generator: Adobe Illustrator 23.0.6, SVG Export Plug-In . SVG Version: 6.00 Build 0)  -->
<svg version="1.1" id="Layer_1" xmlns="http://www.w3.org/2000/svg" xmlns:xlink="http://www.w3.org/1999/xlink" x="0px" y="0px"
	 viewBox="0 0 450 222" style="enable-background:new 0 0 450 222;" xml:space="preserve">
<style type="text/css">
	.st0{fill:#F4A50F;}
	.st1{enable-background:new    ;}
	.st2{fill:#FFFFFF;}
</style>
<g transform="translate(-212 -2305)">
	<rect x="212" y="2305" class="st0" width="450" height="222"/>
	<g class="st1">
		<path class="st2" d="M251.5,2443.6v11.7h14.3v3.7h-14.3v15.1H247v-34.1h4.5h16.6v3.7H251.5z"/>
		<path class="st2" d="M272.6,2454.5c0.9-2,2.3-3.5,4-4.6s3.8-1.7,6.1-1.7c2.3,0,4.4,0.6,6.1,1.7s3.1,2.7,4,4.6s1.4,4.2,1.4,6.6v0.5
			c0,2.5-0.5,4.7-1.4,6.6s-2.3,3.5-4,4.6s-3.8,1.7-6.1,1.7s-4.4-0.6-6.1-1.7s-3.1-2.6-4-4.6s-1.4-4.1-1.4-6.6v-0.5
			C271.2,2458.6,271.7,2456.4,272.6,2454.5z M276.4,2466.3c0.5,1.4,1.3,2.6,2.4,3.4s2.4,1.3,3.9,1.3c1.5,0,2.8-0.4,3.9-1.3
			s1.9-2,2.4-3.4s0.8-3,0.8-4.7v-0.5c0-1.7-0.3-3.3-0.8-4.7s-1.4-2.6-2.4-3.4s-2.4-1.3-3.9-1.3c-1.5,0-2.8,0.4-3.9,1.3
			s-1.9,2-2.4,3.4s-0.8,3-0.8,4.7v0.5C275.6,2463.3,275.8,2464.9,276.4,2466.3z"/>
		<path class="st2" d="M311.1,2448.3c0.4,0.1,0.7,0.1,0.9,0.2v4c-0.7-0.1-1.4-0.2-2.1-0.2c-1.4,0-2.6,0.3-3.6,1s-1.7,1.5-2.2,2.7v18
			h-4.4v-25.4h4.3l0.1,2.9c0.7-1.1,1.5-1.9,2.5-2.5s2.2-0.9,3.5-0.9C310.4,2448.2,310.7,2448.2,311.1,2448.3z"/>
		<path class="st2" d="M349.4,2450.4c1.4,1.5,2.2,3.8,2.2,6.9v16.7h-4.4v-16.7c0-2-0.5-3.4-1.4-4.3s-2.3-1.2-4-1.2
			c-1.1,0-2.1,0.2-3,0.7s-1.5,1.1-2,1.9s-0.8,1.7-0.9,2.7v16.8h-4.4v-16.7c0-3.7-1.8-5.5-5.4-5.5c-1.5,0-2.7,0.3-3.6,0.9
			s-1.7,1.5-2.2,2.6v18.6H316v-25.4h4.1l0.1,2.7c0.9-1,1.9-1.8,3.2-2.4s2.7-0.8,4.3-0.8c1.7,0,3.1,0.3,4.4,1s2.2,1.7,2.8,3
			c0.9-1.2,2-2.2,3.4-3s2.9-1.1,4.7-1.1C345.8,2448.2,347.9,2448.9,349.4,2450.4z"/>
	</g>
	<g class="st1">
		<path class="st2" d="M394.1,2474v-60.7l-18.5,6.2v-10.9l29.9-11h1.6v76.3H394.1z"/>
		<path class="st2" d="M458.2,2475c-7.9,0-14.1-2.6-18.5-7.9c-4.4-5.3-6.6-13.6-6.6-25.1v-12.4c0-11.5,2.2-19.8,6.5-24.9
			c4.4-5.2,10.5-7.8,18.4-7.8s14.1,2.6,18.5,7.8c4.4,5.2,6.6,13.5,6.6,24.9v12.4C483.1,2464,474.8,2475,458.2,2475z M467.1,2412
			c-2-3.1-5-4.7-9-4.7c-4,0-7,1.6-9,4.7c-2,3.1-3,8.3-3,15.6v16.2c0,7.3,1,12.6,3.1,15.9c2,3.3,5,4.9,9,4.9c4,0,7-1.6,9-4.8
			c2-3.2,3-8.5,3-15.9v-16.2C470.1,2420.3,469.1,2415.1,467.1,2412z"/>
		<path class="st2" d="M531.8,2401c3.8,2.7,6.6,6.4,8.5,11.1c1.9,4.7,2.9,9.9,2.9,15.7v4.3c0,12.5-2.9,22.7-8.8,30.6
			c-5.8,7.8-15.5,11.8-28.9,11.8h-1v-10.9h0.9c8.4,0,14.5-1.9,18.3-5.6c3.8-3.7,5.9-8.9,6.4-15.6c-2,2.1-4.2,3.7-6.8,4.9
			c-2.6,1.2-5.2,1.8-8,1.8c-4.7,0-8.8-1.2-12-3.5c-3.3-2.3-5.8-5.4-7.4-9.3c-1.7-3.9-2.5-8.1-2.5-12.7c0-4.9,1-9.4,3-13.5
			c2-4,4.8-7.2,8.5-9.6c3.7-2.4,8.1-3.5,13.2-3.5C523.5,2396.9,528,2398.3,531.8,2401z M525.4,2436.6c2.1-1.5,3.8-3.4,4.9-5.8v-5.1
			c0-3.9-0.5-7.2-1.6-9.9c-1.1-2.8-2.6-4.8-4.4-6.2c-1.8-1.4-3.9-2.1-6.1-2.1c-2.4,0-4.5,0.7-6.3,2.1c-1.8,1.4-3.1,3.3-4.1,5.7
			s-1.4,5-1.4,7.9c0,2.8,0.4,5.4,1.3,7.8c0.9,2.4,2.2,4.3,4,5.7c1.8,1.4,4,2.1,6.6,2.1C520.8,2438.8,523.2,2438,525.4,2436.6z"/>
		<path class="st2" d="M592.7,2401c3.8,2.7,6.6,6.4,8.5,11.1c1.9,4.7,2.9,9.9,2.9,15.7v4.3c0,12.5-2.9,22.7-8.8,30.6
			c-5.8,7.8-15.5,11.8-28.9,11.8h-1v-10.9h0.9c8.4,0,14.5-1.9,18.3-5.6c3.8-3.7,5.9-8.9,6.4-15.6c-2,2.1-4.2,3.7-6.8,4.9
			c-2.6,1.2-5.2,1.8-8,1.8c-4.7,0-8.8-1.2-12-3.5c-3.3-2.3-5.8-5.4-7.4-9.3c-1.7-3.9-2.5-8.1-2.5-12.7c0-4.9,1-9.4,3-13.5
			c2-4,4.8-7.2,8.5-9.6c3.7-2.4,8.1-3.5,13.2-3.5C584.4,2396.9,588.9,2398.3,592.7,2401z M586.3,2436.6c2.1-1.5,3.8-3.4,4.9-5.8
			v-5.1c0-3.9-0.5-7.2-1.6-9.9c-1.1-2.8-2.6-4.8-4.4-6.2c-1.8-1.4-3.9-2.1-6.1-2.1c-2.4,0-4.5,0.7-6.3,2.1c-1.8,1.4-3.1,3.3-4.1,5.7
			s-1.4,5-1.4,7.9c0,2.8,0.4,5.4,1.3,7.8c0.9,2.4,2.2,4.3,4,5.7c1.8,1.4,4,2.1,6.6,2.1C581.8,2438.8,584.1,2438,586.3,2436.6z"/>
	</g>
	<path class="st2" d="M274.5,2333.3v25.4c0,1.7-1.3,3-3,3c0,0-0.1,0-0.1,0H246c-1.7,0-3-1.3-3-3c0,0,0,0,0-0.1v-25.4
		c0-1.7,1.3-3,3-3c0,0,0,0,0.1,0h25.4C273.1,2330.2,274.5,2331.6,274.5,2333.3C274.5,2333.2,274.5,2333.3,274.5,2333.3z
		 M271.9,2358.7v-25.4c0-0.2-0.2-0.4-0.4-0.4h-0.7l-7.8,5.2l-4.3-3.5l-4.3,3.5l-7.8-5.3H246c-0.2,0-0.4,0.2-0.4,0.4v25.4
		c0,0.2,0.2,0.4,0.4,0.4h25.4C271.7,2359.1,271.9,2358.9,271.9,2358.7L271.9,2358.7z M253.6,2341.1v2.6h-5.2v-2.6H253.6z
		 M253.6,2346.3v2.6h-5.2v-2.6H253.6z M254.3,2335.9l3.8-3.1h-8.3L254.3,2335.9z M269.1,2341.1v2.6h-13.8v-2.6H269.1z M269.1,2346.3
		v2.6h-13.8v-2.6H269.1z M263.2,2335.9l4.5-3.1h-8.3L263.2,2335.9L263.2,2335.9z M269.1,2351.5v2.6h-7v-2.6L269.1,2351.5
		L269.1,2351.5z"/>
</g>
</svg>
