<?xml version="1.0" encoding="utf-8"?>
<!-- Generator: Adobe Illustrator 23.0.6, SVG Export Plug-In . SVG Version: 6.00 Build 0)  -->
<svg version="1.1" id="Layer_1" xmlns="http://www.w3.org/2000/svg" xmlns:xlink="http://www.w3.org/1999/xlink" x="0px" y="0px"
	 viewBox="0 0 450 222" style="enable-background:new 0 0 450 222;" xml:space="preserve">
<style type="text/css">
	.st0{fill:#7EA44B;}
	.st1{enable-background:new    ;}
	.st2{fill:#FFFFFF;}
</style>
<g transform="translate(-1258 -2305)">
	<rect x="1258" y="2305" class="st0" width="450" height="222"/>
	<g class="st1">
		<path class="st2" d="M1302.5,2443.6v11.7h14.3v3.7h-14.3v15.1h-4.5v-34.1h4.5h16.6v3.7H1302.5z"/>
		<path class="st2" d="M1323.6,2454.5c0.9-2,2.3-3.5,4-4.6s3.8-1.7,6.1-1.7c2.3,0,4.4,0.6,6.1,1.7s3.1,2.7,4,4.6s1.4,4.2,1.4,6.6
			v0.5c0,2.5-0.5,4.7-1.4,6.6s-2.3,3.5-4,4.6s-3.8,1.7-6.1,1.7s-4.4-0.6-6.1-1.7s-3.1-2.6-4-4.6s-1.4-4.1-1.4-6.6v-0.5
			C1322.2,2458.6,1322.7,2456.4,1323.6,2454.5z M1327.4,2466.3c0.5,1.4,1.3,2.6,2.4,3.4s2.4,1.3,3.9,1.3c1.5,0,2.8-0.4,3.9-1.3
			s1.9-2,2.4-3.4s0.8-3,0.8-4.7v-0.5c0-1.7-0.3-3.3-0.8-4.7s-1.4-2.6-2.4-3.4s-2.4-1.3-3.9-1.3c-1.5,0-2.8,0.4-3.9,1.3
			s-1.9,2-2.4,3.4s-0.8,3-0.8,4.7v0.5C1326.6,2463.3,1326.8,2464.9,1327.4,2466.3z"/>
		<path class="st2" d="M1362.1,2448.3c0.4,0.1,0.7,0.1,0.9,0.2v4c-0.7-0.1-1.4-0.2-2.1-0.2c-1.4,0-2.6,0.3-3.6,1s-1.7,1.5-2.2,2.7
			v18h-4.4v-25.4h4.3l0.1,2.9c0.7-1.1,1.5-1.9,2.5-2.5s2.2-0.9,3.5-0.9C1361.4,2448.2,1361.7,2448.2,1362.1,2448.3z"/>
		<path class="st2" d="M1400.4,2450.4c1.4,1.5,2.2,3.8,2.2,6.9v16.7h-4.4v-16.7c0-2-0.5-3.4-1.4-4.3s-2.3-1.2-4-1.2
			c-1.1,0-2.1,0.2-3,0.7s-1.5,1.1-2,1.9s-0.8,1.7-0.9,2.7v16.8h-4.4v-16.7c0-3.7-1.8-5.5-5.4-5.5c-1.5,0-2.7,0.3-3.6,0.9
			s-1.7,1.5-2.2,2.6v18.6h-4.4v-25.4h4.1l0.1,2.7c0.9-1,1.9-1.8,3.2-2.4s2.7-0.8,4.3-0.8c1.7,0,3.1,0.3,4.4,1s2.2,1.7,2.8,3
			c0.9-1.2,2-2.2,3.4-3s2.9-1.1,4.7-1.1C1396.8,2448.2,1398.9,2448.9,1400.4,2450.4z"/>
	</g>
	<g class="st1">
		<path class="st2" d="M1509.9,2397.9l-17.5,76.1h-9h-4.1l-14.2-55l-14.5,55h-8.6h-4.5l-17.5-76.1h13.4l11.7,56.7l14.3-56.7h8.3h3.1
			l14.1,56.9l11.5-56.9H1509.9z"/>
		<path class="st2" d="M1511.6,2446.8v-10.4h27.6v10.4H1511.6z"/>
		<path class="st2" d="M1549.2,2474v-9l24.8-26.9c2.7-3,4.8-5.6,6.4-7.8c1.5-2.2,2.6-4.1,3.3-5.9c0.6-1.7,1-3.5,1-5.2
			c0-3.6-1-6.4-3-8.6c-2-2.2-4.7-3.3-8.2-3.3c-4.1,0-7.3,1.3-9.4,3.8s-3.3,5.9-3.3,10.1h-13c0-4.5,1-8.6,3.1-12.3
			c2.1-3.7,5-6.6,8.9-8.8c3.9-2.2,8.5-3.2,13.8-3.2c5.1,0,9.4,0.9,13,2.6c3.6,1.7,6.3,4.1,8.2,7.3s2.8,6.9,2.8,11.2
			c0,4.5-1.3,8.9-4,13.3c-2.6,4.4-6.5,9.3-11.6,14.7l-16.5,17.7h35v10.4H1549.2z"/>
	</g>
	<path class="st2" d="M1320.5,2333.3v25.4c0,1.7-1.3,3-3,3c0,0-0.1,0-0.1,0H1292c-1.7,0-3-1.3-3-3c0,0,0,0,0-0.1v-25.4
		c0-1.7,1.3-3,3-3c0,0,0,0,0.1,0h25.4C1319.1,2330.2,1320.5,2331.6,1320.5,2333.3C1320.5,2333.2,1320.5,2333.3,1320.5,2333.3z
		 M1317.9,2358.7v-25.4c0-0.2-0.2-0.4-0.4-0.4h-0.7l-7.8,5.2l-4.3-3.5l-4.3,3.5l-7.8-5.3h-0.7c-0.2,0-0.4,0.2-0.4,0.4v25.4
		c0,0.2,0.2,0.4,0.4,0.4h25.4C1317.7,2359.1,1317.9,2358.9,1317.9,2358.7L1317.9,2358.7z M1299.6,2341.1v2.6h-5.2v-2.6H1299.6z
		 M1299.6,2346.3v2.6h-5.2v-2.6H1299.6z M1300.3,2335.9l3.8-3.1h-8.3L1300.3,2335.9z M1315.1,2341.1v2.6h-13.8v-2.6H1315.1z
		 M1315.1,2346.3v2.6h-13.8v-2.6H1315.1z M1309.2,2335.9l4.5-3.1h-8.3L1309.2,2335.9L1309.2,2335.9z M1315.1,2351.5v2.6h-7v-2.6
		L1315.1,2351.5L1315.1,2351.5z"/>
</g>
</svg>
