<?xml version="1.0" encoding="utf-8"?>
<!-- Generator: Adobe Illustrator 23.0.6, SVG Export Plug-In . SVG Version: 6.00 Build 0)  -->
<svg version="1.1" id="Layer_1" xmlns="http://www.w3.org/2000/svg" xmlns:xlink="http://www.w3.org/1999/xlink" x="0px" y="0px"
	 viewBox="0 0 450 222" style="enable-background:new 0 0 450 222;" xml:space="preserve">
<style type="text/css">
	.st0{fill:#2E5987;}
	.st1{enable-background:new    ;}
	.st2{fill:#FFFFFF;}
	.st3{font-family:'Heebo-Medium';}
	.st4{font-size:48px;}
</style>
<g transform="translate(-735 -2305)">
	<rect x="735" y="2305" class="st0" width="450" height="222"/>
	<g class="st1">
		<path class="st2" d="M774.5,2443.6v11.7h14.3v3.7h-14.3v15.1H770v-34.1h4.5h16.6v3.7H774.5z"/>
		<path class="st2" d="M795.6,2454.5c0.9-2,2.3-3.5,4-4.6s3.8-1.7,6.1-1.7c2.3,0,4.4,0.6,6.1,1.7s3.1,2.7,4,4.6s1.4,4.2,1.4,6.6v0.5
			c0,2.5-0.5,4.7-1.4,6.6s-2.3,3.5-4,4.6s-3.8,1.7-6.1,1.7s-4.4-0.6-6.1-1.7s-3.1-2.6-4-4.6s-1.4-4.1-1.4-6.6v-0.5
			C794.2,2458.6,794.7,2456.4,795.6,2454.5z M799.4,2466.3c0.5,1.4,1.3,2.6,2.4,3.4s2.4,1.3,3.9,1.3c1.5,0,2.8-0.4,3.9-1.3
			s1.9-2,2.4-3.4s0.8-3,0.8-4.7v-0.5c0-1.7-0.3-3.3-0.8-4.7s-1.4-2.6-2.4-3.4s-2.4-1.3-3.9-1.3c-1.5,0-2.8,0.4-3.9,1.3
			s-1.9,2-2.4,3.4s-0.8,3-0.8,4.7v0.5C798.6,2463.3,798.8,2464.9,799.4,2466.3z"/>
		<path class="st2" d="M834.1,2448.3c0.4,0.1,0.7,0.1,0.9,0.2v4c-0.7-0.1-1.4-0.2-2.1-0.2c-1.4,0-2.6,0.3-3.6,1s-1.7,1.5-2.2,2.7v18
			h-4.4v-25.4h4.3l0.1,2.9c0.7-1.1,1.5-1.9,2.5-2.5s2.2-0.9,3.5-0.9C833.4,2448.2,833.7,2448.2,834.1,2448.3z"/>
		<path class="st2" d="M872.4,2450.4c1.4,1.5,2.2,3.8,2.2,6.9v16.7h-4.4v-16.7c0-2-0.5-3.4-1.4-4.3s-2.3-1.2-4-1.2
			c-1.1,0-2.1,0.2-3,0.7s-1.5,1.1-2,1.9s-0.8,1.7-0.9,2.7v16.8h-4.4v-16.7c0-3.7-1.8-5.5-5.4-5.5c-1.5,0-2.7,0.3-3.6,0.9
			s-1.7,1.5-2.2,2.6v18.6H839v-25.4h4.1l0.1,2.7c0.9-1,1.9-1.8,3.2-2.4s2.7-0.8,4.3-0.8c1.7,0,3.1,0.3,4.4,1s2.2,1.7,2.8,3
			c0.9-1.2,2-2.2,3.4-3s2.9-1.1,4.7-1.1C868.8,2448.2,870.9,2448.9,872.4,2450.4z"/>
	</g>
	<text transform="matrix(1 0 0 1 877.7734 2474)" class="st2 st3 st4"> </text>
	<g class="st1">
		<path class="st2" d="M917.1,2474v-60.7l-18.5,6.2v-10.9l29.9-11h1.6v76.3H917.1z"/>
		<path class="st2" d="M981.2,2475c-7.9,0-14.1-2.6-18.5-7.9c-4.4-5.3-6.6-13.6-6.6-25.1v-12.4c0-11.5,2.2-19.8,6.5-24.9
			c4.4-5.2,10.5-7.8,18.4-7.8s14.1,2.6,18.5,7.8c4.4,5.2,6.6,13.5,6.6,24.9v12.4C1006.1,2464,997.8,2475,981.2,2475z M990.1,2412
			c-2-3.1-5-4.7-9-4.7c-4,0-7,1.6-9,4.7c-2,3.1-3,8.3-3,15.6v16.2c0,7.3,1,12.6,3.1,15.9c2,3.3,5,4.9,9,4.9c4,0,7-1.6,9-4.8
			c2-3.2,3-8.5,3-15.9v-16.2C993.1,2420.3,992.1,2415.1,990.1,2412z"/>
		<path class="st2" d="M1054.8,2401c3.8,2.7,6.6,6.4,8.5,11.1c1.9,4.7,2.9,9.9,2.9,15.7v4.3c0,12.5-2.9,22.7-8.8,30.6
			c-5.8,7.8-15.5,11.8-28.9,11.8h-1v-10.9h0.9c8.4,0,14.5-1.9,18.3-5.6c3.8-3.7,5.9-8.9,6.4-15.6c-2,2.1-4.2,3.7-6.8,4.9
			c-2.6,1.2-5.2,1.8-8,1.8c-4.7,0-8.8-1.2-12-3.5c-3.3-2.3-5.8-5.4-7.4-9.3c-1.7-3.9-2.5-8.1-2.5-12.7c0-4.9,1-9.4,3-13.5
			c2-4,4.8-7.2,8.5-9.6c3.7-2.4,8.1-3.5,13.2-3.5C1046.5,2396.9,1051,2398.3,1054.8,2401z M1048.4,2436.6c2.1-1.5,3.8-3.4,4.9-5.8
			v-5.1c0-3.9-0.5-7.2-1.6-9.9c-1.1-2.8-2.6-4.8-4.4-6.2c-1.8-1.4-3.9-2.1-6.1-2.1c-2.4,0-4.5,0.7-6.3,2.1c-1.8,1.4-3.1,3.3-4.1,5.7
			s-1.4,5-1.4,7.9c0,2.8,0.4,5.4,1.3,7.8c0.9,2.4,2.2,4.3,4,5.7c1.8,1.4,4,2.1,6.6,2.1C1043.8,2438.8,1046.2,2438,1048.4,2436.6z"/>
		<path class="st2" d="M1124.7,2442.2c2.2,3.2,3.3,6.9,3.3,11c0,4.6-1.1,8.5-3.2,11.8c-2.2,3.3-5.1,5.8-8.9,7.4
			c-3.8,1.7-8.1,2.5-12.9,2.5s-9.1-0.8-12.9-2.5c-3.8-1.7-6.7-4.2-8.9-7.4c-2.2-3.3-3.2-7.2-3.2-11.8c0-4.2,1.1-7.9,3.2-11.1
			c2.2-3.2,5.2-5.7,9-7.4c-3.3-1.7-5.9-4-7.8-6.9s-2.8-6.2-2.8-9.8c0-4.4,1-8.2,3-11.4c2-3.2,4.7-5.6,8.3-7.2
			c3.5-1.7,7.6-2.5,12.1-2.5c4.6,0,8.6,0.8,12.1,2.5c3.5,1.7,6.3,4.1,8.3,7.2c2,3.2,3,7,3,11.4c0,3.6-0.9,6.9-2.8,9.8
			s-4.5,5.2-7.8,6.9C1119.5,2436.5,1122.5,2439,1124.7,2442.2z M1111.7,2461.4c2.1-2.1,3.2-5.1,3.2-8.9c0-2.5-0.5-4.6-1.5-6.5
			c-1-1.9-2.4-3.3-4.2-4.3c-1.8-1-3.9-1.5-6.3-1.5c-2.4,0-4.5,0.5-6.3,1.5c-1.8,1-3.2,2.5-4.2,4.3s-1.5,4-1.5,6.5
			c0,3.8,1.1,6.7,3.2,8.9c2.1,2.1,5.1,3.2,8.8,3.2C1106.7,2464.6,1109.6,2463.5,1111.7,2461.4z M1095.4,2410.3
			c-1.9,2-2.8,4.7-2.8,8.1c0,3.4,0.9,6.1,2.8,8.2c1.9,2.1,4.4,3.1,7.5,3.1c3.2,0,5.7-1,7.6-3.1c1.8-2,2.8-4.8,2.8-8.2
			c0-3.3-0.9-6-2.8-8c-1.9-2.1-4.4-3.1-7.5-3.1C1099.8,2407.3,1097.3,2408.3,1095.4,2410.3z"/>
	</g>
	<path class="st2" d="M797.5,2333.3v25.4c0,1.7-1.3,3-3,3c0,0-0.1,0-0.1,0H769c-1.7,0-3-1.3-3-3c0,0,0,0,0-0.1v-25.4
		c0-1.7,1.3-3,3-3c0,0,0,0,0.1,0h25.4C796.1,2330.2,797.5,2331.6,797.5,2333.3C797.5,2333.2,797.5,2333.3,797.5,2333.3z
		 M794.9,2358.7v-25.4c0-0.2-0.2-0.4-0.4-0.4h-0.7l-7.8,5.2l-4.3-3.5l-4.3,3.5l-7.8-5.3H769c-0.2,0-0.4,0.2-0.4,0.4v25.4
		c0,0.2,0.2,0.4,0.4,0.4h25.4C794.7,2359.1,794.9,2358.9,794.9,2358.7L794.9,2358.7z M776.6,2341.1v2.6h-5.2v-2.6H776.6z
		 M776.6,2346.3v2.6h-5.2v-2.6H776.6z M777.3,2335.9l3.8-3.1h-8.3L777.3,2335.9z M792.1,2341.1v2.6h-13.8v-2.6H792.1z M792.1,2346.3
		v2.6h-13.8v-2.6H792.1z M786.2,2335.9l4.5-3.1h-8.3L786.2,2335.9L786.2,2335.9z M792.1,2351.5v2.6h-7v-2.6L792.1,2351.5
		L792.1,2351.5z"/>
</g>
</svg>
