<svg xmlns="http://www.w3.org/2000/svg" xmlns:xlink="http://www.w3.org/1999/xlink" width="578.943" height="421.771" viewBox="0 0 578.943 421.771"><defs><linearGradient id="a" x1="0.5" y1="1" x2="0.5" gradientUnits="objectBoundingBox"><stop offset="0" stop-color="gray" stop-opacity="0.251"/><stop offset="0.54" stop-color="gray" stop-opacity="0.122"/><stop offset="1" stop-color="gray" stop-opacity="0.102"/></linearGradient><linearGradient id="b" x1="0.5" y1="1" x2="0.5" y2="0" xlink:href="#a"/><linearGradient id="c" x1="0" y1="0.5" x2="1" y2="0.5" xlink:href="#a"/><linearGradient id="d" x1="0.5" y1="1" x2="0.5" y2="0" xlink:href="#a"/><linearGradient id="e" x1="-1.487" y1="0.893" x2="-1.487" y2="0.279" xlink:href="#a"/><linearGradient id="f" x1="-2.825" y1="0.844" x2="-2.825" y2="0.229" xlink:href="#a"/><linearGradient id="g" x1="-0.315" y1="0.895" x2="-0.315" y2="0.281" xlink:href="#a"/><linearGradient id="h" x1="-1.653" y1="0.845" x2="-1.653" y2="0.231" xlink:href="#a"/><linearGradient id="i" x1="-0.341" y1="5.17" x2="-0.341" y2="4.346" xlink:href="#a"/><linearGradient id="j" x1="2.396" y1="7.371" x2="2.396" y2="6.327" xlink:href="#a"/></defs><g transform="translate(-211.057 -1695.246)"><path d="M378.217,456.363A210.052,210.052,0,0,1,203.86,363.554l31.048-20.89a172.728,172.728,0,1,0,0-192.9L203.86,128.827A210.148,210.148,0,1,1,378.217,456.363Z" transform="translate(125.851 1659.201)" fill="#f4a50f"/><g transform="translate(248.056 1862.968)"><path d="M441.437,679.005c0,9.762-7.837,18.9-21.512,26.766H161.611c-11.952,0-23.145-5.583-32.738-15.32A20.788,20.788,0,0,1,125.19,679c0-10.376,8.862-20.061,24.183-28.247h0l.432-.223a133.019,133.019,0,0,1,14.44-6.481c.133-.052.269-.1.4-.159h0q6.287-2.384,13.375-4.518c.15-.043.3-.09.446-.125,1.823-.558,3.682-1.078,5.582-1.6h0l.732-.2a329.6,329.6,0,0,1,46.57-8.633h.02q3.579-.43,7.235-.769c2.711-.279,5.455-.515,8.23-.734,2.119-.176,4.264-.326,6.417-.464a.05.05,0,0,1,.05,0c9.71-.631,19.742-.962,30-.962a429.987,429.987,0,0,1,70.59,5.583.138.138,0,0,1,.06,0c3.267.55,6.473,1.13,9.6,1.748.895.18,1.786.361,2.661.545q5.292,1.1,10.312,2.332h0C415.877,645.758,441.437,661.387,441.437,679.005Z" transform="translate(-95.315 -451.722)" fill="#2e5987" opacity="0.1"/><path d="M748.811,218.784s-3.519-1.427-14.716,3.706S721.5,226.973,718.6,226.2s-4.514-.971-7.621-5.259c0,0-2.192-11.879-4.324-13.721s-11.133,1.051-11.133,1.051-10.807,2.478-12.867-11.975c0,0,1.46-10.884-.529-14.224,0,0,4.018,1.73,10.644-1.064s11.932,3.01,11.932,3.01,1.663,4.324,1.5,6.906.885,3.549,4.045,2.3c0,0,1.553-2.209-.645-5.861s-3.769-6.37-3.157-9.2,2.378-6.769,8.05-8.735,13.372-2.328,17.068-3.882S736.171,163,736.171,163s-2.275,2.279,3.084,11.942S741.2,188.8,741.2,188.8s-2.851,6.8-15.438,6.244c0,0-12.128.442-5.515,5.585,0,0,4.234-.862,10.565-2.874s10.9,6.294,12.035,12.072A15.214,15.214,0,0,0,748.811,218.784Z" transform="translate(-466.995 -142.807)" fill="#7ea44b"/><path d="M814.413,184.96l.067-.02c.486,1.843-4.933,9.254-9.567,15.145l-.053-.043C811.393,191.746,814.789,186.387,814.413,184.96Z" transform="translate(-548.9 -157.449)" fill="#444053"/><path d="M778.646,230l.03.073c-3.7,4.7-8.356,10.312-12.081,14.48-.356.4-.708.812-1.048,1.237l-.107-.087c.333-.426.7-.845,1.051-1.241C770.213,240.312,774.94,234.707,778.646,230Z" transform="translate(-522.593 -187.52)" fill="#444053"/><path d="M748.452,276.89l.073.126c-6.779,8.466-7.228,21.622-7.245,21.725l-1.43-1.663C739.867,296.971,741.626,285.416,748.452,276.89Z" transform="translate(-505.515 -218.813)" fill="#444053"/><path d="M753.11,261.215s-7.983-4.158-14.224-2.661-20.274-5.289-20.274-5.289-5.954-2.418-7.152-5.176c0,0-4.088-4.324-4.324-6.556s-4.211-7.857-6.806-8.073" transform="translate(-479.141 -189.829)" fill="none" stroke="#444053" stroke-miterlimit="10" stroke-width="1"/><path d="M848.26,317.144s-4.025-2.714-3.556-5.874" transform="translate(-575.465 -241.757)" fill="none" stroke="#444053" stroke-miterlimit="10" stroke-width="1"/><path d="M824.23,318.825s-5.758-2.089-6.32-10.285" transform="translate(-557.609 -239.935)" fill="none" stroke="#444053" stroke-miterlimit="10" stroke-width="1"/><path d="M800.881,320.681a12.883,12.883,0,0,1-3.676-12.54" transform="translate(-543.544 -239.668)" fill="none" stroke="#444053" stroke-miterlimit="10" stroke-width="1"/><path d="M771.894,313.694s-3.659-7.684-.4-12.684" transform="translate(-525.731 -234.91)" fill="none" stroke="#444053" stroke-miterlimit="10" stroke-width="1"/><path d="M852.419,301.67s-4.161,1.331-3.27,3.513" transform="translate(-578.373 -235.35)" fill="none" stroke="#444053" stroke-miterlimit="10" stroke-width="1"/><path d="M832.691,279s-5.572,1.766-5.7,9.647" transform="translate(-563.669 -220.221)" fill="none" stroke="#444053" stroke-miterlimit="10" stroke-width="1"/><path d="M811.3,273.48s-5.073,6.26-4.7,11.948" transform="translate(-550.049 -216.537)" fill="none" stroke="#444053" stroke-miterlimit="10" stroke-width="1"/><path d="M785.141,280.86s-5.036,4.817-4.394,7.494" transform="translate(-532.77 -221.462)" fill="none" stroke="#444053" stroke-miterlimit="10" stroke-width="1"/><path d="M774.135,274.335s-4.723.845-5.385-.705" transform="translate(-524.802 -216.637)" fill="none" stroke="#444053" stroke-miterlimit="10" stroke-width="1"/><path d="M766.49,258.61s2.385,3.16,2.994,2.452" transform="translate(-523.294 -206.613)" fill="none" stroke="#444053" stroke-miterlimit="10" stroke-width="1"/><path d="M808.313,247.128s-11.908.865-14.6-2.728" transform="translate(-541.459 -197.13)" fill="none" stroke="#444053" stroke-miterlimit="10" stroke-width="1"/><path d="M759,210.73s5.585,11.992,9.647,13.518" transform="translate(-518.295 -174.66)" fill="none" stroke="#444053" stroke-miterlimit="10" stroke-width="1"/><path d="M776.58,193.56s3.429,11.03,7.681,14.473" transform="translate(-530.027 -163.202)" fill="none" stroke="#444053" stroke-miterlimit="10" stroke-width="1"/><path d="M823.6,225.137s-9.054,3.885-14.49-.047" transform="translate(-551.737 -184.244)" fill="none" stroke="#444053" stroke-miterlimit="10" stroke-width="0.75"/><path d="M800.82,186.49s2.069,8.106,4.856,10.066" transform="translate(-546.204 -158.483)" fill="none" stroke="#444053" stroke-miterlimit="10" stroke-width="0.75"/><path d="M834.545,197.92s-5.089,1.929-6.986.452" transform="translate(-564.049 -166.111)" fill="none" stroke="#444053" stroke-miterlimit="10" stroke-width="0.75"/><path d="M749.523,266.57s0,7.069-1.923,7.571" transform="translate(-510.687 -211.926)" fill="none" stroke="#444053" stroke-miterlimit="10" stroke-width="1"/><path d="M706.09,287.5s7.651.665,11.167-3.29" transform="translate(-482.985 -223.698)" fill="none" stroke="#444053" stroke-miterlimit="10" stroke-width="1"/><path d="M733.512,241.47s-1.85,7.168-6.952,9.1" transform="translate(-496.646 -195.175)" fill="none" stroke="#444053" stroke-miterlimit="10" stroke-width="1"/><path d="M692.31,265.567a10.01,10.01,0,0,0,10.062-2.907" transform="translate(-473.789 -209.316)" fill="none" stroke="#444053" stroke-miterlimit="10" stroke-width="1"/><path d="M721.709,222.94s-.509,6.087-3.819,8.938" transform="translate(-490.86 -182.809)" fill="none" stroke="#444053" stroke-miterlimit="10" stroke-width="1"/><path d="M692.93,240.634s4.487.03,5.538-1.434" transform="translate(-474.203 -193.66)" fill="none" stroke="#444053" stroke-miterlimit="10" stroke-width="1"/><rect width="127.8" height="64.512" transform="translate(123.383 70.089)" fill="#3c3c3c"/><rect width="207.827" height="42.465" transform="translate(83.573 154.2)" fill="#33323d"/><path d="M379.617,510.35H486.184L507.417,581.8H357.16Z" transform="translate(-246.434 -345.535)" fill="#fff"/><path d="M257.73,402.33v67.779h39.81V430.914H437.588v39.195H477.4V402.33Z" transform="translate(-180.078 -273.447)" fill="#727677"/><rect width="219.669" height="22.047" transform="translate(77.652 128.883)" fill="#3c3c3c" opacity="0.1"/><circle cx="3.267" cy="3.267" r="3.267" transform="translate(282.215 136.643)" fill="#8ccf4d" opacity="0.8"/><circle cx="3.267" cy="3.267" r="3.267" transform="translate(267.516 136.643)" fill="#f4a50f" opacity="0.8"/><rect width="118.41" height="70.227" transform="translate(128.08 54.571)" fill="#fff"/><rect width="118.41" height="37.227" transform="translate(128.08 54.571)" fill="#2e5987" opacity="0.13"/><path d="M789.063,565.374c.25,2.718-1.8,5.355-1.2,8.017.126.569.372,1.108.462,1.663.246,1.58-.7,3.077-1.6,4.4L779,590.824a7.053,7.053,0,0,1-1.1,1.364c-1.48,1.331-3.7,1.178-5.635,1.57a9.674,9.674,0,0,0-3.776,1.663.246.246,0,0,0-.05.333,3.25,3.25,0,0,0,2.807,1.331c.2.266,0,.665-.279.852-.416.286-1,.363-1.068,1.068a1.17,1.17,0,0,0,.14.708,2.2,2.2,0,0,0,1.354.938c2.661.818,5.565-.619,7.567-2.575s3.44-4.424,5.405-6.417c1.088-1.1,2.328-2.046,3.446-3.113a38.692,38.692,0,0,0,5.655-7.318,8.05,8.05,0,0,0,1.224-2.492c.206-.885.113-1.82.353-2.7a9.967,9.967,0,0,1,1.853-3.027A10,10,0,0,0,799,566.485a6.25,6.25,0,0,0-3.815-5.412,3.422,3.422,0,0,0-2.139-.13,5.073,5.073,0,0,0-2.179,1.733l-1.467,1.693a4.086,4.086,0,0,0-.855,1.3,1.354,1.354,0,0,0,.3,1.444" transform="translate(-524.561 -408.303)" fill="#fbbebe"/><path d="M789.063,565.374c.25,2.718-1.8,5.355-1.2,8.017.126.569.372,1.108.462,1.663.246,1.58-.7,3.077-1.6,4.4L779,590.824a7.053,7.053,0,0,1-1.1,1.364c-1.48,1.331-3.7,1.178-5.635,1.57a9.674,9.674,0,0,0-3.776,1.663.246.246,0,0,0-.05.333,3.25,3.25,0,0,0,2.807,1.331c.2.266,0,.665-.279.852-.416.286-1,.363-1.068,1.068a1.17,1.17,0,0,0,.14.708,2.2,2.2,0,0,0,1.354.938c2.661.818,5.565-.619,7.567-2.575s3.44-4.424,5.405-6.417c1.088-1.1,2.328-2.046,3.446-3.113a38.692,38.692,0,0,0,5.655-7.318,8.05,8.05,0,0,0,1.224-2.492c.206-.885.113-1.82.353-2.7a9.967,9.967,0,0,1,1.853-3.027A10,10,0,0,0,799,566.485a6.25,6.25,0,0,0-3.815-5.412,3.422,3.422,0,0,0-2.139-.13,5.073,5.073,0,0,0-2.179,1.733l-1.467,1.693a4.086,4.086,0,0,0-.855,1.3,1.354,1.354,0,0,0,.3,1.444" transform="translate(-524.561 -408.303)" opacity="0.05"/><path d="M834.576,778.454a8.94,8.94,0,0,1-5.755.852c-.333-.037-.689-.06-.891.183-.293.356.053.875.409,1.161a8.561,8.561,0,0,0,3.955,1.627,26.757,26.757,0,0,0,3.865.256,65.5,65.5,0,0,0,10.565-.389,1.426,1.426,0,0,0,.576-.17,1.068,1.068,0,0,0,.436-.665,2.622,2.622,0,0,0-.915-2.511,7.958,7.958,0,0,0-2.465-1.33l-3.067-1.194c-.722-.283-1.876-1.025-2.661-.968C837.194,775.42,835.793,777.742,834.576,778.454Z" transform="translate(-564.223 -551.432)" fill="#3f3d56"/><path d="M834.576,778.454a8.94,8.94,0,0,1-5.755.852c-.333-.037-.689-.06-.891.183-.293.356.053.875.409,1.161a8.561,8.561,0,0,0,3.955,1.627,26.757,26.757,0,0,0,3.865.256,65.5,65.5,0,0,0,10.565-.389,1.426,1.426,0,0,0,.576-.17,1.068,1.068,0,0,0,.436-.665,2.622,2.622,0,0,0-.915-2.511,7.958,7.958,0,0,0-2.465-1.33l-3.067-1.194c-.722-.283-1.876-1.025-2.661-.968C837.194,775.42,835.793,777.742,834.576,778.454Z" transform="translate(-564.223 -551.432)" opacity="0.05"/><path d="M849.887,627.354c-1.274,1.7-2.6,3.659-2.282,5.765a12.811,12.811,0,0,0,1.271,3.183,22.43,22.43,0,0,1,1.287,4.471c.479,2.225.958,4.457,1.251,6.716.333,2.551-1.231,9.933-1.377,12.5a2.646,2.646,0,0,1-.539,1.736c-.17.176-.4.333-.469.549a.921.921,0,0,0,.1.645,7.159,7.159,0,0,0,3.832,3.526,30.4,30.4,0,0,0,7.395,1.943,1.4,1.4,0,0,0,.7-.093,1.331,1.331,0,0,0,.539-.615c1.284-2.452.05-11.18.07-13.951,0-2.328.562-4.6.462-6.912-.083-1.853-.579-3.659-.758-5.508a32.465,32.465,0,0,1,.818-9.064c.426-2.292.852-4.587,1.4-6.856a13.218,13.218,0,0,1,1.48-3.992c.6-.955,1.42-1.75,2.109-2.661a11.975,11.975,0,0,0,2.358-8.775c-.04-.306-4.431,1.114-4.813,1.281a15.074,15.074,0,0,0-4.288,2.761,39.045,39.045,0,0,0-2.7,3.343q-1.886,2.3-3.722,4.627Q851.913,624.653,849.887,627.354Z" transform="translate(-577.395 -441.064)" fill="#464353"/><path d="M849.887,627.1c-1.274,1.7-2.6,3.659-2.282,5.768a12.839,12.839,0,0,0,1.271,3.18,22.493,22.493,0,0,1,1.287,4.471c.479,2.225.958,4.458,1.251,6.716.333,2.551-1.231,9.936-1.377,12.507a2.636,2.636,0,0,1-.539,1.733c-.17.176-.4.333-.469.549a.934.934,0,0,0,.1.665,7.153,7.153,0,0,0,3.832,3.523,29.289,29.289,0,0,0,7.395,1.387,1.4,1.4,0,0,0,.7-.093,1.331,1.331,0,0,0,.539-.615c1.284-2.452.05-10.624.07-13.392,0-2.328.562-4.607.462-6.916-.083-1.853-.579-3.659-.758-5.508a32.431,32.431,0,0,1,.818-9.061c.426-2.3.852-4.59,1.4-6.859a13.218,13.218,0,0,1,1.48-3.992c.6-.951,1.42-1.75,2.109-2.641a12,12,0,0,0,2.358-8.775c-.04-.309-4.431,1.111-4.813,1.281a14.988,14.988,0,0,0-4.288,2.767,42.118,42.118,0,0,0-2.7,3.326q-1.886,2.3-3.722,4.63Q851.913,624.408,849.887,627.1Z" transform="translate(-577.395 -440.916)" opacity="0.05"/><circle cx="7.162" cy="7.162" r="7.162" transform="translate(251.13 134.541)" fill="#fbbebe"/><path d="M817.526,524.643a9.294,9.294,0,0,0,5.944,4.158l-.539,1.953c-.931,3.37-2,6.932-4.581,9.267a4.34,4.34,0,0,0-.728-3.35,12.849,12.849,0,0,0-2.432-2.541l-4.121-3.586a1.23,1.23,0,0,1-.309-.333,1.068,1.068,0,0,1,0-.785c.526-1.633,2.026-2.661,3.24-3.759a11.512,11.512,0,0,0,1.63-1.9C816.475,522.594,816.984,523.768,817.526,524.643Z" transform="translate(-552.788 -383.24)" fill="#fbbebe"/><path d="M779.876,495.147l-.16-1.331c1.131.293,2.2-.665,2.924-1.663s1.394-2.169,2.495-2.581c1.331-.506,2.754.3,4.032.968a12.771,12.771,0,0,0,4.63,1.514,2.993,2.993,0,0,1,.765.126,2.646,2.646,0,0,1,1.347,2.285,8.811,8.811,0,0,0,.5,2.8c.309.639.845,1.114,1.171,1.743.875,1.7.03,4.012.955,5.675l-2.3-2.106c-.213-.193-.509-.393-.739-.23s-.2.409-.273.632a1.2,1.2,0,0,1-1.633.6,4.471,4.471,0,0,1-1.46-1.331,8.887,8.887,0,0,0-3.659-2.761,4.677,4.677,0,0,0-3.855.23c-1.071.605-1.856,2.016-3.167,2.066-1.8.067-2.548-3.283-3.383-4.607a1.63,1.63,0,0,0,.472-2.032C778.689,495.081,779.853,494.931,779.876,495.147Z" transform="translate(-531.022 -360.643)" fill="#464353"/><path d="M860.594,776.313a7.571,7.571,0,0,1-5.149,1.919c-.482,0-1.151.093-1.154.575a.772.772,0,0,0,.14.4,4.735,4.735,0,0,0,2.661,2.082,9.455,9.455,0,0,0,3.213.206l3.143-.163c.592-.033,1.188-.063,1.78-.136s1.231-.2,1.849-.286a24.209,24.209,0,0,1,4.577-.216,1.359,1.359,0,0,0,1.128-.306c.253-.306.116-.858.023-1.3-.186-.911,0-1.866-.173-2.781a4.9,4.9,0,0,0-3.207-3.416c-1.414-.539-3.922-1.154-5.262-.259C862.726,773.6,861.861,775.165,860.594,776.313Z" transform="translate(-581.888 -549.348)" fill="#3f3d56"/><path d="M869.9,609.853c.279,1.331,1.553,2.328,1.593,3.659.03,1.078-.742,2-1.294,2.911a19.282,19.282,0,0,0-1.331,2.994,45.773,45.773,0,0,1-3.885,7.7c-.738,1.168-1.563,2.438-1.394,3.812a5.713,5.713,0,0,0,.665,1.823l2.212,4.394a12.642,12.642,0,0,1,1.131,2.778c.19.835.21,1.7.333,2.551.349,2.694,1.613,5.409.868,8.02-.067.226-.3.5-.476.333a8.3,8.3,0,0,1,1.261,4.288,5.9,5.9,0,0,0,.023,2.415,2.625,2.625,0,0,1,.333.951c0,.219-.1.429-.126.665a1.422,1.422,0,0,0,1.1,1.331c.6.19,1.237.183,1.836.363,1.154.333,1.973,1.331,2.961,2.022a6.223,6.223,0,0,0,3.4,1.108.851.851,0,0,0,.5-.1.812.812,0,0,0,.279-.609,3.373,3.373,0,0,0-1.218-2.931,1.354,1.354,0,0,1-.449-.472,1.131,1.131,0,0,1-.043-.529,39.5,39.5,0,0,0-.13-7.258,10.977,10.977,0,0,1-.116-2.308,8.967,8.967,0,0,0,.186-1.923,10.288,10.288,0,0,0-.589-1.84,13.208,13.208,0,0,1-.283-3.426,29.886,29.886,0,0,0-.971-5.894,4.408,4.408,0,0,0-.918-2.129c-.459-.479-1.2-.941-1.028-1.58a1.832,1.832,0,0,1,.419-.629,2.524,2.524,0,0,0,.529-1.926.858.858,0,0,0,1-.466,15.488,15.488,0,0,0,7.784-8.852,2.943,2.943,0,0,1,.333-.788,3.6,3.6,0,0,1,1.424-.925,10.806,10.806,0,0,0,3.746-3.815A8.861,8.861,0,0,0,891,612.8a9.084,9.084,0,0,0,.2-2l.09-3.466a1.867,1.867,0,0,0-.067-.665,1.606,1.606,0,0,0-.372-.549,6.676,6.676,0,0,0-3.659-2c-.945-.17-1.909-.136-2.864-.216-1.853-.153-3.682-.725-5.535-.592a8.855,8.855,0,0,0-6.879,4.81C871.435,609.051,870.93,609.853,869.9,609.853Z" transform="translate(-588.076 -436.646)" fill="#464353"/><path d="M827.55,539.784a3.8,3.8,0,0,1-.21,1.577,1.1,1.1,0,0,1-1.294.665c.15-.333-.249-.728-.619-.685a1.151,1.151,0,0,0-.818.7,2.581,2.581,0,0,0-.236,1.6,6.464,6.464,0,0,1,.406,2c-.083.566-.5,1.131-.276,1.663a2.7,2.7,0,0,0,.532.639,1.8,1.8,0,0,1-.19,2.478l5.582.11a3.943,3.943,0,0,0,.692,2.718,17.118,17.118,0,0,0,12.757,8.316,1.114,1.114,0,0,0-.266,1.7,1.572,1.572,0,0,0,1.79.1,13.085,13.085,0,0,0,1.537-1.148,4.694,4.694,0,0,1,3.153-.852c.7.067,1.377.293,2.079.333,2.069.11,3.845-1.377,5.825-2,1.45-.446,3.09-.446,4.324-1.351a1.715,1.715,0,0,0,.8-1.663,2.758,2.758,0,0,0-.6-.978,16.565,16.565,0,0,1-1.613-3.024,18.121,18.121,0,0,0-4.035-5.4,36.228,36.228,0,0,0-3.992-3.037,7.029,7.029,0,0,0-1.084-.665,11.36,11.36,0,0,1-1.484-.6,7.51,7.51,0,0,1-1.537-1.73c-1.108-1.291-2.808-1.886-4.171-2.9a10.231,10.231,0,0,0-2.814-1.906c-.529-.16-1.094-.173-1.627-.333-1.2-.366-2.082-1.437-3.267-1.87a13.87,13.87,0,0,0-2.96-.376A6.839,6.839,0,0,1,830.9,532.7a3.659,3.659,0,0,0-1-.572c-1.494-.456-1.617,2.328-1.756,3.3A29.721,29.721,0,0,0,827.55,539.784Z" transform="translate(-561.897 -389.116)" fill="#f4a50f"/><path d="M796.9,574.168c.25,2.718-1.8,5.352-1.2,8.017.126.569.373,1.108.462,1.663.249,1.58-.7,3.077-1.6,4.4l-7.727,11.343a7.058,7.058,0,0,1-1.1,1.364c-1.48,1.331-3.7,1.177-5.635,1.57a9.7,9.7,0,0,0-3.775,1.663.246.246,0,0,0-.05.333,3.24,3.24,0,0,0,2.807,1.331c.2.269,0,.665-.279.852-.416.289-1,.366-1.068,1.071a1.17,1.17,0,0,0,.14.708,2.212,2.212,0,0,0,1.354.938c2.661.818,5.565-.619,7.568-2.575s3.44-4.424,5.409-6.417c1.088-1.1,2.328-2.046,3.443-3.113a39.247,39.247,0,0,0,5.655-7.318,8.084,8.084,0,0,0,1.224-2.491c.206-.885.113-1.82.353-2.7a9.926,9.926,0,0,1,1.853-3.027,10,10,0,0,0,2.106-6.526,6.25,6.25,0,0,0-3.815-5.412,3.4,3.4,0,0,0-2.139-.13,5.092,5.092,0,0,0-2.179,1.733l-1.467,1.693a4.022,4.022,0,0,0-.852,1.3,1.347,1.347,0,0,0,.3,1.44" transform="translate(-529.793 -414.153)" fill="#fbbebe"/><path d="M840.109,549.593a4.244,4.244,0,0,0-2.854.885,4.1,4.1,0,0,0-.719,1.124,11.247,11.247,0,0,0-1.424,4.484,21.168,21.168,0,0,0,.516,3.749,13.757,13.757,0,0,1-.333,3.147,21.87,21.87,0,0,0,4.068-1.563,13.456,13.456,0,0,1,2.378-1.237c1.214-.4,3.253.289,4.4.858.063-.812-.542-2.219-.479-3.03a3.432,3.432,0,0,1,.18-1,6.146,6.146,0,0,1,.609-.968,3.965,3.965,0,0,0-.356-4.657,6.4,6.4,0,0,0-4.151-1.76,18,18,0,0,0-2.9-.1" transform="translate(-569.088 -400.745)" fill="#f4a50f"/><path d="M290.018,374.214l-6.56-9.513a8.967,8.967,0,0,0-.552-2.9c-.429-.549-.093-1.773-.093-1.773s.462-.665.063-.735-.063-1.56-.063-1.56l-.03-2.385s.369-2.3.063-2.844a.9.9,0,0,1,.03-.981s.366-1.314,0-1.663-.276-2.385-.186-4.008a6.089,6.089,0,0,0-.642-2.781c0-.243-2.422-2.631-2.422-2.847a5.876,5.876,0,0,0-2.455-1.331c-.921-.23-1.377-.429-1.347-.552s-1.44-.609-1.44-.609a2.91,2.91,0,0,1-1.78-.735c-.492-.642-2-.828-2.032-.835l-.03-.126a.69.69,0,0,0-.027-.14,6.443,6.443,0,0,0,.333-.6l.086-.186a2.6,2.6,0,0,0,1.507-.469,2.039,2.039,0,0,0,.735-1.467,3.207,3.207,0,0,0-.359-1.63,2.729,2.729,0,0,1-.526-1.72c.06-.256.213-.482.293-.735a1.943,1.943,0,0,0-.22-1.45c-.233-.442-.556-.835-.815-1.264a4.988,4.988,0,0,1-.649-1.79,2.757,2.757,0,0,0-.236-.975,1.819,1.819,0,0,0-.539-.542,5.382,5.382,0,0,0-3.3-1,16.128,16.128,0,0,1-2.495.15,8.933,8.933,0,0,1-1.457-.379,3.758,3.758,0,0,0-3.11.16c-.895.589-1.251,1.746-1.859,2.661a19.345,19.345,0,0,0-1.73,2.328v-.047a2.786,2.786,0,0,0-.229.615,4.384,4.384,0,0,0,.136,2.029,1.411,1.411,0,0,0,.5.9,2.861,2.861,0,0,0,1.071.213l-.04.173a7,7,0,0,0,4.86,8.143v.186a4.455,4.455,0,0,1-.033.526h0s-3.084-.635-3.912-.206-2.452.765-2.7,1-.858.063-1.41,1.5-.612,2.9-1.331,3.579-1.071,1.131-1.1,1.62.093.612-.183.765-.665.8-.552,1.041a.868.868,0,0,1-.333.915,1.018,1.018,0,0,0-.429.918s-.186.665-.615.828-.705,1.161-.705,1.161l-1.39,1.6-2.754-3.047a1.164,1.164,0,0,0-1.64-.083l-1.354,1.217a2.681,2.681,0,0,0-1.354.8,3.606,3.606,0,0,0-.7,1.044l-.738.665a1.886,1.886,0,0,0-.193,2.079l1.766,1.953v.017a3.127,3.127,0,0,0-1.706.7c-2.634,2.329-2.661,4.467-2.269,5.445s3.739,4.74,3.739,4.74a14.924,14.924,0,0,0,4.747,3.865h0l-.02.023a2.308,2.308,0,0,0-.163.19l-.047.06-.043.06-.05.073a.581.581,0,0,0-.037.06l-.053.087a.538.538,0,0,0-.033.06c-.023.04-.043.08-.063.12q-.011.019-.02.04c-.027.053-.053.106-.077.166l-.027.06c-.017.04-.03.08-.047.123a.746.746,0,0,0-.027.08l-.04.12a.664.664,0,0,0-.027.086.727.727,0,0,1-.037.133c-.01.047-.017.053-.023.083s-.033.143-.047.22a.167.167,0,0,1-.017.086.8.8,0,0,0-.027.156.426.426,0,0,0,0,.113l-.02.15v.12a.622.622,0,0,1-.017.173c-.017.06,0,.07,0,.106v.3a16.94,16.94,0,0,0,.15,4.1,2,2,0,0,0,1.627,1.221,2.027,2.027,0,0,0,.522-.027c1.6-.276,5.322-.918,6.653-.665a11.435,11.435,0,0,0,3.306-.269l.276-.053.19.609.605-.166.516.3.333.19c.605,2.049,3.06,1.35,3.06,1.35l.582.333,5.918.153a11.879,11.879,0,0,0,2.1,1,1.617,1.617,0,0,0,.3.066,13.168,13.168,0,0,0,1.663.03c.452,0,.8-.03.8-.03s-.06-1.607-.146-3.406a48.287,48.287,0,0,0,5.482-.449c3.16-.552,4.477-3.426,4.963-4.963a14.5,14.5,0,0,1,.309,1.906,13.834,13.834,0,0,0,.492,1.663,5.547,5.547,0,0,0,.665,1.224c2.328-.8.918-2,.429-2.508s.333-.948.333-.948.645-.429.582-.825-.093-.825,2-.8S290.018,374.214,290.018,374.214Zm-32.373-19.529a15.868,15.868,0,0,0,.579,2.555,3.324,3.324,0,0,1,.07,1c-1.234-.1-2.521-.153-2.521-.153a.312.312,0,0,1,.067.156l-.2-.043-.279-.067,2.275-3.463Zm-4.511,7.172,2.139.333.18.027a6.992,6.992,0,0,0-.11,1c0,.033.047.07.116.113a2.631,2.631,0,0,0-.04.509,5.931,5.931,0,0,0,2.179.835c-.017.063-.03.123-.047.176h0c-1.015-.532-2.608-.782-2.791-1.178s-5.612-2.292-5.612-2.292l-.539-.269,1.427.269.393-.04A21.2,21.2,0,0,0,253.135,361.857Z" transform="translate(-169.699 -248.638)" fill="url(#a)"/><path d="M298.628,460.762s-.848,5.136-5.163,5.894-18.718.609-18.718.609-8.236-1.188-11.213-8.143-4.893-9.726-2.328-9.846,16.319,4.657,17.108,4.71S299.39,443.411,298.628,460.762Z" transform="translate(-185.288 -333.855)" fill="#65617d"/><path d="M298.628,460.762s-.848,5.136-5.163,5.894-18.718.609-18.718.609-8.236-1.188-11.213-8.143-4.893-9.726-2.328-9.846,16.319,4.657,17.108,4.71S299.39,443.411,298.628,460.762Z" transform="translate(-185.288 -333.855)" opacity="0.05"/><path d="M259.691,485.37a1.966,1.966,0,0,0,1.61,1.214,2.2,2.2,0,0,0,.522-.03c1.58-.273,5.286-.911,6.593-.665a11.437,11.437,0,0,0,3.273-.266c.689-.13,1.194-.253,1.194-.253s-1.217-4.042-1.367-4.161-5.472-3.326-5.472-3.326l-4.211-.3h0a2.225,2.225,0,0,0-1.43.838,4.509,4.509,0,0,0-.852,2.867A16.761,16.761,0,0,0,259.691,485.37Z" transform="translate(-184.973 -352.745)" fill="#3f3d56"/><path d="M259.714,485.41a1.966,1.966,0,0,0,1.61,1.214,17.893,17.893,0,0,1-1.144-1.663l.023-2.947a5.2,5.2,0,0,1,1.663-4.374h0s-2.219.15-2.282,3.706A17.908,17.908,0,0,0,259.714,485.41Z" transform="translate(-184.997 -352.785)" opacity="0.05"/><path d="M310.012,463.114l3.922-3.07,6.167-6.077-1.663-.076c-.249.16-.948.665-.975,1.271-.03.742-1.663.053-2.518.476s-5.013,5.755-5.741,5.718-1.307-.369-1.613.15l-.02.033Z" transform="translate(-217.029 -336.936)" opacity="0.1"/><path d="M262.11,478.412c.14.067.283.133.426.193a27,27,0,0,1,6.929,4.437,28.91,28.91,0,0,0,3.942,2.561c.689-.13,1.194-.253,1.194-.253s-1.217-4.042-1.367-4.161-5.472-3.326-5.472-3.326l-4.211-.3h0A2.225,2.225,0,0,0,262.11,478.412Z" transform="translate(-186.69 -352.732)" opacity="0.1"/><path d="M236.9,441.607a40.4,40.4,0,0,0,3.706,4.71,14.348,14.348,0,0,0,5.076,3.992,26.3,26.3,0,0,1,6.926,4.437,31.985,31.985,0,0,0,4.221,2.724l.376.22.828.482.439.249s1.018-.815,2.032-1.637,2-1.627,2-1.663.426-1.124.333-1.184-.256-.452-.642-.941a4.285,4.285,0,0,0-1.547-1.277,4.407,4.407,0,0,1-2-2.092s-.133-.1-.333-.226a4.119,4.119,0,0,0-1.364-.609c-.665-.083-1.916-1.45-1.916-1.45a3.718,3.718,0,0,1-1.184-1.244c-.333-.665-5.033-3.905-5.469-4.2l11.423,7.338,2.734,1.756,3.922-3.067,6.167-6.077-2.036-.093c-2.994-.13-8.316-.333-8.981-.18a5.219,5.219,0,0,1-1.663.11,5.889,5.889,0,0,1-2.521-.462c-1-.529-2.585-.778-2.768-1.171s-5.558-2.275-5.558-2.275-7.318-3.889-9.936-1.58S236.508,440.629,236.9,441.607Z" transform="translate(-169.747 -324.635)" fill="#65617d"/><path d="M308.24,368.825l.941,3.13L310.4,379l4.467.3,1.277-2.129,1.291-2.142s.8-2.847,1.384-5.6c.509-2.438.845-4.807.289-5.063-.5-.226-.818-1.048-1.031-1.933-.027-.106-.05-.22-.07-.333a17.507,17.507,0,0,1-.3-2.265s-9.357-.486-8.05,3.373a6.157,6.157,0,0,1,.353,2.052,2.69,2.69,0,0,1-.033.522,4.374,4.374,0,0,1-1.736,3.037Z" transform="translate(-217.476 -274.158)" fill="#ee8e9e"/><path d="M302.4,380.275l.333,5.322.758,4.527.852,2.1.762,11.469s7.318.848,9.108-.017a.759.759,0,0,0,.333-.249c2.152-3.25,1.447-12.664,1.447-12.664l.818-6.077-.546-3.153-1.331-.14-1.018-.11s-.23.283-.562.722c-.9,1.188-2.558,3.529-2.445,4.5.15,1.331-.183,2.7-.7,2.917s-.941.579-1.031.213a1.633,1.633,0,0,1-.093-.971,7.9,7.9,0,0,0-.4-2.1,8.83,8.83,0,0,1-.758-2.641,3.133,3.133,0,0,0-.333-1.916c-.243-.213-.579-.426-.306-1.4s-1.2-2.864-1.2-2.864Z" transform="translate(-213.578 -286.123)" fill="#e3e8f4"/><path d="M331.463,386.7l.306,9.084,1.753.975a.788.788,0,0,0,.333-.253c2.152-3.25,1.447-12.664,1.447-12.664l.822-6.077-.549-3.153-1.331-.14c.512-2.438.845-4.8.289-5.063-.5-.226-.818-1.048-1.028-1.929h0l-.948,6.427s.08.579.106,1.178a3.325,3.325,0,0,1-.077,1.131,3.775,3.775,0,0,0-.06,1.52,12.338,12.338,0,0,0-.955,4.481C331.393,384.511,331.463,386.7,331.463,386.7Z" transform="translate(-232.965 -279.269)" opacity="0.1"/><path d="M333.873,367s1.534.19,2.019.828a2.873,2.873,0,0,0,1.763.732s1.457.486,1.427.605.426.306,1.331.549a6.142,6.142,0,0,1,2.432,1.331c0,.206,2.4,2.581,2.4,2.824a6.065,6.065,0,0,1,.639,2.764c-.09,1.61-.183,3.659.183,3.992s0,1.64,0,1.64a.9.9,0,0,0-.03.975c.3.546-.063,2.824-.063,2.824l.033,2.372s-.333,1.487.06,1.55-.06.729-.06.729-.333,1.214.09,1.763a9.005,9.005,0,0,1,.546,2.884l6.5,9.45s.093,1.733-1.973,1.7-2.039.4-1.976.788-.579.822-.579.822-.818.426-.333.941,1.883,1.7-.426,2.491a5.5,5.5,0,0,1-.665-1.214,13.791,13.791,0,0,1-.486-1.64s-.213-2.312-.639-2.615-.366-1.763-.366-1.763.609-1.184-.243-1.663-13.186-7.318-13.186-7.318l-.3-9.088s-.213-6.716,1.064-8.965a3.776,3.776,0,0,1,.06-1.52,7.871,7.871,0,0,0-.03-2.309Z" transform="translate(-233.306 -278.949)" fill="#3f3d56"/><path d="M291.531,377.3s-3.054-.629-3.875-.2-2.428.758-2.661,1-.848.063-1.4,1.49-.605,2.887-1.307,3.556-1.061,1.124-1.091,1.61.09.609-.183.758-.665.792-.549,1.035,6.32,5.592,6.32,5.592a14.655,14.655,0,0,0,.579,2.551c.273.516-.3,7.627-.911,8.113s4.088.446,4.088.446.213-4.657.4-4.91a48.194,48.194,0,0,0-.123-5.226,29.7,29.7,0,0,1,.366-5.379,24.177,24.177,0,0,0,.333-4.863,10,10,0,0,1,.775-2.764C292.716,379.578,291.531,377.3,291.531,377.3Z" transform="translate(-198.928 -285.586)" opacity="0.1"/><path d="M291.259,377.023s-3.054-.629-3.875-.206-2.432.762-2.661,1-.852.06-1.4,1.49-.609,2.884-1.307,3.553-1.064,1.124-1.094,1.61.093.609-.183.762-.665.788-.546,1.031,6.32,5.592,6.32,5.592a14.349,14.349,0,0,0,.579,2.551c.276.516-.306,7.627-.915,8.113s4.1.442,4.1.442.213-4.657.393-4.906a49.2,49.2,0,0,0-.12-5.229,29.661,29.661,0,0,1,.366-5.375,24.489,24.489,0,0,0,.349-4.863,10,10,0,0,1,.775-2.764C292.473,379.3,291.259,377.023,291.259,377.023Z" transform="translate(-198.745 -285.403)" fill="#3f3d56"/><path d="M312.288,363.193a6.157,6.157,0,0,1,.353,2.052,6.985,6.985,0,0,0,7.983-3.16,17.518,17.518,0,0,1-.3-2.265S310.981,359.331,312.288,363.193Z" transform="translate(-220.094 -274.144)" opacity="0.1"/><path d="M298.65,341.6a6.962,6.962,0,1,0,.153-1.447A6.886,6.886,0,0,0,298.65,341.6Z" transform="translate(-211.076 -257.354)" fill="#ee8e9e"/><path d="M272.987,404l-1.663.516a.862.862,0,0,1-.333.911,1,1,0,0,0-.422.911s-.183.665-.609.822-.7,1.154-.7,1.154l-1.4,1.61s-.519.426-.426.639-.549.273-.549.273l.333,5.409,2.887.549,1.793-.183,1.457-.546,1.277-.762.575-1.487,2.555-3.892Z" transform="translate(-189.88 -303.641)" fill="#3f3d56"/><path d="M253.191,419.148s-3.706-5.346-6.473-2.462,1.124,7.568,2.036,7.415,5.259-.4,5.259-.4Z" transform="translate(-175.766 -311.538)" fill="#ee8e9e"/><rect width="19.403" height="15.065" rx="1.54" transform="translate(69.33 96.711) rotate(27.04)" fill="#3f3d56"/><rect width="16.309" height="12.291" transform="translate(70.107 98.627) rotate(27.04)" fill="#fff"/><circle cx="0.266" cy="0.266" r="0.266" transform="translate(66.488 103.546)" fill="#e6e8ec"/><circle cx="0.442" cy="0.442" r="0.442" transform="translate(82.036 111.426)" fill="#e6e8ec"/><path d="M260.93,425.4c-.033,4.012,8.263,4.863,8.263,4.863l2.119.333.951.15.4-3.918s-.436-.067-.978-.193c-.8-.186-1.846-.509-2.062-.965C269.269,424.914,260.953,421.388,260.93,425.4Z" transform="translate(-185.903 -316.665)" fill="#ee8e9e"/><path d="M299.11,340.164a.825.825,0,0,1,.509.226c.233.249.246.692.552.845a.64.64,0,0,0,.363.04c.808-.113,1.274-1.025,2.052-1.277a2.059,2.059,0,0,1,1.357.116,1.062,1.062,0,0,1,.452.289c.259.333.076.832.2,1.237.166.565.842.788,1.424.862a2.494,2.494,0,0,1,1.63.556,1.477,1.477,0,0,1,.289,1.178.918.918,0,0,0,0,.436c.16.456.948.386,1.154.027.153-.263.106-.479.462-.552a1.507,1.507,0,0,1,.742.13,5.5,5.5,0,0,0,1.926.3,6.959,6.959,0,1,0-13.106-4.407Z" transform="translate(-211.383 -257.365)" opacity="0.1"/><path d="M304.519,337.04a.922.922,0,0,1,0-.436,1.467,1.467,0,0,0-.289-1.174,2.49,2.49,0,0,0-1.63-.559c-.585-.077-1.257-.3-1.424-.862-.12-.406.063-.9-.2-1.234a1,1,0,0,0-.452-.289,2.062,2.062,0,0,0-1.357-.12c-.778.253-1.244,1.164-2.052,1.277a.612.612,0,0,1-.363-.04c-.306-.153-.333-.6-.552-.845-.369-.389-1.071-.136-1.52-.426a1.4,1.4,0,0,1-.492-.9,4.371,4.371,0,0,1-.133-2.016c.263-1.128,1.274-1.9,1.916-2.871.6-.9.941-2.036,1.843-2.631a3.687,3.687,0,0,1,3.084-.16,8.7,8.7,0,0,0,1.444.379,16.242,16.242,0,0,0,2.472-.15,5.289,5.289,0,0,1,3.267,1,1.787,1.787,0,0,1,.532.539,2.8,2.8,0,0,1,.24.968,4.916,4.916,0,0,0,.642,1.776c.253.429.576.815.8,1.257a1.949,1.949,0,0,1,.22,1.44c-.08.249-.233.476-.293.732a2.757,2.757,0,0,0,.522,1.706,3.2,3.2,0,0,1,.356,1.62,2.029,2.029,0,0,1-.728,1.457,2.632,2.632,0,0,1-1.54.469,5.536,5.536,0,0,1-1.963-.3,1.547,1.547,0,0,0-.742-.13c-.356.073-.309.289-.462.552C305.467,337.426,304.682,337.5,304.519,337.04Z" transform="translate(-207.97 -249.917)" fill="#3f3d56"/><path d="M308.874,463.627l3.922-3.067,6.167-6.077-2.036-.093a1.331,1.331,0,0,0-.429.832c-.03.742-1.663.05-2.518.476s-5.013,5.755-5.741,5.718-1.307-.369-1.613.146l-.02.033a.858.858,0,0,1-.466.276Z" transform="translate(-216.074 -337.269)" opacity="0.1"/><path d="M290.61,459.231l1.969,6.29.309,1,.938-.256,2.069-.569,9.207-2.528a8.007,8.007,0,0,0,3.326-.885,10.035,10.035,0,0,1,5.721-1.247c1.217.113,2.571-.412,3.7-2.488,0,0,2.551-7.534-3.889-9.693S307.209,450,307.209,450l-.09.053c-.249.16-.948.665-.975,1.271-.03.742-1.663.053-2.518.476s-5.013,5.755-5.741,5.718-1.307-.369-1.613.15l-.02.033c-.226.309-.9.383-1.35.393a3.984,3.984,0,0,1-.419,0l-.06.017-.466.14Z" transform="translate(-205.71 -333.085)" fill="#65617d"/><path d="M292.14,436.862l.951.15.4-3.918s-.436-.067-.978-.193A20.056,20.056,0,0,1,292.14,436.862Z" transform="translate(-206.731 -322.928)" opacity="0.1"/><path d="M317.268,389.562s2.824-.822,2.126,7.2a22.433,22.433,0,0,1-5.924,13.1s-6.017,2.641-8.722,2.215-4.677-.516-4.677-.516a6.876,6.876,0,0,0-2.738-.728c-1.517-.06-4.707-1-4.77-1.307s.792-4.77.426-5.1c0,0,4.254.173,4.68.479s1.034.09,1.49,0a5.169,5.169,0,0,1,4.617-.236,2.8,2.8,0,0,0,1.307-.153,1.307,1.307,0,0,1,.951-.06,2.612,2.612,0,0,0,.665-.333c.09-.12.822,0,.822,0a.333.333,0,0,0,.456-.213,2,2,0,0,1,.426-.665s.818-4.617,2.368-6.35a1,1,0,0,0,.333-.882C310.978,395.516,313.623,388.587,317.268,389.562Z" transform="translate(-207.012 -293.943)" opacity="0.1"/><path d="M317.046,387.706s2.827-.818,2.129,7.2A22.417,22.417,0,0,1,313.25,408s-6.017,2.644-8.722,2.219-4.68-.526-4.68-.526a6.848,6.848,0,0,0-2.734-.729c-1.52-.063-4.71-1-4.77-1.307s.788-4.77.426-5.106c0,0,4.254.176,4.68.482s1.031.086,1.487,0a5.194,5.194,0,0,1,4.62-.24,2.773,2.773,0,0,0,1.3-.15,1.331,1.331,0,0,1,.951-.063,2.76,2.76,0,0,0,.665-.333c.09-.123.818,0,.818,0a.333.333,0,0,0,.456-.213,2,2,0,0,1,.426-.665s.822-4.617,2.372-6.35a1,1,0,0,0,.333-.882C310.759,393.664,313.4,386.745,317.046,387.706Z" transform="translate(-206.865 -292.706)" fill="#3f3d56"/><path d="M300.64,478.24l4.012,4.857.027-.027c.03-.093.426-1.124.333-1.188a5.649,5.649,0,0,0-2.185-2.219,4.145,4.145,0,0,1-1.72-1.563Z" transform="translate(-212.404 -353.092)" opacity="0.1"/><path d="M300.605,493.044l.439.25s1.018-.815,2.032-1.637,2-1.627,2-1.663.426-1.124.333-1.184-.256-.452-.642-.941c-2.721-.762-1,1.128-.758,1.214a2.77,2.77,0,0,0-3.493,2.847A4.464,4.464,0,0,0,300.605,493.044Z" transform="translate(-212.316 -359.49)" opacity="0.1"/><path d="M304.538,494.536l.579.333,5.864.15a11.744,11.744,0,0,0,2.076,1,1.942,1.942,0,0,0,.293.063,12.972,12.972,0,0,0,1.637.03c.449,0,.795-.03.795-.03s-.276-7.395-.486-8.173c-.1-.373-.592-.293-1.078-.106a7.353,7.353,0,0,0-1.051.532,18.938,18.938,0,0,0-2.884.456c-.4.213-1.52-.123-2.219,0s-1.946-.822-1.946-.822c-3.4-1.124-1.487.971-1.244,1.064a2.769,2.769,0,0,0-3.5,2.847A2.352,2.352,0,0,0,304.538,494.536Z" transform="translate(-212.892 -359.456)" fill="#3f3d56"/><path d="M336.374,491.711a9.874,9.874,0,0,0,1.969,4.434c.449,0,.795-.03.795-.03s-.276-7.395-.486-8.173c-.1-.373-.592-.293-1.078-.106A8.527,8.527,0,0,0,336.374,491.711Z" transform="translate(-236.249 -359.485)" fill="#565387"/><path d="M336.374,491.711a9.874,9.874,0,0,0,1.969,4.434c.449,0,.795-.03.795-.03s-.276-7.395-.486-8.173c-.1-.373-.592-.293-1.078-.106A8.527,8.527,0,0,0,336.374,491.711Z" transform="translate(-236.249 -359.485)" opacity="0.1"/><path d="M333.162,491.914c.406,1.477.4,3.133,1.045,4.138a1.949,1.949,0,0,0,.293.063,12.961,12.961,0,0,0,1.637.03c.449,0,.795-.03.795-.03s-.276-7.395-.486-8.173c-.1-.373-.592-.293-1.078-.106a7.345,7.345,0,0,0-1.051.532S332.646,490.021,333.162,491.914Z" transform="translate(-234.042 -359.485)" opacity="0.05"/><path d="M272.54,455.34a12.118,12.118,0,0,1,5.382,4.3Z" transform="translate(-193.651 -337.903)" opacity="0.1"/><g transform="translate(86.016 78.887)" opacity="0.1"><path d="M343.46,345.72a.1.1,0,0,1-.017.067,1.827,1.827,0,0,1-.1.253A2.328,2.328,0,0,1,343.46,345.72Z" transform="translate(-326.916 -343.634)"/><path d="M294.03,340.062a2.6,2.6,0,0,1,.226-.612.751.751,0,0,1-.047.156,4.418,4.418,0,0,0,.136,2.016,1.41,1.41,0,0,0,.489.9c.452.289,1.154.037,1.523.426.233.249.246.692.552.845a.612.612,0,0,0,.363.04c.808-.113,1.274-1.025,2.052-1.277a2.042,2.042,0,0,1,1.357.12,1,1,0,0,1,.452.289c.259.333.076.828.2,1.234.166.565.842.788,1.424.862a2.479,2.479,0,0,1,1.63.559,1.467,1.467,0,0,1,.289,1.174.922.922,0,0,0,0,.436c.16.456.948.386,1.154.027.153-.263.106-.479.462-.552a1.546,1.546,0,0,1,.742.13,5.538,5.538,0,0,0,1.963.3,2.631,2.631,0,0,0,1.54-.469,1.724,1.724,0,0,0,.472-.576,1.916,1.916,0,0,1-.665,1.031,2.631,2.631,0,0,1-1.54.469,5.539,5.539,0,0,1-1.963-.3,1.547,1.547,0,0,0-.742-.13c-.356.073-.309.289-.459.552-.21.359-1,.429-1.158-.027a.964.964,0,0,1,0-.436,1.467,1.467,0,0,0-.289-1.174,2.49,2.49,0,0,0-1.63-.559c-.585-.077-1.257-.3-1.424-.862-.12-.406.063-.9-.2-1.234a1,1,0,0,0-.449-.289,2.073,2.073,0,0,0-1.361-.12c-.775.253-1.244,1.164-2.052,1.277a.612.612,0,0,1-.363-.04c-.306-.153-.333-.6-.552-.845-.369-.389-1.068-.136-1.52-.426a1.4,1.4,0,0,1-.492-.9A4.371,4.371,0,0,1,294.03,340.062Z" transform="translate(-293.966 -339.45)"/></g><path d="M340.24,411.5c-.559.752-1.194,1.447-1.686,2.239a4.261,4.261,0,0,0-.738,2.661,6.918,6.918,0,0,0,1.064-1.9,26.611,26.611,0,0,1,2.046-3.07c.13-.2.968-1.331.546-1.377C341.118,410,340.43,411.241,340.24,411.5Z" transform="translate(-237.208 -307.676)" opacity="0.1"/><path d="M346.459,595.248c.4,1.291.808,2.585,1.311,3.839a32.647,32.647,0,0,0,3.4,6.19,44.946,44.946,0,0,0,2.807,3.679c1.251,1.474,2.661,2.957,3.087,4.84a24.686,24.686,0,0,1,.276,3.326,4.071,4.071,0,0,0,1.371,2.954,4.994,4.994,0,0,0,2.252.742c.565.09,1.271.12,1.563-.369a1.42,1.42,0,0,0,.156-.645l.136-1.627c.027-.353.153-.8.506-.818s.529.452.828.665a.9.9,0,0,0,1.217-.422,2.053,2.053,0,0,0,.033-1.43,6.776,6.776,0,0,0-3.483-4.324,9.984,9.984,0,0,1-1.7-.881,5.8,5.8,0,0,1-1.331-1.683,104.631,104.631,0,0,1-8.369-15.724,11.64,11.64,0,0,1-.862-3.1,20.352,20.352,0,0,1,.133-3.273,18.627,18.627,0,0,0-.539-5.831,4.658,4.658,0,0,0-.556-1.417,3.161,3.161,0,0,0-4.324-.625,4.458,4.458,0,0,0-1.723,3.15,9.085,9.085,0,0,0,.862,3.277Q344.979,590.5,346.459,595.248Z" transform="translate(-240.433 -420.252)" fill="#a1616a"/><path d="M346.459,595.248c.4,1.291.808,2.585,1.311,3.839a32.647,32.647,0,0,0,3.4,6.19,44.946,44.946,0,0,0,2.807,3.679c1.251,1.474,2.661,2.957,3.087,4.84a24.686,24.686,0,0,1,.276,3.326,4.071,4.071,0,0,0,1.371,2.954,4.994,4.994,0,0,0,2.252.742c.565.09,1.271.12,1.563-.369a1.42,1.42,0,0,0,.156-.645l.136-1.627c.027-.353.153-.8.506-.818s.529.452.828.665a.9.9,0,0,0,1.217-.422,2.053,2.053,0,0,0,.033-1.43,6.776,6.776,0,0,0-3.483-4.324,9.984,9.984,0,0,1-1.7-.881,5.8,5.8,0,0,1-1.331-1.683,104.631,104.631,0,0,1-8.369-15.724,11.64,11.64,0,0,1-.862-3.1,20.352,20.352,0,0,1,.133-3.273,18.627,18.627,0,0,0-.539-5.831,4.658,4.658,0,0,0-.556-1.417,3.161,3.161,0,0,0-4.324-.625,4.458,4.458,0,0,0-1.723,3.15,9.085,9.085,0,0,0,.862,3.277Q344.979,590.5,346.459,595.248Z" transform="translate(-240.433 -420.252)" opacity="0.05"/><path d="M294.5,772.641a4.433,4.433,0,0,0,1.876.226c.047-.519.745-.635,1.264-.609a1.443,1.443,0,0,1,.722.166c.13.083.23.2.356.289a1.538,1.538,0,0,0,.735.19l2.7.226a8.128,8.128,0,0,0,3.586-.233,1.238,1.238,0,0,0,.575-.386c.306-.439,0-1.068-.422-1.387s-.968-.462-1.394-.788c-.938-.715-1.068-2.052-1.563-3.124a9.217,9.217,0,0,0-1.294-1.873,7.188,7.188,0,0,0-1.274-1.307,6.729,6.729,0,0,0-3.6-.878,2.414,2.414,0,0,0-2.388.665c-.8,1-.479,2.994-.429,4.158A30.093,30.093,0,0,0,294.5,772.641Z" transform="translate(-207.869 -543.298)" fill="#514e7f"/><path d="M294.5,772.641a4.433,4.433,0,0,0,1.876.226c.047-.519.745-.635,1.264-.609a1.443,1.443,0,0,1,.722.166c.13.083.23.2.356.289a1.538,1.538,0,0,0,.735.19l2.7.226a8.128,8.128,0,0,0,3.586-.233,1.238,1.238,0,0,0,.575-.386c.306-.439,0-1.068-.422-1.387s-.968-.462-1.394-.788c-.938-.715-1.068-2.052-1.563-3.124a9.217,9.217,0,0,0-1.294-1.873,7.188,7.188,0,0,0-1.274-1.307,6.729,6.729,0,0,0-3.6-.878,2.414,2.414,0,0,0-2.388.665c-.8,1-.479,2.994-.429,4.158A30.093,30.093,0,0,0,294.5,772.641Z" transform="translate(-207.869 -543.298)" opacity="0.05"/><path d="M286.418,629.444a1.878,1.878,0,0,0-1.031,2.149,7.9,7.9,0,0,0,1.088,2.352c1.2,2.152,1.723,4.614,2.734,6.859.755,1.663,1.776,3.227,2.521,4.91a8.388,8.388,0,0,1,.755,5.369c-.22.868-.645,1.663-.928,2.518a13.973,13.973,0,0,0-.545,2.844,54.016,54.016,0,0,0-.2,9.866,2.947,2.947,0,0,0,.246,1.164c.17.333.462.665.333,1-.057.136-.18.236-.24.369-.173.373.173.768.489,1.034a.861.861,0,0,1-.529.409,1.251,1.251,0,0,1,.532,1.394c-.279.043-.3.472-.12.7s.456.366.582.622a.868.868,0,0,1-.479,1.091,2.279,2.279,0,0,1-1.3.1,14.3,14.3,0,0,1-2.179-.479,1.577,1.577,0,0,1-1.271-1.63,24.217,24.217,0,0,1-.15-4.081c.116-6.6,0-13.206-.286-19.8a22.569,22.569,0,0,0-1.943-7.687,40.335,40.335,0,0,0-1.893-3.659c-1.484-2.714-2.794-5.721-2.455-8.8.037-.333.156-.729.486-.782a.705.705,0,0,1,.376.063,16.89,16.89,0,0,1,1.979,1.091A7.472,7.472,0,0,0,286.418,629.444Z" transform="translate(-198.695 -452.641)" fill="#464353"/><path d="M286.418,629.444a1.878,1.878,0,0,0-1.031,2.149,7.9,7.9,0,0,0,1.088,2.352c1.2,2.152,1.723,4.614,2.734,6.859.755,1.663,1.776,3.227,2.521,4.91a8.388,8.388,0,0,1,.755,5.369c-.22.868-.645,1.663-.928,2.518a13.973,13.973,0,0,0-.545,2.844,54.016,54.016,0,0,0-.2,9.866,2.947,2.947,0,0,0,.246,1.164c.17.333.462.665.333,1-.057.136-.18.236-.24.369-.173.373.173.768.489,1.034a.861.861,0,0,1-.529.409,1.251,1.251,0,0,1,.532,1.394c-.279.043-.3.472-.12.7s.456.366.582.622a.868.868,0,0,1-.479,1.091,2.279,2.279,0,0,1-1.3.1,14.3,14.3,0,0,1-2.179-.479,1.577,1.577,0,0,1-1.271-1.63,24.217,24.217,0,0,1-.15-4.081c.116-6.6,0-13.206-.286-19.8a22.569,22.569,0,0,0-1.943-7.687,40.335,40.335,0,0,0-1.893-3.659c-1.484-2.714-2.794-5.721-2.455-8.8.037-.333.156-.729.486-.782a.705.705,0,0,1,.376.063,16.89,16.89,0,0,1,1.979,1.091A7.472,7.472,0,0,0,286.418,629.444Z" transform="translate(-198.695 -452.641)" opacity="0.05"/><path d="M251.928,608.783a2.156,2.156,0,0,0-3,.339,15.976,15.976,0,0,0-1.557,1.364,8.3,8.3,0,0,0-1.849,8.21,16.171,16.171,0,0,0,2.269,4.028l1.8,2.581c2.741,3.935,5.482,7.87,8.353,11.712a.446.446,0,0,0,.313.422c.1.027.233.023.3.11a.313.313,0,0,1,.037.176,2.545,2.545,0,0,1-.16.832.4.4,0,0,0-.033.286c.093.216.486.093.612.3.083.133-.02.306-.13.419s-.246.24-.226.4.293.333.283.526c0,.113-.1.2-.17.289a.742.742,0,0,0,.09.945c.19,1.876-.832,3.659-1.035,5.528-.333,2.954,1.015,5.838,1.178,8.8a2.279,2.279,0,0,0,.186.971c.276.512,1,.822.961,1.4a5.624,5.624,0,0,1-.2.705,5.362,5.362,0,0,0,.11,1c.007.333-.289.742-.6.609q.353,1.177.629,2.375l6.287.519a5.579,5.579,0,0,0-.057-1.7c-.13-.609-.4-1.174-.546-1.776a2.1,2.1,0,0,1,.246-1.78.7.7,0,0,1-.692-.569,2.765,2.765,0,0,1,.017-.978c.166-1.64-.522-3.257-.5-4.9a23.951,23.951,0,0,1,.705-3.819c.492-2.728-.02-5.685,1.194-8.176.735-1.5,1.753-3.163.928-4.617-.406-.719-1.124-1.211-1.593-1.889a7.685,7.685,0,0,1-.852-2.059,69.541,69.541,0,0,0-3.909-8.622,8.982,8.982,0,0,1-.842-2.265,11.877,11.877,0,0,1-.106-2.092,30.832,30.832,0,0,0-.23-3.755,3.572,3.572,0,0,0-.456-1.554,3.475,3.475,0,0,0-1-.895C256.612,610.765,254.157,609.957,251.928,608.783Z" transform="translate(-175.357 -440.003)" fill="#464353"/><path d="M286.907,779.566a4.509,4.509,0,0,0,1.879.223c.047-.519.742-.635,1.261-.609a1.442,1.442,0,0,1,.722.166c.13.083.23.206.359.289a1.5,1.5,0,0,0,.735.19l2.7.226a8.094,8.094,0,0,0,3.589-.233,1.2,1.2,0,0,0,.572-.386c.306-.439,0-1.064-.422-1.384s-.968-.466-1.39-.792c-.941-.715-1.068-2.049-1.567-3.12a9.006,9.006,0,0,0-1.291-1.876,7.185,7.185,0,0,0-1.277-1.3,6.69,6.69,0,0,0-3.6-.882,2.417,2.417,0,0,0-2.388.665c-.8,1-.479,2.994-.432,4.161a30.146,30.146,0,0,0,.552,4.664Z" transform="translate(-202.803 -547.917)" fill="#514e7f"/><circle cx="6.227" cy="6.227" r="6.227" transform="translate(105.743 145.438)" fill="#a1616a"/><path d="M330.161,561.431a5.875,5.875,0,0,1-3.343.945,21,21,0,0,0-7.195,2.082,2.6,2.6,0,0,0-.832.572,2.347,2.347,0,0,0-.422.891,5.823,5.823,0,0,0-.236,2.165,6.17,6.17,0,0,0,.6,2.036,10.976,10.976,0,0,0,3.859,4.4,2.828,2.828,0,0,0,.978.469,5.486,5.486,0,0,0,2.418-.516,3.951,3.951,0,0,1,2.232.07c.665.226,1.394.639,2.052.363a2.106,2.106,0,0,0,.928-1.058,36,36,0,0,0,1.7-3.706,14.267,14.267,0,0,1,.615-1.45c.722-1.374,1.969-2.435,2.591-3.862a.848.848,0,0,0,.06-.725,1,1,0,0,0-.459-.349,10.913,10.913,0,0,1-2.488-1.953c-.409-.393-1.161-1.454-1.75-1.547C330.81,560.147,330.61,561.045,330.161,561.431Z" transform="translate(-224.066 -407.916)" fill="#a1616a"/><path d="M294,582.669a3.818,3.818,0,0,1-2.355.027,26.877,26.877,0,0,1-5.921-1.72,3.207,3.207,0,0,1-1.454-1.118,3.659,3.659,0,0,1-.406-1.394l-.333-2.329a13.565,13.565,0,0,1,.106-2.375.689.689,0,0,0-.136-.516.563.563,0,0,0-.409-.13c-.935.017-1.5,1-2.156,1.663a3.992,3.992,0,0,1-1.331.891c-.6.246-1.331.419-1.58,1.018-.1.249-.087.532-.193.782-.419,1-2.205.665-2.661,1.663-.13.279-.12.629-.333.848s-.612.216-.941.27c-1.3.213-1.929,1.713-3.04,2.422-.935.6-2.139.585-3.147,1.051a11.97,11.97,0,0,1-1.647.835,7.781,7.781,0,0,1-1.9.1.5.5,0,0,0-.376.123.5.5,0,0,0-.063.412,11.463,11.463,0,0,0,7.082,8.875,2.363,2.363,0,0,1,.605.293c.566.422.665,1.331,1.307,1.63a1.33,1.33,0,0,0,1.361-.293,12.209,12.209,0,0,0,1-1.084,3.909,3.909,0,0,1,2.192-1.154,4.818,4.818,0,0,0,2.259-.509,7,7,0,0,0,.712-.758,4.471,4.471,0,0,1,1.613-.965,16.5,16.5,0,0,1,5.133-1.128,17.9,17.9,0,0,0,4.877-.472,2.942,2.942,0,0,0,1.088-.615,3.269,3.269,0,0,0,.725-1.261A9.647,9.647,0,0,0,294,582.669Z" transform="translate(-187.76 -416.501)" fill="#f4a50f"/><path d="M323.692,573.976c.459-.043.921,0,1.384,0,.542,0,1.078-.133,1.62-.136a4.028,4.028,0,0,1,3.8,2.891.749.749,0,0,1,.023.409.289.289,0,0,1-.313.213,6.893,6.893,0,0,0-.7-1.4,3.935,3.935,0,0,0-2.089-1.457,5.409,5.409,0,0,0-2.568-.093c-.356.066-.7.16-1.048.256l-1.663.459c-.306.083-.615.166-.911.276-.23.086-.622.4-.848.416-.306,0-.06-.266.077-.446a2.211,2.211,0,0,1,1.088-.792A9.42,9.42,0,0,1,323.692,573.976Z" transform="translate(-225.477 -416.985)" fill="#7ea44b"/><path d="M335.579,597.34c.4,1.291.8,2.585,1.311,3.839a32.466,32.466,0,0,0,3.4,6.19,44.929,44.929,0,0,0,2.807,3.679c1.247,1.474,2.641,2.957,3.087,4.837a24.781,24.781,0,0,1,.276,3.326,4.086,4.086,0,0,0,1.367,2.954,5.1,5.1,0,0,0,2.255.742c.562.09,1.267.12,1.563-.369a1.477,1.477,0,0,0,.156-.645l.133-1.627c.03-.353.156-.8.506-.818s.532.452.832.665a.9.9,0,0,0,1.217-.422,2.069,2.069,0,0,0,.033-1.43,6.8,6.8,0,0,0-3.483-4.324,10.151,10.151,0,0,1-1.7-.882,5.757,5.757,0,0,1-1.331-1.687,103.7,103.7,0,0,1-8.369-15.724,11.727,11.727,0,0,1-.865-3.1,20.356,20.356,0,0,1,.136-3.273,18.626,18.626,0,0,0-.539-5.831,4.585,4.585,0,0,0-.559-1.417,3.157,3.157,0,0,0-4.324-.625,4.461,4.461,0,0,0-1.726,3.15,9.153,9.153,0,0,0,.862,3.277Q334.1,592.59,335.579,597.34Z" transform="translate(-233.166 -421.644)" fill="#a1616a"/><path d="M355.07,534.322c.05-.519-.416-1-.945-1.331a12.513,12.513,0,0,1-1.6-.978c-.472-.409-.732-.941-1.2-1.351a5.35,5.35,0,0,0-1.8-.895,13.676,13.676,0,0,0-4.3-.768,7.459,7.459,0,0,0-4.108,1.088,2.434,2.434,0,0,0-.7.665,2.854,2.854,0,0,0-.333,1.031,20.358,20.358,0,0,1-1.074,3.263,7.6,7.6,0,0,1-2.042,3.3c-1.164.968-2.944,1.527-3.712,2.7a.865.865,0,0,0-.17.755c.11.3.462.5.788.685a10.682,10.682,0,0,1,4.358,4.171,4.841,4.841,0,0,1-.379,5.206c-.439.572-1.044,1.251-.615,1.826.665.875,2.891.373,3.41,1.3a1.887,1.887,0,0,1,.067.955c0,.971.935,1.833,2.069,2.282a11.651,11.651,0,0,0,3.726.612,3.254,3.254,0,0,0,.093-2.412.972.972,0,0,1-.1-.549,1.332,1.332,0,0,1,.429-.526c1.364-1.291,1.074-3.187.256-4.72s-2.1-2.934-2.571-4.547a2.345,2.345,0,0,1,.4-2.368,8,8,0,0,1,1.174-.855,4.437,4.437,0,0,0,1.643-2.062c.383-1.061.333-2.328,1.444-3.044,1.068-.665,2.568-.472,3.749-.928A4.011,4.011,0,0,0,355.07,534.322Z" transform="translate(-234.042 -387.061)" fill="#464353"/></g><g transform="translate(135.743 1605.437)"><ellipse cx="24.706" cy="7.239" rx="24.706" ry="7.239" transform="translate(100.612 306.14)" fill="#f4a50f" opacity="0.1"/><ellipse cx="106.413" cy="5.133" rx="106.413" ry="5.133" transform="translate(76.809 273.23)" fill="#f4a50f" opacity="0.1"/><rect width="217.47" height="168.853" rx="22.82" transform="translate(75.314 109.51)" fill="#3c3c3c"/><rect width="182.791" height="137.741" transform="translate(92.815 124.742)" fill="#ededf4"/><circle cx="2.997" cy="2.997" r="2.997" transform="translate(82.688 190.616)" fill="#e6e8ec"/><circle cx="4.942" cy="4.942" r="4.942" transform="translate(278.766 188.995)" fill="#e6e8ec"/><path d="M621.039,392.907a.259.259,0,0,1,.419.2v8.866a2.081,2.081,0,0,1-2.081,2.081H601.331a2.081,2.081,0,0,1-2.081-2.081v-8.863a.262.262,0,0,1,.422-.2c.971.755,2.257,1.714,6.681,4.933.925.666,2.466,2.072,4.008,2.062s3.123-1.421,4.008-2.062C618.783,394.624,620.068,393.662,621.039,392.907Zm-10.679,5.6c1.005,0,2.466-1.267,3.182-1.794,5.753-4.177,6.19-4.541,7.519-5.58a1.045,1.045,0,0,0,.4-.82v-.823a2.081,2.081,0,0,0-2.081-2.081H601.331a2.081,2.081,0,0,0-2.081,2.081v.823a1.051,1.051,0,0,0,.4.82c1.329,1.036,1.766,1.4,7.519,5.58.728.527,2.176,1.81,3.181,1.794Z" transform="translate(-423.537 -207.38)" fill="#f4a50f"/><path d="M487.231,308.18H470.14a1.973,1.973,0,0,0-1.97,1.973V322a1.973,1.973,0,0,0,1.97,1.973h17.091A1.976,1.976,0,0,0,489.2,322V310.153A1.976,1.976,0,0,0,487.231,308.18Zm0,1.973v1.671c-.925.749-2.392,1.918-5.531,4.375-.694.546-2.062,1.85-3.018,1.85s-2.324-1.292-3.015-1.85c-3.141-2.466-4.624-3.625-5.534-4.375v-1.677ZM470.14,322v-7.636c.943.749,2.278,1.8,4.316,3.391.9.706,2.466,2.266,4.236,2.257s3.308-1.541,4.236-2.257c2.035-1.594,3.37-2.648,4.316-3.391V322Z" transform="translate(-332.867 -152.575)" fill="#f4a50f" opacity="0.2"/><path d="M433.231,415H416.14a1.97,1.97,0,0,0-1.97,1.973v11.838a1.973,1.973,0,0,0,1.97,1.973h17.091a1.976,1.976,0,0,0,1.973-1.973V416.976A1.973,1.973,0,0,0,433.231,415Zm0,1.973v1.677c-.925.749-2.392,1.918-5.531,4.375-.694.546-2.062,1.85-3.018,1.85s-2.324-1.292-3.015-1.85c-3.141-2.466-4.624-3.625-5.534-4.375v-1.677ZM416.14,428.811v-7.627c.943.749,2.278,1.8,4.316,3.391.9.709,2.466,2.269,4.236,2.26s3.308-1.541,4.236-2.257c2.035-1.594,3.37-2.648,4.316-3.391v7.624Z" transform="translate(-295.515 -226.465)" fill="#f4a50f" opacity="0.1"/><path d="M493.658,511.69H476.573a1.976,1.976,0,0,0-1.973,1.973V525.5a1.976,1.976,0,0,0,1.973,1.973h17.1a1.973,1.973,0,0,0,1.97-1.973V513.663a1.973,1.973,0,0,0-1.982-1.973Zm0,1.973v1.677c-.925.749-2.392,1.918-5.531,4.375-.694.546-2.066,1.85-3.018,1.85s-2.324-1.292-3.018-1.85c-3.138-2.457-4.593-3.613-5.518-4.375v-1.677ZM476.573,525.5v-7.627c.943.749,2.278,1.8,4.316,3.391.9.706,2.466,2.266,4.236,2.257s3.308-1.541,4.236-2.257c2.035-1.594,3.37-2.648,4.316-3.391V525.5Z" transform="translate(-337.315 -293.346)" fill="#f4a50f" opacity="0.2"/><path d="M605.231,243.75H588.14a1.97,1.97,0,0,0-1.97,1.973v11.835a1.973,1.973,0,0,0,1.97,1.973h17.091a1.976,1.976,0,0,0,1.973-1.973V245.723a1.973,1.973,0,0,0-1.973-1.973Zm0,1.973V247.4c-.925.749-2.392,1.914-5.531,4.375-.694.546-2.062,1.85-3.018,1.85s-2.325-1.292-3.015-1.85c-3.141-2.466-4.624-3.625-5.549-4.375v-1.677Zm-17.1,11.835v-7.627c.943.749,2.278,1.8,4.316,3.391.9.709,2.466,2.269,4.236,2.26s3.308-1.541,4.236-2.26c2.035-1.594,3.37-2.645,4.316-3.391v7.627Z" transform="translate(-414.49 -108.008)" fill="#f4a50f" opacity="0.2"/><path d="M605.231,574.81H588.14a1.973,1.973,0,0,0-1.97,1.973v11.835a1.973,1.973,0,0,0,1.97,1.973h17.091a1.976,1.976,0,0,0,1.973-1.973V576.783A1.976,1.976,0,0,0,605.231,574.81Zm0,1.973v1.677c-.925.749-2.392,1.918-5.531,4.375-.694.546-2.062,1.85-3.018,1.85s-2.324-1.292-3.015-1.85c-3.141-2.466-4.624-3.625-5.549-4.375v-1.677ZM588.14,588.618v-7.627c.943.749,2.278,1.8,4.316,3.391.9.706,2.466,2.266,4.236,2.257s3.308-1.541,4.236-2.257c2.035-1.594,3.37-2.648,4.316-3.391v7.627Z" transform="translate(-414.49 -337.008)" fill="#f4a50f" opacity="0.2"/><path d="M712.17,310.153V322a1.973,1.973,0,0,0,1.97,1.973h17.091A1.976,1.976,0,0,0,733.2,322V310.153a1.976,1.976,0,0,0-1.973-1.973H714.14A1.973,1.973,0,0,0,712.17,310.153Zm19.067,0v1.671c-.925.749-2.392,1.918-5.531,4.375-.694.546-2.066,1.85-3.018,1.85s-2.324-1.292-3.015-1.85c-3.141-2.466-4.624-3.625-5.549-4.375v-1.677ZM714.14,322v-7.636c.943.749,2.278,1.8,4.316,3.391.925.728,2.482,2.266,4.236,2.257s3.339-1.541,4.236-2.257c2.035-1.594,3.37-2.648,4.316-3.391V322Z" transform="translate(-501.646 -152.575)" fill="#f4a50f" opacity="0.2"/><path d="M762.43,412.9v11.835a1.973,1.973,0,0,0,1.973,1.973H781.5a1.976,1.976,0,0,0,1.973-1.973V412.9a1.976,1.976,0,0,0-1.973-1.973H764.4A1.973,1.973,0,0,0,762.43,412.9Zm19.067,0v1.677c-.925.749-2.392,1.918-5.531,4.375-.691.546-2.062,1.85-3.018,1.85s-2.324-1.292-3.015-1.85c-3.141-2.466-4.609-3.625-5.531-4.375V412.9ZM764.4,424.738v-7.621c.925.749,2.275,1.8,4.316,3.391.925.728,2.466,2.266,4.233,2.257s3.339-1.541,4.236-2.257c2.035-1.594,3.373-2.648,4.316-3.391v7.627Z" transform="translate(-536.412 -223.649)" fill="#f4a50f" opacity="0.2"/><path d="M705.77,513.663V525.5a1.973,1.973,0,0,0,1.973,1.973h17.094a1.976,1.976,0,0,0,1.973-1.973V513.663a1.976,1.976,0,0,0-1.973-1.973H707.743A1.973,1.973,0,0,0,705.77,513.663Zm19.067,0v1.677c-.925.749-2.392,1.918-5.531,4.375-.694.546-2.062,1.85-3.018,1.85s-2.325-1.292-3.015-1.85c-3.141-2.466-4.624-3.625-5.531-4.375v-1.677ZM707.743,525.5v-7.627c.94.749,2.275,1.8,4.316,3.391.925.728,2.466,2.266,4.233,2.257s3.339-1.541,4.236-2.257c2.035-1.594,3.369-2.648,4.316-3.391V525.5Z" transform="translate(-497.219 -293.347)" fill="#f4a50f" opacity="0.2"/><path d="M373.226,298.425l-.287-.117a7.23,7.23,0,0,0-.891-1.048s-7.852-2.633-9.449-3.6a6.434,6.434,0,0,0-3.268-.9l-2.849-.484s-1.6-.345-2.365-.617-2.158-.829-2.158-.829a7.4,7.4,0,0,1-1.948-1.11c-.281-.416-1.668-.761-1.668-.761L345.5,286.8s-2.294-1.387-2.642-2.7-1.668-4.988-6.113-2.633c0,0-2.226-.617-2.775-1.316s-5.765.068-5.765.068l-1.625-2.775a23.8,23.8,0,0,1-.129-4.683,4.146,4.146,0,0,1,.04-.447,8.262,8.262,0,0,0,2.519-9.917c-.046-.1-.1-.21-.148-.308a2.773,2.773,0,0,0,.268-.768,1.546,1.546,0,0,1,.031-.2,3.642,3.642,0,0,0,.015-.475,3.6,3.6,0,0,0-.117-.888l-.065-.216a3.6,3.6,0,0,0-1.128-1.655,7.716,7.716,0,0,1-1.541-1.233c-.558-.8-.413-1.921-.925-2.738a2.276,2.276,0,0,0-.166-.219l-.046-.049c-.052-.055-.108-.1-.163-.154l-.034-.028a3.416,3.416,0,0,0-2.916-.419,34.11,34.11,0,0,1-3.5,1.1,14.861,14.861,0,0,1-2.91-.114,4.327,4.327,0,0,0-2.808.567c-.983.687-1.384,1.955-2.244,2.793s-2.232,1.233-2.984,2.223a2.722,2.722,0,0,0-.367,2.574c.308.792.983,1.43,1.138,2.266.173.925-.308,1.948.015,2.79h0a1.536,1.536,0,0,0,.086.176h0a.831.831,0,0,1,.123,0h.12l.117.022h0a.78.78,0,0,1,.114.031,1.7,1.7,0,0,1,1.03,1.116,4.874,4.874,0,0,1,0,2.047,4.21,4.21,0,0,0,.056,2.038.634.634,0,0,0,.04.092h0a.731.731,0,0,0,.077.136l.018.025a.6.6,0,0,0,.1.111h0a1.248,1.248,0,0,0,.595.17h0a.97.97,0,0,1,.21.04c.068.015.093.025.136.037l.065.018c.059.018.114.037.173.062h.015c.062.028.123.052.182.083h0a2.649,2.649,0,0,1,.839.617c.1.1.185.219.277.327h0l.133.139a1.458,1.458,0,0,0,.151.123,1.279,1.279,0,0,0,.765.2,4.008,4.008,0,0,0,1.017-.2l.028.259c.055.493.1.98.145,1.455a.838.838,0,0,0,.015.2,10.013,10.013,0,0,0-2.466,3.083l.092.308a.989.989,0,0,0-.092.12v1.384s-7.368,1.316-8.2,1.942a5.1,5.1,0,0,1-2.361.691s-4.171-.207-4.171,3.672c0,0-.139,1.8-.971,1.871s-1.252,1.178-1.252,1.178l-4.239,4.572-6.187,4.988a36.156,36.156,0,0,0-3.45,3.656.817.817,0,0,0-.163.364s-7.5,8.345.709,11.847l.256.1,7.174,5.373,8.94,5.056.268-.379.142.1,1.076.709,1.375-2.217.182.04a2.055,2.055,0,0,1,1.387.876,8.139,8.139,0,0,0,4.393,2.522l-.055.167-.845,2.691s-1.668,1.939-1.319,2.633-.617,5.82-.617,5.82,1.541.617,2.294,1.039a2.258,2.258,0,0,0,.45.123,3.549,3.549,0,0,1-.043.407,2.466,2.466,0,0,1-.478,1.341,3.842,3.842,0,0,0-.765,2.494s-.419,2.423,0,2.7-.188.9-.188.9.647,2.078,0,2.91-1.982,12.054.49,17.526c0,0,2.2,4.711,1.02,6.375s-2.685,7-2.466,7.966a11.478,11.478,0,0,1-.324,3.326s.9,4.933.277,5.956-2.294,16.835-.277,20.655c0,0-2.016,2.565-3.058,2.565s.9,4.008,1.736,4.781,1.208,4.5,1.208,4.5l.12.056c.034.148.074.308.114.466.441,1.717,1.2,4.076,2.035,4.122,1.319.068,6.394-.277,6.6-1.526s-.071-3.326.971-3.949,4.658-2.423,2.435-6.717a5.069,5.069,0,0,0-.817-.025h-.018l.416-9.249,1.668-13.509s1.461-4.643,1.671-5.266a2.775,2.775,0,0,0-.348-1.662l.392-3.743s-.253-4.156.58-4.711.348-2.63.348-2.63a23.113,23.113,0,0,0,.765-3.743,16.1,16.1,0,0,1,.487-2.842s.277-1.233.765-2.907a20.657,20.657,0,0,0,.617-3.743s1.874-2.355,1.668-4.227.139-4.849.832-4.227a7,7,0,0,1,1.113,2.775l1.042,5.82s1.807,5.749,1.6,6.582.558,3.878.558,3.878-.139,3.533.277,4.365a4.758,4.758,0,0,1,0,2.494s1.39,3.533,1.181,4.227a35.387,35.387,0,0,0,.022,4.778l.4,3.049a10.527,10.527,0,0,1,0,3.743c-.416,1.316,1.819,18.5,2.439,19.884s-.354,4.223-.354,4.223-.765,2.287,2.5,4.008l.974,3.949.071.022a2.885,2.885,0,0,0,.043.425c.274,1.825,1.659,3.7,6.767,2.118a3.48,3.48,0,0,0,1.945-1.652c.4-1.116,3.613-2.3,3.613-2.3s2.812-3.209.348-5.472a2.287,2.287,0,0,0-2.586-.506,4.892,4.892,0,0,1,.432-2.614c.764-1.591-.765-4.988-1.249-5.549s.617-3.117.617-3.117a16.939,16.939,0,0,0-.765-2.078c-.277-.487-.555-13.1-.555-13.1s-.555-6.927-2.016-9.837c0,0,.348-2.078.487-2.978s-.139-15.864-.139-15.864,2.987-4.933.9-12.264a20.616,20.616,0,0,1,.277-3.188,13.249,13.249,0,0,0-.416-4.227s.765-3.81-.694-4.933a3.747,3.747,0,0,1-.987-2.574c0-.136-.022-.271-.031-.4,1.948-.515,3.373-1.085,3.518-1.662.487-1.939-2.71-11.1-2.71-11.1l-3.857-11.2s1.461-5.127.835-6.721,1.39-5.614,1.39-5.614-.906-2.63-.28-3.323a.734.734,0,0,0,.111-.194l1.489,1.094s2.5.694,3.108,1.384,3.286.487,3.286.487a24.291,24.291,0,0,1,4.316.259,2.467,2.467,0,0,1,1.233.5c.835.9,3.616,1.233,4.171.832a1.607,1.607,0,0,1,1.076-.1,9.52,9.52,0,0,1,1.5.373l9.249,1.178a7.555,7.555,0,0,0,.6-.552l.12.092c7.482,5.447,7.763.114,7.763.114s2.639.691,2.639-.925C383.168,302.6,376.235,299.645,373.226,298.425Zm-68.747,22.116-.2-.015.133-.213-.737-.345-.157-.074.277-.4-7.3-4.368a2.685,2.685,0,0,1-1.113-1.233c-.416-.9-2.223-1.107-2.223-1.107l-2.05-1.8s2.4-2.91,3.083-2.91a4.791,4.791,0,0,0,1.877-.86L299,305.234l.055.071a42.891,42.891,0,0,1,2.775,3.739,24.826,24.826,0,0,0,2.5,2.978,23.836,23.836,0,0,1,3.545,6.443,9.056,9.056,0,0,0,1.4,1.526c-1.905.21-4.18.617-4.18.617Z" transform="translate(-201.629 -114.334)" fill="url(#b)"/><path d="M407.944,304.826a28.58,28.58,0,0,0,.909,8.8s-13.349.826-12.387-.962a2.592,2.592,0,0,0,.219-.925,19.606,19.606,0,0,0-.068-3.308c-.04-.472-.089-.956-.142-1.449-.179-1.612-.416-3.271-.617-4.575-.034-.2-.065-.395-.092-.576-.188-1.15-.327-1.908-.327-1.908s10.263-3.018,13.367-1.988c.876.29,1.184.9.533,1.988a10.931,10.931,0,0,0-1.347,4.452A2.171,2.171,0,0,0,407.944,304.826Z" transform="translate(-282.559 -145.337)" fill="#be6f72"/><path d="M593.041,407.709c0,1.615-2.614.925-2.614.925s-.277,5.3-7.686-.114c-.188-.139-.382-.284-.583-.438l-.308-5.987v-.345s.524.207,1.347.539C586.175,403.507,593.041,406.451,593.041,407.709Z" transform="translate(-411.502 -217.299)" fill="#be6f72"/><path d="M374.941,794.521c-1.033.617-.755,2.685-.962,3.921s-5.241,1.585-6.539,1.517c-.829-.046-1.578-2.389-2.013-4.094-.25-.98-.4-1.751-.4-1.751s8.324-3.308,9.017-4.96a2.658,2.658,0,0,1,2.494-1.329,5.189,5.189,0,0,1,.808.021C379.553,792.113,375.971,793.9,374.941,794.521Z" transform="translate(-261.524 -484.349)" fill="#464a5f"/><path d="M484.186,806.059s-3.163,1.168-3.576,2.281a3.476,3.476,0,0,1-1.927,1.643c-5.059,1.575-6.428-.293-6.7-2.106a6.715,6.715,0,0,1,.16-2.506l7.433-3.107a6.353,6.353,0,0,1,2.368-2.133,2.26,2.26,0,0,1,2.586.493C486.97,802.871,484.186,806.059,484.186,806.059Z" transform="translate(-335.47 -492.721)" fill="#464a5f"/><path d="M376.562,787.84l-.157,3.465a6.663,6.663,0,0,0-2.466,4.47,10.867,10.867,0,0,1-8.481.1c-.25-.98-.4-1.751-.4-1.751s8.324-3.308,9.017-4.96A2.664,2.664,0,0,1,376.562,787.84Z" transform="translate(-261.544 -484.364)" opacity="0.1"/><path d="M482.052,801.506c-2.614,8.354-9.128,7.072-10.069,6.841a6.715,6.715,0,0,1,.16-2.506l7.433-3.107a6.354,6.354,0,0,1,2.368-2.133,4.228,4.228,0,0,0,.108.906Z" transform="translate(-335.47 -493.19)" opacity="0.1"/><path d="M401.637,597.487a4.859,4.859,0,0,0-.345,3.1c-2.821,9.014-10.173,6.81-10.173,6.81l-.965-3.921c-3.234-1.72-2.466-3.989-2.466-3.989s.965-2.824.351-4.2-2.83-18.442-2.417-19.749a10.449,10.449,0,0,0,0-3.715l-.392-3.03a35.452,35.452,0,0,1-.022-4.748c.207-.691-1.168-4.2-1.168-4.2a4.7,4.7,0,0,0,0-2.466c-.413-.814-.274-4.334-.274-4.334a15.411,15.411,0,0,1-.552-3.854c.207-.826-1.581-6.536-1.581-6.536l-1.033-5.78a6.913,6.913,0,0,0-1.1-2.753c-.691-.62-1.03,2.34-.823,4.2s-1.662,4.183-1.662,4.183a20.4,20.4,0,0,1-.617,3.718c-.481,1.649-.755,2.889-.755,2.889a16,16,0,0,0-.484,2.821,23.18,23.18,0,0,1-.755,3.718s.481,2.063-.345,2.611-.573,4.68-.573,4.68l-.388,3.718a2.777,2.777,0,0,1,.342,1.649c-.207.617-1.649,5.241-1.649,5.241l-1.665,13.407-.552,12.251a6.663,6.663,0,0,0-2.466,4.47,10.79,10.79,0,0,1-8.715,0s-.37-3.7-1.193-4.47-2.753-4.748-1.72-4.748,3.027-2.549,3.027-2.549c-1.995-3.783-.345-19.471.274-20.5s-.274-5.919-.274-5.919a11.092,11.092,0,0,0,.324-3.3c-.225-.962,1.258-6.261,2.429-7.914s-1.008-6.332-1.008-6.332c-2.451-5.435-1.125-16.583-.484-17.409s0-2.889,0-2.889.6-.617.182-.894,0-2.682,0-2.682a3.789,3.789,0,0,1,.755-2.466,2.417,2.417,0,0,0,.472-1.332,15.788,15.788,0,0,0,0-3l9.5-5.574,11.9-.965,14.588,4.541a17.318,17.318,0,0,0,0,3.083,3.778,3.778,0,0,0,.974,2.556c1.446,1.1.687,4.886.687,4.886a13.2,13.2,0,0,1,.413,4.2,20.545,20.545,0,0,0-.274,3.166c2.062,7.294-.9,12.18-.9,12.18s.277,14.862.139,15.756-.481,2.956-.481,2.956c1.446,2.892,1.995,9.773,1.995,9.773s.274,12.522.552,13.006a16.848,16.848,0,0,1,.755,2.066s-1.1,2.543-.617,3.083S402.392,595.9,401.637,597.487Z" transform="translate(-254.709 -292.682)" fill="#727677"/><path d="M409.291,299.958a10.932,10.932,0,0,0-1.347,4.452c-.018.148-.031.308-.043.444-1.381,1.054-3.511.521-5.386.521-.66,0-.5-.971-1.119-1.116-2.21-.533-4.473.1-5.586-1.816-.034-.2-.065-.395-.092-.576-.188-1.15-.327-1.908-.327-1.908s10.263-3.018,13.367-1.988C409.633,298.259,409.941,298.867,409.291,299.958Z" transform="translate(-282.524 -145.365)" opacity="0.1"/><path d="M409.564,279.755a8.225,8.225,0,0,1-8.225,8.225,8.443,8.443,0,0,1-1.924-.225,8.228,8.228,0,1,1,10.149-8Z" transform="translate(-280.945 -127.221)" fill="#be6f72"/><path d="M409.561,330c-3.181-.977-7.556.666-10.263,1.961a19.6,19.6,0,0,0-.068-3.308c1.819-1.52,4.689-2.642,8.7-.617.367.188.743.4,1.131.638Z" transform="translate(-285.18 -165.554)" opacity="0.1"/><path d="M404.179,330.672c-4.267-1.313-10.682,2.1-12.331,3.046l-.308-1.048-.089-.293s3.505-7.519,11.117-3.669c.367.188.743.4,1.131.638Z" transform="translate(-279.799 -166.016)" fill="#f4a50f"/><path d="M410.589,518.317a88,88,0,0,1-12.513,2.075c-.617-.068-6.126,1.171-6.126,1.171.207-.691-1.649-8.12-1.649-8.12l-1.31,8.533s-11.943-1.233-14.391-1.745a15.79,15.79,0,0,0,0-3l9.5-5.574,11.9-.965,14.588,4.541a17.316,17.316,0,0,0,0,3.086Z" transform="translate(-268.143 -292.655)" opacity="0.1"/><path d="M378.554,391.562c-.472,1.921-15.346,3.77-15.963,3.715s-6.126,1.172-6.126,1.172c.207-.691-1.649-8.12-1.649-8.12l-1.31,8.546s-14.036-1.446-14.8-1.85-2.272-1.03-2.272-1.03.962-5.093.617-5.78,1.307-2.617,1.307-2.617l.839-2.67,2.531-8.065a3.887,3.887,0,0,1-.425-.281,8.6,8.6,0,0,1-1.637-1.714,23.35,23.35,0,0,0-3.511-6.422,24.286,24.286,0,0,1-2.466-2.959,41.59,41.59,0,0,0-2.753-3.715l-7.636-9.84,4.2-4.541s.413-1.1,1.233-1.168.965-1.85.965-1.85c0-3.854,4.128-3.647,4.128-3.647a5.061,5.061,0,0,0,2.337-.687c.823-.62,8.123-1.93,8.123-1.93v-1.168c6.122-8.12,13.873-2.842,13.873-2.842l1.612,2.775s5.158-.755,5.706-.068,2.753,1.3,2.753,1.3c4.405-2.337,5.709,1.31,6.055,2.617s2.617,2.682,2.617,2.682-2.343,11.767-2.963,12.455.277,3.3.277,3.3-1.988,3.983-1.372,5.561-.826,6.677-.826,6.677l3.854,11.148S379.035,389.635,378.554,391.562Z" transform="translate(-232.658 -167.953)" fill="#464a5f"/><path d="M406.865,336.175c-3.85-5.919-15.485,1.233-15.485,1.233v-1.168c6.123-8.12,13.873-2.842,13.873-2.842Z" transform="translate(-279.75 -168.852)" opacity="0.1"/><path d="M404.158,332.126c-4.267-1.313-10.682,2.1-12.331,3.046l-.407.237v-1.168l.089-.117c3.817-4.966,8.244-4.791,11.027-3.961.367.188.743.4,1.131.638Z" transform="translate(-279.778 -167.47)" opacity="0.1"/><path d="M406.865,334.835c-3.85-5.916-15.485,1.233-15.485,1.233V334.9c6.123-8.12,13.873-2.842,13.873-2.842Z" transform="translate(-279.75 -167.925)" fill="#464a5f"/><path d="M427.592,489.26l-2.062,8.94.395,1.619S428.141,490.5,427.592,489.26Z" transform="translate(-303.373 -277.831)" opacity="0.1"/><path d="M463.208,441.05s-1.033,8.324-7.778,10.734C455.43,451.784,461,446.762,463.208,441.05Z" transform="translate(-324.055 -244.484)" opacity="0.1"/><path d="M390,459.742s8.188-3.511,8.188-2.065S390,459.742,390,459.742Z" transform="translate(-278.796 -255.743)" opacity="0.1"/><path d="M446.73,435s5.713-4.06,6.949-3.027S446.73,435,446.73,435Z" transform="translate(-318.037 -238.088)" opacity="0.1"/><path d="M582.741,408.53c-.188-.139-.382-.284-.583-.438l-.308-5.987v-.345s.524.207,1.347.539A4.55,4.55,0,0,1,582.741,408.53Z" transform="translate(-411.502 -217.306)" opacity="0.1"/><path d="M514.479,383.054l-9.153-1.168a9.579,9.579,0,0,0-1.48-.37,1.619,1.619,0,0,0-1.067.092c-.549.413-3.3.071-4.128-.826a2.466,2.466,0,0,0-1.233-.5,24.363,24.363,0,0,0-4.276-.256s-2.654.207-3.255-.481-3.083-1.375-3.083-1.375l-2.614-1.93,1.649-11.971,2.343.549L491,366.952s1.378.345,1.652.758a7.249,7.249,0,0,0,1.927,1.1s1.375.549,2.133.826,2.34.617,2.34.617l2.821.484a6.354,6.354,0,0,1,3.237.894c1.578.965,9.356,3.579,9.356,3.579S518.968,379.339,514.479,383.054Z" transform="translate(-343.949 -191.374)" fill="#464a5f"/><path d="M534.525,398.292a4.263,4.263,0,0,1-1.233,1.754,1.619,1.619,0,0,0-1.067.092c-.549.413-3.3.071-4.128-.823a2.438,2.438,0,0,0-1.233-.5c-.213-1.541-.774-7.846,4.541-7.436C537.432,391.84,534.525,398.292,534.525,398.292Z" transform="translate(-373.378 -210.111)" opacity="0.1"/><path d="M534.525,398.962a4.263,4.263,0,0,1-1.233,1.754,1.619,1.619,0,0,0-1.067.093c-.549.413-3.3.071-4.128-.826a2.466,2.466,0,0,0-1.233-.5c-.213-1.526-.774-7.846,4.541-7.436C537.432,392.51,534.525,398.962,534.525,398.962Z" transform="translate(-373.378 -210.575)" fill="#5f5d7e"/><ellipse cx="0.308" cy="0.515" rx="0.308" ry="0.515" transform="translate(168.801 187.124)" fill="#f4a50f"/><ellipse cx="0.308" cy="0.515" rx="0.308" ry="0.515" transform="translate(169.421 187.33)" fill="#f4a50f"/><ellipse cx="0.308" cy="0.515" rx="0.308" ry="0.515" transform="translate(170.04 187.524)" fill="#f4a50f"/><path d="M505.629,375.85s.515.361-.438,1.47S505.629,375.85,505.629,375.85Z" transform="translate(-358.245 -199.384)" opacity="0.1"/><path d="M522.5,384.64s1.393,5.081.207,5.959S522.5,384.64,522.5,384.64Z" transform="translate(-370.183 -205.464)" opacity="0.1"/><circle cx="0.515" cy="0.515" r="0.515" transform="translate(111.802 228.942)" fill="#f4a50f"/><circle cx="0.515" cy="0.515" r="0.515" transform="translate(136.385 228.394)" fill="#f4a50f"/><path d="M382.89,587s5.241,4.815,12.112,0C395,587,387.385,588.541,382.89,587Z" transform="translate(-273.878 -345.44)" opacity="0.1"/><path d="M445.61,587.076s8.879.552,11.08-1.443S445.61,587.076,445.61,587.076Z" transform="translate(-317.262 -344.064)" opacity="0.1"/><path d="M376.64,627.87c.139.345,3.1,9.085,7.294,9.153Z" transform="translate(-269.555 -373.71)" opacity="0.1"/><path d="M474.422,599.08s-3.786,16.314-8.052,18.442Z" transform="translate(-331.622 -353.796)" opacity="0.1"/><path d="M361,786.8s7.981,1.649,7.02,2.408-5.787.549-5.787.549Z" transform="translate(-258.736 -483.645)" opacity="0.1"/><path d="M484.9,775.8s2.821,3.234,3.783,1.446S484.9,775.8,484.9,775.8Z" transform="translate(-344.44 -476.018)" opacity="0.1"/><path d="M466.955,796.959a29.926,29.926,0,0,0,5.093,0c1.995-.345-4.624-1.1-5.438.139S466.955,796.959,466.955,796.959Z" transform="translate(-331.588 -490.295)" opacity="0.1"/><path d="M408.839,276.372a1.974,1.974,0,0,1-.308.395c-.274.271-.617.459-.876.752a3.421,3.421,0,0,0-.5,2.266,4.775,4.775,0,0,1-.1.993,2.775,2.775,0,0,1-1.973,2.013,4.036,4.036,0,0,0-1.693-1.729.712.712,0,0,0-.425-.117.737.737,0,0,0-.425.308,5.4,5.4,0,0,0-1.181,2.818,5.513,5.513,0,0,0,.037,1.511c.062.345.462,1.094.308,1.415-.24.481-1.44.617-2.306.721-.308.034-.558.065-.721.1q-1.828.407-3.619.956l-.222.062c-.2-1.85-.493-3.783-.715-5.151a8.225,8.225,0,1,1,14.717-7.309Z" transform="translate(-280.929 -127.18)" opacity="0.1"/><path d="M388.976,270.916a.728.728,0,0,1,.425-.308.709.709,0,0,1,.425.114,4.079,4.079,0,0,1,1.7,1.729,2.775,2.775,0,0,0,1.964-2.013c.256-1.094-.136-2.408.6-3.262.25-.29.6-.478.876-.749a2.512,2.512,0,0,0,.66-1.461,3.588,3.588,0,0,0-1.27-3.185,8.059,8.059,0,0,1-1.541-1.233c-.555-.789-.407-1.908-.925-2.719-.657-1.02-2.118-1.165-3.3-.863a32.9,32.9,0,0,1-3.465,1.094,14.574,14.574,0,0,1-2.882-.111,4.256,4.256,0,0,0-2.775.561c-.974.684-1.369,1.942-2.22,2.775s-2.213,1.233-2.96,2.207a2.716,2.716,0,0,0-.361,2.559c.308.786.974,1.421,1.125,2.25.185.983-.4,2.093.1,2.96a1.52,1.52,0,0,1,1.489,1.159,4.853,4.853,0,0,1,0,2.032,4.2,4.2,0,0,0,.055,2.025.823.823,0,0,0,.237.361,1.2,1.2,0,0,0,.589.166,2.688,2.688,0,0,1,1.6.863,3.335,3.335,0,0,0,.558.592,2.172,2.172,0,0,0,1.807,0q1.791-.546,3.619-.956c.638-.145,2.707-.179,3.03-.823.16-.308-.24-1.07-.308-1.415a5.447,5.447,0,0,1,1.141-4.316Z" transform="translate(-267.561 -117.054)" fill="#464a5f"/><path d="M376.1,481.512a1.251,1.251,0,0,1-1.2.194l2.531-8.065a3.882,3.882,0,0,1-.425-.281,7.06,7.06,0,0,1,2.4-.028C380.2,473.722,377.055,480.507,376.1,481.512Z" transform="translate(-268.351 -266.754)" opacity="0.1"/><path d="M361.418,480.829c-.965,1.008-4.775-1.316-5.281-2.278a2.033,2.033,0,0,0-1.372-.869,4.2,4.2,0,0,0-.8-.108l2.685-4.415.863.074.632.056s5.78-1.033,6.582-.644S362.371,479.824,361.418,480.829Z" transform="translate(-253.873 -266.277)" fill="#be6f72"/><path d="M357.478,474.6l-2.753,4.449a4.208,4.208,0,0,0-.8-.108l2.685-4.415Z" transform="translate(-253.846 -267.642)" opacity="0.1"/><path d="M205.63,422.625l-4.233,6.838-1.064-.706-.613-.4,3.767-6.733,1.412.66Z" transform="translate(-102.062 -215.892)" fill="#f4a50f"/><path d="M204.9,422.28l-4.566,6.477-.613-.4,3.767-6.733Z" transform="translate(-102.062 -215.892)" opacity="0.1"/><path d="M306.892,415.98l-5.093,7.226-8.875-5.022-7.09-5.336-.253-.1c-8.126-3.471-.712-11.761-.712-11.761a.833.833,0,0,1,.16-.361,35.767,35.767,0,0,1,3.419-3.632l6.126-4.954,2.466-.755,5.712,10.115-3.508,2.377a4.669,4.669,0,0,1-1.85.857c-.678,0-3.064,2.889-3.064,2.889l2.032,1.791s1.788.207,2.2,1.1a2.664,2.664,0,0,0,1.1,1.233Z" transform="translate(-203.934 -210.057)" fill="#464a5f"/><path d="M309.23,432.106s5.3-.885,5.574-.512S309.23,432.106,309.23,432.106Z" transform="translate(-222.926 -237.879)" opacity="0.1"/><path d="M309.23,442.17a8.279,8.279,0,0,0,2.2.274C312.741,442.444,309.23,442.17,309.23,442.17Z" transform="translate(-222.926 -245.258)" opacity="0.1"/><path d="M286.26,433.6c-8.126-3.471-.712-11.761-.712-11.761a.832.832,0,0,1,.16-.361c1.5-.25,3.783.348,4.125,6.132C290.037,431.068,288.359,432.785,286.26,433.6Z" transform="translate(-204.405 -230.913)" opacity="0.1"/><path d="M285.59,433.6c-8.126-3.471-.712-11.761-.712-11.761a.833.833,0,0,1,.16-.361c1.5-.25,3.783.348,4.125,6.132C289.367,431.068,287.69,432.785,285.59,433.6Z" transform="translate(-203.941 -230.913)" fill="#5f5d7e"/><g transform="translate(107.446 140.039)" opacity="0.1"><path d="M377.81,302.46a1.478,1.478,0,0,0,.148.364,1.1,1.1,0,0,1,.472.049A1.5,1.5,0,0,0,377.81,302.46Z" transform="translate(-377.81 -288.658)"/><path d="M383.566,320.882l-.167-.022a.685.685,0,0,0,.2.268,1.2,1.2,0,0,0,.589.166,2.634,2.634,0,0,1,.774.244A2.7,2.7,0,0,0,383.566,320.882Z" transform="translate(-381.677 -301.386)"/><path d="M433.027,262.385a8.057,8.057,0,0,1-1.541-1.233c-.555-.789-.407-1.908-.925-2.719a2.007,2.007,0,0,0-.891-.743,1.886,1.886,0,0,1,.271.33c.524.811.376,1.93.925,2.719a6.95,6.95,0,0,0,1.541,1.233,3.588,3.588,0,0,1,1.27,3.185,2.513,2.513,0,0,1-.66,1.461c-.274.271-.617.459-.876.749-.734.854-.345,2.158-.6,3.262a2.774,2.774,0,0,1-1.659,1.911,4.177,4.177,0,0,1,.308.515,2.775,2.775,0,0,0,1.964-2.013c.256-1.094-.136-2.408.6-3.262.25-.29.6-.478.876-.749a2.512,2.512,0,0,0,.66-1.461A3.588,3.588,0,0,0,433.027,262.385Z" transform="translate(-413.682 -257.69)"/><path d="M401.873,300.322a.709.709,0,0,0-.425-.114.727.727,0,0,0-.425.308,5.448,5.448,0,0,0-1.141,4.316c.059.348.459,1.1.308,1.415-.324.644-2.392.678-3.03.823q-1.828.407-3.619.956a2.8,2.8,0,0,1-1.471.163,1.505,1.505,0,0,0,.284.259,2.171,2.171,0,0,0,1.807,0q1.791-.546,3.619-.956c.638-.145,2.707-.179,3.03-.823.16-.308-.24-1.07-.308-1.415a5.448,5.448,0,0,1,1.141-4.316.728.728,0,0,1,.425-.308.694.694,0,0,1,.422.111,4.121,4.121,0,0,0-.617-.419Z" transform="translate(-387.674 -287.099)"/></g></g><g transform="translate(521.576 1784)"><path d="M436.382,228.64H313.732a32.547,32.547,0,0,0-12.234,2.726c-12.468,5.526-19.724,14.2-21.774,33.433v44.437l-32.5-.344c-6.536,0-8.925,10.276-8.925,17.221H457.834V251.435C457.834,238.846,448.242,228.64,436.382,228.64Z" transform="translate(-219.081 -175.457)" fill="url(#c)"/><path d="M270.85,158.06H392.373a14.887,14.887,0,0,1,14.887,14.887v73.987H270.85Z" transform="translate(-171.734 -100.219)" fill="#2e5987"/><path d="M205.878,158.06h0a32.968,32.968,0,0,1,32.968,32.968V230.8a16.134,16.134,0,0,1-16.134,16.134H189.044A16.134,16.134,0,0,1,172.91,230.8V191.028A32.968,32.968,0,0,1,205.878,158.06Z" transform="translate(-109.635 -100.219)" fill="#727677"/><path d="M205.878,158.06h0a32.968,32.968,0,0,1,32.968,32.968V230.8a16.134,16.134,0,0,1-16.134,16.134H189.044A16.134,16.134,0,0,1,172.91,230.8V191.028A32.968,32.968,0,0,1,205.878,158.06Z" transform="translate(-109.635 -100.219)" fill="#3c3c3c" opacity="0.2"/><path d="M455.754,125.75H428.52V170.9h12.362V145.99h14.872Z" transform="translate(-271.706 -79.733)" fill="url(#d)"/><path d="M457.324,125.75H434.39v41.568h8.6V144.384h14.334Z" transform="translate(-275.428 -79.733)" fill="#fff"/><rect width="28.061" height="45.659" transform="matrix(0.121, -0.993, 0.993, 0.121, 60.152, 102.663)" fill="url(#e)"/><rect width="26.187" height="44.111" transform="matrix(0.121, -0.993, 0.993, 0.121, 60.85, 101.563)" fill="#faf8e4"/><g transform="translate(65.163 77.786)" opacity="0.6"><rect width="5.614" height="4.153" transform="matrix(-0.993, -0.121, 0.121, -0.993, 5.572, 4.801)" fill="#2e5987"/><rect width="21.55" height="1.347" transform="matrix(-0.993, -0.121, 0.121, -0.993, 24.986, 15.303)" fill="#2e5987"/><rect width="15.714" height="0.897" transform="matrix(-0.993, -0.121, 0.121, -0.993, 24.635, 18.201)" fill="#2e5987"/></g><rect width="28.061" height="45.659" transform="matrix(0.121, -0.993, 0.993, 0.121, 78.619, 108.79)" fill="url(#f)"/><rect width="26.187" height="44.111" transform="matrix(0.121, -0.993, 0.993, 0.121, 79.318, 107.694)" fill="#faf8e4"/><g transform="translate(83.634 83.918)" opacity="0.6"><rect width="5.614" height="4.153" transform="matrix(-0.993, -0.121, 0.121, -0.993, 5.572, 4.801)" fill="#2e5987"/><rect width="21.55" height="1.347" transform="matrix(-0.993, -0.121, 0.121, -0.993, 24.986, 15.303)" fill="#2e5987"/><rect width="15.714" height="0.897" transform="matrix(-0.993, -0.121, 0.121, -0.993, 24.628, 18.2)" fill="#2e5987"/></g><rect width="38.036" height="61.888" transform="matrix(0.121, -0.993, 0.993, 0.121, 38.175, 121.311)" fill="url(#g)"/><rect width="35.5" height="59.792" transform="matrix(0.121, -0.993, 0.993, 0.121, 39.124, 119.818)" fill="#fff"/><g transform="translate(44.971 87.59)" opacity="0.6"><rect width="7.608" height="5.628" transform="matrix(-0.993, -0.121, 0.121, -0.993, 7.552, 6.506)" fill="#2e5987"/><rect width="29.213" height="1.826" transform="matrix(-0.993, -0.121, 0.121, -0.993, 33.865, 20.745)" fill="#2e5987"/><rect width="21.302" height="1.219" transform="matrix(-0.993, -0.121, 0.121, -0.993, 33.39, 24.671)" fill="#2e5987"/></g><rect width="38.036" height="61.888" transform="matrix(0.121, -0.993, 0.993, 0.121, 63.209, 129.617)" fill="url(#h)"/><rect width="35.5" height="59.792" transform="matrix(0.121, -0.993, 0.993, 0.121, 64.154, 128.13)" fill="#fff"/><g transform="translate(70.004 95.9)" opacity="0.6"><rect width="7.608" height="5.628" transform="matrix(-0.993, -0.121, 0.121, -0.993, 7.552, 6.506)" fill="#2e5987"/><rect width="29.213" height="1.826" transform="matrix(-0.993, -0.121, 0.121, -0.993, 33.865, 20.745)" fill="#2e5987"/><rect width="21.302" height="1.219" transform="matrix(-0.993, -0.121, 0.121, -0.993, 33.39, 24.671)" fill="#2e5987"/></g><path d="M426.04,242.35h0a32.861,32.861,0,0,0-12.57,2.488,33.218,33.218,0,0,1,4.688-.337h0a32.968,32.968,0,0,1,32.968,32.968V329.8h7.882V275.318A32.968,32.968,0,0,0,426.04,242.35Z" transform="translate(-330.148 -184.15)" opacity="0.2"/><path d="M74.719,369.58h94.6v11.469H63.25A11.469,11.469,0,0,1,74.719,369.58Z" transform="translate(-40.104 -234.334)" fill="#2e5987"/><path d="M74.719,369.58h94.6v11.469H63.25A11.469,11.469,0,0,1,74.719,369.58Z" transform="translate(-40.104 -234.334)" fill="#fff" opacity="0.2"/><path d="M655.487,25.828l-1.087.531.124-.223-.1.029.135-.1L669.21,0,676.7,6.386l6.426,5.947-1.844.9,2.071,3.656Z" transform="translate(-414.926)" fill="url(#i)"/><path d="M677.372,19.31l5.87,5.445L656.63,37.984l14.162-18.151Z" transform="translate(-416.34 -12.244)" fill="#7ea44b"/><path d="M670.521,3.35,656.63,27.865,677.372,9.19Z" transform="translate(-416.34 -2.124)" fill="#f4a50f"/><path d="M683.464,32.087,656.71,40.924,679.073,24.23Z" transform="translate(-416.391 -15.363)" fill="#f4a50f"/><path d="M44.524,34.629l1.749.271L46,34.643h.15l-.234-.081L14.133,4.42,6.419,16.595,0,27.7l2.971.461L1.654,34.179Z" transform="translate(0 -2.803)" fill="url(#j)"/><path d="M11.022,35.755,5.16,45.917l42.976,7L20.456,33.64Z" transform="translate(-3.272 -21.33)" fill="#7ea44b"/><path d="M28.239,8.99,58.294,37.285,21.18,20.126Z" transform="translate(-13.429 -5.7)" fill="#f4a50f"/><path d="M9.49,61.166l41.275.79L12.235,48.27Z" transform="translate(-6.017 -30.606)" fill="#f4a50f"/></g></g></svg>