<svg xmlns="http://www.w3.org/2000/svg" width="703.892" height="723.997" viewBox="0 0 703.892 723.997"><g transform="translate(-1096.108 -162.133)"><g transform="translate(1095.108 160)"><circle cx="14.203" cy="14.203" r="14.203" transform="translate(112.323 7.307)" fill="#2e5987" opacity="0.136"/><circle cx="8.959" cy="8.959" r="8.959" transform="translate(183.019 43.352)" fill="#2e5987" opacity="0.136"/><circle cx="6.399" cy="6.399" r="6.399" transform="translate(246.22 72.864)" fill="#2e5987" opacity="0.136"/><circle cx="14.203" cy="14.203" r="14.203" transform="translate(539.419 7.307)" fill="#2e5987" opacity="0.136"/><circle cx="8.959" cy="8.959" r="8.959" transform="translate(479.209 43.352)" fill="#2e5987" opacity="0.136"/><circle cx="6.399" cy="6.399" r="6.399" transform="translate(421.13 72.864)" fill="#2e5987" opacity="0.136"/><ellipse cx="76.041" cy="8.663" rx="76.041" ry="8.663" transform="translate(270.568 494.784)" fill="#f1f1f1"/><path d="M645.442,482.7l-513.931-3.463,5.186-352.2,513.941,7.568Z" transform="translate(-28.323 -27.354)" fill="#2e5987" opacity="0.136"/><path d="M791.745,2.447l-252.3,101.89V452.055L791.745,558.8Z" transform="translate(-116.853 -0.314)" fill="#2e5987"/><line x2="181.137" y2="42.05" transform="translate(443.619 377.346)" fill="none" stroke="#fff" stroke-miterlimit="10" stroke-width="2"/><line x2="181.137" y2="27.494" transform="translate(443.619 349.852)" fill="none" stroke="#fff" stroke-miterlimit="10" stroke-width="2"/><line x2="181.137" y2="19.408" transform="translate(443.619 320.741)" fill="none" stroke="#fff" stroke-miterlimit="10" stroke-width="2"/><path d="M728.38,283.285v42.049l-145.557-9.7V283.285Z" transform="translate(-126.266 -61.261)" fill="#f4a50f"/><path d="M728.38,283.285v42.049l-145.557-9.7v-1.618L725.145,322.1V283.285Z" transform="translate(-126.266 -61.261)" opacity="0.2"/><path d="M1,2.447l252.3,101.89V452.055L1,558.8Z" transform="translate(0 -0.314)" fill="#f4a50f"/><line x1="181.137" y2="42.05" transform="translate(51.136 377.346)" fill="none" stroke="#fff" stroke-miterlimit="10" stroke-width="2"/><line x1="181.137" y2="27.494" transform="translate(51.136 349.852)" fill="none" stroke="#fff" stroke-miterlimit="10" stroke-width="2"/><line x1="181.137" y2="19.408" transform="translate(51.136 320.741)" fill="none" stroke="#fff" stroke-miterlimit="10" stroke-width="2"/><path d="M93.95,283.285v42.049l145.557-9.7V283.285Z" transform="translate(-20.172 -61.261)" fill="#3c3c3c"/><path d="M93.95,283.285v42.049l145.557-9.7v-1.618L97.184,322.1V283.285Z" transform="translate(-20.172 -61.261)" opacity="0.2"/><line x2="126.537" y2="1.556" transform="translate(276.805 132.176)" fill="none" stroke="#f4a50f" stroke-miterlimit="10" stroke-width="2"/><path d="M357.888,173.244l1.083-1.134-5.591-5.325,5.72-5.188-1.054-1.16-6.965,6.319Z" transform="translate(-75.974 -34.601)" fill="#f4a50f"/><path d="M507.84,175.069l-1.054-1.16,5.72-5.186-5.59-5.327L508,162.263l6.808,6.489Z" transform="translate(-109.765 -34.997)" fill="#f4a50f"/><circle cx="10.588" cy="10.588" r="10.588" transform="translate(329.486 122.366)" fill="#f4a50f"/><path d="M584.045,692.069s-2.888,12.513-1.925,17.326.963,15.4.963,15.4h2.888V713.245s7.7,3.85,9.625,9.625,22.138,3.85,23.1,1.925-9.625-5.775-9.625-5.775l-8.663-25.989Z" transform="translate(-258.131 -222.792)" fill="#3c3c3c"/><path d="M576.028,542.795s4.813,17.326,4.813,24.064-3.85,93.367,0,93.367,19.251,1.925,20.213-1.925-1.925-39.464,0-43.314,15.4-85.666,14.438-86.629S580.841,524.506,576.028,542.795Z" transform="translate(-256.852 -187.098)" fill="#727677"/><path d="M572.419,525.042s-8.663,23.1-.963,23.1,12.513-6.738,18.288-4.813,23.1-22.138,23.1-22.138Z" transform="translate(-255.167 -185.708)" fill="#7ea44b"/><circle cx="15.401" cy="15.401" r="15.401" transform="translate(337.946 211.797)" fill="#ffb9b9"/><path d="M623.1,388.906s-6.738,22.138-4.813,25.026S600,412.969,600,412.969s6.738-18.288,5.775-22.138S623.1,388.906,623.1,388.906Z" transform="translate(-262.054 -156.895)" fill="#ffb9b9"/><path d="M604.248,407.738s-8.663-2.888-11.551,0-13.476,71.228-20.213,77.966-11.551,16.363-5.775,17.326,52.94,6.738,54.865,3.85,1.444-31.283.481-38.02S613.873,408.7,604.248,407.738Z" transform="translate(-254.27 -160.808)" fill="#2e5987"/><path d="M436.869,435.73l3.85,9.626,8.663-6.738-.962-6.738Z" transform="translate(-94.592 -93.509)" fill="#ffb9b9"/><path d="M594.991,427.138s-.481-12.032-6.257,3.369-18.288,35.614-7.7,51.015,10.881,22.121,15.882,21.657,20.695,5.294,20.695,3.369-18.288-31.764-18.288-31.764a17.72,17.72,0,0,1,4.813-15.4C610.873,452.645,607.5,430.025,594.991,427.138Z" transform="translate(-257.045 -164.326)" opacity="0.1"/><path d="M600.18,412.99s-10.588-1.925-16.363,13.476-18.288,35.614-7.7,51.015,15.986,30.765,20.987,30.3,15.589-3.351,15.589-5.276S594.4,470.742,594.4,470.742a17.72,17.72,0,0,1,4.813-15.4C605.956,448.6,612.693,415.877,600.18,412.99Z" transform="translate(-255.978 -162.21)" fill="#2e5987"/><path d="M600.341,353.415c-7.919-1.119-15.728,3.9-20.108,10.592s-5.967,14.793-7.121,22.708a27.138,27.138,0,0,1-1.629,6.989c-1.914,4.4-6.249,7.716-6.954,12.459-.446,3,.672,5.979,1.255,8.955,1.551,7.906-.747,16.22-4.963,23.086-1.882,3.065-4.626,6.161-8.221,6.271l7.534,1.168a13.151,13.151,0,0,1-6.234,6.371,38.172,38.172,0,0,0,33.389-36.354c.109-2.727-.024-5.654,1.458-7.947,1.282-1.983,3.518-3.083,5.551-4.285,6.984-4.128,12.82-10.973,13.752-19.032.41-3.542-.131-7.087-.271-10.628-.147-3.73,6.117-6.248,6.961-9.82C616.023,358.521,605.324,354.119,600.341,353.415Z" transform="translate(-251.767 -149.264)" fill="#3c3c3c"/></g><g transform="translate(1148.096 469)"><circle cx="28.677" cy="28.677" r="28.677" transform="translate(484.709 19.118)" fill="#2f2e41"/><path d="M873.785,232.425s.5,16.6-10.565,21.633,43.266,4.528,43.266,4.528-16.1-19.621-11.571-26.161Z" transform="translate(-371.719 -160.231)" fill="#ffb8b8"/><path d="M873.785,232.425s.5,16.6-10.565,21.633,43.266,4.528,43.266,4.528-16.1-19.621-11.571-26.161Z" transform="translate(-371.719 -160.231)" opacity="0.1"/><circle cx="19.621" cy="19.621" r="19.621" transform="translate(493.514 42.512)" fill="#ffb8b8"/><path d="M870.031,258.324l-16.854-3.773-9.81,10.313L832.3,266.373l14.59,59.869-.5,15.093s-16.1,12.074-15.093,67.918-8.05,166.525,3.019,167.531,34.211,6.037,35.72,1.509,4.025-183.127,4.025-183.127-.5,179.1,7.043,181.115,30.689,6.037,33.708-.5,0-177.09,0-177.09-.5-44.273-18.615-57.353l-2.012-11.571,15.6-63.39H897.2l-7.546-13.081-15.6,5.534Z" transform="translate(-359.412 -168.018)" fill="#3c3c3c"/><path d="M810.184,370.725,788.621,407.1s-15.77,16.181-7.878,20.65,16.283-18.841,16.283-18.841l23.2-30.543Z" transform="translate(-340.671 -211.84)" fill="#ffb8b8"/><path d="M963.506,371.959l17.436,38.525s13.9,17.815,5.562,21.391-14.114-20.516-14.114-20.516l-19.7-32.907Z" transform="translate(-405.66 -212.3)" fill="#ffb8b8"/><path d="M834.959,277.682l-6.54-3.522s-11.571,19.118-9.559,51.316c0,0-2.012,17.105,2.012,18.112s15.6,3.019,16.1,1.006,6.54-39.242,6.54-39.242Z" transform="translate(-355.532 -175.805)" fill="#3c3c3c"/><path d="M944.785,276.676l6.037-2.515a36.231,36.231,0,0,1,8.05,18.615c1.509,11.571,8.553,48.8,3.019,49.807s-18.615,3.019-18.615,0-4.528-38.235-4.528-38.235Z" transform="translate(-400.459 -175.805)" fill="#3c3c3c"/><path d="M826.112,66.422,811.56,58.8l-20.1,3.118-4.158,18.364,10.35-.4,2.891-6.747v6.636l4.776-.184,2.772-10.741,1.733,11.434,16.978-.347Z" transform="translate(-293.799 -21.942)" fill="#2f2e41"/><circle cx="11.571" cy="11.571" r="11.571" transform="translate(503.324 3.522)" fill="#2f2e41"/><path d="M876.06,128.822a11.574,11.574,0,0,1,9.81-11.438,11.571,11.571,0,1,0,0,22.876,11.574,11.574,0,0,1-9.81-11.438Z" transform="translate(-375.755 -117.251)" fill="#2f2e41"/><ellipse cx="4.937" cy="3.36" rx="4.937" ry="3.36" transform="translate(307.19 360.52)" fill="#f4a50f"/><path d="M577.944,697.759s23.449,40.743,22.832,46.623" transform="translate(-265.818 -333.879)" fill="#f4a50f"/><path d="M582.869,702.243v23.834c-4.912-6.806-14.709-13.814-33.068-19.5l33.068,45.421v.345s.063-.034.179-.1l.056.077s.047-.063.132-.185C587.088,749.9,619.4,729.779,582.869,702.243Z" transform="translate(-255.315 -335.552)" fill="#7ea44b"/><rect width="342.876" height="1.254" transform="translate(309.027 415.876)" fill="#3f3d56"/><path d="M706.633,774.593H694.259V762.218h12.374Zm-11.422-.952h10.471V763.17H695.211Z" transform="translate(-309.223 -357.933)" fill="#3f3d56"/><circle cx="6.318" cy="6.318" r="6.318" transform="translate(621.961 391.158)" fill="#7ea44b"/><path d="M1071.445,758.74a18.251,18.251,0,1,1,18.251-18.251,18.251,18.251,0,0,1-18.251,18.251Zm0-35.1a16.847,16.847,0,1,0,16.847,16.847A16.847,16.847,0,0,0,1071.445,723.643Z" transform="translate(-443.166 -343.014)" fill="#2f2e41"/><rect width="1.254" height="44.505" transform="translate(58.531 232.646)" fill="#3f3d56"/><circle cx="15.671" cy="15.671" r="15.671" transform="translate(43.565 216.975)" fill="#3c3c3c"/><rect width="1.254" height="82.742" transform="translate(145.661 194.41)" fill="#3f3d56"/><circle cx="15.671" cy="15.671" r="15.671" transform="translate(130.694 180.619)" fill="#727677"/><rect width="1.254" height="152.32" transform="translate(232.79 124.831)" fill="#3f3d56"/><circle cx="15.671" cy="15.671" r="15.671" transform="translate(217.824 109.161)" fill="#f4a50f"/><rect width="1.254" height="106.561" transform="translate(319.919 170.59)" fill="#3f3d56"/><circle cx="15.671" cy="15.671" r="15.671" transform="translate(304.953 154.919)" fill="#2e5987"/><rect width="1.254" height="197.452" transform="translate(407.049 79.7)" fill="#3f3d56"/><circle cx="15.671" cy="15.671" r="15.671" transform="translate(392.082 64.029)" fill="#7ea44b"/><rect width="3.761" height="1.254" transform="translate(22.566 232.019)" fill="#3f3d56"/><path d="M149.077,488.652h-5.892V487.4h5.892Zm-11.785,0H131.4V487.4h5.892Z" transform="translate(-99.181 -255.379)" fill="#3f3d56"/><rect width="3.761" height="1.254" transform="translate(55.788 232.019)" fill="#3f3d56"/><rect width="3.761" height="1.254" transform="translate(22.566 195.663)" fill="#3f3d56"/><path d="M233.005,430.652H225.4V429.4h7.606Zm-15.211,0h-7.606V429.4h7.606Zm-15.211,0h-7.606V429.4h7.606Zm-15.211,0h-7.606V429.4h7.606Zm-15.211,0h-7.606V429.4h7.606Zm-15.211,0h-7.606V429.4h7.606Zm-15.211,0h-7.606V429.4h7.606Z" transform="translate(-100.201 -233.735)" fill="#3f3d56"/><rect width="3.761" height="1.254" transform="translate(140.41 195.663)" fill="#3f3d56"/><rect width="3.761" height="1.254" transform="translate(22.566 169.963)" fill="#3f3d56"/><path d="M399.129,389.652h-7.573V388.4h7.573Zm-15.146,0H376.41V388.4h7.573Zm-15.146,0h-7.573V388.4h7.573Zm-15.146,0h-7.573V388.4h7.573Zm-15.146,0h-7.573V388.4h7.573Zm-15.146,0h-7.573V388.4H323.4Zm-15.146,0h-7.573V388.4h7.573Zm-15.146,0h-7.573V388.4h7.573Zm-15.146,0h-7.573V388.4h7.573Zm-15.146,0h-7.573V388.4h7.573Zm-15.146,0H240.1V388.4h7.573Zm-15.146,0h-7.573V388.4h7.573Zm-15.146,0h-7.573V388.4h7.573Zm-15.146,0h-7.573V388.4h7.573Zm-15.146,0h-7.573V388.4h7.573Zm-15.146,0h-7.573V388.4h7.573Zm-15.146,0h-7.573V388.4H156.8Zm-15.146,0h-7.573V388.4h7.573Z" transform="translate(-100.181 -218.435)" fill="#3f3d56"/><rect width="3.761" height="1.254" transform="translate(306.52 169.963)" fill="#3f3d56"/><rect width="3.761" height="1.254" transform="translate(22.566 124.204)" fill="#3f3d56"/><path d="M312.555,316.652h-7.748V315.4h7.748Zm-15.5,0h-7.748V315.4h7.748Zm-15.5,0h-7.748V315.4h7.748Zm-15.5,0h-7.748V315.4h7.748Zm-15.5,0h-7.748V315.4h7.748Zm-15.5,0h-7.748V315.4h7.748Zm-15.5,0h-7.748V315.4h7.748Zm-15.5,0h-7.748V315.4h7.748Zm-15.5,0h-7.748V315.4h7.748Zm-15.5,0H165.35V315.4H173.1Zm-15.5,0h-7.748V315.4H157.6Zm-15.5,0H134.36V315.4h7.748Z" transform="translate(-100.285 -191.194)" fill="#3f3d56"/><rect width="3.761" height="1.254" transform="translate(220.017 124.204)" fill="#3f3d56"/><rect width="3.761" height="1.254" transform="translate(22.564 80.326) rotate(-0.196)" fill="#3f3d56"/><path d="M133.825,245.891l0-1.254,7.411-.024,0,1.254Zm14.823-.048,0-1.254,7.411-.024,0,1.254Zm14.823-.048,0-1.254,7.411-.024,0,1.254Zm14.823-.048,0-1.254,7.411-.024,0,1.254Zm14.823-.048,0-1.254,7.411-.024,0,1.254Zm14.823-.048,0-1.254,7.411-.024,0,1.254Zm14.823-.048,0-1.254,7.411-.024,0,1.254Zm14.823-.048,0-1.254,7.411-.024,0,1.254Zm14.823-.048,0-1.254,7.411-.024,0,1.254Zm14.823-.048,0-1.254,7.411-.024,0,1.254Zm14.823-.048,0-1.254,7.411-.024,0,1.254Zm14.823-.048,0-1.254,7.411-.024,0,1.254Zm14.823-.048,0-1.254,7.411-.024,0,1.254Zm14.823-.048,0-1.254,7.411-.024,0,1.254Zm14.823-.048,0-1.254,7.411-.024,0,1.254Zm14.823-.048,0-1.254,7.411-.024,0,1.254Zm14.823-.048,0-1.254,7.411-.024,0,1.254Zm14.823-.048,0-1.254,7.411-.024,0,1.254Zm14.822-.048,0-1.254,7.411-.024,0,1.254Zm14.823-.048,0-1.254,7.411-.024,0,1.254Zm14.822-.048,0-1.254,7.412-.024,0,1.254Zm14.823-.048,0-1.254,7.411-.024,0,1.254Zm14.822-.048,0-1.254,7.412-.024,0,1.254Zm14.823-.048,0-1.254,7.411-.024,0,1.254Zm14.823-.048,0-1.254,7.411-.024,0,1.254Z" transform="translate(-100.084 -164.347)" fill="#3f3d56"/><rect width="3.761" height="1.254" transform="translate(404.306 79.085) rotate(-0.168)" fill="#3f3d56"/><rect width="12.537" height="12.537" transform="translate(0 74.058)" fill="#2e5987"/><rect width="12.537" height="12.537" transform="translate(0 118.563)" fill="#2e5987"/><rect width="12.537" height="12.537" transform="translate(0 164.322)" fill="#2e5987"/><rect width="12.537" height="12.537" transform="translate(0 190.022)" fill="#2e5987"/><rect width="12.537" height="12.537" transform="translate(0 226.378)" fill="#2e5987"/><rect width="32.595" height="32.595" transform="translate(624.977 191.097) rotate(104.723)" fill="#f4a50f"/><path d="M1002.878,456.623a7.522,7.522,0,1,1,9.691,4.386,7.522,7.522,0,0,1-9.691-4.386Zm12.9-4.863a6.268,6.268,0,1,0-3.655,8.076,6.268,6.268,0,0,0,3.655-8.076Z" transform="translate(-424.209 -240.097)" fill="#3f3d56"/><ellipse cx="10.656" cy="5.641" rx="10.656" ry="5.641" transform="translate(479.525 405.025)" fill="#3c3c3c"/><ellipse cx="10.656" cy="5.641" rx="10.656" ry="5.641" transform="translate(528.418 405.025)" fill="#3c3c3c"/><path d="M625.694,332.714a7.522,7.522,0,1,1,7.522-7.522A7.522,7.522,0,0,1,625.694,332.714Zm0-13.79a6.268,6.268,0,1,0,6.268,6.268,6.268,6.268,0,0,0-6.268-6.268Z" transform="translate(-280.83 -192.041)" fill="#fff"/><path d="M358.694,513.714a7.522,7.522,0,1,1,7.522-7.522,7.522,7.522,0,0,1-7.522,7.522Zm0-13.79a6.268,6.268,0,1,0,6.268,6.268,6.268,6.268,0,0,0-6.268-6.268Z" transform="translate(-181.193 -259.585)" fill="#fff"/><path d="M240.694,222.714a7.522,7.522,0,1,1,7.522-7.522A7.522,7.522,0,0,1,240.694,222.714Zm0-13.79a6.268,6.268,0,1,0,6.268,6.268A6.268,6.268,0,0,0,240.694,208.923Z" transform="translate(-137.159 -150.993)" fill="#fff"/></g></g></svg>