<svg xmlns="http://www.w3.org/2000/svg" width="661.487" height="520.675" viewBox="0 0 661.487 520.675"><g transform="translate(0 -0.02)"><path d="M600.669,96.741c4.367,28.785-7.752,54.5-7.752,54.5s-19.231-20.949-23.6-49.741S577.072,47,577.072,47,596.3,67.943,600.669,96.741Z" transform="translate(-258.059 -46.98)" fill="#f4a50f"/><path d="M728.4,195c15.846-.174,28.785,8.327,28.785,8.327s-12.752,8.779-28.6,8.947-28.785-8.327-28.785-8.327S712.552,195.173,728.4,195Z" transform="translate(-304.587 -99.373)" fill="#f4a50f"/><path d="M665.3,115.581c-14.748,16.208-17.868,37.39-17.868,37.39s20.788-5.1,35.529-21.317S700.833,94.27,700.833,94.27,680.046,99.373,665.3,115.581Z" transform="translate(-286.048 -63.714)" fill="#7ea44b"/><ellipse cx="330.743" cy="15.181" rx="330.743" ry="15.181" transform="translate(0 490.334)" fill="#f4a50f" opacity="0.1"/><path d="M203.946,545.74h97.311V694.051H196V545.74h7.946" transform="translate(-69.387 -193.194)" fill="#eeeff0"/><rect width="78.674" height="17.009" transform="translate(139.901 373.812)" fill="#f4a50f"/><rect width="64.857" height="1.066" transform="translate(146.813 411.821)" fill="#373e46"/><rect width="64.857" height="1.066" transform="translate(146.813 417.667)" fill="#373e46"/><rect width="64.857" height="1.066" transform="translate(146.813 423.514)" fill="#373e46"/><rect width="64.857" height="1.066" transform="translate(146.813 429.36)" fill="#373e46"/><rect width="64.857" height="1.066" transform="translate(146.813 435.206)" fill="#373e46"/><rect width="64.857" height="1.066" transform="translate(146.813 441.059)" fill="#373e46"/><rect width="64.857" height="1.066" transform="translate(146.813 446.905)" fill="#373e46"/><rect width="64.857" height="1.066" transform="translate(146.813 452.751)" fill="#373e46"/><rect width="64.857" height="1.066" transform="translate(146.813 458.597)" fill="#373e46"/><rect width="64.857" height="1.066" transform="translate(146.813 464.443)" fill="#373e46"/><rect width="64.857" height="1.066" transform="translate(146.813 470.296)" fill="#373e46"/><path d="M438.476,545.74h97.311V694.051H430.53V545.74h7.946" transform="translate(-152.415 -193.194)" fill="#eeeff0"/><rect width="78.674" height="17.009" transform="translate(291.403 373.812)" fill="#f4a50f"/><rect width="64.857" height="1.066" transform="translate(298.315 411.821)" fill="#373e46"/><rect width="64.857" height="1.066" transform="translate(298.315 417.667)" fill="#373e46"/><rect width="64.857" height="1.066" transform="translate(298.315 423.514)" fill="#373e46"/><rect width="64.857" height="1.066" transform="translate(298.315 429.36)" fill="#373e46"/><rect width="64.857" height="1.066" transform="translate(298.315 435.206)" fill="#373e46"/><rect width="64.857" height="1.066" transform="translate(298.315 441.059)" fill="#373e46"/><rect width="64.857" height="1.066" transform="translate(298.315 446.905)" fill="#373e46"/><rect width="64.857" height="1.066" transform="translate(298.315 452.751)" fill="#373e46"/><rect width="64.857" height="1.066" transform="translate(298.315 458.597)" fill="#373e46"/><rect width="64.857" height="1.066" transform="translate(298.315 464.443)" fill="#373e46"/><rect width="64.857" height="1.066" transform="translate(298.315 470.296)" fill="#373e46"/><path d="M673.006,545.74h97.311V694.051H665.06V545.74h7.946" transform="translate(-235.442 -193.194)" fill="#eeeff0"/><rect width="78.674" height="17.009" transform="translate(442.912 373.812)" fill="#f4a50f"/><rect width="64.857" height="1.066" transform="translate(449.817 411.821)" fill="#373e46"/><rect width="64.857" height="1.066" transform="translate(449.817 417.667)" fill="#373e46"/><rect width="64.857" height="1.066" transform="translate(449.817 423.514)" fill="#373e46"/><rect width="64.857" height="1.066" transform="translate(449.817 429.36)" fill="#373e46"/><rect width="64.857" height="1.066" transform="translate(449.817 435.206)" fill="#373e46"/><rect width="64.857" height="1.066" transform="translate(449.817 441.059)" fill="#373e46"/><rect width="64.857" height="1.066" transform="translate(449.817 446.905)" fill="#373e46"/><rect width="64.857" height="1.066" transform="translate(449.817 452.751)" fill="#373e46"/><rect width="64.857" height="1.066" transform="translate(449.817 458.597)" fill="#373e46"/><rect width="64.857" height="1.066" transform="translate(449.817 464.443)" fill="#373e46"/><rect width="64.857" height="1.066" transform="translate(449.817 470.296)" fill="#373e46"/><path d="M428.972,489.805V387.74L277.47,489.805" transform="translate(-98.229 -137.259)" fill="none" stroke="#373e46" stroke-miterlimit="10" stroke-width="1"/><line x1="151.502" y1="102.065" transform="translate(330.743 250.481)" fill="none" stroke="#373e46" stroke-miterlimit="10" stroke-width="1"/><g transform="translate(245.474 56.556)" opacity="0.1"><path d="M392.874,87.54H380V327.846H550.54V87.54Z" transform="translate(-380 -87.54)"/></g><path d="M397.678,95.04H548.986V325.656H385.32V95.04h12.358" transform="translate(-136.41 -33.639)" fill="#fff"/><rect width="122.336" height="26.453" transform="translate(269.575 94.463)" fill="#f4a50f"/><rect width="100.844" height="1.654" transform="translate(280.324 153.564)" fill="#373e46"/><rect width="100.844" height="1.654" transform="translate(280.324 162.653)" fill="#373e46"/><rect width="100.844" height="1.654" transform="translate(280.324 171.748)" fill="#373e46"/><rect width="100.844" height="1.654" transform="translate(280.324 180.837)" fill="#373e46"/><rect width="100.844" height="1.654" transform="translate(280.324 189.933)" fill="#373e46"/><rect width="100.844" height="1.654" transform="translate(280.324 199.028)" fill="#373e46"/><rect width="100.844" height="1.654" transform="translate(280.324 208.117)" fill="#373e46"/><rect width="100.844" height="1.654" transform="translate(280.324 217.212)" fill="#373e46"/><rect width="100.844" height="1.654" transform="translate(280.324 226.301)" fill="#373e46"/><rect width="100.844" height="1.654" transform="translate(280.324 235.397)" fill="#373e46"/><rect width="100.844" height="1.654" transform="translate(280.324 244.486)" fill="#373e46"/><path d="M201.722,747.191c.11,2.584-1.525,4.851-3.081,6.9a25.129,25.129,0,0,0-1.893,3.017c-1.692,3.01-5.329,4.444-7.3,7.287-.472.691-.84,1.447-1.26,2.177a28.929,28.929,0,0,1-5.316,6.75l-3.527,3.333a11.3,11.3,0,0,0-2.649,3.172,10.3,10.3,0,0,0-.685,4.7v.891a26.878,26.878,0,0,0,.646,5.814,2.9,2.9,0,0,1,.1,1.835,2.384,2.384,0,0,1-1.57,1.176,3.32,3.32,0,0,1-2.145.142,3.644,3.644,0,0,1-1.6-1.434c-2.08-2.855-2.92-6.389-4.16-9.69a2.183,2.183,0,0,1,.478-2.054,11.79,11.79,0,0,1,1.621-1.479c2.455-2.145,3.6-5.381,4.522-8.5s1.841-6.382,3.986-8.831c1.389-1.589,3.23-2.733,4.767-4.16,3.876-3.579,5.814-8.792,6.8-13.96a10.337,10.337,0,0,1,3.6-.045l6.344.84a2.875,2.875,0,0,1,1.886.743A2.28,2.28,0,0,1,201.722,747.191Z" transform="translate(-116.039 -293.761)" fill="#efb7b9"/><path d="M252.094,751.523a6.763,6.763,0,0,1-.988,2.694,24.232,24.232,0,0,1-2.584,3.307c-2.422,2.784-2.836,6.744-4.38,10.1-.5,1.085-1.124,2.112-1.628,3.23a27.288,27.288,0,0,0-2.112,9.134c-.032.4-.071.807-.1,1.214s-.078,1-.116,1.5a7.767,7.767,0,0,0,.375,3.876c.291.646.756,1.124.775,1.8a3.021,3.021,0,0,1-3.7.071,7.345,7.345,0,0,1-2.345-3.185,29.426,29.426,0,0,1-2.2-6.99,2.956,2.956,0,0,1,.413-2.649,10.123,10.123,0,0,1,1.156-.788,4.335,4.335,0,0,0,1.221-2.758q.93-5.226,1.867-10.446a23.874,23.874,0,0,1,.549-2.532,10.124,10.124,0,0,1,2.849-5.168,1.57,1.57,0,0,0,.478-1.441,4.44,4.44,0,0,0-.594-1.466,12.5,12.5,0,0,0-4.522-5.168,23.21,23.21,0,0,1,7.106-4.063,2.752,2.752,0,0,1,1.46-.252,2.514,2.514,0,0,1,.762.3,12.984,12.984,0,0,1,3.482,3.23C250.828,746.962,252.372,749.139,252.094,751.523Z" transform="translate(-139.325 -292.855)" fill="#efb7b9"/><path d="M177.1,813.924a7.434,7.434,0,0,0-2.151-1.428,1.453,1.453,0,0,0-.581-.2c-.5,0-.872.426-1.292.646a2.377,2.377,0,0,1-2.261,0,4.657,4.657,0,0,1-1.68-1.608,11.913,11.913,0,0,1-1.46-4.134l3.947-.743a8.565,8.565,0,0,0,2.061-.775c0-.123,0-.239,0-.362v-.53c-.73.213-2.274.93-2.642,1.014a28.286,28.286,0,0,1-3.6.575c-.187-.375-.459-.7-.646-1.066a6.021,6.021,0,0,1-.827-2.4,2.991,2.991,0,0,0-.194-.988.775.775,0,0,0-.8-.485.962.962,0,0,0-.355.174,6.893,6.893,0,0,0-2.468,3.088c-.736,1.848-.646,3.915-.924,5.885a22.149,22.149,0,0,0-.6,4.438.4.4,0,0,0,.065.226.42.42,0,0,0,.245.116,2.965,2.965,0,0,0,2.435-.168,3.438,3.438,0,0,0,.891-2.319,11.407,11.407,0,0,1,1-3.23,6.666,6.666,0,0,1,1.5,4.431,3.612,3.612,0,0,0,.5,2.545,2.52,2.52,0,0,0,1.059.607,10.715,10.715,0,0,0,2.506.543,21.149,21.149,0,0,0,4.645-.239c.484-.058.975-.123,1.453-.226a1.7,1.7,0,0,0,.685-.284,1.292,1.292,0,0,0,.4-.782,2.855,2.855,0,0,0-.911-2.319Z" transform="translate(-113.707 -314.062)" fill="#727677"/><path d="M240.842,806.557a4.908,4.908,0,0,0-1.292-.833,2.822,2.822,0,0,0-1.247-.413,3.812,3.812,0,0,0-1.421.433,1.705,1.705,0,0,1-1.447.065,1.938,1.938,0,0,1-.717-1.021c-.556-1.292-.969-2.7-1.453-4.044a.981.981,0,0,1,.478-.394,1.292,1.292,0,0,1,.465-.058,13.656,13.656,0,0,0,3.482-.342c0-.407.065-.814.1-1.214a6.9,6.9,0,0,0-2.435.207,3.8,3.8,0,0,1-1.725.239c-.4-.084-.782-.329-1.169-.381-.181-.342-.381-.646-.575-1.008-.484-.859-.646-1.86-1.111-2.7a.937.937,0,0,0-.762-.51,1.292,1.292,0,0,0-.866.51,9.213,9.213,0,0,0-2.041,2.648,7.834,7.834,0,0,0-.439,1.434,34.98,34.98,0,0,0-.924,8.4,5.254,5.254,0,0,0,2.216.213q.575-2.855,1.4-5.652a.265.265,0,0,1,.1-.174c.123-.065.245.065.317.181a14.321,14.321,0,0,1,1.621,3.23,8.89,8.89,0,0,0,.833,2.39,3.688,3.688,0,0,0,2.061,1.4,10.65,10.65,0,0,0,2.519.323l1.292.065a5.259,5.259,0,0,0,2.035-.155,1.822,1.822,0,0,0,1.292-1.46,1.79,1.79,0,0,0-.588-1.369Z" transform="translate(-136.761 -311.636)" fill="#727677"/><path d="M234.812,724.885a4.019,4.019,0,0,1-2,.9l-2.19.536a.9.9,0,0,0-.646.342c-.123.232-.039.517-.1.769a.646.646,0,0,1-.136.271,1.6,1.6,0,0,1-1.13.4,2.869,2.869,0,0,0-1.059.161.852.852,0,0,0-.355.284c-.11.161-.161.362-.278.51a1.247,1.247,0,0,1-.756.394,6.222,6.222,0,0,1-.911.142,6.764,6.764,0,0,1-3.54-.646,1.24,1.24,0,0,0-.885-.213.872.872,0,0,0-.439.355,5.565,5.565,0,0,1-.368.5c-.562.607-1.544.446-2.351.278-.5-.11-1.008-.2-1.512-.284a68.554,68.554,0,0,0-9.154-.646,56.858,56.858,0,0,1-11.776-1.169c-.84-.2-1.854-.646-1.809-1.544,0-.491.413-.911.413-1.4,0-.833-1.027-1.292-1.848-1.421.3-4.574,3.043-8.572,4.47-12.92.355-1.079.646-2.183,1.021-3.23,1.738-4.806,5.562-8.5,8.74-12.506a7.308,7.308,0,0,0,1.189-1.873,8.121,8.121,0,0,0,.42-2.526l.174-3.017a53.413,53.413,0,0,1,13.914.866,1.292,1.292,0,0,1,.795.394,1.227,1.227,0,0,1,.174.53c.181,1.1.3,2.209.375,3.32a3.011,3.011,0,0,0,.1.723,3.085,3.085,0,0,0,.5.82c2.694,3.417,4.3,7.6,5.594,11.815s2.319,8.508,3.947,12.6a17.716,17.716,0,0,1,1.434,4.522,1.382,1.382,0,0,1-.032,1.951Z" transform="translate(-124.814 -273.627)" fill="#2e5987"/><path d="M224.434,733.234a68.545,68.545,0,0,0-9.154-.646l.252-8.495c.058-1.88.116-3.766.342-5.633.317-2.655.963-5.265,1.292-7.913a35.147,35.147,0,0,0,.252-4.586,27.405,27.405,0,0,1,.129-4.664c.213-1.292.762-3.055,1.938-3.747.782,1.066-.42,4.057-.556,5.336-.291,2.668.426,5.323,1.046,7.926.743,3.127,1.35,6.285,1.938,9.444Q223.187,726.729,224.434,733.234Z" transform="translate(-133.059 -277.286)" opacity="0.1"/><path d="M239.607,734.573a6.763,6.763,0,0,1-3.54-.646,1.24,1.24,0,0,0-.885-.213.872.872,0,0,0-.439.355c-1.04-4.935-.982-10.077-1.809-15.064a15.384,15.384,0,0,1-.355-5.362c.368-1.893,1.563-3.534,2.028-5.4a14.6,14.6,0,0,0,.258-3.753,8.935,8.935,0,0,0-.8-3.23,3.717,3.717,0,0,1,2.422,2.222,10.387,10.387,0,0,1,.711,3.8c.174,3.139.2,6.273.155,9.412a35.455,35.455,0,0,0,.1,4.386c.161,1.441.517,2.849.646,4.289a31.112,31.112,0,0,0,.355,5.168A27.456,27.456,0,0,1,239.607,734.573Z" transform="translate(-139.137 -278.599)" opacity="0.1"/><path d="M246.761,732.844a1.6,1.6,0,0,1-1.13.4,2.867,2.867,0,0,0-1.059.162l-1.822-11.253a38.158,38.158,0,0,1-.523-4.173c-.078-1.621.045-3.23-.065-4.864a34.881,34.881,0,0,0-1.118-5.859c-.284-1.143-1.576-4.567-.853-5.536a6.537,6.537,0,0,1,2.2,3.546,22.694,22.694,0,0,1,.749,4.431q.426,4.328.866,8.676c.478,4.806.975,9.69,2.649,14.212A2.4,2.4,0,0,1,246.761,732.844Z" transform="translate(-141.801 -278.762)" opacity="0.1"/><path d="M261.082,659.1c.807-.685,1.621-1.376,2.371-2.132a32.647,32.647,0,0,0,2.9-3.553,18.313,18.313,0,0,0,2.448-4.076c.646-1.7.866-3.63,2.015-5.039a1.2,1.2,0,0,1,.523-.407c.646-.207,1.143.646,1.292,1.292.614,3.327-.846,6.647-2.274,9.69a8.928,8.928,0,0,1-1.783,2.816,16.448,16.448,0,0,1-1.4,1.079,14.855,14.855,0,0,0-1.977,1.938c-1.021,1.163-2,2.371-2.926,3.618a38.4,38.4,0,0,1-3.585,4.522,8.973,8.973,0,0,1-4.961,2.726c.543-.078.362-3.269.3-3.669-.084-.588-.484-1.292-.5-1.841,0-.7.271-.8.853-1.292Z" transform="translate(-146.6 -258.279)" fill="#efb7b9"/><path d="M261.082,659.1c.807-.685,1.621-1.376,2.371-2.132a32.647,32.647,0,0,0,2.9-3.553,18.313,18.313,0,0,0,2.448-4.076c.646-1.7.866-3.63,2.015-5.039a1.2,1.2,0,0,1,.523-.407c.646-.207,1.143.646,1.292,1.292.614,3.327-.846,6.647-2.274,9.69a8.928,8.928,0,0,1-1.783,2.816,16.448,16.448,0,0,1-1.4,1.079,14.855,14.855,0,0,0-1.977,1.938c-1.021,1.163-2,2.371-2.926,3.618a38.4,38.4,0,0,1-3.585,4.522,8.973,8.973,0,0,1-4.961,2.726c.543-.078.362-3.269.3-3.669-.084-.588-.484-1.292-.5-1.841,0-.7.271-.8.853-1.292Z" transform="translate(-146.6 -258.279)" opacity="0.1"/><path d="M227.565,636.29s-1.86,9.231-4,10.794,11.686,3.378,11.686,3.378.31-7.377,4-10.762S227.565,636.29,227.565,636.29Z" transform="translate(-135.913 -255.599)" fill="#efb7b9"/><path d="M222.091,651.526a3.876,3.876,0,0,0-2.364,1.292,6.637,6.637,0,0,0-1.24,6.014,17.442,17.442,0,0,0,2.9,5.659,27.129,27.129,0,0,0,5.5,6.227,41.336,41.336,0,0,0,3.714,2.4,60.756,60.756,0,0,1,6.111,4.3,5.35,5.35,0,0,0,1.447.924,4.119,4.119,0,0,0,1.408.181,10.981,10.981,0,0,0,4.664-1.085.827.827,0,0,0,.349-.252.956.956,0,0,0,0-.756c-.872-3.5.8-7.481-.859-10.685-1.8.581-3.785,1.214-5.588,1.8a2.157,2.157,0,0,1-.872.149,1.848,1.848,0,0,1-.943-.517A19.4,19.4,0,0,1,232,660.8a26.143,26.143,0,0,0-3.973-6.628C226.271,652.276,224.662,651.255,222.091,651.526Z" transform="translate(-134.115 -260.977)" fill="#f4a50f"/><path d="M222.091,651.526a3.876,3.876,0,0,0-2.364,1.292,6.637,6.637,0,0,0-1.24,6.014,17.442,17.442,0,0,0,2.9,5.659,27.129,27.129,0,0,0,5.5,6.227,41.336,41.336,0,0,0,3.714,2.4,60.756,60.756,0,0,1,6.111,4.3,5.35,5.35,0,0,0,1.447.924,4.119,4.119,0,0,0,1.408.181,10.981,10.981,0,0,0,4.664-1.085.827.827,0,0,0,.349-.252.956.956,0,0,0,0-.756c-.872-3.5.8-7.481-.859-10.685-1.8.581-3.785,1.214-5.588,1.8a2.157,2.157,0,0,1-.872.149,1.848,1.848,0,0,1-.943-.517A19.4,19.4,0,0,1,232,660.8a26.143,26.143,0,0,0-3.973-6.628C226.271,652.276,224.662,651.255,222.091,651.526Z" transform="translate(-134.115 -260.977)" opacity="0.1"/><circle cx="9.225" cy="9.225" r="9.225" transform="translate(89.656 369.161)" fill="#efb7b9"/><path d="M234.587,665.095v.039c-.536.988-1.331,1.822-1.88,2.8a12.274,12.274,0,0,0-1.143,3.637c-.174.84-.329,1.68-.472,2.526s-.284,1.712-.413,2.584c-2.784-.943-5.872.646-8.76.065a18.01,18.01,0,0,0-2.584-.581c-.646,0-1.292.116-1.938.058-1.066-.1-2.125-.775-3.146-.433-.452.155-1.014.478-1.344.123a.987.987,0,0,1-.168-.317,3.947,3.947,0,0,1-.342-2.261,7.331,7.331,0,0,1,.963-1.725,7.752,7.752,0,0,0,.749-3.327c.187-2.965.181-5.956.646-8.889a15.672,15.672,0,0,1,3.495-8.068,5.814,5.814,0,0,1,3.689-2.132c5.336-.433,9.645,2.506,11.977,7.177C235.291,659.074,236.028,662.414,234.587,665.095Z" transform="translate(-132.024 -260.153)" fill="#f4a50f"/><path d="M266.792,661.009c.814-.691,1.628-1.376,2.371-2.138a31.841,31.841,0,0,0,2.9-3.546,18.148,18.148,0,0,0,2.455-4.083c.646-1.693.859-3.624,2.015-5.032a1.131,1.131,0,0,1,.517-.407c.646-.207,1.143.646,1.292,1.292.646,3.327-.853,6.654-2.28,9.69a8.8,8.8,0,0,1-1.776,2.816c-.433.4-.937.717-1.4,1.072a14.105,14.105,0,0,0-1.977,1.938q-1.537,1.757-2.933,3.617a39.017,39.017,0,0,1-3.579,4.522,9.043,9.043,0,0,1-4.968,2.732c.549-.078.368-3.275.31-3.676a17.278,17.278,0,0,1-.5-1.835c0-.7.271-.807.846-1.292Z" transform="translate(-148.622 -258.955)" fill="#efb7b9"/><path d="M236.926,667.576v.039c-.53.988-1.331,1.815-1.88,2.8a12.182,12.182,0,0,0-1.143,3.637c-.168.84-.329,1.68-.472,2.526a33.958,33.958,0,0,1-3.23-2.086,26.989,26.989,0,0,1-5.5-6.227,17.442,17.442,0,0,1-2.9-5.659,6.621,6.621,0,0,1,1.247-6.014,3.836,3.836,0,0,1,2.358-1.26c2.584-.278,4.2.717,5.956,2.584a25.594,25.594,0,0,1,3.973,6.628C235.834,665.587,236.344,666.607,236.926,667.576Z" transform="translate(-135.287 -262.324)" opacity="0.1"/><path d="M227.8,653.424a3.876,3.876,0,0,0-2.358,1.292,6.6,6.6,0,0,0-1.24,6.014,17.743,17.743,0,0,0,2.894,5.659,27.252,27.252,0,0,0,5.5,6.227,41.2,41.2,0,0,0,3.708,2.39,60.051,60.051,0,0,1,6.111,4.3,5.167,5.167,0,0,0,1.447.924,4.179,4.179,0,0,0,1.415.187,11.124,11.124,0,0,0,4.664-1.092.794.794,0,0,0,.349-.252.943.943,0,0,0,0-.749c-.866-3.508.807-7.487-.853-10.691l-5.594,1.8a2.04,2.04,0,0,1-.872.149,1.937,1.937,0,0,1-.943-.51,19.354,19.354,0,0,1-4.315-6.382,25.809,25.809,0,0,0-3.973-6.621C231.982,654.173,230.374,653.133,227.8,653.424Z" transform="translate(-136.138 -261.647)" fill="#f4a50f"/><path d="M235.268,618.5a3.133,3.133,0,0,0-.078-3.766,8.676,8.676,0,0,0-3.23-2.435c-1.906-1.014-4.1-1.99-6.143-1.292a13.27,13.27,0,0,0-2.248,1.169c-1.357.756-2.855,1.234-4.238,1.938a6.719,6.719,0,0,0-3.307,3.152,9.341,9.341,0,0,0-.245,4.522,29.463,29.463,0,0,1,.045,7.035,13.087,13.087,0,0,1-2.623,6.46c-1.04,1.292-2.416,2.339-3.043,3.876a9.257,9.257,0,0,0-.51,2.726l-.336,3.966c-.129,1.583-.329,3.307-1.473,4.412a9.043,9.043,0,0,0,6.2-3.437,9.84,9.84,0,0,0,2.732-4.367c.265-1.292.045-2.72.82-3.76.911-1.227,2.855-1.24,4.147-.426a8.564,8.564,0,0,1,2.778,3.572A10.81,10.81,0,0,0,227.1,645.6a7.261,7.261,0,0,0,3.346,1.408,2.92,2.92,0,0,0,2.39-.329c.885-.711.795-2.074.51-3.172-.381-1.453-.969-2.965-.556-4.419.136-.478.375-.93.523-1.408a7.862,7.862,0,0,0,.252-2.132c.084-3.6.252-7.487-.917-10.982-.375-1.111-1.382-2.17-.866-3.372C232.439,619.673,234.293,619.622,235.268,618.5Z" transform="translate(-130.425 -246.566)" fill="#727677"/><g transform="translate(77.428 369.128)" opacity="0.1"><path d="M220.305,628.955a36.417,36.417,0,0,0-.213-5.1c0-.329-.071-.646-.1-1a14.407,14.407,0,0,0,.1,3.159C220.189,626.984,220.267,627.966,220.305,628.955Z" transform="translate(-212.14 -619.969)"/><path d="M232.86,658.018a2.946,2.946,0,0,1-2.39.329,7.261,7.261,0,0,1-3.346-1.408,11.4,11.4,0,0,1-2.584-3.753,8.723,8.723,0,0,0-2.778-3.572c-1.292-.807-3.23-.8-4.147.426-.775,1.04-.556,2.487-.82,3.76a9.8,9.8,0,0,1-2.732,4.367,12,12,0,0,1-2,1.886,9.574,9.574,0,0,1-2.991,1.253,4.593,4.593,0,0,1-1.214,2.448,9.044,9.044,0,0,0,6.2-3.437,9.839,9.839,0,0,0,2.732-4.367c.265-1.292.045-2.72.82-3.76.911-1.227,2.855-1.24,4.147-.426a8.565,8.565,0,0,1,2.778,3.572,10.811,10.811,0,0,0,2.584,3.753,7.261,7.261,0,0,0,3.346,1.408,2.92,2.92,0,0,0,2.39-.329c.827-.646.8-1.938.562-2.959A1.835,1.835,0,0,1,232.86,658.018Z" transform="translate(-207.86 -629.246)"/><path d="M248.326,619.049c-.975,1.111-2.829,1.169-3.469,2.648a2.2,2.2,0,0,0,.161,1.854c.743-1.2,2.4-1.292,3.307-2.351a2.855,2.855,0,0,0,.407-2.81,2.2,2.2,0,0,1-.407.659Z" transform="translate(-220.91 -618.39)"/><path d="M247.193,644.475a7.862,7.862,0,0,1-.252,2.132c-.149.478-.388.924-.523,1.408a4.754,4.754,0,0,0,0,2.216v-.065c.136-.478.375-.93.523-1.408a7.861,7.861,0,0,0,.252-2.132c.032-1.434.078-2.907.052-4.386C247.232,642.989,247.213,643.739,247.193,644.475Z" transform="translate(-221.464 -626.833)"/></g><path d="M916.12,718c0,32.454,20.361,58.72,45.522,58.72" transform="translate(-381.168 -284.525)" fill="#7ea44b"/><path d="M986.59,776.369c0-32.822,22.726-59.379,50.807-59.379" transform="translate(-406.116 -284.168)" fill="#f4a50f"/><path d="M941.66,722.56c0,30.833,12.984,55.781,29.024,55.781" transform="translate(-390.21 -286.14)" fill="#f4a50f"/><path d="M986.59,767.327c0-41.937,26.266-75.877,58.72-75.877" transform="translate(-406.116 -275.126)" fill="#7ea44b"/><ellipse cx="11.318" cy="1.912" rx="11.318" ry="1.912" transform="translate(567.186 499.591)" fill="#f4a50f" opacity="0.1"/><path d="M971.77,807.638s6.46-.2,8.4-1.583,9.929-3.043,10.413-.82,9.69,11.053,2.409,11.111-16.938-1.137-18.876-2.319S971.77,807.638,971.77,807.638Z" transform="translate(-400.869 -315.024)" fill="#a8a8a8"/><path d="M993.126,817.479c-7.287.058-16.931-1.137-18.876-2.319-1.479-.9-2.067-4.134-2.267-5.62h-.213s.407,5.207,2.351,6.389,11.589,2.377,18.876,2.319c2.106,0,2.829-.769,2.791-1.873C995.5,817.046,994.7,817.466,993.126,817.479Z" transform="translate(-400.869 -316.932)" opacity="0.2"/></g></svg>