<svg xmlns="http://www.w3.org/2000/svg" xmlns:xlink="http://www.w3.org/1999/xlink" width="761.508" height="564.034" viewBox="0 0 761.508 564.034"><defs><linearGradient id="a" x1="0.5" y1="1" x2="0.5" gradientUnits="objectBoundingBox"><stop offset="0" stop-color="gray" stop-opacity="0.251"/><stop offset="0.54" stop-color="gray" stop-opacity="0.122"/><stop offset="1" stop-color="gray" stop-opacity="0.102"/></linearGradient><linearGradient id="b" x1="0.5" y1="1" x2="0.5" y2="0" xlink:href="#a"/><linearGradient id="c" x1="-0.211" y1="3.614" x2="-0.211" y2="0.343" xlink:href="#a"/><linearGradient id="d" x1="-0.036" y1="4.542" x2="-0.036" y2="1.284" xlink:href="#a"/><linearGradient id="e" x1="-0.017" y1="4.446" x2="-0.017" y2="1.187" xlink:href="#a"/><linearGradient id="f" x1="-1.04" y1="1.715" x2="-1.04" y2="0.715" xlink:href="#a"/><linearGradient id="g" x1="0.551" y1="0.784" x2="0.551" y2="0.225" xlink:href="#a"/><linearGradient id="h" x1="0.5" y1="1" x2="0.5" y2="0" xlink:href="#a"/></defs><g transform="translate(0 -0.002)"><path d="M387.341,78.142C362.357,67.985,335.955,59.482,309,60.565c-39.657,1.559-77.641,25.394-96.3,60.393-15.809,29.649-17.758,64.406-24.567,97.308-8.389,40.545-24.453,79.073-41.62,116.754-9.222,20.212-18.948,40.914-20.461,63.1-2.1,30.8,12.623,61.5,35.712,82s53.773,31.3,84.537,33.655c16.38,1.257,33.494.094,48.046-7.528,15.392-8.066,26.611-22.645,42.064-30.59,14.324-7.394,31.074-8.4,47.152-7.441a211.152,211.152,0,0,1,61.563,13.08c22.47,8.442,43.368,20.662,65.791,29.219s47.475,13.336,70.4,6.191c21.509-6.722,38.542-22.988,53.887-39.489a691.079,691.079,0,0,0,68.695-86.91c13.84-20.729,26.718-42.6,32.842-66.766,11.7-46.191-4.4-98.31-40.121-129.861-29.575-26.134-69.293-37.48-108.164-44.362-35.443-6.278-76.424-6.668-109.051-23.028C448.279,110.667,419.968,91.41,387.341,78.142Z" transform="translate(-63.804 -40.278)" fill="#2e5987" opacity="0.1"/><path d="M847.069,144.675c-9.6.383-10.082,25.166-9.484,26.248s-2.178,12.267-2.178,12.267-4.356,16.959-3.851,20.111-2.346,5.216-2.346,5.216c-4.261,1.68-9.605,7.1-11.023,8.583l-.356.383s-4.127,2.689-4.853,3.751-2.689.215-2.689.215a52.411,52.411,0,0,0-6.3-.323c-.5.148-1.277-.766-1.721-1.344-.208-.276-.343-.484-.343-.484l-.168-5a4.087,4.087,0,0,0-.672-.417c.114-.565.255-1.149.43-1.748a14.975,14.975,0,0,0,6.11-5.485c.161-.255.309-.518.45-.78a2.017,2.017,0,0,0,1.27.356,2.52,2.52,0,0,0,.592-.054,4.779,4.779,0,0,0,1.721-.867,9.209,9.209,0,0,0,3.2-3.751,6.088,6.088,0,0,0,.3-.894c-.1.168-.208.336-.316.5a5.169,5.169,0,0,0-.356-4.362,14.328,14.328,0,0,1-1.68-2.474c-.565-1.62.5-3.294,1.163-4.88a8.207,8.207,0,0,0,.6-4.6,5.874,5.874,0,0,0-2.487-3.878c-2.642-1.714-6.224-.773-9.283-1.6a25.139,25.139,0,0,1-3.193-1.284,24.2,24.2,0,0,0-4.887-1.519c-1.66-.329-3.67-.363-4.705.934a9.653,9.653,0,0,0-.766,1.3,4.806,4.806,0,0,1-3,2.158,11.267,11.267,0,0,1-1.849.195,1.787,1.787,0,0,0,0-.766c-.78-2.554,1.452-4.45,4.356-5.592s13.947-9.84,15.231-11.9,10.271-8.536,10.271-8.536,13.443-3.8,17.853-17.664-21.092,9.679-23.66,10.385a26.16,26.16,0,0,0-6.244,3.361l-16.354,9.457a59.226,59.226,0,0,0-8.819,6.09c-3.959,3.421-6.466,9.235-6.466,9.235s-1.566,2.554-3.851,6.251a17.019,17.019,0,0,1-4.987,5.3l.074-.134c-.182.222-5.807,7.327-6.3,10.432s-2.789,15.762-2.789,15.762-2.016,9.941-3.4,11.9c0,0-1.123,5.707-1.788,6.473s-3.361,8.852-2.9,9.672c0,0-2.568,5.6-2.117,7.716l-4.631,11.091s-2.514,5.485-2.346,8.691c.081,1.553.148,3.361.195,4.84v.672h0v.672c-.249.417-.887,1.479-1.553,2.763-.954,1.869-1.969,4.2-1.909,5.639.108,2.527.114,8.7-1.049,10.963l-.343-.134a4.7,4.7,0,0,0-.672,2.232l.081.04c0,.195-.06.4-.081.612-.282,2.574.128,6.157-.518,6.943-.894,1.089-.45,25.219-.45,25.219s-1.452,15.1,1.452,24.675L730.443,361s-.114,7.064.222,8.066.45,8.153.45,8.153l1.674,11.958s-2.238,18.478-.336,23.042a25.113,25.113,0,0,1,2.016,7.938,12.346,12.346,0,0,0,3.078,1.19v.672l-.437,11.238v.618s-.054.3-.094.786h0v.276a.327.327,0,0,0,0,.081c0,.074,0,.155,0,.235a1.637,1.637,0,0,0,0,.181,1.282,1.282,0,0,1,0,.161v1.015h0v.981a1.945,1.945,0,0,0,.054.336.336.336,0,0,0,0,.081,1.719,1.719,0,0,0,.074.37h0a1.427,1.427,0,0,0,.087.363.087.087,0,0,1,0,.04h0a.663.663,0,0,0,.054.188.338.338,0,0,0,0,.087,1.088,1.088,0,0,0,.067.229v.054c.067.188.134.376.215.565a.239.239,0,0,0,0,.061c0,.067.061.141.094.208l.04.094.087.182.054.1.094.168.06.1c0,.054.061.108.094.161a1.241,1.241,0,0,1,.067.108l.1.155.074.1.108.155.081.1.121.148.081.094.141.161.074.081.229.222a.349.349,0,0,0,.074.067,1.838,1.838,0,0,0,.168.155l.108.087.148.121.128.094.148.108.141.094.148.094.155.087.155.094.161.081.168.081.168.081.168.074.182.074.182.067.188.067.2.061.316.094.262.067.208.04.215.047h.229l.222.034h2.836l.363-.034h.222l.612-.067s7.616,1.136,7.864-1.875a2.406,2.406,0,0,1,.034-.484v-.383a.973.973,0,0,1,0-.141v-3.825c-.047-1.492-.121-2.877-.168-3.65a4.889,4.889,0,0,0-.04-.672s-2.595-3.912-2.171-5.377a38.7,38.7,0,0,0,.329-6.439s-1.008-2.386-1.687-4.5c-.054-.161-.1-.323-.148-.477a24.81,24.81,0,0,0,1.586-2.017,25.542,25.542,0,0,0-1.9-15.325.954.954,0,0,1-.41-.786.33.33,0,0,1,0-.081l1.3-15.87-.786-9.235s-.558-6.312.672-9.027L754.372,340l3.482-13.907s1.116-.544,2.016,2.07,3.119,14.451,3.119,14.451l5.377,19.567s.894,6.957,1.674,7.938.786,5.324.786,5.324,1.674,3.482,1.452,5a21.631,21.631,0,0,0,.551,7.064c.551,1.412.786,11.427.786,11.427a23.085,23.085,0,0,0,.222,9.894c1.344,5,.558,11.306.558,11.306a7.705,7.705,0,0,0,.457.632c-.054.148-.114.3-.168.43-.349.907-.625,1.546-.625,1.546a39.635,39.635,0,0,0,.336,6.439c.417,1.465-2.178,5.377-2.178,5.377s0,.242-.04.672c-.047.773-.121,2.151-.168,3.65v3.831a.892.892,0,0,0,0,.128v.39a2.472,2.472,0,0,0,.034.484c.255,3.011,7.871,1.875,7.871,1.875l.612.074h3.4l.229-.04.222-.034.215-.047.215-.04.262-.067.316-.094.195-.061.188-.067a1.441,1.441,0,0,0,.182-.067l.182-.074.175-.074.168-.074.168-.087.155-.081.161-.087.148-.094.155-.094.134-.094.148-.108a.9.9,0,0,0,.128-.094,1.223,1.223,0,0,0,.148-.114l.114-.094.168-.148.074-.074.229-.222.067-.081.148-.155.074-.1a1.341,1.341,0,0,0,.128-.148l.074-.1.114-.155.067-.1.108-.155a.948.948,0,0,1,.067-.108c0-.054.061-.108.094-.161l.061-.1c0-.06.061-.114.087-.168a.732.732,0,0,0,.054-.1c0-.061.06-.121.087-.182l.047-.094c0-.067.061-.134.094-.208v-.061c.074-.188.148-.376.208-.565v-.054a.72.72,0,0,1,.074-.222.505.505,0,0,1,0-.094.256.256,0,0,1,.054-.188V440.2a.087.087,0,0,0,0-.04,1.641,1.641,0,0,1,.094-.356h0a2.32,2.32,0,0,1,.074-.363v-.087a2.592,2.592,0,0,1,.054-.329.265.265,0,0,0,0-.114v-.874h0v-1.176a1.667,1.667,0,0,1,0-.181v-.235a.33.33,0,0,1,0-.081v-.269h0c-.04-.491-.087-.786-.087-.786v-.612l-.423-10.876v-.672c.625-.35,1.264-.746,1.929-1.21,0,0-.114-6.2,1.674-8.691s-.894-9.027-.894-9.027l-1.116-23.371.444-10.755a10.7,10.7,0,0,1-1.344-5.216,18.976,18.976,0,0,0-1.788-6.722s-1.116-3.7.229-4.786S787.5,328.5,787.5,328.5s.672-17.375-.6-27.693v-.168l.356-.161c-.107-.827-.222-1.6-.349-2.319l-.376.114a18.9,18.9,0,0,0-.672-2.689l-1.788-8.207s-.04-.43-.087-1.055c-.061-.739-.128-1.741-.141-2.621a4.451,4.451,0,0,1,.121-1.1l-.094-.081a2.437,2.437,0,0,1,.094-.571l-.39-.329s-.054-.37-.094-.934a10.516,10.516,0,0,1,.484-4.658c.894-1.795,10.082-8.59,10.082-8.59l5.149-10.3s5.135-7.232,9.041-8.644,16.071-9.5,16.071-9.5,4.241-4.349,4.578-5.377l.141-.215h.081v-.141l11.427-17.12c4.571-3.7,4.739-11.575,4.739-11.575l1.19-18-.39-10.647.551-6.049S856.661,144.3,847.069,144.675Zm-65.455,46.581a14.4,14.4,0,0,0-1.9,7.138v.652a14.355,14.355,0,0,0,1.525,6.438,5.275,5.275,0,0,0-1.108,1.971c-.565-.712-2.218-2.89-2.312-4.335a4.512,4.512,0,0,0-1.788-2.931s-.309-3.294.108-3.858l.061-.054s.047-.081.141-.215h0c.477-.719,2.084-3.146,3.744-5.908a5.286,5.286,0,0,0,.854.282l1.022.255Z" transform="translate(-261.491 -63.833)" fill="url(#a)"/><path d="M855.59,216.952c.1-.229.181-.471.262-.712a14.855,14.855,0,0,0-.672,1.647C855.321,217.571,855.462,217.262,855.59,216.952Z" transform="translate(-302.907 -91.345)" fill="url(#b)"/><path d="M808.381,240.087s-2.1,10.029-5.982,11.326,4.705,12.771,4.705,12.771l17.792-.975.323-3.717s-3.361-7.441,2.265-16.495S808.381,240.087,808.381,240.087Z" transform="translate(-285.274 -98.496)" fill="#f6bac2"/><path d="M761.541,579.536c-.242,2.991-7.6,1.862-7.6,1.862-12.206,1.694-10.19-10.271-10.19-10.271v-.612l.423-11.158.121-3.112s13.443-6.144,13.1-4.853a7.643,7.643,0,0,0,.544,2.9c.672,2.09,1.633,4.456,1.633,4.456a40.19,40.19,0,0,1-.323,6.385c-.4,1.452,2.1,5.337,2.1,5.337s0,.242.04.672a78.416,78.416,0,0,1,.148,8.388Z" transform="translate(-266.335 -201.164)" fill="#b77983"/><path d="M801.552,583.428s-7.36,1.136-7.6-1.862a76.441,76.441,0,0,1,.128-8.409,6,6,0,0,1,.034-.672s2.507-3.885,2.1-5.337a40.261,40.261,0,0,1-.323-6.392s.262-.625.6-1.526c.719-1.889,1.8-4.954,1.58-5.828-.323-1.3,13.1,4.846,13.1,4.846l.134,3.482.41,10.788v.612S813.766,585.128,801.552,583.428Z" transform="translate(-282.814 -201.822)" fill="#b77983"/><path d="M845.52,140.235c-4.275,13.746-17.248,17.523-17.248,17.523s-8.684,6.439-9.921,8.456-11.911,10.674-14.72,11.81-4.954,3.018-4.2,5.545c.672,2.346-6.681,13.826-7.79,15.534h0l-.134.215-2.319,2.426-7.871,3.986-6.412-2.05-.813-7.7,3.4-6.049h0a16.689,16.689,0,0,0,4.819-5.263c2.211-3.67,3.724-6.2,3.724-6.2s2.426-5.767,6.251-9.168a56.561,56.561,0,0,1,8.516-6.049l15.8-9.41a25.478,25.478,0,0,1,6.049-3.361C825.147,149.76,849.782,126.49,845.52,140.235Z" transform="translate(-276.323 -65.007)" fill="#f6bac2"/><path d="M781.316,227.132l10.513-2.1a.672.672,0,0,0-.188.437h0l-.134.215-2.319,2.426-7.871,3.986-6.412-2.05-.813-7.7,3.4-6.049h0c-3.22,6.722-.081,11.494-.081,11.494Z" transform="translate(-276.323 -91.362)" opacity="0.05"/><path d="M869.209,276.533a1.991,1.991,0,0,0-.074.215,2.948,2.948,0,0,1-.39.672l-4.241,2.07-6.473.672-3.361-8.14,2.238-8.92,1.237-1.667.343-.376c.128,1.613.78,10.029.739,12.556-.054,2.8,2.016,3.025,2.016,3.025Z" transform="translate(-302.74 -106.039)" opacity="0.05"/><path d="M831.79,262.389a1.991,1.991,0,0,0-.074.215c-.323,1.022-4.416,5.337-4.416,5.337s-11.756,8.032-15.527,9.41-8.738,8.57-8.738,8.57l-4.961,10.237s-8.893,6.722-9.753,8.523a10.622,10.622,0,0,0-.464,4.624,4.793,4.793,0,0,0,.081.928l-2.621,2.736-2.09,2.178-2.944,3.065-4.792-.672-14.935-2.373-2.863-1.613L741.8,304.6s0-.558-.04-1.412c0-.376,0-.807-.04-1.284-.047-1.452-.114-3.26-.188-4.8-.161-3.179,2.265-8.624,2.265-8.624l4.47-11c-.43-2.1,2.05-7.656,2.05-7.656-.43-.807,2.158-8.839,2.8-9.592s1.727-6.419,1.727-6.419c1.344-1.936,3.287-11.8,3.287-11.8s2.211-12.509,2.689-15.634,5.915-10.129,6.09-10.345c-3.878,7.111-.484,12.287-.484,12.287l3.885-.672,10.519-2.05c-.484.323-.161,3.878-.161,3.878a4.484,4.484,0,0,1,1.721,2.91c.1,1.58,2.016,4.033,2.373,4.47l.054.06a5.263,5.263,0,0,1,2.534-3.616l2.427,3.24.813,3.878s-.222.544-1.62,1.62.592,3.878.592,3.878c.672,1.136.867,5.337.867,5.337h0A7.86,7.86,0,0,1,795,249.692a13.859,13.859,0,0,0,2.749-3.939,1.627,1.627,0,0,1,2.319-1.075,14.908,14.908,0,0,1,2.642-1.835c1.3-.672,2.8.672,2.8.672l.161,4.967s.128.2.336.477c.423.591,1.183,1.5,1.66,1.344a49.238,49.238,0,0,1,6.09.323s1.889.807,2.588-.215,4.705-3.717,4.705-3.717.773,10.008.773,12.8,2.016,3.025,2.016,3.025Z" transform="translate(-265.645 -91.277)" fill="#7ea44b"/><path d="M875.931,284.854h-.141C876.045,284.182,875.931,284.854,875.931,284.854Z" transform="translate(-309.664 -113.742)" fill="none"/><circle cx="0.968" cy="0.968" r="0.968" transform="translate(521.064 163.591)" fill="#4b4442"/><circle cx="0.968" cy="0.968" r="0.968" transform="translate(514 177.666)" fill="#4b4442"/><circle cx="0.968" cy="0.968" r="0.968" transform="translate(500.093 207.799)" fill="#4b4442"/><circle cx="0.968" cy="0.968" r="0.968" transform="translate(506.667 192.594)" fill="#4b4442"/><path d="M758.286,554.3c-5.055,6.009-10.513,5.908-13.766,5.061l.121-3.112s13.443-6.144,13.1-4.853A7.138,7.138,0,0,0,758.286,554.3Z" transform="translate(-266.628 -201.164)" opacity="0.05"/><path d="M812.6,561.77c-8.583,4.961-13.618-.854-14.788-2.5.719-1.889,1.8-4.954,1.58-5.828-.323-1.3,13.1,4.846,13.1,4.846Z" transform="translate(-284.099 -201.835)" opacity="0.05"/><path d="M794.468,483.192c-1.721,2.48-1.62,8.624-1.62,8.624-11.1,7.979-16.925-1.727-16.925-1.727a35.7,35.7,0,0,0-.538-11.212,23.4,23.4,0,0,1-.215-9.814s-.215-9.921-.76-11.319a21.652,21.652,0,0,1-.538-7.011c.215-1.512-1.4-4.954-1.4-4.954s0-4.315-.76-5.283-1.613-7.878-1.613-7.878l-5.169-19.405s-2.158-11.749-3.018-14.337-1.943-2.05-1.943-2.05l-3.105,13.907-2.373,23.72c-1.19,2.689-.672,8.953-.672,8.953l.753,9.162-1.25,15.742a.334.334,0,0,0,0,.081.961.961,0,0,0,.39.78,25.9,25.9,0,0,1,1.808,15.2c-8.194,11.864-18.115,5.713-18.115,5.713a25.159,25.159,0,0,0-1.936-7.864c-1.835-4.53.323-22.853.323-22.853l-1.62-11.864s-.108-7.118-.43-8.066-.215-7.979-.215-7.979l.215-7.441c-2.8-9.491-1.4-24.473-1.4-24.473s-.43-23.936.437-25.018c.625-.78.229-4.329.5-6.89a4.807,4.807,0,0,1,.632-2.211l.108-.108c1.4-1.727,1.4-8.624,1.291-11.326-.054-1.425.921-3.737,1.848-5.592.672-1.3,1.284-2.379,1.512-2.769l.094-.155s6.144,1.512,22.423,9.276a30.6,30.6,0,0,0,9.262,2.87,20.611,20.611,0,0,0,4.833.074,16.871,16.871,0,0,0,6.95-2.258,12.218,12.218,0,0,0,3-2.413,20.089,20.089,0,0,0,0,4.342c.04.625.087,1.049.087,1.049l1.795,8a20.985,20.985,0,0,1,.672,2.9c.128.712.235,1.485.336,2.306,1.257,10.23.585,27.471.585,27.471s2.689,23.613,1.4,24.688-.222,4.745-.222,4.745a19.137,19.137,0,0,1,1.727,6.681,10.755,10.755,0,0,0,1.3,5.176l-.437,10.674,1.129,23.156S796.2,480.712,794.468,483.192Z" transform="translate(-262.521 -133.716)" fill="#2e5987"/><path d="M806.13,490.761s8.167-4.705,9.948-2.588S806.13,490.761,806.13,490.761Z" transform="translate(-286.827 -180.317)" opacity="0.05"/><path d="M813.322,496.14s-1.344.672,1.62,1.533S813.322,496.14,813.322,496.14Z" transform="translate(-289.085 -183.108)" opacity="0.05"/><path d="M740,476.84c-.276.081,6.8,4.772,13.181.887C753.15,477.727,741.589,476.356,740,476.84Z" transform="translate(-265.143 -176.747)" opacity="0.05"/><path d="M755.753,490.24s-1.936,3.8-5.9,4.369S755.753,490.24,755.753,490.24Z" transform="translate(-268.068 -181.174)" opacity="0.05"/><path d="M797.71,502.52s9.3,14.787,7.521,18.276S797.71,502.52,797.71,502.52Z" transform="translate(-284.066 -185.2)" opacity="0.05"/><path d="M773.9,369.09l-.968,28.95s5.74-.242,6.722-9.78,1.7-17.308,1.7-17.308Z" transform="translate(-275.943 -141.456)" fill="#727677" opacity="0.05"/><path d="M761.624,586.592a19.072,19.072,0,0,1-.081,2.238c-.242,2.991-7.6,1.862-7.6,1.862-6.722.934-9.141-2.292-9.941-5.377a12.307,12.307,0,0,1-.37-3.065,12.723,12.723,0,0,1,.121-1.842V579.8a4.5,4.5,0,0,1,4.181.854c2.991,2.427,6.957.565,6.957.565s2.91.242,4.033,1.21c.632.544,1.674-.766,2.467-2.016.047.807.121,2.265.168,3.825C761.61,585.033,761.624,585.839,761.624,586.592Z" transform="translate(-266.337 -210.471)" opacity="0.05"/><path d="M749.821,587.72S747.8,589.7,744,586.645a12.309,12.309,0,0,1-.37-3.065C745.573,585.059,749.175,587.72,749.821,587.72Z" transform="translate(-266.337 -211.775)" opacity="0.05"/><path d="M769.335,588.846a1.519,1.519,0,0,1-2.185-.35,14.37,14.37,0,0,0,2.151-2.016C769.321,587.287,769.335,588.093,769.335,588.846Z" transform="translate(-274.048 -212.725)" opacity="0.05"/><path d="M793.869,588.654a20.666,20.666,0,0,0,.074,2.238c.242,3,7.6,1.862,7.6,1.862,6.722.941,9.141-2.285,9.941-5.377a12.911,12.911,0,0,0,.249-4.907v-.612a4.551,4.551,0,0,0-4.187.854c-2.991,2.427-6.95.565-6.95.565s-2.91.249-4.033,1.217c-.632.544-1.674-.766-2.46-2.016-.047.807-.128,2.265-.175,3.825C793.876,587.088,793.862,587.895,793.869,588.654Z" transform="translate(-282.807 -211.149)" opacity="0.05"/><path d="M811.43,589.764s2.016,1.976,5.814-1.075a12.262,12.262,0,0,0,.376-3.058C815.671,587.1,812.069,589.764,811.43,589.764Z" transform="translate(-288.564 -212.447)" opacity="0.05"/><path d="M793.869,590.906a1.512,1.512,0,0,0,2.178-.349,14.219,14.219,0,0,1-2.151-2.016C793.876,589.34,793.862,590.146,793.869,590.906Z" transform="translate(-282.807 -213.401)" opacity="0.05"/><path d="M777.12,285s-10.351,28.573-6.365,31.054S777.12,285,777.12,285Z" transform="translate(-274.93 -113.888)" opacity="0.05"/><path d="M791.292,271.88s-1.949,9.491-.975,10.351S791.292,271.88,791.292,271.88Z" transform="translate(-281.553 -109.587)" opacity="0.05"/><path d="M817.193,304.77S804.469,316.627,805.33,317.6,817.193,304.77,817.193,304.77Z" transform="translate(-286.551 -120.369)" opacity="0.05"/><path d="M829.563,262.878c-4.819,1.472-16.085,4.913-16.213,4.887l.625-2.568a7.86,7.86,0,0,1,4.577-1.559A13.86,13.86,0,0,0,821.3,259.7a1.627,1.627,0,0,1,2.319-1.075,15.3,15.3,0,0,1,2.642-1.835c1.3-.672,2.8.672,2.8.672l.161,4.961S829.354,262.6,829.563,262.878Z" transform="translate(-289.194 -104.577)" opacity="0.05"/><path d="M829.563,261.938c-4.819,1.472-16.085,4.913-16.213,4.88l.625-2.561a7.86,7.86,0,0,1,4.577-1.559,13.861,13.861,0,0,0,2.749-3.939,1.627,1.627,0,0,1,2.319-1.076,14.909,14.909,0,0,1,2.642-1.835c1.3-.672,2.8.672,2.8.672l.161,4.967S829.354,261.649,829.563,261.938Z" transform="translate(-289.194 -104.269)" fill="#d39999"/><path d="M810.166,254.84c.672,1.136.86,5.337.86,5.337l-1.875,1.492L805.589,251.4l-.161-5.337-.067-.3.054.06a5.236,5.236,0,0,1,2.534-3.609l2.427,3.233.813,3.878s-.222.544-1.62,1.62S810.166,254.84,810.166,254.84Z" transform="translate(-286.574 -99.859)" opacity="0.05"/><path d="M810.656,254.336c.672,1.136.867,5.337.867,5.337l-1.875,1.512-3.562-10.271-.161-5.337-.074-.3.054.06a5.263,5.263,0,0,1,2.534-3.616l2.427,3.24.813,3.878s-.222.544-1.62,1.62S810.656,254.336,810.656,254.336Z" transform="translate(-286.735 -99.699)" fill="#d39999"/><path d="M834.165,227.249a14.431,14.431,0,1,1-4.225-10.331,14.552,14.552,0,0,1,4.225,10.331Z" transform="translate(-286.476 -90.181)" opacity="0.05"/><path d="M834.158,226.282a14.472,14.472,0,1,1-4.239-10.315,14.559,14.559,0,0,1,4.239,10.315Z" transform="translate(-286.469 -89.867)" fill="#f6bac2"/><path d="M835.056,226.273a14.473,14.473,0,0,1-2.117,7.562c-.215-.383-.343-.827-.558-1.217-.3-.544-1-1-1.519-.672a1.552,1.552,0,0,0-.477.672c-.423.894-1.176,1.788-2.164,1.768a2.144,2.144,0,0,1-1.842-1.573,6.456,6.456,0,0,1-.108-2.568c.148-1.748.175-3.764-1.123-4.94a7.352,7.352,0,0,0-2.81-1.257,3.685,3.685,0,0,1-2.42-1.788c-.269-.672-.2-1.385-.444-2.016a3.529,3.529,0,0,0-2.615-1.922,6.856,6.856,0,0,1-4.577,1.566,17.153,17.153,0,0,1-4.5-.712,14.559,14.559,0,0,1,27.276,7.078Z" transform="translate(-287.368 -89.858)" opacity="0.05"/><path d="M818.326,216.089c.242.672.175,1.4.444,2.016a3.669,3.669,0,0,0,2.42,1.788,7.394,7.394,0,0,1,2.81,1.25c1.3,1.183,1.27,3.2,1.123,4.947a6.459,6.459,0,0,0,.107,2.568,2.157,2.157,0,0,0,1.842,1.573,2.674,2.674,0,0,0,2.164-1.768,1.567,1.567,0,0,1,.477-.672c.518-.343,1.217.114,1.519.672a6.665,6.665,0,0,0,.867,1.633,1.936,1.936,0,0,0,1.768.4,4.457,4.457,0,0,0,1.66-.86,9.1,9.1,0,0,0,3.092-3.717,5.337,5.337,0,0,0-.195-4.705,14.131,14.131,0,0,1-1.62-2.46c-.551-1.606.484-3.26,1.122-4.833a8.39,8.39,0,0,0,.571-4.564,5.861,5.861,0,0,0-2.4-3.852c-2.554-1.7-6.009-.766-8.967-1.586a22.738,22.738,0,0,1-3.085-1.27,22.854,22.854,0,0,0-4.705-1.506c-1.606-.323-3.549-.363-4.564.921a10.18,10.18,0,0,0-.739,1.291,4.645,4.645,0,0,1-2.9,2.137c-.867.208-1.775.155-2.689.282a2.958,2.958,0,0,0-2.238,1.284,4.453,4.453,0,0,0-.148,2.689,2.729,2.729,0,0,1-.672,2.534c-.343.262-.813.39-1.022.76a1.069,1.069,0,0,0,.316,1.27,3.031,3.031,0,0,0,1.284.565,19.647,19.647,0,0,0,5.155.881,6.8,6.8,0,0,0,4.8-1.768c-.114.114-.854.067-.988.06C816.236,214.194,817.836,214.772,818.326,216.089Z" transform="translate(-286.218 -86.335)" fill="#7e646b"/><g transform="translate(518.251 120.23)" opacity="0.05"><path d="M836.449,233.6a4.577,4.577,0,0,1-1.66.867,1.949,1.949,0,0,1-1.761-.41,6.559,6.559,0,0,1-.874-1.633c-.3-.544-1-1-1.519-.672a1.646,1.646,0,0,0-.477.672,2.632,2.632,0,0,1-2.164,1.768,2.131,2.131,0,0,1-1.835-1.573,6.461,6.461,0,0,1-.114-2.568c.155-1.748.175-3.757-1.116-4.94a7.393,7.393,0,0,0-2.816-1.257,3.7,3.7,0,0,1-2.42-1.788c-.269-.672-.2-1.385-.444-2.016a3.514,3.514,0,0,0-2.615-1.922,6.977,6.977,0,0,1-4.577,1.573,19.936,19.936,0,0,1-5.155-.887,3.113,3.113,0,0,1-1.284-.558,1.422,1.422,0,0,1-.208-.242,1.882,1.882,0,0,0-.753.585,1.069,1.069,0,0,0,.316,1.27,3.031,3.031,0,0,0,1.284.565,19.648,19.648,0,0,0,5.155.881,6.917,6.917,0,0,0,4.571-1.566,3.517,3.517,0,0,1,2.621,1.916c.242.672.175,1.4.444,2.016a3.685,3.685,0,0,0,2.42,1.788,7.393,7.393,0,0,1,2.81,1.25c1.3,1.183,1.27,3.2,1.122,4.947a6.459,6.459,0,0,0,.107,2.568,2.158,2.158,0,0,0,1.842,1.573,2.674,2.674,0,0,0,2.164-1.768,1.567,1.567,0,0,1,.477-.672c.518-.343,1.217.114,1.519.672a6.458,6.458,0,0,0,.874,1.633,1.922,1.922,0,0,0,1.761.4,4.457,4.457,0,0,0,1.66-.86,9.1,9.1,0,0,0,3.092-3.717,5.949,5.949,0,0,0,.289-.887,9.585,9.585,0,0,1-2.736,2.991Z" transform="translate(-804.565 -212.155)"/><path d="M854,220.783c.141-.309.276-.618.4-.921a6.127,6.127,0,0,0,.249-.712A15.887,15.887,0,0,0,854,220.783Z" transform="translate(-820.772 -212.529)"/><path d="M807.159,213.326a2.757,2.757,0,0,0,.612-2.474,10.986,10.986,0,0,1-.128-1.553,2.286,2.286,0,0,0-.37.471,4.453,4.453,0,0,0-.148,2.689A5.243,5.243,0,0,1,807.159,213.326Z" transform="translate(-805.361 -209.3)"/></g><path d="M787.707,357.813c-1.25.087-3,.181-5.115.255-1.465.047-3.105.081-4.86.081-1.533,0-3.152,0-4.833-.074a103.625,103.625,0,0,1-15.843-1.633c-6.984-1.344-13.443-3.663-17.476-7.589.672-1.3,1.284-2.386,1.512-2.769,0-.376,0-.813-.04-1.284,7.091,3.361,29.2,12.7,46.144,7.394a4.792,4.792,0,0,0,.081.928l.383.323A20.4,20.4,0,0,0,787.707,357.813Z" transform="translate(-265.009 -133.493)" opacity="0.05"/><path d="M787.707,356.85c-1.25.087-3,.181-5.115.249-1.465.054-3.105.081-4.86.081-1.533,0-3.152,0-4.833-.074a103.6,103.6,0,0,1-15.843-1.627c-6.984-1.344-13.443-3.67-17.476-7.6.672-1.3,1.284-2.379,1.512-2.769,0-.376,0-.807-.04-1.284,7.091,3.361,29.2,12.7,46.144,7.427a4.792,4.792,0,0,0,.081.928l.383.323A20.145,20.145,0,0,0,787.707,356.85Z" transform="translate(-265.009 -133.175)" fill="#4b4442"/><path d="M311.03,655.128a9.242,9.242,0,0,1-2.064-7.038l29.669-242.764,2.46-20.165a9.309,9.309,0,0,1,9.168-8.173l86.9-.578a9.3,9.3,0,0,0,9.235-9.551l-.034-.921a9.3,9.3,0,0,1,9.3-9.619h91.32a9.3,9.3,0,0,1,9.3,9.276,9.932,9.932,0,0,1-.081,1.25,9.3,9.3,0,0,0,8.98,10.526l87.7,2.238a9.289,9.289,0,0,1,8.926,10.862L617.964,646.565l-.827,4.84a9.094,9.094,0,0,1-1.344,3.468Z" transform="translate(-123.813 -137.269)" fill="#3c3c3c"/><g transform="translate(350.716 165.653)" opacity="0.5"><rect width="176.664" height="54.015" transform="matrix(0.568, -0.823, 0.823, 0.568, 0, 145.348)" fill="url(#c)"/></g><rect width="51.353" height="174.298" transform="matrix(0.823, 0.568, -0.568, 0.823, 451.884, 167.619)" fill="#f9fafb"/><rect width="36.254" height="36.254" transform="matrix(0.821, 0.571, -0.571, 0.821, 454.928, 174.413)" fill="#f7b643"/><rect width="36.303" height="36.303" transform="matrix(0.823, 0.568, -0.568, 0.823, 431.608, 210.288)" fill="#f7b643" opacity="0.5"/><rect width="36.303" height="36.303" transform="matrix(0.823, 0.568, -0.568, 0.823, 406.688, 246.348)" fill="#f7b643" opacity="0.3"/><g transform="translate(341.448 157.002)" opacity="0.5"><rect width="176.005" height="54.015" transform="matrix(0.28, -0.96, 0.96, 0.28, 0, 168.938)" fill="url(#d)"/></g><rect width="51.353" height="173.639" transform="matrix(0.96, 0.28, -0.28, 0.96, 392.188, 158.637)" fill="#f9fafb"/><rect width="36.303" height="36.303" transform="matrix(0.96, 0.28, -0.28, 0.96, 398.659, 163.448)" fill="#f97878"/><rect width="36.303" height="36.303" transform="matrix(0.96, 0.28, -0.28, 0.96, 386.364, 205.516)" fill="#f97878" opacity="0.5"/><rect width="36.303" height="36.303" transform="matrix(0.96, 0.28, -0.28, 0.96, 374.071, 247.578)" fill="#f97878" opacity="0.3"/><g transform="translate(341.542 159.936)" opacity="0.5"><rect width="176.005" height="54.015" transform="matrix(0.08, -0.997, 0.997, 0.08, 0, 175.438)" fill="url(#e)"/></g><rect width="51.353" height="173.639" transform="matrix(0.997, 0.08, -0.08, 0.997, 357.274, 161.266)" fill="#f9fafb"/><rect width="36.303" height="36.303" transform="matrix(0.997, 0.08, -0.08, 0.997, 364.56, 164.67)" fill="#73b53b"/><rect width="36.303" height="36.303" transform="matrix(0.997, 0.08, -0.08, 0.997, 361.041, 208.348)" fill="#73b53b" opacity="0.5"/><rect width="36.303" height="36.303" transform="matrix(0.997, 0.08, -0.08, 0.997, 357.528, 252.04)" fill="#73b53b" opacity="0.3"/><g transform="translate(332.42 164.662)" opacity="0.5"><rect width="54.015" height="176.005" transform="translate(0 2.46) rotate(-2.61)" fill="url(#f)"/></g><rect width="51.353" height="173.639" transform="translate(334.245 168.223) rotate(-2.61)" fill="#fff"/><rect width="36.303" height="36.303" transform="translate(341.893 170.676) rotate(-2.61)" fill="#2e5987"/><rect width="36.349" height="36.349" transform="translate(345.311 213.071) rotate(-2.862)" fill="#2e5987" opacity="0.5"/><rect width="36.303" height="36.303" transform="translate(345.883 258.241) rotate(-2.61)" fill="#2e5987" opacity="0.3"/><path d="M447.571,525.692l-45.626,17.651L335.26,569.121c-2.521-4.705-6.231-11.064-10.822-18.652-15.8-26.174-41.929-66.887-65.2-102.666-26.214-40.33-48.779-74.361-48.779-74.361l16.333-4.705L360.217,330Z" transform="translate(-91.542 -128.641)" fill="#e6ecf8"/><path d="M455.541,525.692l-45.626,17.651a342.939,342.939,0,0,1-77.527,7.125c-15.8-26.174-41.929-66.887-65.2-102.665L234.77,368.71,368.187,330Z" transform="translate(-99.511 -128.641)" opacity="0.1"/><path d="M486.386,505.208s-70.879,41.929-176.7,32.445L225.32,331.973l40.43-6.95,139.769-24,79.315,200.189Z" transform="translate(-96.413 -119.14)" fill="#2e5987"/><path d="M504.527,501.249a335.038,335.038,0,0,1-55.426-1.58c-21.025-2.474-42.171-7.569-60.3-16.911-15.157-7.8-28.116-16.293-39.415-26.476C319.992,429.846,301.8,392.03,285.47,325.063l139.769-24Z" transform="translate(-116.133 -119.153)" opacity="0.1"/><path d="M551.9,460.535s-52.247,10.23-105.428,3.932c-21.025-2.474-42.171-7.569-60.3-16.911-15.157-7.8-28.11-16.293-39.415-26.476-36.377-32.727-55.588-82.884-75.4-184.172,0,0,86.856,20.965,172.745-24.957C444.078,211.984,473.028,392.646,551.9,460.535Z" transform="translate(-111.507 -89.939)" fill="#f9fafb"/><path d="M483.245,556.983c-21.025-2.474-42.171-7.569-60.3-16.911-15.157-7.8-28.11-16.293-39.415-26.476,30.973-2.514,35.423-19.446,35.423-19.446C441.914,530.588,483.245,556.983,483.245,556.983Z" transform="translate(-148.281 -182.456)" opacity="0.1"/><path d="M338.2,295.027s70.63-3.993,90.352-19.217l2.991,9.612S384.875,306.01,338.2,306.259Z" transform="translate(-133.42 -110.875)" fill="#2e5987" opacity="0.3"/><path d="M338.2,361s68.385-3.744,120.054-28.7L460,336.293s-41,23.936-121.8,30.2Z" transform="translate(-133.42 -129.395)" fill="#2e5987" opacity="0.3"/><path d="M346.39,388.511s68.385-3.744,120.048-28.7l1.748,3.993s-41,23.929-121.8,30.2Z" transform="translate(-136.105 -138.414)" fill="#2e5987" opacity="0.3"/><path d="M354.57,416.061s68.385-3.744,120.054-28.7l1.741,3.993s-41,23.936-121.8,30.2Z" transform="translate(-138.787 -147.446)" fill="#2e5987" opacity="0.3"/><path d="M362.76,443.611s68.385-3.744,120.048-28.7l1.748,3.993s-41,23.936-121.8,30.2Z" transform="translate(-141.472 -156.478)" fill="#2e5987" opacity="0.3"/><path d="M370.94,471.171s68.385-3.744,120.054-28.7l1.741,3.993s-41,23.929-121.8,30.2Z" transform="translate(-144.154 -165.513)" fill="#2e5987" opacity="0.3"/><path d="M1073.948,827.222s-28.419-1.714-25.072,18.2a4.842,4.842,0,0,0,2.527,5.115s.047-1.479,2.91-.975a13.055,13.055,0,0,0,3.092.148,6.385,6.385,0,0,0,3.771-1.559h0s7.992-3.3,11.1-16.354c0,0,2.3-2.85,2.2-3.583l-4.792,2.016s1.64,3.462.349,6.332c0,0-.155-6.2-1.075-6.049-.188,0-2.494,1.2-2.494,1.2s2.816,6.049.672,10.405c0,0,.807-7.427-1.573-9.968l-3.361,1.969s3.294,6.224,1.062,11.306c0,0,.571-7.79-1.775-10.828l-3.058,2.386s3.1,6.137,1.21,10.351c0,0-.249-9.074-1.875-9.76,0,0-2.689,2.359-3.078,3.361,0,0,2.117,4.45.8,6.8,0,0-.807-6.049-1.465-6.049,0,0-2.689,4.033-2.944,6.722a14.535,14.535,0,0,1,2.3-7.132,8.067,8.067,0,0,0-4.087,2.117s.417-2.837,4.745-3.079c0,0,2.2-3.038,2.79-3.226,0,0-4.3-.356-6.91.8,0,0,2.3-2.689,7.7-1.459l3.018-2.46s-5.666-.78-8.066.081c0,0,2.763-2.366,8.879-.672l3.287-1.963s-4.826-1.042-7.7-.672c0,0,3.031-1.64,8.671.134l2.346-1.055s-3.536-.672-4.571-.807-1.1-.39-1.1-.39a12.193,12.193,0,0,1,6.648.739S1074.029,827.538,1073.948,827.222Z" transform="translate(-366.319 -291.638)" fill="#7ea44b"/><ellipse cx="20.111" cy="3.401" rx="20.111" ry="3.401" transform="translate(667.944 557.234)" fill="#2e5987" opacity="0.1"/><ellipse cx="68.56" cy="6.211" rx="68.56" ry="6.211" transform="translate(478.409 541.727)" fill="#2e5987" opacity="0.1"/><path d="M1099.039,729.42s-16.018-.968-14.115,10.264a2.736,2.736,0,0,0,1.418,2.884s.034-.833,1.647-.551a7.464,7.464,0,0,0,1.741.081,3.588,3.588,0,0,0,2.124-.874h0s4.5-1.862,6.258-9.222c0,0,1.3-1.607,1.244-2.016l-2.689,1.149a4.873,4.873,0,0,1,.2,3.576s-.087-3.5-.6-3.421c-.108,0-1.4.672-1.4.672s1.586,3.361.39,5.868c0,0,.457-4.187-.887-5.626l-1.9,1.116s1.855,3.509.6,6.372c0,0,.323-4.4-1-6.1l-1.721,1.344s1.741,3.462.672,5.834c0,0-.141-5.115-1.055-5.5a10.759,10.759,0,0,0-1.741,1.875s1.2,2.514.457,3.838c0,0-.457-3.408-.827-3.421a11.234,11.234,0,0,0-1.66,3.8,8.227,8.227,0,0,1,1.3-4.033,4.5,4.5,0,0,0-2.306,1.2s.235-1.6,2.689-1.734a10.727,10.727,0,0,1,1.573-1.822,9.9,9.9,0,0,0-3.9.45s1.3-1.506,4.342-.82l1.707-1.391s-3.2-.437-4.551.047c0,0,1.559-1.344,5.008-.363l1.855-1.109a16.745,16.745,0,0,0-4.349-.37s1.714-.928,4.887.074l1.344-.591s-2.017-.4-2.581-.457-.618-.222-.618-.222a6.936,6.936,0,0,1,3.75.417A16.262,16.262,0,0,0,1099.039,729.42Z" transform="translate(-378.175 -259.58)" fill="#7ea44b"/><ellipse cx="11.339" cy="1.916" rx="11.339" ry="1.916" transform="translate(698.501 482.046)" fill="#2e5987" opacity="0.1"/><path d="M956.908,743.918s-19.345-1.17-17.059,12.388a3.3,3.3,0,0,0,1.714,3.482s0-1.008,2.016-.672a8.832,8.832,0,0,0,2.1.1,4.342,4.342,0,0,0,2.568-1.062h0s5.438-2.245,7.555-11.131c0,0,1.566-1.936,1.5-2.44l-3.3,1.4a5.834,5.834,0,0,1,.235,4.309s-.108-4.221-.733-4.127c-.128,0-1.694.82-1.694.82s1.916,4.1.471,7.085c0,0,.551-5.055-1.069-6.789l-2.3,1.344s2.238,4.241.719,7.7c0,0,.39-5.3-1.2-7.394l-2.084,1.627s2.111,4.174.82,7.044c0,0-.161-6.177-1.27-6.641a12.655,12.655,0,0,0-2.1,2.265s1.438,3.031.544,4.631c0,0-.551-4.114-1-4.134a14.065,14.065,0,0,0-2.016,4.591,9.928,9.928,0,0,1,1.566-4.853,5.445,5.445,0,0,0-2.776,1.445s.282-1.929,3.226-2.1a12.4,12.4,0,0,1,1.9-2.191,11.913,11.913,0,0,0-4.705.538s1.559-1.815,5.236-.988l2.057-1.68s-3.851-.524-5.492.054c0,0,1.882-1.607,6.049-.43l2.238-1.344a20.347,20.347,0,0,0-5.25-.45s2.07-1.116,5.9.094l1.6-.719s-2.406-.471-3.112-.544-.739-.269-.739-.269a8.308,8.308,0,0,1,4.524.5S956.968,744.126,956.908,743.918Z" transform="translate(-330.604 -264.332)" fill="#7ea44b"/><ellipse cx="13.692" cy="2.312" rx="13.692" ry="2.312" transform="translate(599.29 494.327)" fill="#2e5987" opacity="0.1"/><ellipse cx="20.111" cy="3.401" rx="20.111" ry="3.401" transform="translate(16.622 547.098)" fill="#2e5987" opacity="0.1"/><path d="M68.1,822.9s11.467-.35,14.929-2.81,17.644-5.377,18.5-1.459,17.241,19.64,4.288,19.748-30.093-2.016-33.547-4.12S68.1,822.9,68.1,822.9Z" transform="translate(-44.87 -288.208)" fill="#a8a8a8"/><path d="M106.044,840.015C93.091,840.123,75.951,838,72.5,835.9c-2.621-1.6-3.67-7.347-4.033-9.995H68.08s.726,9.256,4.174,11.359,20.642,4.235,33.561,4.167c3.737-.034,5.028-1.344,4.961-3.361C110.251,839.249,108.826,840,106.044,840.015Z" transform="translate(-44.864 -291.217)" opacity="0.2"/><rect width="114.717" height="205.291" transform="matrix(0.309, -0.951, 0.951, 0.309, 530.809, 109.098)" fill="url(#g)"/><rect width="113.138" height="202.454" transform="matrix(0.309, -0.951, 0.951, 0.309, 532.4, 108.789)" fill="#f6f7f9"/><g transform="translate(567.02 39.665)" opacity="0.2"><circle cx="21.079" cy="21.079" r="21.079" fill="#2e5987"/></g><g transform="translate(638.529 51.46)" opacity="0.2"><rect width="5.774" height="91.837" transform="matrix(0.309, -0.951, 0.951, 0.309, 0, 5.491)" fill="#2e5987"/></g><g transform="translate(633.977 65.459)" opacity="0.2"><rect width="5.774" height="46.782" transform="matrix(0.309, -0.951, 0.951, 0.309, 0, 5.491)" fill="#2e5987"/></g><g transform="translate(629.418 79.467)" opacity="0.2"><rect width="5.774" height="75.665" transform="matrix(0.309, -0.951, 0.951, 0.309, 0, 5.491)" fill="#2e5987"/></g><g transform="translate(624.867 93.47)" opacity="0.2"><rect width="5.774" height="91.837" transform="matrix(0.309, -0.951, 0.951, 0.309, 0, 5.491)" fill="#2e5987"/></g><g transform="translate(679.797 134.227)" opacity="0.5"><rect width="11.165" height="25.414" transform="matrix(0.309, -0.951, 0.951, 0.309, 0, 10.617)" fill="#2e5987"/></g><path d="M900.52,485.189a6.142,6.142,0,0,0-.067-.672,3.418,3.418,0,0,0-.114-.672c-.087-.457-.182-.907-.289-1.344-.054-.208-.108-.423-.168-.625a17.045,17.045,0,0,0-3.361-6.5c-.087-.108-.181-.208-.269-.309s-.363-.39-.544-.571-.35-.343-.524-.5-.336-.3-.5-.43c-.323-.262-.625-.484-.887-.672a5.516,5.516,0,0,0-.544-.35,2.985,2.985,0,0,0-1.264-.41l-2.789-.276h0l-3.811-.376-13.625-5.29-.538.188a30.9,30.9,0,0,1-1.008-3.361,3.012,3.012,0,0,0,1.075-.786,2.454,2.454,0,0,0,.739-.948c.343-.793-.316-2.48-.181-3.448a16.269,16.269,0,0,1,1.68-4.456,20.673,20.673,0,0,0,2.252-9.605,10.834,10.834,0,0,0-4.477-8.523c-1.445-.961-3.146-1.472-4.651-2.346-1.17-.672-2.2-1.573-3.314-2.339a19.049,19.049,0,0,0-18.767-1.344c-2.83,1.391-5.243,3.475-7.911,5.149s-5.814,2.958-8.94,2.46a2.195,2.195,0,0,0-.094.39l-.262-.034c-.538,1.465.78,2.917,2.016,3.919,2.306,1.9,4.92,3.8,7.925,3.865a8.326,8.326,0,0,1,3.448.255,3.16,3.16,0,0,1,.672.4,14.976,14.976,0,0,0,4.705,14.929l-6.957-2.5s-.289.148-.739.43l-9.652-6.426s-19.351-7.017-24.729,3.912,23.3,5.29,23.3,5.29l6.137,3.361a5.586,5.586,0,0,0,.672,3.683l16.73,10.338c-3.361,1.042-8.933,2.689-9.921,2.689-1.432,0-5.377,1.412-7.884,7.051s-11.474,33.151-19.358,37.735-28.674,35.268-28.674,35.268l.094.242c-.37.1-.733.2-1.089.323a22.033,22.033,0,0,0-10.8,8.147,3.455,3.455,0,0,0,2.42,5.451c8.207,1.042,12.69-2.742,14.848-5.6.141-.182.269-.363.39-.544a2.87,2.87,0,0,0,2.016.094l10.035-8.113s-7.851,7.73-3.247,14.787l-.35.491a112.19,112.19,0,0,0-16.8,36.579s-4.3,3.173-4.658,15.87-4.665,33.151-4.665,33.151-2.863,24.339-1.075,31.739c0,0,.208.3.591.746-.134.161-.282.336-.444.511-1.566,1.694-4.389,4.033-7.676,3.361-5.014-1.062-5.014,7.757,2.151,8.462,4.618.45,13.692,2.514,19.573,3.925a4.12,4.12,0,0,0,5.108-4.4,37.229,37.229,0,0,0-2.151-9.706c-.074-.168-.148-.336-.222-.491.208-.2.423-.4.632-.618,0,0,0-15.52,2.514-19.748,0,0,6.809-32.1,6.446-40.209-.276-6.345,17.671-31.06,25.482-41.5l-.067-.4c2.016-2.689,3.267-4.3,3.267-4.3l6.043,38.448s2.87,8.462,6.453,13.047c0,0,15.413,29.273,17.207,38.441a28.914,28.914,0,0,0,5.431,12.65l-.464.444c-1.633,1.5-4.033,3-6.762,2.426-5.014-1.062-5.014,7.757,2.151,8.463,4.618.457,13.692,2.521,19.567,3.932a4.127,4.127,0,0,0,5.115-4.4c-.41-3.67-1.21-8.234-2.756-10.929a7.558,7.558,0,0,0-.41-.672,3.778,3.778,0,0,0,1.425-1s-9.323-22.222-9.323-28.231c0,0-3.939-22.921-17.2-31.383,0,0,1.25-28.674,5.028-44.631.094-.39.188-.78.282-1.156a106.355,106.355,0,0,0,10.459-2.178l.356-10.58,1.795,8.462,20.071-12.341s-.175-2.225-.511-5.633c-.175-1.707-.383-3.71-.632-5.881-.2-1.734-.43-3.576-.672-5.458-.067-.471-.128-.948-.195-1.418-.262-1.9-.551-3.825-.86-5.707q-.181-1.062-.363-2.1c-.168-.921-.336-1.822-.511-2.689-.087-.437-.181-.874-.269-1.3s-.188-.847-.282-1.257-.188-.807-.282-1.2c-.054-.195-.1-.39-.148-.578-.1-.383-.2-.76-.3-1.122a20.166,20.166,0,0,1-.726-4.624v-1.862a13.339,13.339,0,0,1,.181-1.855c.04-.3.094-.612.155-.914a20.522,20.522,0,0,1,1.015-3.6c.222-.585.477-1.163.753-1.734.672-1.344,1.344-2.776,2.057-4.3.363-.76.726-1.539,1.089-2.332s.733-1.6,1.1-2.42c3.489-7.777,6.93-16.441,7.851-22.134.094-.6.168-1.163.2-1.694a10.8,10.8,0,0,0,.02-1.452Z" transform="translate(-272.071 -160.563)" fill="url(#h)"/><path d="M861.655,477.025l-11.823-7.992s-18.773-6.957-23.989,3.825,22.6,5.216,22.6,5.216l11.823,6.6Z" transform="translate(-293.076 -173.497)" fill="#ae6e79"/><rect width="113.087" height="176.047" transform="matrix(0.541, -0.841, 0.841, 0.541, 440.306, 369.838)" fill="#f9fafb"/><rect width="31.995" height="7.528" transform="matrix(0.536, -0.844, 0.844, 0.536, 462.251, 363.202)" fill="#b7b6cc"/><rect width="70.267" height="6.903" transform="matrix(0.536, -0.844, 0.844, 0.536, 482.561, 368.672)" fill="#b7b6cc"/><rect width="70.267" height="6.903" transform="matrix(0.536, -0.844, 0.844, 0.536, 495.008, 376.573)" fill="#b7b6cc"/><rect width="70.267" height="6.903" transform="matrix(0.536, -0.844, 0.844, 0.536, 507.451, 384.487)" fill="#b7b6cc"/><rect width="70.169" height="6.893" transform="matrix(0.541, -0.841, 0.841, 0.541, 520.326, 395.953)" fill="#b7b6cc"/><rect width="70.267" height="6.903" transform="matrix(0.536, -0.844, 0.844, 0.536, 532.34, 400.298)" fill="#fff"/><rect width="70.267" height="6.903" transform="matrix(0.536, -0.844, 0.844, 0.536, 544.787, 408.199)" fill="#fff"/><rect width="18.195" height="18.195" transform="matrix(0.536, -0.844, 0.844, 0.536, 597.041, 374.508)" fill="#b7b6cc"/><path d="M919.523,835.78c-5.707-1.391-14.505-3.421-18.982-3.872-6.957-.672-6.957-9.41-2.084-8.348,2.635.571,4.974-.914,6.554-2.386a15.355,15.355,0,0,0,1.344-1.472,4.033,4.033,0,0,1,2.252-1.378c2.608-.565,8.066-1.425,11.366.37a4.913,4.913,0,0,1,1.8,1.976c1.5,2.689,2.279,7.159,2.689,10.755a4.033,4.033,0,0,1-4.94,4.356Z" transform="translate(-315.971 -288.501)" fill="#bebed0"/><path d="M788.656,840.964c-5.7-1.391-14.5-3.421-18.975-3.872-6.957-.672-6.957-9.41-2.09-8.341,3.186.672,5.928-1.62,7.441-3.287.188-.2.356-.4.5-.578a4.033,4.033,0,0,1,2.245-1.344c2.608-.571,8.066-1.432,11.373.37a6.153,6.153,0,0,1,2.386,3.179,37.639,37.639,0,0,1,2.084,9.565,4.033,4.033,0,0,1-4.961,4.309Z" transform="translate(-273.07 -290.21)" fill="#bebed0"/><path d="M796.832,827.064c-8.3,8.557-15.419-.161-16.5-1.6.188-.2.356-.4.5-.578a4.033,4.033,0,0,1,2.245-1.344c2.608-.571,8.066-1.432,11.373.37A5.8,5.8,0,0,1,796.832,827.064Z" transform="translate(-278.368 -290.21)" opacity="0.1"/><path d="M926.677,820.67c-3.6,2.453-15.7,1.849-15.7,1.849a11.379,11.379,0,0,1-1.1-1.344,15.346,15.346,0,0,0,1.344-1.472,4.034,4.034,0,0,1,2.252-1.378c2.608-.565,8.066-1.425,11.366.37A4.913,4.913,0,0,1,926.677,820.67Z" transform="translate(-320.84 -288.501)" opacity="0.1"/><path d="M884.5,762.787c-2.44,3.132-16.34,2.433-16.34,2.433s-4.174-4.174-5.915-13.208-16.69-37.9-16.69-37.9c-3.475-4.524-6.258-12.865-6.258-12.865l-5.908-37.9S804.882,700.9,805.231,708.9s-6.265,39.657-6.265,39.657c-2.433,4.174-2.433,19.493-2.433,19.493-9.034,9.41-16.683-1.741-16.683-1.741-1.741-7.3,1.042-31.289,1.042-31.289s4.174-20.165,4.517-32.68,4.524-15.641,4.524-15.641a111.491,111.491,0,0,1,16.327-36.068c2.1-3,3.488-4.611,3.488-4.611l56.32,6.607a35.468,35.468,0,0,0-2.42,7.461c-3.663,15.729-4.88,43.993-4.88,43.993,12.865,8.341,16.69,30.919,16.69,30.919C875.458,740.882,884.5,762.787,884.5,762.787Z" transform="translate(-278.024 -232.245)" fill="#2e5987"/><g transform="translate(509.248 413.762)" opacity="0.05"><path d="M834.188,676.441l-.726-4.631s-28.506,37.547-28.157,45.545-6.258,39.657-6.258,39.657c-2.44,4.174-2.44,19.493-2.44,19.493a11.884,11.884,0,0,1-5.438,3.489c2.736.719,6.049.188,9.612-3.489,0,0,0-15.3,2.433-19.493,0,0,6.607-31.638,6.258-39.657C809.2,711.1,826.606,686.725,834.188,676.441Z" transform="translate(-791.17 -654.462)"/><path d="M890.65,734.967s-3.825-22.6-16.683-30.919c0,0,1.217-28.264,4.873-43.993a35.428,35.428,0,0,1,2.426-7.461L824.946,646s-.134.148-.376.444l52.523,6.164a35.463,35.463,0,0,0-2.42,7.461c-3.663,15.729-4.88,43.993-4.88,43.993,12.865,8.341,16.69,30.919,16.69,30.919,0,5.908,9.041,27.814,9.041,27.814-1.438,1.842-6.856,2.359-11.07,2.474,3.361.087,13.221.121,15.238-2.474C899.69,762.781,890.65,740.875,890.65,734.967Z" transform="translate(-802.12 -646)"/></g><path d="M799.808,635.809a12.708,12.708,0,0,1-1.647,2.877c-2.09,2.816-6.439,6.54-14.4,5.518a3.421,3.421,0,0,1-2.353-5.377,21.421,21.421,0,0,1,10.479-8.066,19.126,19.126,0,0,1,4.443-.9Z" transform="translate(-278.515 -226.947)" fill="#ae6e79"/><path d="M902,489.077l-27.881-10.2s-8,4.174-4.866,10.082L896.4,506Z" transform="translate(-307.283 -177.45)" fill="#727677"/><path d="M912.484,468.715s-.349,16.34,6.957,21.906-21.213,8.691-21.213,8.691,4.524-16.69,0-25.381S912.484,468.715,912.484,468.715Z" transform="translate(-316.789 -173.892)" fill="#ae6e79"/><path d="M879.229,652.557a35.466,35.466,0,0,0-2.42,7.461c-33.608,5.135-57.033-8.852-57.033-8.852-.128-.2-.249-.4-.356-.6,2.1-3,3.489-4.611,3.489-4.611Z" transform="translate(-291.184 -232.222)" opacity="0.1"/><path d="M805.228,635.825a12.705,12.705,0,0,1-1.647,2.877c-3.22-.538-5.794-6.722-6.271-7.891a19.125,19.125,0,0,1,4.443-.9Z" transform="translate(-283.935 -226.963)" opacity="0.1"/><path d="M882.884,490.78,870.369,495.3l-5.216,6.957s-10.755,3.475-12.166,3.475-5.216,1.391-7.649,6.95-11.124,32.694-18.773,37.2-27.814,34.764-27.814,34.764,3.475,9.41,7.649,8l9.733-8S808.483,592.3,813,599.253c0,0,28.513,17.032,67.8,6.6l.343-10.425,1.741,8.341L902.377,591.6s-1.741-22.443-4.88-33.863a20.649,20.649,0,0,1,1.344-14.391c5.048-10.519,12.838-28.09,11.891-34.5-1.122-7.548-5.377-10.828-7.017-11.817a2.9,2.9,0,0,0-1.223-.41L896.126,496Z" transform="translate(-284.407 -181.351)" fill="#727677"/><path d="M870.912,542.76s-6.957,32.331-14.606,37.547S828.149,602.213,827.45,605" transform="translate(-293.816 -198.392)" opacity="0.05"/><path d="M866.255,541.21s-6.95,32.331-14.6,37.547-28.163,21.906-28.856,24.682" transform="translate(-292.292 -197.884)" fill="#727677"/><path d="M897.28,504.536s23.989-8,30.919-5.915" transform="translate(-316.71 -183.808)" opacity="0.1"/><g transform="translate(597.301 309.429)" opacity="0.05"><path d="M939.647,546.081c5.048-10.519,12.838-28.089,11.891-34.5-1.122-7.548-5.377-10.828-7.017-11.817a2.9,2.9,0,0,0-1.223-.41l-2.689-.269a2.69,2.69,0,0,1,.807.329c1.627.995,5.895,4.268,7.011,11.823.948,6.4-6.843,23.976-11.884,34.5a20.635,20.635,0,0,0-1.344,14.384c3.146,11.427,4.887,33.863,4.887,33.863L923.32,604.464l.423,2.016,19.493-12.166s-1.741-22.443-4.88-33.863a20.649,20.649,0,0,1,1.291-14.371Z" transform="translate(-922.547 -493.504)"/><path d="M899.889,465.216l3.011.3-13.094-5.169-1.176.423Z" transform="translate(-888.63 -460.35)"/></g><path d="M887.45,589.006s10.755-5.908,14.256-4.517,16.34-.35,16.34-.35" transform="translate(-313.487 -211.958)" opacity="0.05"/><path d="M911.3,473.743c-.4-3.489,1.217-2.958,1.217-2.958S893.741,467.31,898.258,476a19.909,19.909,0,0,1,1.909,7.642h.181C905.564,483.65,908.609,477.816,911.3,473.743Z" transform="translate(-316.8 -174.571)" opacity="0.05"/><circle cx="14.949" cy="14.949" r="14.949" transform="translate(568.579 277.791)" fill="#ae6e79"/><path d="M904.271,460.017a20.84,20.84,0,0,0,2.184-9.471,10.739,10.739,0,0,0-4.342-8.409c-1.4-.941-3.052-1.445-4.51-2.306-1.136-.672-2.137-1.553-3.22-2.305a18.222,18.222,0,0,0-18.2-1.344c-2.742,1.344-5.082,3.435-7.669,5.081s-5.639,2.91-8.671,2.427c-.524,1.445.76,2.87,1.936,3.865,2.238,1.875,4.772,3.744,7.689,3.8a8.047,8.047,0,0,1,3.361.255,4.82,4.82,0,0,1,1.707,1.586,31.311,31.311,0,0,1,3.549,6.016,4.987,4.987,0,0,0,1.586,2.339c1.344.86,3.085.141,4.705.081,2.474-.1,4.705,1.459,6.533,3.126s3.576,3.576,5.888,4.456c1.727.672,5.182.632,6.049-1.432.329-.78-.309-2.447-.175-3.4a16.456,16.456,0,0,1,1.6-4.369Z" transform="translate(-304.396 -162.855)" opacity="0.1"/><path d="M904.734,459.487a20.745,20.745,0,0,0,2.185-9.464,10.753,10.753,0,0,0-4.335-8.409c-1.4-.948-3.058-1.452-4.51-2.312-1.136-.672-2.137-1.546-3.22-2.306a18.222,18.222,0,0,0-18.2-1.344c-2.742,1.344-5.081,3.428-7.669,5.075s-5.639,2.917-8.671,2.426c-.524,1.452.753,2.877,1.936,3.865,2.238,1.875,4.772,3.744,7.69,3.811a7.938,7.938,0,0,1,3.361.255A4.7,4.7,0,0,1,875,452.671a30.917,30.917,0,0,1,3.542,6.009,5,5,0,0,0,1.593,2.339c1.344.86,3.085.141,4.705.081,2.474-.094,4.705,1.465,6.527,3.132s3.576,3.569,5.895,4.45c1.727.672,5.182.632,6.049-1.432.336-.78-.3-2.447-.168-3.4A16.436,16.436,0,0,1,904.734,459.487Z" transform="translate(-304.55 -162.681)" fill="#3c3c3c"/><path d="M615.78,677.542a6.929,6.929,0,0,1-4.45,1.573l-300.3-1.277a9.242,9.242,0,0,1-2.064-7.038l29.669-242.764,18.605-.2a7.031,7.031,0,0,1,6.856,5.189l3.475,12.825a7.031,7.031,0,0,0,6.95,5.189l74.253-1.781a7.031,7.031,0,0,0,6.863-7.031v-8.5a7.031,7.031,0,0,1,6.951-7.031l102.894-1.109a7.031,7.031,0,0,1,6.97,5.707l45.505,237.944.3,1.533A6.99,6.99,0,0,1,615.78,677.542Z" transform="translate(-123.813 -159.979)" opacity="0.1"/><path d="M532.286,430.6l-102.894,1.109a7.031,7.031,0,0,0-6.957,7.024v8.5a7.031,7.031,0,0,1-6.856,7.024l-74.247,1.781a7.024,7.024,0,0,1-6.957-5.189l-3.488-12.818a7.024,7.024,0,0,0-6.863-5.189l-99.177,1.069a7.024,7.024,0,0,0-6.856,8.2l39.9,234.825a7.031,7.031,0,0,0,6.9,5.854l313.32,1.344a7.031,7.031,0,0,0,6.93-8.348L539.257,436.306A7.024,7.024,0,0,0,532.286,430.6Z" transform="translate(-93.978 -161.621)" fill="#f4a50f"/><path d="M885.966,179.152l-.538,5.982.39,10.58-1.136,17.846s-.161,7.817-4.577,11.48l-11.272,17.308-.067.034-4.241,2.07-6.473.672-3.361-8.14,2.225-8.94,1.237-1.667.343-.376c1.344-1.479,6.533-6.849,10.654-8.523,0,0,2.749-2.016,2.265-5.176s3.71-19.95,3.71-19.95,2.689-11.1,2.1-12.186-.108-25.663,9.168-26.039S885.966,179.152,885.966,179.152Z" transform="translate(-302.747 -70.981)" fill="#f6bac2"/><ellipse cx="10.896" cy="1.499" rx="10.896" ry="1.499" transform="translate(90.889 469.605)" fill="#2e5987" opacity="0.1"/><ellipse cx="10.896" cy="1.499" rx="10.896" ry="1.499" transform="translate(49.155 473.832)" fill="#2e5987" opacity="0.1"/><ellipse cx="10.896" cy="1.499" rx="10.896" ry="1.499" transform="translate(0 468.106)" fill="#2e5987" opacity="0.1"/><ellipse cx="7.743" cy="1.062" rx="7.743" ry="1.062" transform="translate(69.011 486.321)" fill="#2e5987" opacity="0.1"/><ellipse cx="7.743" cy="1.062" rx="7.743" ry="1.062" transform="translate(25.697 485.259)" fill="#2e5987" opacity="0.1"/><path d="M99.9,696.76s15.278-50.089-2.393-70.153C84.287,611.6,69.278,613.392,62.556,615.247a12.428,12.428,0,0,0-8.012,6.661c-2.353,5.068-1.929,13.3,14.66,22.9C96.971,660.887,98.7,682.94,98.7,682.94Z" transform="translate(-40.086 -221.758)" fill="#7ea44b"/><path d="M70.54,626.41s45.035,14.115,34.952,74.408" transform="translate(-45.67 -225.816)" fill="none" stroke="#565987" stroke-miterlimit="10" stroke-width="1"/><path d="M107.428,633.92s-6.2,4.181-4.228,10.465" transform="translate(-56.25 -228.278)" fill="none" stroke="#565987" stroke-miterlimit="10" stroke-width="1"/><path d="M77.26,638.3s3.791-3.858,8.409-1.727" transform="translate(-47.873 -228.939)" fill="none" stroke="#565987" stroke-miterlimit="10" stroke-width="1"/><path d="M103.75,667.7s6.661-3.361,8.382.854" transform="translate(-56.558 -238.937)" fill="none" stroke="#565987" stroke-miterlimit="10" stroke-width="1"/><path d="M125.778,678.778s-5-.4-5.088,2.016" transform="translate(-62.111 -242.976)" fill="none" stroke="#565987" stroke-miterlimit="10" stroke-width="1"/><path d="M110.28,720.318s-17.9-36.4-22.813-35.624c-2.332.383-3.408,2.689-3.9,4.987a14.646,14.646,0,0,0,.975,8.859C87.084,704.388,93.906,715.445,110.28,720.318Z" transform="translate(-49.846 -244.92)" fill="#7ea44b"/><path d="M89.71,695s18.78,27.236,22.41,28.432" transform="translate(-51.955 -248.303)" fill="none" stroke="#565987" stroke-miterlimit="10" stroke-width="1"/><line x2="4.382" transform="translate(36.028 450.952)" fill="none" stroke="#565987" stroke-miterlimit="10" stroke-width="1"/><line x2="6.876" y2="0.296" transform="translate(41.277 460.913)" fill="none" stroke="#565987" stroke-miterlimit="10" stroke-width="1"/><line x1="0.746" y2="3.583" transform="translate(44.719 452.942)" fill="none" stroke="#565987" stroke-miterlimit="10" stroke-width="1"/><line x1="0.134" y2="3.253" transform="translate(52.637 463.837)" fill="none" stroke="#565987" stroke-miterlimit="10" stroke-width="1"/><path d="M122.66,720.318s17.893-36.4,22.806-35.624c2.339.383,3.415,2.689,3.9,4.987a14.646,14.646,0,0,1-.975,8.859C145.849,704.388,139.02,715.445,122.66,720.318Z" transform="translate(-62.757 -244.92)" fill="#7ea44b"/><path d="M145.466,695s-18.82,27.236-22.416,28.432" transform="translate(-62.885 -248.303)" fill="none" stroke="#565987" stroke-miterlimit="10" stroke-width="1"/><line x1="4.382" transform="translate(79.926 450.952)" fill="none" stroke="#565987" stroke-miterlimit="10" stroke-width="1"/><line x1="6.876" y2="0.296" transform="translate(72.183 460.913)" fill="none" stroke="#565987" stroke-miterlimit="10" stroke-width="1"/><line x2="0.746" y2="3.583" transform="translate(74.872 452.942)" fill="none" stroke="#565987" stroke-miterlimit="10" stroke-width="1"/><line x2="0.134" y2="3.253" transform="translate(67.565 463.837)" fill="none" stroke="#565987" stroke-miterlimit="10" stroke-width="1"/><path d="M76.422,747.938a3.092,3.092,0,0,1-1.015-1.539,1.344,1.344,0,0,1,.713-1.566A1.975,1.975,0,0,1,78,745.5a2.4,2.4,0,0,0,1.822.854,2.783,2.783,0,0,1-.86-2.608,1.062,1.062,0,0,1,.235-.531c.363-.39,1.022-.222,1.459.087,1.344.968,1.768,2.843,1.775,4.537a8.671,8.671,0,0,0,0-1.869,1.916,1.916,0,0,1,.753-1.633,2.1,2.1,0,0,1,1.069-.255,2.218,2.218,0,0,1,1.741.5,1.727,1.727,0,0,1-.067,2.131,6.857,6.857,0,0,1-1.8,1.438,4.033,4.033,0,0,0-1.284,1.23.9.9,0,0,0-.094.215H78.835A10.85,10.85,0,0,1,76.422,747.938Z" transform="translate(-47.25 -264.037)" fill="#7ea44b"/><path d="M177.871,726.137a3.045,3.045,0,0,1-1.015-1.533,1.344,1.344,0,0,1,.706-1.566,1.975,1.975,0,0,1,1.882.672,2.478,2.478,0,0,0,1.835.88,2.783,2.783,0,0,1-.867-2.6,1.069,1.069,0,0,1,.242-.531c.363-.39,1.022-.222,1.459.081,1.378.975,1.768,2.85,1.775,4.544a8.738,8.738,0,0,0,0-1.875,1.922,1.922,0,0,1,.672-1.654,2.144,2.144,0,0,1,1.069-.249,2.245,2.245,0,0,1,1.741.491,1.727,1.727,0,0,1-.074,2.137,6.721,6.721,0,0,1-1.795,1.438,3.992,3.992,0,0,0-1.284,1.223,1.1,1.1,0,0,0-.094.222H180.3a10.757,10.757,0,0,1-2.426-1.68Z" transform="translate(-80.509 -256.902)" fill="#7ea44b"/><path d="M144.058,747.954a3.152,3.152,0,0,1-1.022-1.539,1.344,1.344,0,0,1,.712-1.566,1.975,1.975,0,0,1,1.882.672,2.5,2.5,0,0,0,1.835.887,2.8,2.8,0,0,1-.867-2.608,1.069,1.069,0,0,1,.242-.531c.363-.39,1.022-.222,1.459.087,1.378.968,1.761,2.843,1.775,4.537a8.678,8.678,0,0,0,0-1.869,1.922,1.922,0,0,1,.706-1.654,2.077,2.077,0,0,1,1.069-.255,2.225,2.225,0,0,1,1.741.5,1.721,1.721,0,0,1-.074,2.131,6.82,6.82,0,0,1-1.795,1.438,4.034,4.034,0,0,0-1.284,1.23.9.9,0,0,0-.094.215h-3.9A10.964,10.964,0,0,1,144.058,747.954Z" transform="translate(-69.422 -264.053)" fill="#7ea44b"/><path d="M47.09,706.25s-1.459,1.909.672,4.793,3.892,5.317,3.179,7.111c0,0-3.22-5.377-5.841-5.424S44.206,709.443,47.09,706.25Z" transform="translate(-36.907 -251.991)" fill="#7ea44b"/><path d="M47.092,706.25a2.407,2.407,0,0,0-.3.6c-2.554,3-3.919,5.807-1.459,5.881,2.285.067,5.034,4.154,5.686,5.189a2.406,2.406,0,0,1-.074.235s-3.22-5.377-5.841-5.424S44.209,709.443,47.092,706.25Z" transform="translate(-36.909 -251.991)" opacity="0.1"/><path d="M44.66,709.66c0,.672.074,1.217.168,1.217s.168-.544.168-1.217-.094-.356-.188-.356S44.66,708.988,44.66,709.66Z" transform="translate(-37.186 -252.968)" fill="#ffd037"/><path d="M43.094,710.845c.591.323,1.1.511,1.149.43s-.4-.4-.988-.726-.356-.087-.4,0S42.5,710.523,43.094,710.845Z" transform="translate(-36.554 -253.346)" fill="#ffd037"/><path d="M58.2,706.25s1.465,1.909-.672,4.793-3.892,5.317-3.179,7.111c0,0,3.22-5.377,5.841-5.424S61.086,709.443,58.2,706.25Z" transform="translate(-40.31 -251.991)" fill="#7ea44b"/><path d="M58.242,706.25a2.548,2.548,0,0,1,.3.6c2.554,3,3.919,5.807,1.459,5.881-2.285.067-5.034,4.154-5.693,5.189a1.388,1.388,0,0,0,.081.235s3.22-5.377,5.841-5.424S61.126,709.443,58.242,706.25Z" transform="translate(-40.349 -251.991)" opacity="0.1"/><path d="M64.036,709.66c0,.672-.074,1.217-.168,1.217s-.168-.544-.168-1.217.094-.356.188-.356S64.036,708.988,64.036,709.66Z" transform="translate(-43.428 -252.968)" fill="#ffd037"/><path d="M65.028,710.845c-.591.323-1.109.511-1.149.43s.4-.4.988-.726.356-.087.4,0S65.613,710.523,65.028,710.845Z" transform="translate(-43.485 -253.346)" fill="#ffd037"/><path d="M56.1,722.514s-4.08-.128-5.31-1S44.514,719.591,44.2,721s-6.13,6.99-1.526,7.024,10.707-.719,11.938-1.465S56.1,722.514,56.1,722.514Z" transform="translate(-35.957 -256.6)" fill="#a8a8a8"/><path d="M42.6,728.6c4.611.04,10.707-.712,11.938-1.465.934-.565,1.3-2.608,1.432-3.556H56.1s-.255,3.294-1.485,4.033-7.327,1.506-11.938,1.465c-1.344,0-1.788-.484-1.761-1.183C41.1,728.332,41.645,728.567,42.6,728.6Z" transform="translate(-35.959 -257.672)" opacity="0.2"/><circle cx="14.539" cy="14.539" r="14.539" transform="translate(8.274 70.631)" fill="#2e5987" opacity="0.1"/><circle cx="14.539" cy="14.539" r="14.539" transform="translate(707.38 186.814)" fill="#2e5987" opacity="0.1"/><circle cx="14.539" cy="14.539" r="14.539" transform="translate(446.031 24.461)" fill="#2e5987" opacity="0.1"/><circle cx="24.366" cy="24.366" r="24.366" transform="translate(27.525 141.013)" fill="#2e5987" opacity="0.1"/><path d="M463.178,614.168l-.86-.86a.921.921,0,0,1,0-1.344l7.548-7.555a.921.921,0,0,1,1.344,0l7.548,7.548a.934.934,0,0,1,0,1.344l-.86.86a.934.934,0,0,1-1.344,0l-4.463-4.705V620.62a.928.928,0,0,1-.928.934H469.92a.934.934,0,0,1-.934-.934V609.469l-4.463,4.705a.934.934,0,0,1-1.344-.007Z" transform="translate(-174.015 -218.507)" fill="#f6f7f9"/><path d="M466.215,593.357A15.319,15.319,0,1,1,450.9,608.675a15.319,15.319,0,0,1,15.318-15.319m0-2.016a17.335,17.335,0,1,0,17.335,17.335,17.335,17.335,0,0,0-17.335-17.335Z" transform="translate(-169.706 -214.319)" fill="#f6f7f9"/></g></svg>