<?xml version="1.0" encoding="utf-8"?>
<!-- Generator: Adobe Illustrator 23.0.6, SVG Export Plug-In . SVG Version: 6.00 Build 0)  -->
<svg version="1.1" id="Layer_1" xmlns="http://www.w3.org/2000/svg" xmlns:xlink="http://www.w3.org/1999/xlink" x="0px" y="0px"
	 viewBox="0 0 736.6 724" style="enable-background:new 0 0 736.6 724;" xml:space="preserve">
<style type="text/css">
	.st0{opacity:0.136;fill:#2E5987;enable-background:new    ;}
	.st1{fill:#F1F1F1;}
	.st2{fill:#2E5987;}
	.st3{fill:none;stroke:#FFFFFF;stroke-width:2;stroke-miterlimit:10;}
	.st4{fill:#F4A50F;}
	.st5{opacity:0.2;enable-background:new    ;}
	.st6{fill:#3C3C3C;}
	.st7{fill:none;stroke:#F4A50F;stroke-width:2;stroke-miterlimit:10;}
	.st8{fill:#727677;}
	.st9{fill:#7EA44B;}
	.st10{fill:#FFB9B9;}
	.st11{opacity:0.1;enable-background:new    ;}
	.st12{fill:#2F2E41;}
	.st13{fill:#FFB8B8;}
	.st14{fill:#3F3D56;}
	.st15{fill:#FFFFFF;}
</style>
<g transform="translate(-1096.108 -162.133)">
	<g transform="translate(1095.108 160)">
		<circle class="st0" cx="159.3" cy="21.5" r="14.2"/>
		<circle class="st0" cx="224.7" cy="52.3" r="9"/>
		<circle class="st0" cx="285.4" cy="79.3" r="6.4"/>
		<circle class="st0" cx="586.4" cy="21.5" r="14.2"/>
		<circle class="st0" cx="520.9" cy="52.3" r="9"/>
		<circle class="st0" cx="460.3" cy="79.3" r="6.4"/>
		<ellipse class="st1" cx="379.3" cy="503.4" rx="76" ry="8.7"/>
		<path class="st0" d="M649.9,455.3l-513.9-3.5l5.2-352.2l513.9,7.6L649.9,455.3z"/>
		<path class="st2" d="M707.6,2.1L455.3,104v347.7l252.3,106.7V2.1z"/>
		<line class="st3" x1="476.4" y1="377.3" x2="657.5" y2="419.4"/>
		<line class="st3" x1="476.4" y1="349.9" x2="657.5" y2="377.3"/>
		<line class="st3" x1="476.4" y1="320.7" x2="657.5" y2="340.1"/>
		<path class="st4" d="M634.9,222v42l-145.6-9.7V222H634.9z"/>
		<path class="st5" d="M634.9,222v42l-145.6-9.7v-1.6l142.3,8.1V222H634.9z"/>
		<path class="st4" d="M33.7,2.1L286,104v347.7L33.7,558.5V2.1z"/>
		<line class="st3" x1="265" y1="377.3" x2="83.9" y2="419.4"/>
		<line class="st3" x1="265" y1="349.9" x2="83.9" y2="377.3"/>
		<line class="st3" x1="265" y1="320.7" x2="83.9" y2="340.1"/>
		<path class="st6" d="M106.5,222v42l145.6-9.7V222H106.5z"/>
		<path class="st5" d="M106.5,222v42l145.6-9.7v-1.6l-142.3,8.1V222H106.5z"/>
		<line class="st7" x1="309.5" y1="132.2" x2="436.1" y2="133.7"/>
		<path class="st4" d="M314.7,138.6l1.1-1.1l-5.6-5.3l5.7-5.2l-1.1-1.2l-7,6.3L314.7,138.6z"/>
		<path class="st4" d="M430.8,140.1l-1.1-1.2l5.7-5.2l-5.6-5.3l1.1-1.1l6.8,6.5L430.8,140.1z"/>
		<circle class="st4" cx="372.8" cy="133" r="10.6"/>
		<path class="st6" d="M358.7,469.3c0,0-2.9,12.5-1.9,17.3s1,15.4,1,15.4h2.9v-11.5c0,0,7.7,3.8,9.6,9.6s22.1,3.8,23.1,1.9
			s-9.6-5.8-9.6-5.8l-8.7-26L358.7,469.3z"/>
		<path class="st8" d="M351.9,355.7c0,0,4.8,17.3,4.8,24.1s-3.8,93.4,0,93.4s19.3,1.9,20.2-1.9s-1.9-39.5,0-43.3
			s15.4-85.7,14.4-86.6S356.7,337.4,351.9,355.7z"/>
		<path class="st9" d="M350,339.3c0,0-8.7,23.1-1,23.1s12.5-6.7,18.3-4.8s23.1-22.1,23.1-22.1L350,339.3z"/>
		<circle class="st10" cx="386.1" cy="227.2" r="15.4"/>
		<path class="st10" d="M393.8,232c0,0-6.7,22.1-4.8,25c1.9,2.9-18.3-1-18.3-1s6.7-18.3,5.8-22.1S393.8,232,393.8,232z"/>
		<path class="st2" d="M382.7,246.9c0,0-8.7-2.9-11.6,0s-13.5,71.2-20.2,78s-11.6,16.4-5.8,17.3s52.9,6.7,54.9,3.9s1.4-31.3,0.5-38
			S392.3,247.9,382.7,246.9z"/>
		<path class="st10" d="M375,342.2l3.9,9.6l8.7-6.7l-1-6.7L375,342.2z"/>
		<path class="st11" d="M370.7,262.8c0,0-0.5-12-6.3,3.4s-18.3,35.6-7.7,51s10.9,22.1,15.9,21.7s20.7,5.3,20.7,3.4
			S375,310.5,375,310.5c-1-5.6,0.8-11.3,4.8-15.4C386.6,288.3,383.2,265.7,370.7,262.8z"/>
		<path class="st2" d="M376.9,250.8c0,0-10.6-1.9-16.4,13.5s-18.3,35.6-7.7,51s16,30.8,21,30.3s15.6-3.4,15.6-5.3
			s-18.3-31.8-18.3-31.8c-1-5.6,0.8-11.3,4.8-15.4C382.7,286.4,389.5,253.7,376.9,250.8z"/>
		<path class="st6" d="M381.3,204.2c-7.9-1.1-15.7,3.9-20.1,10.6s-6,14.8-7.1,22.7c-0.2,2.4-0.8,4.7-1.6,7c-1.9,4.4-6.2,7.7-7,12.5
			c-0.4,3,0.7,6,1.3,9c1.6,7.9-0.7,16.2-5,23.1c-1.9,3.1-4.6,6.2-8.2,6.3l7.5,1.2c-1.3,2.8-3.5,5-6.2,6.4
			c18.5-2.3,32.6-17.7,33.4-36.4c0.1-2.7,0-5.7,1.5-7.9c1.3-2,3.5-3.1,5.6-4.3c7-4.1,12.8-11,13.8-19c0.4-3.5-0.1-7.1-0.3-10.6
			c-0.1-3.7,6.1-6.2,7-9.8C397,209.3,386.3,204.9,381.3,204.2z"/>
	</g>
	<g transform="translate(1148.096 469)">
		<circle class="st12" cx="546.1" cy="47.8" r="28.7"/>
		<path class="st13" d="M534.8,72.2c0,0,0.5,16.6-10.6,21.6c-11.1,5,43.3,4.5,43.3,4.5s-16.1-19.6-11.6-26.2H534.8z"/>
		<path class="st11" d="M534.8,72.2c0,0,0.5,16.6-10.6,21.6c-11.1,5,43.3,4.5,43.3,4.5s-16.1-19.6-11.6-26.2H534.8z"/>
		<circle class="st13" cx="545.9" cy="62.1" r="19.6"/>
		<path class="st6" d="M543.4,90.3l-16.9-3.8l-9.8,10.3l-11.1,1.5l14.6,59.9l-0.5,15.1c0,0-16.1,12.1-15.1,67.9s-8,166.5,3,167.5
			c11.1,1,34.2,6,35.7,1.5s4-183.1,4-183.1s-0.5,179.1,7,181.1s30.7,6,33.7-0.5s0-177.1,0-177.1s-0.5-44.3-18.6-57.4l-2-11.6
			l15.6-63.4h-12.6L563,85.3l-15.6,5.5L543.4,90.3z"/>
		<path class="st13" d="M502.3,158.9l-21.6,36.4c0,0-15.8,16.2-7.9,20.6s16.3-18.8,16.3-18.8l23.2-30.5L502.3,158.9z"/>
		<path class="st13" d="M590.6,159.7l17.4,38.5c0,0,13.9,17.8,5.6,21.4s-14.1-20.5-14.1-20.5l-19.7-32.9L590.6,159.7z"/>
		<path class="st6" d="M512.2,101.9l-6.5-3.5c0,0-11.6,19.1-9.6,51.3c0,0-2,17.1,2,18.1s15.6,3,16.1,1s6.5-39.2,6.5-39.2
			L512.2,101.9z"/>
		<path class="st6" d="M577.1,100.9l6-2.5c4.4,5.3,7.2,11.8,8,18.6c1.5,11.6,8.6,48.8,3,49.8s-18.6,3-18.6,0s-4.5-38.2-4.5-38.2
			L577.1,100.9z"/>
		<path class="st12" d="M565.1,44.5l-14.6-7.6L530.4,40l-4.2,18.4l10.3-0.4l2.9-6.7v6.6l4.8-0.2l2.8-10.7l1.7,11.4l17-0.3
			L565.1,44.5z"/>
		<circle class="st12" cx="547.6" cy="15.1" r="11.6"/>
		<path class="st12" d="M533,11.6c0-5.7,4.2-10.6,9.8-11.4c-6.3-1-12.2,3.4-13.2,9.7c-1,6.3,3.4,12.2,9.7,13.2
			c1.2,0.2,2.3,0.2,3.5,0C537.2,22.1,533,17.3,533,11.6z"/>
		<ellipse class="st4" cx="344.9" cy="363.9" rx="4.9" ry="3.4"/>
		<path class="st4" d="M344.9,363.9c0,0,23.4,40.7,22.8,46.6"/>
		<path class="st9" d="M360.3,366.7v23.8c-4.9-6.8-14.7-13.8-33.1-19.5l33.1,45.4v0.3c0,0,0.1,0,0.2-0.1l0.1,0.1c0,0,0-0.1,0.1-0.2
			C364.5,414.3,396.8,394.2,360.3,366.7z"/>
		<rect x="341.8" y="415.9" class="st14" width="342.9" height="1.3"/>
		<path class="st14" d="M430.1,416.7h-12.4v-12.4h12.4V416.7z M418.7,415.7h10.5v-10.5h-10.5V415.7z"/>
		<circle class="st9" cx="661" cy="397.5" r="6.3"/>
		<path class="st12" d="M661,415.7c-10.1,0-18.3-8.2-18.3-18.3s8.2-18.3,18.3-18.3c10.1,0,18.3,8.2,18.3,18.3c0,0,0,0,0,0
			C679.3,407.6,671.1,415.7,661,415.7z M661,380.6c-9.3,0-16.8,7.5-16.8,16.8s7.5,16.8,16.8,16.8c9.3,0,16.8-7.5,16.8-16.8
			C677.9,388.2,670.3,380.6,661,380.6L661,380.6z"/>
		<rect x="91.3" y="232.6" class="st14" width="1.3" height="44.5"/>
		<circle class="st6" cx="92" cy="232.6" r="15.7"/>
		<rect x="178.4" y="194.4" class="st14" width="1.3" height="82.7"/>
		<circle class="st8" cx="179.1" cy="196.3" r="15.7"/>
		<rect x="265.5" y="124.8" class="st14" width="1.3" height="152.3"/>
		<circle class="st4" cx="266.2" cy="124.8" r="15.7"/>
		<rect x="352.7" y="170.6" class="st14" width="1.3" height="106.6"/>
		<circle class="st2" cx="353.4" cy="170.6" r="15.7"/>
		<rect x="439.8" y="79.7" class="st14" width="1.3" height="197.5"/>
		<circle class="st9" cx="440.5" cy="79.7" r="15.7"/>
		<rect x="55.3" y="232" class="st14" width="3.8" height="1.3"/>
		<path class="st14" d="M82.6,233.3h-5.9V232h5.9V233.3z M70.9,233.3H65V232h5.9V233.3z"/>
		<rect x="88.5" y="232" class="st14" width="3.8" height="1.3"/>
		<rect x="55.3" y="195.7" class="st14" width="3.8" height="1.3"/>
		<path class="st14" d="M165.5,196.9h-7.6v-1.3h7.6L165.5,196.9z M150.3,196.9h-7.6v-1.3h7.6V196.9z M135.1,196.9h-7.6v-1.3h7.6
			V196.9z M119.9,196.9h-7.6v-1.3h7.6V196.9z M104.7,196.9h-7.6v-1.3h7.6V196.9z M89.5,196.9h-7.6v-1.3h7.6V196.9z M74.3,196.9h-7.6
			v-1.3h7.6V196.9z"/>
		<rect x="173.1" y="195.7" class="st14" width="3.8" height="1.3"/>
		<rect x="55.3" y="170" class="st14" width="3.8" height="1.3"/>
		<path class="st14" d="M331.7,171.2h-7.6V170h7.6V171.2z M316.5,171.2H309V170h7.6V171.2z M301.4,171.2h-7.6V170h7.6V171.2z
			 M286.2,171.2h-7.6V170h7.6V171.2z M271.1,171.2h-7.6V170h7.6V171.2z M256,171.2h-7.6V170h7.6L256,171.2z M240.8,171.2h-7.6V170
			h7.6V171.2z M225.7,171.2h-7.6V170h7.6V171.2z M210.5,171.2h-7.6V170h7.6V171.2z M195.4,171.2h-7.6V170h7.6V171.2z M180.2,171.2
			h-7.6V170h7.6L180.2,171.2z M165.1,171.2h-7.6V170h7.6V171.2z M149.9,171.2h-7.6V170h7.6V171.2z M134.8,171.2h-7.6V170h7.6V171.2z
			 M119.6,171.2h-7.6V170h7.6V171.2z M104.5,171.2h-7.6V170h7.6V171.2z M89.4,171.2h-7.6V170h7.6L89.4,171.2z M74.2,171.2h-7.6V170
			h7.6V171.2z"/>
		<rect x="339.3" y="170" class="st14" width="3.8" height="1.3"/>
		<rect x="55.3" y="124.2" class="st14" width="3.8" height="1.3"/>
		<path class="st14" d="M245,125.5h-7.7v-1.3h7.7V125.5z M229.5,125.5h-7.7v-1.3h7.7V125.5z M214,125.5h-7.7v-1.3h7.7V125.5z
			 M198.5,125.5h-7.7v-1.3h7.7V125.5z M183,125.5h-7.7v-1.3h7.7V125.5z M167.5,125.5h-7.7v-1.3h7.7V125.5z M152,125.5h-7.7v-1.3h7.7
			V125.5z M136.5,125.5h-7.7v-1.3h7.7V125.5z M121,125.5h-7.7v-1.3h7.7V125.5z M105.5,125.5h-7.7v-1.3h7.8L105.5,125.5z M90,125.5
			h-7.7v-1.3h7.8L90,125.5z M74.5,125.5h-7.7v-1.3h7.7L74.5,125.5z"/>
		<rect x="252.8" y="124.2" class="st14" width="3.8" height="1.3"/>
		
			<rect x="55.3" y="80.3" transform="matrix(1 -3.420839e-03 3.420839e-03 1 -0.2766 0.1961)" class="st14" width="3.8" height="1.3"/>
		<path class="st14" d="M66.5,81.5v-1.3l7.4,0v1.3L66.5,81.5z M81.3,81.5v-1.3l7.4,0v1.3L81.3,81.5z M96.1,81.4v-1.3l7.4,0v1.3
			L96.1,81.4z M110.9,81.4v-1.3l7.4,0v1.3L110.9,81.4z M125.8,81.4v-1.3l7.4,0v1.3L125.8,81.4z M140.6,81.3V80l7.4,0v1.3L140.6,81.3
			z M155.4,81.3V80l7.4,0v1.3L155.4,81.3z M170.2,81.2V80l7.4,0v1.3L170.2,81.2z M185.1,81.2v-1.3l7.4,0v1.3L185.1,81.2z
			 M199.9,81.1v-1.3l7.4,0v1.3L199.9,81.1z M214.7,81.1v-1.3l7.4,0V81L214.7,81.1z M229.5,81v-1.3l7.4,0V81L229.5,81z M244.4,81
			v-1.3l7.4,0v1.3L244.4,81z M259.2,80.9v-1.3l7.4,0v1.3L259.2,80.9z M274,80.9v-1.3l7.4,0v1.3L274,80.9z M288.8,80.8v-1.3l7.4,0
			v1.3L288.8,80.8z M303.6,80.8v-1.3l7.4,0v1.3L303.6,80.8z M318.5,80.7v-1.3l7.4,0v1.3L318.5,80.7z M333.3,80.7v-1.3l7.4,0v1.3
			L333.3,80.7z M348.1,80.6v-1.3l7.4,0v1.3L348.1,80.6z M362.9,80.6v-1.3l7.4,0v1.3L362.9,80.6z M377.8,80.5v-1.3l7.4,0v1.3
			L377.8,80.5z M392.6,80.5v-1.3l7.4,0v1.3L392.6,80.5z M407.4,80.4v-1.3l7.4,0v1.3L407.4,80.4z M422.2,80.4v-1.3l7.4,0v1.3
			L422.2,80.4z"/>
		
			<rect x="437" y="79.1" transform="matrix(1 -2.932136e-03 2.932136e-03 1 -0.2318 1.2873)" class="st14" width="3.8" height="1.3"/>
		<rect x="32.7" y="74.1" class="st2" width="12.5" height="12.5"/>
		<rect x="32.7" y="118.6" class="st2" width="12.5" height="12.5"/>
		<rect x="32.7" y="164.3" class="st2" width="12.5" height="12.5"/>
		<rect x="32.7" y="190" class="st2" width="12.5" height="12.5"/>
		<rect x="32.7" y="226.4" class="st2" width="12.5" height="12.5"/>
		
			<rect x="621.5" y="186.4" transform="matrix(0.2541 -0.9672 0.9672 0.2541 279.6534 768.0679)" class="st4" width="32.6" height="32.6"/>
		<path class="st14" d="M611.4,216.5c-1.5-3.9,0.5-8.2,4.4-9.7c3.9-1.5,8.2,0.5,9.7,4.4c1.5,3.9-0.5,8.2-4.4,9.7c0,0,0,0,0,0
			C617.2,222.4,612.9,220.4,611.4,216.5z M624.3,211.7c-1.2-3.2-4.8-4.9-8.1-3.7c-3.2,1.2-4.9,4.8-3.7,8.1c1.2,3.2,4.8,4.9,8.1,3.7
			C623.9,218.5,625.5,214.9,624.3,211.7C624.3,211.7,624.3,211.7,624.3,211.7z"/>
		<ellipse class="st6" cx="522.9" cy="410.7" rx="10.7" ry="5.6"/>
		<ellipse class="st6" cx="571.8" cy="410.7" rx="10.7" ry="5.6"/>
		<path class="st15" d="M377.6,140.7c-4.2,0-7.5-3.4-7.5-7.5s3.4-7.5,7.5-7.5c4.2,0,7.5,3.4,7.5,7.5v0
			C385.1,137.3,381.8,140.7,377.6,140.7z M377.6,126.9c-3.5,0-6.3,2.8-6.3,6.3s2.8,6.3,6.3,6.3s6.3-2.8,6.3-6.3
			S381.1,126.9,377.6,126.9L377.6,126.9z"/>
		<path class="st15" d="M210.2,254.1c-4.2,0-7.5-3.4-7.5-7.5s3.4-7.5,7.5-7.5c4.2,0,7.5,3.4,7.5,7.5S214.4,254.1,210.2,254.1
			L210.2,254.1z M210.2,240.3c-3.5,0-6.3,2.8-6.3,6.3s2.8,6.3,6.3,6.3c3.5,0,6.3-2.8,6.3-6.3S213.7,240.3,210.2,240.3L210.2,240.3z"
			/>
		<path class="st15" d="M136.3,71.7c-4.2,0-7.5-3.4-7.5-7.5c0-4.2,3.4-7.5,7.5-7.5c4.2,0,7.5,3.4,7.5,7.5S140.4,71.7,136.3,71.7
			L136.3,71.7z M136.3,57.9c-3.5,0-6.3,2.8-6.3,6.3c0,3.5,2.8,6.3,6.3,6.3c3.5,0,6.3-2.8,6.3-6.3C142.5,60.7,139.7,57.9,136.3,57.9
			C136.3,57.9,136.3,57.9,136.3,57.9L136.3,57.9z"/>
	</g>
</g>
</svg>
