<svg xmlns="http://www.w3.org/2000/svg" width="320.16" height="159.82" viewBox="0 0 300 "><g transform="translate(-120)"><g transform="translate(120)"><path d="M240.25,123.77a43.84,43.84,0,0,1-36.39-19.37l6.48-4.36a36.05,36.05,0,1,0,0-40.26l-6.48-4.37a43.86,43.86,0,1,1,36.39,68.36Z" fill="#f4a50f"/><path d="M240.25,61.89a18,18,0,1,0,18,18A18,18,0,0,0,240.25,61.89Zm0,28.25a10.23,10.23,0,1,1,10.23-10.23A10.23,10.23,0,0,1,240.25,90.14Z" fill="#727677"/><path d="M36.05,84.52c0-7.63,5.33-13.47,13.12-13.47a12.54,12.54,0,0,1,8.73,3.2c3,2.79,4.54,7.23,4.49,12.42H44c.5,3.44,2.39,5.59,5.74,5.59A4.25,4.25,0,0,0,54,89.71h7.93a10.38,10.38,0,0,1-4.29,6,13.47,13.47,0,0,1-8,2.34C41.24,98.09,36.05,92.26,36.05,84.52Zm18.11-2.69c-.3-3-2.2-5-4.84-5-3.1,0-4.69,2-5.24,5Z" fill="#2e5987"/><path d="M67.62,61.67H94.17v7.44H76.46v7.23H91.28v7.14H76.46V97.35H67.62Z" fill="#2e5987"/><path d="M99.15,61.67H104a3.3,3.3,0,0,1,3.3,3.29v3.3h-4.84A3.3,3.3,0,0,1,99.15,65Z" fill="#f4a50f"/><rect width="8.13" height="25.55" transform="translate(99.15 71.8)" fill="#2e5987"/><path d="M113.22,61.67h8.23V97.35h-8.23Z" fill="#2e5987"/><path d="M126.24,84.52c0-7.63,5.34-13.47,13.12-13.47a12.56,12.56,0,0,1,8.74,3.2c3,2.79,4.54,7.23,4.49,12.42H134.22c.5,3.44,2.4,5.59,5.74,5.59a4.23,4.23,0,0,0,4.24-2.55h7.94a10.42,10.42,0,0,1-4.29,6,13.5,13.5,0,0,1-8,2.34C131.43,98.09,126.24,92.26,126.24,84.52Zm18.11-2.69c-.3-3-2.19-5-4.84-5-3.09,0-4.69,2-5.24,5Z" fill="#2e5987"/><path d="M159.87,94.85c-2.5-2.19-3.8-5.39-3.8-9.33H164c.2,3.64,2,6.19,6.28,6.19,3.45,0,5.34-1.9,5.34-4.74,0-3-2.09-4.49-5.83-4.49h-2.05V76.64h1.85c3.19,0,5.28-1.4,5.28-4,0-2.35-1.64-3.89-4.49-3.89-3.64,0-5.24,2.29-5.43,5.24h-7.84c.15-6.79,4.89-11.53,13.37-11.53,7.54,0,12.68,3.59,12.68,9.63,0,3.49-2.15,5.64-5.19,6.83V79a8.09,8.09,0,0,1,6.19,8.38c0,7.33-6.34,10.73-13.53,10.73C165.8,98.15,162.26,97,159.87,94.85Z" fill="#727677"/><path d="M188.5,80.53c-.05-5.59,1.2-10.33,4.14-13.67,2.45-2.79,5.94-4.39,10.83-4.39,7.08,0,11.58,3.59,12.62,9.13h-8c-.5-1.7-1.7-3.14-4.49-3.14-4.19,0-6.49,3.14-6.74,8.63h.1a10,10,0,0,1,7.84-3.24c6.58,0,12.32,4.79,12.32,12.12s-5.74,12.18-13.57,12.18C193.49,98.15,188.55,90.71,188.5,80.53ZM209.11,86a5.78,5.78,0,0,0-5.89-6,5.92,5.92,0,1,0,5.89,6Z" fill="#727677"/><rect width="320.16" height="159.82" fill="none"/><path d="M302.13,123.77a18,18,0,1,0,18,18,18,18,0,0,0-18-18Zm0,28.26a10.225,10.225,0,1,0,0-.03Z" fill="none"/><path d="M18,0A18,18,0,1,0,36,18,18,18,0,0,0,18,0Zm0,28.26a10.24,10.24,0,1,1,7.261-3A10.24,10.24,0,0,1,18,28.26Z" fill="none"/></g></g></svg>