<?xml version="1.0" encoding="utf-8"?>
<!-- Generator: Adobe Illustrator 23.0.6, SVG Export Plug-In . SVG Version: 6.00 Build 0)  -->
<svg version="1.1" id="Layer_1" xmlns="http://www.w3.org/2000/svg" xmlns:xlink="http://www.w3.org/1999/xlink" x="0px" y="0px"
	 viewBox="0 0 320.2 109" style="enable-background:new 0 0 320.2 109;" xml:space="preserve">
<style type="text/css">
	.st0{fill:#FFFFFF;}
	.st1{fill:#F4A50F;}
	.st2{fill:#727677;}
	.st3{fill:#2E5987;}
</style>
<rect y="0.2" class="st0" width="320.2" height="109"/>
<g>
	<path class="st1" d="M240.2,98.6c-14.6,0-28.2-7.3-36.4-19.4l6.5-4.4c11.1,16.5,33.5,20.9,50,9.8s20.9-33.5,9.8-50
		s-33.5-20.9-50-9.8c-3.9,2.6-7.2,5.9-9.8,9.8l-6.5-4.4c13.5-20.1,40.8-25.4,60.9-11.9s25.4,40.8,11.9,60.9
		C268.5,91.3,254.8,98.6,240.2,98.6z"/>
	<path class="st2" d="M240.2,36.7c-9.9,0-18,8.1-18,18s8.1,18,18,18s18-8.1,18-18S250.2,36.7,240.2,36.7z M240.2,64.9
		c-5.6,0-10.2-4.6-10.2-10.2s4.6-10.2,10.2-10.2c5.6,0,10.2,4.6,10.2,10.2l0,0C250.5,60.4,245.9,64.9,240.2,64.9z"/>
	<path class="st3" d="M36,59.3c0-7.6,5.4-13.5,13.2-13.5c3.2-0.1,6.3,1.1,8.7,3.2c3,2.8,4.5,7.2,4.5,12.4H44
		c0.5,3.4,2.4,5.6,5.7,5.6c1.8,0.2,3.5-0.9,4.3-2.5h7.9c-0.6,2.5-2.2,4.6-4.3,6c-2.4,1.6-5.2,2.4-8,2.3C41.2,72.9,36,67.1,36,59.3z
		 M54.2,56.6c-0.3-3-2.2-5-4.8-5c-3.1,0-4.7,2-5.2,5H54.2z"/>
	<path class="st3" d="M67.6,36.5h26.5v7.4H76.5v7.2h14.8v7.1H76.5v13.9h-8.8L67.6,36.5L67.6,36.5z"/>
	<path class="st1" d="M99.2,36.5h4.8c1.8,0,3.3,1.5,3.3,3.3v3.3h-4.8c-1.8,0-3.3-1.4-3.3-3.3V36.5z"/>
	<rect x="99.2" y="46.6" class="st3" width="8.1" height="25.5"/>
	<path class="st3" d="M113.2,36.5h8.2v35.7h-8.2V36.5z"/>
	<path class="st3" d="M126.2,59.3c0-7.6,5.3-13.5,13.1-13.5c3.2-0.1,6.3,1.1,8.7,3.2c3,2.8,4.5,7.2,4.5,12.4h-18.4
		c0.5,3.4,2.4,5.6,5.7,5.6c1.8,0.2,3.5-0.9,4.2-2.6h7.9c-0.7,2.5-2.2,4.6-4.3,6c-2.4,1.6-5.2,2.4-8,2.3
		C131.4,72.9,126.2,67.1,126.2,59.3z M144.4,56.6c-0.3-3-2.2-5-4.8-5c-3.1,0-4.7,2-5.2,5H144.4z"/>
	<path class="st2" d="M159.9,69.6c-2.5-2.2-3.8-5.4-3.8-9.3h7.9c0.2,3.6,2,6.2,6.3,6.2c3.4,0,5.3-1.9,5.3-4.7c0-3-2.1-4.5-5.8-4.5
		h-2.1v-5.8h1.9c3.2,0,5.3-1.4,5.3-4c0-2.3-1.6-3.9-4.5-3.9c-3.6,0-5.2,2.3-5.4,5.2h-7.8c0.1-6.8,4.9-11.5,13.4-11.5
		c7.5,0,12.7,3.6,12.7,9.6c0,3.5-2.1,5.6-5.2,6.8v0.1c3.8,0.9,6.4,4.5,6.2,8.4c0,7.3-6.3,10.7-13.5,10.7
		C165.8,73,162.3,71.8,159.9,69.6z"/>
	<path class="st2" d="M188.5,55.3c-0.1-5.6,1.2-10.3,4.1-13.7c2.4-2.8,5.9-4.4,10.8-4.4c7.1,0,11.6,3.6,12.6,9.1h-8
		c-0.5-1.7-1.7-3.1-4.5-3.1c-4.2,0-6.5,3.1-6.7,8.6h0.1c2-2.2,4.9-3.4,7.8-3.2c6.6,0,12.3,4.8,12.3,12.1s-5.7,12.2-13.6,12.2
		C193.5,73,188.6,65.5,188.5,55.3z M209.1,60.8c0.1-3.2-2.4-5.9-5.6-6c-0.1,0-0.2,0-0.3,0c-3.3,0-5.9,2.6-5.9,5.9s2.6,5.9,5.9,5.9
		C206.4,66.7,209.1,64,209.1,60.8z"/>
</g>
</svg>
