<?xml version="1.0" encoding="utf-8"?>
<!-- Generator: Adobe Illustrator 23.0.6, SVG Export Plug-In . SVG Version: 6.00 Build 0)  -->
<svg version="1.1" id="Layer_1" xmlns="http://www.w3.org/2000/svg" xmlns:xlink="http://www.w3.org/1999/xlink" x="0px" y="0px"
	 viewBox="0 0 235.5 117.5" style="enable-background:new 0 0 235.5 117.5;" xml:space="preserve">
<style type="text/css">
	.st0{fill:#FFFFFF;}
	.st1{fill:#727677;}
	.st2{fill:none;}
</style>
<rect class="st0" width="235.5" height="117.5"/>
<path class="st1" d="M176.7,91c-10.7,0-20.8-5.3-26.8-14.2l4.8-3.2c8.2,12.1,24.7,15.4,36.8,7.2c12.1-8.2,15.4-24.7,7.2-36.8
	c-8.2-12.1-24.7-15.4-36.8-7.2c-2.8,1.9-5.3,4.4-7.2,7.2l-4.8-3.2c10-14.8,30-18.7,44.8-8.7s18.7,30,8.7,44.8
	C197.4,85.7,187.4,91,176.7,91L176.7,91z"/>
<path class="st1" d="M176.7,45.5c-7.3,0-13.2,5.9-13.2,13.2S169.4,72,176.7,72c7.3,0,13.2-5.9,13.2-13.2S184,45.5,176.7,45.5
	L176.7,45.5z M176.7,66.3c-4.2,0-7.5-3.4-7.5-7.5s3.4-7.5,7.5-7.5c4.2,0,7.5,3.4,7.5,7.5S180.8,66.3,176.7,66.3L176.7,66.3z"/>
<path class="st1" d="M26.5,62.2c0-5.6,3.9-9.9,9.6-9.9c2.4-0.1,4.7,0.8,6.4,2.4c2.2,2.1,3.3,5.3,3.3,9.1H32.4
	c0.4,2.5,1.8,4.1,4.2,4.1c1.3,0.1,2.6-0.6,3.1-1.9h5.8c-0.5,1.8-1.6,3.4-3.2,4.4c-1.7,1.2-3.8,1.8-5.9,1.7
	C30.3,72.1,26.5,67.9,26.5,62.2z M39.8,60.2c-0.2-2.2-1.6-3.7-3.6-3.7c-2.3,0-3.4,1.5-3.9,3.7H39.8z"/>
<path class="st1" d="M49.7,45.4h19.5v5.5h-13v5.3h10.9v5.3H56.2v10.2h-6.5L49.7,45.4z"/>
<path class="st1" d="M72.9,45.4h3.6c1.3,0,2.4,1.1,2.4,2.4v2.4h-3.6c-1.3,0-2.4-1.1-2.4-2.4L72.9,45.4z"/>
<rect x="72.9" y="52.8" class="st1" width="6" height="18.8"/>
<path class="st1" d="M83.3,45.4h6.1v26.2h-6.1V45.4z"/>
<path class="st1" d="M92.8,62.2c0-5.6,3.9-9.9,9.6-9.9c2.4-0.1,4.7,0.8,6.4,2.4c2.2,2.1,3.3,5.3,3.3,9.1H98.7
	c0.4,2.5,1.8,4.1,4.2,4.1c1.3,0.1,2.6-0.6,3.1-1.9h5.8c-0.5,1.8-1.6,3.4-3.2,4.4c-1.7,1.2-3.8,1.8-5.9,1.7
	C96.7,72.1,92.8,67.9,92.8,62.2z M106.2,60.2c-0.2-2.2-1.6-3.7-3.6-3.7c-2.3,0-3.4,1.5-3.9,3.7H106.2z"/>
<path class="st1" d="M117.6,69.8c-1.9-1.8-2.9-4.3-2.8-6.9h5.8c0.1,2.7,1.5,4.6,4.6,4.6c2.5,0,3.9-1.4,3.9-3.5
	c0-2.2-1.5-3.3-4.3-3.3h-1.5v-4.3h1.4c2.3,0,3.9-1,3.9-2.9c0-1.7-1.2-2.9-3.3-2.9c-2.7,0-3.9,1.7-4,3.9h-5.8c0.1-5,3.6-8.5,9.8-8.5
	c5.5,0,9.3,2.6,9.3,7.1c0,2.6-1.6,4.1-3.8,5v0.1c2.8,0.7,4.7,3.3,4.6,6.2c0,5.4-4.7,7.9-10,7.9C121.9,72.2,119.3,71.3,117.6,69.8z"
	/>
<path class="st1" d="M138.6,59.2c0-4.1,0.9-7.6,3-10.1c1.8-2.1,4.4-3.2,8-3.2c5.2,0,8.5,2.6,9.3,6.7H153c-0.4-1.5-1.8-2.5-3.3-2.3
	c-3.1,0-4.8,2.3-5,6.3h0.1c1.5-1.6,3.6-2.5,5.8-2.4c4.9-0.1,8.9,3.7,9.1,8.5c0,0.1,0,0.3,0,0.4c0,5.4-4.2,9-10,9
	C142.3,72.2,138.7,66.7,138.6,59.2z M153.8,63.2c0.1-2.3-1.7-4.3-4.1-4.4c-0.1,0-0.2,0-0.2,0c-2.4,0-4.4,1.9-4.4,4.3
	c0,2.4,1.9,4.4,4.3,4.4C151.8,67.6,153.8,65.6,153.8,63.2z"/>
<path class="st2" d="M13.2,0C5.9,0,0,5.9,0,13.2s5.9,13.2,13.2,13.2s13.2-5.9,13.2-13.2l0,0C26.5,5.9,20.5,0,13.2,0z M13.2,20.8
	c-4.2,0-7.5-3.4-7.5-7.5c0-4.2,3.4-7.5,7.5-7.5c4.2,0,7.5,3.4,7.5,7.5c0,2-0.8,3.9-2.2,5.3C17.2,20,15.2,20.8,13.2,20.8z"/>
</svg>
