<?xml version="1.0" encoding="utf-8"?>
<!-- Generator: Adobe Illustrator 23.0.6, SVG Export Plug-In . SVG Version: 6.00 Build 0)  -->
<svg version="1.1" id="Layer_1" xmlns="http://www.w3.org/2000/svg" xmlns:xlink="http://www.w3.org/1999/xlink" x="0px" y="0px"
	 viewBox="0 0 320.2 109" style="enable-background:new 0 0 320.2 109;" xml:space="preserve">
<style type="text/css">
	.st0{fill:#FFFFFF;}
	.st1{fill:#727677;}
</style>
<rect class="st0" width="320.2" height="109"/>
<g>
	<path class="st1" d="M239.5,98.1c-14.5,0-28.3-7.2-36.4-19.3l6.5-4.4c11.1,16.5,33.6,20.9,50,9.8c16.5-11.1,20.9-33.6,9.8-50
		c-11.1-16.5-33.6-20.9-50-9.8c-3.8,2.6-7.2,6-9.8,9.8l-6.5-4.4C216.7,9.7,243.9,4.4,264,18s25.4,40.8,11.8,60.9
		C267.7,90.9,254.1,98.1,239.5,98.1L239.5,98.1z"/>
	<path class="st1" d="M239.5,36.2c-9.9,0-17.9,8-17.9,17.9s8,18.1,17.9,18.1s17.9-8,17.9-17.9S249.4,36.2,239.5,36.2L239.5,36.2z
		 M239.5,64.5c-5.7,0-10.2-4.6-10.2-10.2s4.6-10.2,10.2-10.2c5.7,0,10.2,4.6,10.2,10.2S245.1,64.5,239.5,64.5L239.5,64.5z"/>
	<path class="st1" d="M35.3,58.9c0-7.6,5.3-13.5,13.1-13.5c3.3-0.1,6.4,1.1,8.7,3.3c3,2.9,4.5,7.2,4.5,12.4H43.3
		c0.5,3.4,2.4,5.6,5.7,5.6c1.8,0.1,3.5-0.8,4.2-2.6h7.9c-0.7,2.4-2.2,4.6-4.4,6c-2.3,1.6-5.2,2.4-8,2.3
		C40.5,72.4,35.3,66.7,35.3,58.9z M53.4,56.2c-0.3-3-2.2-5-4.9-5c-3.1,0-4.6,2-5.3,5H53.4z"/>
	<path class="st1" d="M66.8,36.1h26.5v7.5H75.7v7.2h14.8V58H75.7v13.9h-8.8V36.1z"/>
	<path class="st1" d="M98.4,36.1h4.9c1.8,0,3.3,1.5,3.3,3.3v3.3h-4.9c-1.8,0-3.3-1.5-3.3-3.3V36.1z"/>
	<rect x="98.4" y="46.1" class="st1" width="8.2" height="25.6"/>
	<path class="st1" d="M112.5,36.1h8.3v35.6h-8.3V36.1z"/>
	<path class="st1" d="M125.4,58.9c0-7.6,5.3-13.5,13.1-13.5c3.3-0.1,6.4,1.1,8.7,3.3c3,2.9,4.5,7.2,4.5,12.4h-18.2
		c0.5,3.4,2.4,5.6,5.7,5.6c1.8,0.1,3.5-0.8,4.2-2.6h7.9c-0.7,2.4-2.2,4.6-4.4,6c-2.3,1.6-5.2,2.4-8,2.3
		C130.7,72.4,125.4,66.7,125.4,58.9z M143.7,56.2c-0.3-3-2.2-5-4.9-5c-3.1,0-4.6,2-5.3,5H143.7z"/>
	<path class="st1" d="M159.2,69.3c-2.6-2.4-3.9-5.8-3.8-9.4h7.9c0.1,3.7,2,6.3,6.3,6.3c3.4,0,5.3-1.9,5.3-4.8c0-3-2-4.5-5.8-4.5h-2
		V51h1.9c3.1,0,5.3-1.4,5.3-3.9c0-2.3-1.6-3.9-4.5-3.9c-3.7,0-5.3,2.3-5.4,5.3h-7.9c0.1-6.8,4.9-11.6,13.3-11.6
		c7.5,0,12.6,3.5,12.6,9.7c0,3.5-2.2,5.6-5.2,6.8v0.1c3.8,1,6.4,4.5,6.3,8.4c0,7.3-6.4,10.7-13.6,10.7
		C165,72.5,161.5,71.3,159.2,69.3z"/>
	<path class="st1" d="M187.7,54.9c0-5.6,1.2-10.3,4.1-13.7c2.4-2.9,6-4.4,10.9-4.4c7.1,0,11.6,3.5,12.6,9.1h-8
		c-0.5-2-2.4-3.4-4.5-3.1c-4.2,0-6.5,3.1-6.8,8.6h0.1c2-2.2,4.9-3.4,7.9-3.3c6.7-0.1,12.1,5,12.4,11.6c0,0.1,0,0.4,0,0.5
		c0,7.3-5.7,12.2-13.6,12.2C192.7,72.5,187.8,65,187.7,54.9z M208.4,60.3c0.1-3.1-2.3-5.8-5.6-6c-0.1,0-0.3,0-0.3,0
		c-3.3,0-6,2.6-6,5.8c0,3.3,2.6,6,5.8,6C205.7,66.3,208.4,63.6,208.4,60.3z"/>
</g>
</svg>
