<svg xmlns="http://www.w3.org/2000/svg" width="27" height="36" viewBox="0 0 27 36"><path d="M20.25,18H6.75v4.5h13.5ZM26.508,7.383,19.624.492A1.686,1.686,0,0,0,18.429,0H18V9h9V8.571A1.682,1.682,0,0,0,26.508,7.383ZM15.75,9.563V0H1.688A1.683,1.683,0,0,0,0,1.688V34.313A1.683,1.683,0,0,0,1.688,36H25.313A1.683,1.683,0,0,0,27,34.313V11.25H17.438A1.692,1.692,0,0,1,15.75,9.563ZM4.5,5.063A.562.562,0,0,1,5.063,4.5h5.625a.562.562,0,0,1,.563.563V6.188a.562.562,0,0,1-.562.563H5.063A.562.562,0,0,1,4.5,6.188Zm0,4.5A.562.562,0,0,1,5.063,9h5.625a.562.562,0,0,1,.563.563v1.125a.562.562,0,0,1-.562.563H5.063a.562.562,0,0,1-.562-.562Zm18,21.375a.562.562,0,0,1-.562.563H16.313a.562.562,0,0,1-.562-.562V29.813a.562.562,0,0,1,.563-.562h5.625a.562.562,0,0,1,.563.563Zm0-14.062v6.75a1.125,1.125,0,0,1-1.125,1.125H5.625A1.125,1.125,0,0,1,4.5,23.625v-6.75A1.125,1.125,0,0,1,5.625,15.75h15.75A1.125,1.125,0,0,1,22.5,16.875Z" fill="#fff"/></svg>