<svg xmlns="http://www.w3.org/2000/svg" width="36" height="31.5" viewBox="0 0 36 31.5"><path d="M21.375,29.25h-4.5a1.125,1.125,0,0,0-1.125,1.125v2.25a1.125,1.125,0,0,0,1.125,1.125h4.5A1.125,1.125,0,0,0,22.5,32.625v-2.25A1.125,1.125,0,0,0,21.375,29.25Zm-9-4.5H9V3.375A1.125,1.125,0,0,0,7.875,2.25H5.625A1.125,1.125,0,0,0,4.5,3.375V24.75H1.125a1.125,1.125,0,0,0-.794,1.92l5.625,6.75a1.125,1.125,0,0,0,1.59,0l5.625-6.75A1.127,1.127,0,0,0,12.375,24.75Zm18-13.5h-13.5a1.125,1.125,0,0,0-1.125,1.125v2.25a1.125,1.125,0,0,0,1.125,1.125h13.5A1.125,1.125,0,0,0,31.5,14.625v-2.25A1.125,1.125,0,0,0,30.375,11.25Zm-4.5,9h-9a1.125,1.125,0,0,0-1.125,1.125v2.25a1.125,1.125,0,0,0,1.125,1.125h9A1.125,1.125,0,0,0,27,23.625v-2.25A1.125,1.125,0,0,0,25.875,20.25Zm9-18h-18A1.125,1.125,0,0,0,15.75,3.375v2.25A1.125,1.125,0,0,0,16.875,6.75h18A1.125,1.125,0,0,0,36,5.625V3.375A1.125,1.125,0,0,0,34.875,2.25Z" transform="translate(0 -2.25)" fill="#fff"/></svg>