<svg xmlns="http://www.w3.org/2000/svg" width="40.5" height="36" viewBox="0 0 40.5 36"><path d="M11.25,31.5c-1.8,0-3.6-1.575-4.5-2.25C2.25,26.1.9,24.975,0,24.3v9.45A2.25,2.25,0,0,0,2.25,36h18a2.25,2.25,0,0,0,2.25-2.25V24.3c-.9.675-2.25,1.8-6.75,4.95C14.85,29.925,13.05,31.5,11.25,31.5Zm9-13.5h-18A2.25,2.25,0,0,0,0,20.25v1.125c1.8,1.35,1.575,1.35,8.1,6.075.675.45,2.025,1.8,3.15,1.8s2.475-1.35,3.15-1.575c6.525-4.725,6.3-4.725,8.1-6.075V20.25A2.25,2.25,0,0,0,20.25,18Zm18-6.75H15.75A2.25,2.25,0,0,0,13.5,13.5v2.25h6.75a4.507,4.507,0,0,1,4.48,4.065l.02-.015v9.45h13.5A2.25,2.25,0,0,0,40.5,27V13.5A2.25,2.25,0,0,0,38.25,11.25Zm-2.25,9H31.5v-4.5H36ZM11.25,13.5A4.505,4.505,0,0,1,15.75,9H31.5V2.25A2.25,2.25,0,0,0,29.25,0H6.75A2.25,2.25,0,0,0,4.5,2.25v13.5h6.75Z" fill="#727677"/></svg>