<svg xmlns="http://www.w3.org/2000/svg" xmlns:xlink="http://www.w3.org/1999/xlink" width="822.896" height="647.181" viewBox="0 0 822.896 647.181"><defs><linearGradient id="a" x1="0.501" y1="1.001" x2="0.501" gradientUnits="objectBoundingBox"><stop offset="0" stop-color="gray" stop-opacity="0.251"/><stop offset="0.54" stop-color="gray" stop-opacity="0.122"/><stop offset="1" stop-color="gray" stop-opacity="0.102"/></linearGradient><linearGradient id="b" x1="0.5" y1="1" x2="0.5" y2="0" xlink:href="#a"/></defs><g transform="translate(0 -0.005)"><g transform="translate(540.797 0.035)" opacity="0.5"><path d="M799.656,67.99c-3.227-.051-7.3.847-9.79,5.31-4.878,8.773,2.972,17.4-1.076,26.752a15.564,15.564,0,0,1-5.25,6.335c-3.913,2.82-7.9,3.658-11.856,5.344a21.731,21.731,0,0,0-11.1,9.908,25.931,25.931,0,0,0-2.337,15.726c.779,4.675,2.617,8.384,4.133,12.381a77.668,77.668,0,0,1,3.972,15.294,28.254,28.254,0,0,1,.389,7.385,46.5,46.5,0,0,1-2.278,9.222l-8.706,27.26a63.666,63.666,0,0,0-2.795,10.924,45.912,45.912,0,0,0,.339,11.644c.948,7.977,2.007,16.277,5.784,21.265s11.187,5.31,16.607-1.761c5.157-6.775,6.487-17.022,11.212-24.39,7.444-11.619,19.351-10.611,27.328-21.493,7.622-10.433,7.5-25.491,12.288-38.329,3.387-9.2,9.315-16.937,13.313-25.872a69.025,69.025,0,0,0,5.081-38.761,57.527,57.527,0,0,0-12.83-27.176c-2.473-3-5.166-5.784-8.6-6.775-3.65-1.084-7.291,1.694-11.052,1.948C808.091,70.353,804.034,68.058,799.656,67.99Z" transform="translate(-752.739 -67.935)" fill="#7ea44b"/><path d="M822.193,68.1s-21,121.652-55.893,188.071" transform="translate(-754.816 -67.96)" fill="none" stroke="#535461" stroke-miterlimit="10" stroke-width="2"/><path d="M796.3,74.93s25.626,26.253,15.819,62.532" transform="translate(-759.41 -69.006)" fill="none" stroke="#535461" stroke-miterlimit="10" stroke-width="2"/><path d="M760.63,134.52s45.1,17.97,39.133,38.4" transform="translate(-753.947 -78.132)" fill="none" stroke="#535461" stroke-miterlimit="10" stroke-width="2"/><path d="M854.337,108s-20.1,8.189-40.937,39.9" transform="translate(-762.029 -74.07)" fill="none" stroke="#535461" stroke-miterlimit="10" stroke-width="2"/><path d="M821.282,225.609s-13.609,4.725-20.562-24.559" transform="translate(-760.087 -88.32)" fill="none" stroke="#535461" stroke-miterlimit="10" stroke-width="2"/><path d="M758.15,231.809s26.185,3.489,30.081-8.469" transform="translate(-753.568 -91.733)" fill="none" stroke="#535461" stroke-miterlimit="10" stroke-width="2"/></g><g transform="translate(83.562 126.884)" opacity="0.5"><path d="M214.98,241.5c-1.812,2.676-3.3,6.563-.932,11.094,4.658,8.892,16.175,7.063,21.773,15.574a15.565,15.565,0,0,1,2.414,7.867c.212,4.819-1.279,8.613-2.049,12.855a21.731,21.731,0,0,0,2.193,14.693,25.931,25.931,0,0,0,11.856,10.577c4.336,1.914,8.469,2.405,12.618,3.337a77.664,77.664,0,0,1,14.964,5.081A28.252,28.252,0,0,1,284.2,326.3a46.5,46.5,0,0,1,6.462,6.961L308.677,355.5a63.668,63.668,0,0,0,7.622,8.333,45.909,45.909,0,0,0,9.925,6.106c7.19,3.582,14.71,7.249,20.951,6.834s10.577-6.436,7.622-14.854c-2.795-8.011-10.67-14.761-14.244-22.755-5.632-12.6,1.745-22.018-2.973-34.637-4.522-12.127-17.2-20.257-25.3-31.334-5.809-7.91-9.044-17.073-14.32-25.33a69.285,69.285,0,0,0-29.64-25.516,57.527,57.527,0,0,0-29.767-4.184c-3.862.423-7.664,1.143-10.408,3.455-2.913,2.456-2.541,7.046-4.438,10.306C221.594,235.742,217.444,237.876,214.98,241.5Z" transform="translate(-212.823 -217.722)" fill="#7ea44b"/><path d="M228.72,225.66s90.174,84.305,126.538,149.945" transform="translate(-215.257 -218.938)" fill="none" stroke="#535461" stroke-miterlimit="10" stroke-width="2"/><path d="M214.68,259.36s36.034-7,60.974,21.087" transform="translate(-213.107 -223.98)" fill="none" stroke="#535461" stroke-miterlimit="10" stroke-width="2"/><path d="M244.92,318.979s39.8-27.836,53.572-11.644" transform="translate(-217.738 -230.67)" fill="none" stroke="#535461" stroke-miterlimit="10" stroke-width="2"/><path d="M278.143,223s-4.192,21.307,10.891,56.113" transform="translate(-222.744 -218.531)" fill="none" stroke="#535461" stroke-miterlimit="10" stroke-width="2"/><path d="M354.352,320.61s-3.523,13.973-31.842,3.7" transform="translate(-229.62 -233.478)" fill="none" stroke="#535461" stroke-miterlimit="10" stroke-width="2"/><path d="M326.17,372.934s17.284-19.977,9.426-29.784" transform="translate(-230.181 -236.93)" fill="none" stroke="#535461" stroke-miterlimit="10" stroke-width="2"/></g><path d="M194.239,121.19c-4.234,5-8.2,11.932-5.081,18.766,6.047,13.389,28.226,6.86,36.144,19.342,2.371,3.735,2.693,8.3,2.143,12.373-1.067,7.969-5.013,14.735-7.74,22.018s-4.141,16.09-.3,23.78c3.7,7.444,11.5,12.144,19.054,14.016s15.125,1.448,22.67,1.694a125.5,125.5,0,0,1,26.549,3.912,36.678,36.678,0,0,1,10.857,4.234c3.853,2.464,6.97,6.08,10.018,9.637l27.1,31.579c3.6,4.234,7.275,8.469,11.737,11.577,5.149,3.582,11.009,5.4,16.776,7.156,12.407,3.794,25.406,7.622,37.262,5.022s21.807-13.931,18.843-27.049c-2.82-12.491-15.54-21.349-19.825-33.587-6.775-19.283,9.951-37.169,4.929-56.791-4.81-18.817-26.134-28.522-37.99-44.452-8.469-11.416-11.805-25.694-19.207-37.838-10.662-17.5-29.259-29.107-47.848-33.51s-37.279-2.278-54.673,2.109c-7.368,1.872-14.735,4.234-20.579,8.909-6.208,4.971-6.927,12.508-11.45,18.512C208.39,109.6,199.947,114.407,194.239,121.19Z" transform="translate(-125.466 -68.315)" fill="#7ea44b"/><path d="M226.51,92.73S370.2,205.786,418.544,304.073" transform="translate(-131.357 -71.697)" fill="none" stroke="#535461" stroke-miterlimit="10" stroke-width="2"/><path d="M189.9,152.189s69.756-22.594,108.017,16.632" transform="translate(-125.75 -79.811)" fill="none" stroke="#535461" stroke-miterlimit="10" stroke-width="2"/><path d="M227.7,240.9s83.086-58.433,104.088-35.644" transform="translate(-131.539 -88.121)" fill="none" stroke="#535461" stroke-miterlimit="10" stroke-width="2"/><path d="M319.3,73.21s-14.32,36.745,3.387,90.157" transform="translate(-144.729 -68.708)" fill="none" stroke="#535461" stroke-miterlimit="10" stroke-width="2"/><path d="M433.329,211s-10.848,24.33-60.889,15.819" transform="translate(-153.704 -89.809)" fill="none" stroke="#535461" stroke-miterlimit="10" stroke-width="2"/><path d="M363.13,307.935s38.507-38.515,26.735-52.505" transform="translate(-152.278 -96.613)" fill="none" stroke="#535461" stroke-miterlimit="10" stroke-width="2"/><ellipse cx="411.448" cy="34.789" rx="411.448" ry="34.789" transform="translate(0 577.607)" fill="#2e5987" opacity="0.1"/><path d="M952.483,453.87c-1.753-5.132-4.285-11.636-6.284-13.169a1.874,1.874,0,0,0-.4-.246h-.246v-6.343l-4.726.754a45.179,45.179,0,0,1-1.694-7.021,3.26,3.26,0,0,0,3.548.711c-.076-.127-.144-.263-.212-.4l.212-.093a8.782,8.782,0,0,1-1.143-4.3,15.672,15.672,0,0,1,.652-4.065c.847-2.922,2.278-5.649,3.074-8.587a20.873,20.873,0,0,0,.711-5.8,21.173,21.173,0,0,0-2.2-9.569,5.588,5.588,0,0,0-1.694-2.185,21.579,21.579,0,0,0-2.049-1,11.07,11.07,0,0,1-2.981-2.973,26.726,26.726,0,0,0-12.915-8.621,7.562,7.562,0,0,0-4.133-.33c-3.176.847-4.327,4.785-6.9,6.851-2.27,1.821-5.386,2.007-8.24,2.617a14.007,14.007,0,0,0-7.673,4.023,8.324,8.324,0,0,0-2.058,5.547,5.581,5.581,0,0,0,2.27,4.963,7.131,7.131,0,0,0,6.021.847,20.477,20.477,0,0,0,15.506,25.745l.55.991h0a42.413,42.413,0,0,1,3.845,10.035c-4.353,2.464-9.1,4.776-11.975,5a20.163,20.163,0,0,1-.627,3.32,18.309,18.309,0,0,1-3.769,7.41c-3.9,4.387-21.459,37.55-21.459,37.55s-.551,1.321-1.457,3.574c-10.9,1.338-28.692,3.269-33.654,2.278L830.908,482.85s-6.3,4.81-5.75,10.654l-3.464-3.337s-18.529,14.143,10.73,23.407l44.52,5.166c-4.234,12.8-8.2,27.692-6.97,35.8h.364a16.835,16.835,0,0,0,2.541-.195l-.076,1.44-4.31,76.8s-.974,14.143,12.195,20.477c0,0,16.09,47.3,9.756,52.666,0,0,.754.4,2.024.948L879.229,718.4s-9.756,2.439-15.116,1.948a3.87,3.87,0,0,0-4.277,2.879.643.643,0,0,1-.051.3v.94a.727.727,0,0,0,.059.313v.119a2.623,2.623,0,0,0,.11.339l.042.1a2.87,2.87,0,0,0,.152.33v.076c.059.11.127.212.195.322l.059.093q.119.169.263.339l.076.085c.1.119.212.229.322.339l.051.042.364.313.076.059c.135.11.288.212.44.313l.1.068c.161.1.33.2.508.3h.076l.55.271h.076l.644.254.135.051.7.229h.119l.771.2h.059l.847.169h.169l.915.135h.178l1.033.1c2.007.152,4.709.212,7.833.195h0v.5a.593.593,0,0,0,.059.313v.119a2.624,2.624,0,0,0,.11.339l.042.1a2.87,2.87,0,0,0,.152.33v.076c.059.11.127.212.195.322l.059.093q.119.169.263.339l.076.085c.1.119.212.229.322.339l.051.042.364.313.076.059c.135.11.288.212.44.313l.11.068c.161.1.33.2.508.3h.076l.55.271h.076l.644.254.135.051.7.229h.119l.771.2h.059l.847.169h.169l.915.135h.178l1.033.1c12.7.974,53.149-1.948,53.149-1.948v-.11h0v-.144h0c.4-1.888,2.346-12.864-4.565-20.977.2-.212.406-.44.593-.677,0,0-5.361-9.265-2.439-12.195s-14.625-53.64-14.625-53.64-9.265-14.625-3.9-31.207-.491-34.62-.491-34.62,12.788-3.8,13.05-19.546v-1.465a5.178,5.178,0,0,0,.847.051,3.789,3.789,0,0,0,.542,0s-2.439-8.773.491-15.116,9.265-.491,15.116-26.329c4.234-18.7,7.961-40.209,9.7-50.676A26.685,26.685,0,0,0,952.483,453.87ZM841.2,508.73l-4.446-4.234c1.474.61,3.108,1.211,4.937,1.787l16.768,1.948C850.97,508.907,844.017,509.289,841.2,508.73Z" transform="translate(-221.616 -115.764)" fill="url(#a)"/><path d="M883.853,526.311S849.36,531.1,842.17,529.7l-19.2-18.258s-18.208,13.9,10.543,22.992l53.691,6.275Z" transform="translate(-221.827 -135.818)" fill="#fdc2cc"/><path d="M883.853,526.311S849.36,531.1,842.17,529.7l-19.2-18.258s-18.208,13.9,10.543,22.992l53.691,6.275Z" transform="translate(-221.827 -135.818)" opacity="0.05"/><path d="M904.107,758.65,887.339,773.5s-9.578,2.4-14.854,1.914-7.664,8.147,4.793,9.1,52.217-1.914,52.217-1.914,3.836-15.328-7.664-23.958Z" transform="translate(-229.624 -173.675)" fill="#47465a"/><path d="M904.107,758.65,887.339,773.5s-9.578,2.4-14.854,1.914-7.664,8.147,4.793,9.1,52.217-1.914,52.217-1.914,3.836-15.328-7.664-23.958Z" transform="translate(-229.624 -173.675)" opacity="0.05"/><path d="M930.1,779.11a26.424,26.424,0,0,1-.6,5.191s-39.8,2.871-52.217,1.914c-5.987-.457-8.536-2.693-8.994-4.836-.542,2.456,1.626,5.708,8.994,6.275,12.457.957,52.217-1.914,52.217-1.914a27.681,27.681,0,0,0,.6-6.631Z" transform="translate(-229.625 -176.808)" fill="#fff" opacity="0.3"/><path d="M933.79,435.474s10.543,14.854,6.707,24.915,20.121-10.543,20.121-10.543-7.664-13.414-3.836-27.786Z" transform="translate(-239.668 -122.13)" fill="#fdc2cc"/><path d="M923.906,765.44l-16.768,14.871s-9.578,2.4-14.854,1.914-7.672,8.13,4.793,9.1,52.218-1.914,52.218-1.914,3.836-15.328-7.664-23.958Z" transform="translate(-232.656 -174.715)" fill="#47465a"/><path d="M927.223,729.946c-2.5,3.083-6.021,4.234-9.705,4.446-8.375.4-17.6-4.446-17.6-4.446,6.224-5.267-9.578-51.743-9.578-51.743-12.932-6.224-11.975-20.121-11.975-20.121l4.234-75.43,1.059-18.944,13.414-8.147,10.577,8.113,10.027,7.7a40.31,40.31,0,0,1,1.253,7.478c1.16,17.606-12.754,21.747-12.754,21.747s5.75,17.725.483,34.01,3.836,30.656,3.836,30.656,17.251,49.821,14.4,52.7S927.223,729.946,927.223,729.946Z" transform="translate(-231.178 -142.574)" fill="#727677"/><path d="M927.223,729.946c-2.5,3.083-6.021,4.234-9.705,4.446-8.375.4-17.6-4.446-17.6-4.446,6.224-5.267-9.578-51.743-9.578-51.743-12.932-6.224-11.975-20.121-11.975-20.121l4.234-75.43,1.059-18.944,13.414-8.147,10.577,8.113,10.027,7.7a40.31,40.31,0,0,1,1.253,7.478c1.16,17.606-12.754,21.747-12.754,21.747s5.75,17.725.483,34.01,3.836,30.656,3.836,30.656,17.251,49.821,14.4,52.7S927.223,729.946,927.223,729.946Z" transform="translate(-231.178 -142.574)" fill="#727677" opacity="0.05"/><path d="M945.636,736.737c-8.147,10.061-27.3,0-27.3,0a3.048,3.048,0,0,0,.847-1.3c3.515-9.553-11.856-55.224-11.856-55.224-12.932-6.224-14.4-21.078-14.4-21.078l-3.387-76.768-.44-9.942,20.155-7.7,6.191-2.363,20.6,15.785a37.37,37.37,0,0,1,1.321,10.018c-.254,15.489-12.788,19.224-12.788,19.224s5.75,17.725.483,34.01,3.836,30.656,3.836,30.656,17.251,49.821,14.4,52.7S945.636,736.737,945.636,736.737Z" transform="translate(-232.825 -143.615)" fill="#727677"/><path d="M936.486,587.144c-4.141-.593-12.525-5.581-16.836-8.291l-2.693-1.694s-4.311-11.975-15.811-2.871a43.038,43.038,0,0,1-12.491,7.054,29.225,29.225,0,0,1-5.335,1.338l1.059-18.944,13.414-8.147L908.37,563.7l6.191-2.363,20.6,15.768a37.368,37.368,0,0,1,1.321,10.035Z" transform="translate(-231.939 -142.579)" opacity="0.1"/><path d="M961.873,478.521c-1.694,10.281-5.369,31.41-9.527,49.787-5.75,25.406-11.975,19.639-14.854,25.872s-.483,14.854-.483,14.854c-4.793.483-20.6-10.061-20.6-10.061S912.094,547,900.594,556.1s-20.6,8.621-20.6,8.621c-2.4-15.811,15.328-57.968,15.328-57.968s17.268-32.579,21.062-36.889a17.986,17.986,0,0,0,3.7-7.283,19.808,19.808,0,0,0,.61-3.26c6.224-.483,21.561-11.009,21.561-11.009l11.975-1.914v6.224a1.835,1.835,0,0,1,.39.237c1.973,1.507,4.454,7.9,6.174,12.94a26.254,26.254,0,0,1,1.084,12.72Z" transform="translate(-231.395 -125.857)" fill="#2e5987"/><path d="M955.681,460.835s-12.457-10.061-31.139,22.518-22.992,27.3-22.992,27.3,3.836,14.4,1.914,17.251c0,0,12.932-.957,17.725,0s34.493-36.415,34.493-36.415S971.018,470.413,955.681,460.835Z" transform="translate(-234.731 -127.843)" opacity="0.1"/><path d="M955.123,458.567s-12.457-10.018-31.139,22.518S901,508.4,901,508.4s14.837,16.285,19.63,17.217S955.123,489.2,955.123,489.2,970.443,468.153,955.123,458.567Z" transform="translate(-234.647 -127.498)" opacity="0.1"/><path d="M902.944,534.15c.195-3.548-1.143-9.79-1.914-13.025,2.913-.381,4.751-.635,4.751-.635l3.387,14.4Z" transform="translate(-234.651 -137.204)" opacity="0.1"/><path d="M957.352,423.19,934.36,436.579a49.1,49.1,0,0,1,2.676,4.387,20.21,20.21,0,0,0,4.031.407c6.14,0,9-6.445,12.7-10.781C953.533,427.136,956.328,427.052,957.352,423.19Z" transform="translate(-239.756 -122.303)" opacity="0.1"/><circle cx="20.121" cy="20.121" r="20.121" transform="translate(680.716 277.895)" fill="#fdc2cc"/><path d="M911.292,398.163a13.752,13.752,0,0,1,7.537-3.955c2.795-.6,5.86-.788,8.1-2.541,2.541-2.024,3.658-5.869,6.775-6.724a7.427,7.427,0,0,1,4.056.322,26.252,26.252,0,0,1,12.7,8.469,10.872,10.872,0,0,0,2.922,2.922,21.183,21.183,0,0,1,2.016.982,5.486,5.486,0,0,1,1.643,2.143,20.825,20.825,0,0,1,1.457,14.625c-.779,2.888-2.185,5.564-3.015,8.469s-1.042,6.131.483,8.7c-1.474.754-3.337-.195-4.234-1.567a18.044,18.044,0,0,1-1.694-4.649,17.784,17.784,0,0,0-5.191-8.071c-1.507-1.338-4.234-2.236-5.259-.508-.406.669-.381,1.516-.728,2.21a2.9,2.9,0,0,1-3.98.847,6.105,6.105,0,0,1-2.49-3.692c-1.973-6.673-5.335-10.874-12.474-8.02-2.659,1.067-5.792,1.787-8.35-.042C908.192,405.666,908.878,400.89,911.292,398.163Z" transform="translate(-235.911 -116.424)" opacity="0.1"/><path d="M911.292,397.583a13.753,13.753,0,0,1,7.537-3.955c2.795-.6,5.86-.788,8.1-2.541,2.541-2.024,3.658-5.869,6.775-6.724a7.426,7.426,0,0,1,4.056.322,26.252,26.252,0,0,1,12.7,8.469,10.873,10.873,0,0,0,2.922,2.922,21.161,21.161,0,0,1,2.016.982,5.486,5.486,0,0,1,1.643,2.143,20.825,20.825,0,0,1,1.457,14.625c-.779,2.888-2.185,5.564-3.015,8.469s-1.042,6.131.483,8.7c-1.474.754-3.337-.195-4.234-1.567a18.045,18.045,0,0,1-1.694-4.649,17.784,17.784,0,0,0-5.191-8.071c-1.507-1.338-4.234-2.236-5.259-.508-.406.669-.381,1.516-.728,2.21a2.9,2.9,0,0,1-3.98.847,6.105,6.105,0,0,1-2.49-3.692c-1.973-6.673-5.335-10.874-12.474-8.02-2.659,1.067-5.792,1.787-8.35-.042C908.192,405.095,908.878,400.327,911.292,397.583Z" transform="translate(-235.911 -116.335)" fill="#727677"/><path d="M961.953,452.833h-9.739s-19.165,9.578-19.639,9.1c-.322-.322-3.286.229-5.166.627a19.827,19.827,0,0,0,.61-3.26c6.224-.483,21.561-11.009,21.561-11.009l11.975-1.914V452.6a1.837,1.837,0,0,1,.4.229Z" transform="translate(-238.691 -125.854)" opacity="0.05"/><path d="M949.9,785.9a26.429,26.429,0,0,1-.6,5.191s-39.8,2.871-52.217,1.914c-5.987-.457-8.536-2.693-8.994-4.836-.542,2.456,1.626,5.708,8.994,6.275,12.457.957,52.217-1.914,52.217-1.914a27.682,27.682,0,0,0,.6-6.631Z" transform="translate(-232.657 -177.848)" fill="#fff" opacity="0.3"/><g transform="translate(648.73 326.758)" opacity="0.05"><path d="M896.119,574.752a40.687,40.687,0,0,1-15.929,8.054,7.109,7.109,0,0,0,.119,1.05s9.1.483,20.6-8.621a15.439,15.439,0,0,1,6.157-3.218C904.588,570.823,900.98,570.9,896.119,574.752Z" transform="translate(-880.19 -471.749)"/><path d="M970.427,466.917c-1.694-5.081-4.234-11.433-6.174-12.94a1.838,1.838,0,0,0-.39-.237s-3.963.135-3.836.237c1.973,1.507,3.887,7.419,5.606,12.457a26.252,26.252,0,0,1,1.042,12.7c-1.694,10.281-5.369,31.41-9.527,49.787-5.75,25.406-11.975,19.639-14.854,25.872-2.354,5.081-1.177,11.805-.669,14.066a12.116,12.116,0,0,0,4.98,1.262s-2.4-8.621.483-14.854,9.1-.483,14.854-25.872c4.158-18.368,7.817-39.506,9.527-49.787A26.253,26.253,0,0,0,970.427,466.917Z" transform="translate(-889.484 -453.74)"/></g><path d="M367.075,721.324s-11.009.762-17.869-11.009a39.562,39.562,0,0,0-4.692-6.665,22.526,22.526,0,0,1-3.294-11.966c.381-8.74-8.74-56.638-8.74-56.638s1.143-18.25-7.986-29.64c-6-7.5-14.642-29.013-19.85-42.834a2.87,2.87,0,0,0,1.228.644l-.212-1.194.212.051-2.659-14.829a67.477,67.477,0,0,1-9.824-14.9l.61-.127,8.071-1.694s13.118-18.631,13.922-27.811l1.067.051h1.507c16.692-.364,36.339,1.905,36.339,1.905h0c0-.059-.093-.3-.195-.669h0a45.619,45.619,0,0,1-1.177-5.615l.754-.051,7.469-.5S387.6,468.951,378.1,463.624s-19.385,23.949-19.385,23.949l-3.193.584-.847.161a3.686,3.686,0,0,1,.271-.364c.1-.119-42.2-1.9-48.661-12.161,0,0-18.631-14.829-19.385-24.711a11.148,11.148,0,0,0-6.7-9.485,14.617,14.617,0,0,0-7.385-1.38l-8.723.6.618,1.1h-.246a29.34,29.34,0,0,1-1.372-3.862h.178c-.059-.271-.119-.542-.169-.847a20.528,20.528,0,0,0,15.117-25.279,8.216,8.216,0,0,0,2.541-.068c3.2-.661,5.479-3.912,5.564-7.181v-.762a11.009,11.009,0,0,0-4.234-8.469c-1.745-1.448-3.819-2.481-5.4-4.09-1.88-1.922-2.9-4.5-4.37-6.775a20.062,20.062,0,0,0-10.3-8.02c-3.15-1.067-7-1.186-9.417,1.1-1.245,1.177-1.965,2.862-3.387,3.853-2.007,1.431-4.734,1.008-7.19,1.3a13.709,13.709,0,0,0-10.332,7.74A17.784,17.784,0,0,0,230,398.729a21.84,21.84,0,0,0,.686,5.742c.474,1.872,1.177,3.675,1.694,5.53,1.067,3.862,1.313,7.927,2.541,11.746a14.778,14.778,0,0,0,4.759,7.215l-.364,1.575c-.237.051-6.157,1.321-10.255,10.264-3.235,7.046-14.176,14.329-18.987,17.268a7.918,7.918,0,0,0-3.582,4.971,25.857,25.857,0,0,0-.61,6.318c-.085,4.581.847,10.916,4.556,18.953,8.367,18.25,14.447,26.253,14.447,26.253s.466,5.589.491,11.483c0,4.387-.322,8.757-1.253,10.941-.788,1.846-1.033,6.563-1.016,11.941,0,10.323,1.016,23.8,1.016,23.8s2.9.55,7.41,1.211l2.8,49.279a23.712,23.712,0,0,1-5.361,16.463A36.415,36.415,0,0,1,222.2,646.1c-7.986,5.7-25.093,65.767-25.093,65.767s.847.051,2.219.161l-5.259,14.668s21,16.09,33.79,11.7a12.38,12.38,0,0,1,4.234-.6c2.541,0,7.918-1.99,4.912-4.624a194.7,194.7,0,0,1-16.387-17.039,8.732,8.732,0,0,1,1.186.694V716.7l.178.119s.042-.593.135-1.55l-.186-.059c.39-3.955,1.609-13.9,4.04-15.116,3.04-1.524,25.465-45.993,25.465-45.993l22.425-57.781s17.869,30.792,33.07,36.11v12.847s8.367,38.016,11.407,42.2,0,20.909,0,20.909a10.417,10.417,0,0,0,2.049,1.8l-2.43,13.778s17.488-.762,47.136,8.367C365.17,732.351,376.577,727.422,367.075,721.324ZM297.125,522.481l-3.7.923-.728.186c-.076-.457-.127-.728-.127-.728a7.553,7.553,0,0,1-2.685.652,49.513,49.513,0,0,1-2.253-12.821,86.424,86.424,0,0,1-2.27-15.879c.042-2.769.457-5.183,1.507-6.546l1.236.1.847.847.059.059.44.4h0l.457.415.076.068.5.432.085.076.508.432.051.042.567.466.127.1.6.483h.051l.593.466.135.1.652.5.135.1.627.457.11.076.711.508.169.119.745.517.068.042.728.483.178.119.788.5.169.1.737.449.135.085.847.491.2.119.847.491h.068l.847.449.212.11.9.449.186.085.847.39.161.076.94.406.229.093.982.39h0C300.241,506.958,297.125,522.481,297.125,522.481Z" transform="translate(-126.389 -115.051)" fill="url(#b)"/><path d="M203.774,762.12l-7.054,19.673s19.317,14.812,31.867,11.746a35.073,35.073,0,0,1,5.759-.932c2.6-.195,7.071-2.083,4.311-4.5-8.909-7.791-20.782-22.264-20.782-22.264Z" transform="translate(-126.795 -174.206)" fill="#4f4d59"/><path d="M342.927,759.1,339.59,778.03s17.073-.745,46.018,8.164c0,0,11.136-4.827,1.855-10.764,0,0-10.764.745-17.445-10.764s-10.764-10.018-10.764-10.018Z" transform="translate(-148.674 -173.052)" fill="#4f4d59"/><path d="M233.256,591.39l3.269,57.587a23.822,23.822,0,0,1-5.682,16.844,34.917,34.917,0,0,1-6.131,5.716c-7.791,5.564-24.491,64.2-24.491,64.2s18.927,1.109,24.119,4.827c0,0,1.109-14.845,4.082-16.328s24.864-44.884,24.864-44.884l21.908-56.443s17.445,30.064,32.291,35.255v12.618s8.164,37.109,11.136,41.191,0,20.409,0,20.409,8.536,10.764,28.2-.745c0,0-6.309-7.054-5.928-15.591s-8.536-55.292-8.536-55.292,1.109-17.784-7.791-28.946-23.754-53.784-23.754-53.784L290.6,556.05Z" transform="translate(-127.331 -142.649)" fill="#787c9c"/><g transform="translate(73.101 413.409)" opacity="0.1"><path d="M203.79,735.756s16.7-58.637,24.491-64.2a35.356,35.356,0,0,0,6.445-6.089A23.551,23.551,0,0,0,240.086,649l-3.269-57.587,54.716-33.756-.745-1.6-57.324,35.331,3.269,57.587a23.551,23.551,0,0,1-5.327,16.48,35.358,35.358,0,0,1-6.445,6.089c-7.791,5.564-24.491,64.2-24.491,64.2s18.927,1.109,24.119,4.827c0,0,.042-.576.135-1.516C217.407,736.56,203.79,735.756,203.79,735.756Z" transform="translate(-200.47 -556.06)"/><path d="M336.1,744.508s2.972-16.328,0-20.409-11.17-41.2-11.17-41.2V670.28C310.121,665.089,292.676,635,292.676,635l-1.3,3.387c5.03,7.977,18.453,27.786,30.241,31.91v12.618s8.164,37.109,11.136,41.191,0,20.409,0,20.409,4.141,5.208,13.287,4.505C339.228,748.479,336.1,744.508,336.1,744.508Z" transform="translate(-214.392 -568.149)"/></g><path d="M387.986,515.369l-7.291.483-3.845.254V506.79l5.081-.915,3.125-.567s9.646-28.573,18.927-23.382S387.986,515.369,387.986,515.369Z" transform="translate(-154.379 -131.201)" fill="#714b4f"/><path d="M250.791,431.26s-4.827,18.555-6.309,30.064,34.51,2.227,34.51,2.227-13.728-16.7-5.928-25.609Z" transform="translate(-134.102 -123.539)" fill="#714b4f"/><path d="M289.538,511l.745,7.054-11.5-.745-11.551-10.044L255.731,475l-7.419-11.5-5.572-7.046,2.227-8.536s1.016.847,2.735,2.2c5.649,4.327,18.91,13.313,28.6,10.831a11.545,11.545,0,0,0,1.321-.415l14.456,24.855Z" transform="translate(-133.842 -126.09)" fill="#e6e6f0"/><path d="M242.965,445.28s-5.928,1.109-10.018,10.018c-3.142,6.851-13.736,13.914-18.47,16.819a7.918,7.918,0,0,0-3.591,5c-.957,4.234-1.321,12.11,3.879,23.458,8.164,17.784,14.1,25.609,14.1,25.609s1.482,17.784-.745,23.009,0,33.773,0,33.773,38.956,7.419,51.955,0,11.136-36,11.136-36,12.246,25.948,16.7,26.719l-2.6-14.473s-14.473-15.591-15.243-35.628c0,0-4.454-18.182-.745-23.009,0,0,62.719,5.2,66.428.745,0,0-41.191-1.855-47.5-11.856,0,0-18.182-14.473-18.927-24.119a10.67,10.67,0,0,0-5.564-8.74,14.532,14.532,0,0,0-8.316-1.855l-8.384.576s14.473,25.609,13.728,28.946.745,30.428.745,30.428S264.865,478.68,257.472,474.6s-15.955-20.841-15.955-20.841L243,445.288" transform="translate(-128.876 -125.686)" opacity="0.1"/><path d="M289.538,511l.745,7.054-11.5-.745-11.551-10.044L255.731,475l-7.419-11.5-5.572-7.046,2.227-8.536s1.016.847,2.735,2.2l-.508,2.947s8.536,16.759,15.955,20.841,24.119,40.082,24.119,40.082-1.482-27.1-.745-30.428c.508-2.27-6-14.778-10.222-22.594a11.539,11.539,0,0,0,1.321-.415l14.456,24.838Z" transform="translate(-133.842 -126.09)" opacity="0.1"/><path d="M380.675,520.306l-3.845.254v-9.315l5.081-.915C380.124,512.693,380.184,516.825,380.675,520.306Z" transform="translate(-154.376 -135.648)" opacity="0.1"/><path d="M242.965,444s-5.928,1.109-10.018,10.018c-3.142,6.851-13.736,13.914-18.47,16.819a7.918,7.918,0,0,0-3.591,5c-.957,4.234-1.321,12.11,3.879,23.458,8.164,17.784,14.1,25.609,14.1,25.609s1.482,17.784-.745,23.009,0,33.773,0,33.773,38.956,7.419,51.955,0,11.136-36.068,11.136-36.068,12.246,25.982,16.7,26.718l-2.6-14.473s-14.473-15.591-15.243-35.628c0,0-4.454-18.182-.745-23.009,0,0,14.473,15.591,30.8,15.244s35.627,1.855,35.627,1.855-3.709-11.856,0-16.328c0,0-41.191-1.855-47.5-11.856,0,0-18.182-14.473-18.927-24.119a10.671,10.671,0,0,0-5.564-8.74,14.532,14.532,0,0,0-8.316-1.855l-8.384.576s14.507,25.558,13.762,28.946.745,30.428.745,30.428-16.7-36.009-24.093-40.09-15.989-20.824-15.989-20.824L242.965,444" transform="translate(-128.876 -125.49)" fill="#2e5987"/><path d="M237.353,490s8.909,30.064,14.1,33.773,36.737,22.637,46.019,18.182c0,0,2.227,11.136-1.109,13.728,0,0-34.6-1.355-34.882-1.482,0,0-22.637-2.972-26.346-14.1s-8.164-30.064-8.164-30.064Z" transform="translate(-131.427 -132.534)" opacity="0.1"/><ellipse cx="1.296" cy="1.855" rx="1.296" ry="1.855" transform="translate(152.139 387.699)" fill="#ba7855"/><ellipse cx="1.296" cy="1.855" rx="1.296" ry="1.855" transform="translate(155.848 400.689)" fill="#ba7855"/><g transform="translate(81.443 318.442)" opacity="0.1"><path d="M230.721,581.272s-2.227-28.573,0-33.773.745-23.009.745-23.009-5.928-7.791-14.1-25.609c-5.2-11.348-4.827-19.224-3.879-23.458a7.918,7.918,0,0,1,3.6-5c4.734-2.9,15.328-9.968,18.462-16.819,2.3-5.022,5.191-7.571,7.283-8.833l.144-.847s-5.928,1.109-10.018,10.018c-3.142,6.851-13.736,13.914-18.462,16.819a7.918,7.918,0,0,0-3.6,5c-.957,4.234-1.321,12.11,3.879,23.458,8.164,17.784,14.1,25.609,14.1,25.609s1.482,17.784-.745,23.009,0,33.773,0,33.773,27.836,5.3,44.3,2.464C255.78,586.049,230.721,581.272,230.721,581.272Z" transform="translate(-210.321 -443.92)"/><path d="M291.086,484.726c-.508,2.287,0,15.735.415,23.966,1.8,3.667,2.922,6.089,2.922,6.089s-1.482-27.1-.745-30.428c.7-3.176-12.33-26.464-13.626-28.793l-2.7.186S291.831,481.338,291.086,484.726Z" transform="translate(-220.585 -445.703)"/><path d="M337.35,524.033c-16.328.373-30.8-15.243-30.8-15.243a5.929,5.929,0,0,0-.94,2.016c4.234,3.989,16.09,13.872,29.141,13.55,16.327-.373,35.627,1.855,35.627,1.855s-.076-.246-.195-.669a295.434,295.434,0,0,0-32.833-1.507Z" transform="translate(-224.913 -453.854)"/><path d="M308.91,563.6s.152,2.32.068,5.8c3.862,7.622,10.891,20.765,14.033,21.29l-.55-3.049C317.04,580.876,308.91,563.6,308.91,563.6Z" transform="translate(-225.419 -462.248)"/></g><path d="M318.63,553.432l-7.884,1.694-6.216,1.313,3.337-9.315,2.32-.584,3.616-.9s5.2-25.982,15.591-24.119S318.63,553.432,318.63,553.432Z" transform="translate(-143.304 -137.347)" fill="#714b4f"/><path d="M310.746,559.627l-6.216,1.313,3.337-9.315,2.32-.584A37.065,37.065,0,0,1,310.746,559.627Z" transform="translate(-143.304 -141.882)" opacity="0.1"/><path d="M237.353,489.1s8.909,30.064,14.1,33.773,36.737,22.637,46.019,18.182c0,0,2.227,11.136-1.109,13.728,0,0-34.6-1.355-34.882-1.482,0,0-22.637-2.972-26.346-14.1s-8.164-30.064-8.164-30.064Z" transform="translate(-131.427 -132.396)" fill="#2e5987"/><path d="M252.061,432.14s-.754,2.9-1.761,7.131a20.028,20.028,0,0,0,22.12,10.162c-.889-3.811-.694-7.622,1.914-10.645Z" transform="translate(-135 -123.674)" opacity="0.1"/><circle cx="20.037" cy="20.037" r="20.037" transform="translate(112.616 285.457)" fill="#714b4f"/><path d="M283.178,415.944a10.729,10.729,0,0,0,4.471.271c3.125-.644,5.352-3.819,5.428-7.012a10.772,10.772,0,0,0-4.133-8.274c-1.694-1.414-3.726-2.422-5.276-4-1.838-1.872-2.837-4.4-4.234-6.6a19.588,19.588,0,0,0-10.086-7.825c-3.074-1.042-6.834-1.16-9.2,1.076-1.211,1.143-1.922,2.795-3.277,3.76-1.965,1.4-4.624.982-7.02,1.262a13.38,13.38,0,0,0-10.086,7.554A18.9,18.9,0,0,0,238.785,409c.466,1.821,1.143,3.591,1.643,5.4,1.042,3.777,1.287,7.74,2.49,11.467s3.684,7.368,7.435,8.469a23.509,23.509,0,0,1,2.388-12.11,3.472,3.472,0,0,1,1.694-1.88,4.107,4.107,0,0,1,2.041,0,20.325,20.325,0,0,0,13.55-2.744c1.423-.847,3.641-3.819,5.166-4.116C277.139,413.141,281.145,415.487,283.178,415.944Z" transform="translate(-133.131 -115.964)" opacity="0.1"/><path d="M283.179,415.064a10.729,10.729,0,0,0,4.471.271c3.125-.644,5.352-3.819,5.428-7.012a10.772,10.772,0,0,0-4.133-8.274c-1.694-1.414-3.726-2.422-5.276-4-1.838-1.872-2.837-4.4-4.234-6.6a19.588,19.588,0,0,0-10.086-7.825c-3.074-1.042-6.834-1.16-9.2,1.076-1.211,1.143-1.922,2.795-3.277,3.76-1.965,1.4-4.624.982-7.02,1.262a13.381,13.381,0,0,0-10.086,7.554,18.9,18.9,0,0,0-.982,12.8c.466,1.821,1.143,3.591,1.643,5.4,1.042,3.777,1.287,7.74,2.49,11.466s3.684,7.368,7.435,8.469a23.509,23.509,0,0,1,2.388-12.11,3.472,3.472,0,0,1,1.694-1.88,4.107,4.107,0,0,1,2.041,0,20.324,20.324,0,0,0,13.55-2.744c1.423-.847,3.641-3.819,5.166-4.116C277.141,412.261,281.146,414.615,283.179,415.064Z" transform="translate(-133.132 -115.829)" fill="#3c3c3c"/><rect width="437.616" height="523.361" transform="translate(191.67 91.331)" fill="#fafbfc"/><rect width="437.616" height="17.742" transform="translate(191.67 91.331)" fill="#2e5987"/><line x2="319.343" transform="translate(250.807 304.596)" fill="none" stroke="#7983a6" stroke-miterlimit="10" stroke-width="1"/><g transform="translate(250.807 269.849)" opacity="0.5"><line x2="5.081" fill="none" stroke="#7983a6" stroke-miterlimit="10" stroke-width="1"/><line x2="294.217" transform="translate(15.057)" fill="none" stroke="#7983a6" stroke-miterlimit="10" stroke-width="1" stroke-dasharray="11.78 11.78"/><line x2="5.081" transform="translate(314.262)" fill="none" stroke="#7983a6" stroke-miterlimit="10" stroke-width="1"/></g><g transform="translate(250.807 235.111)" opacity="0.5"><line x2="5.081" fill="none" stroke="#7983a6" stroke-miterlimit="10" stroke-width="1"/><line x2="294.217" transform="translate(15.057)" fill="none" stroke="#7983a6" stroke-miterlimit="10" stroke-width="1" stroke-dasharray="11.78 11.78"/><line x2="5.081" transform="translate(314.262)" fill="none" stroke="#7983a6" stroke-miterlimit="10" stroke-width="1"/></g><g transform="translate(250.807 200.364)" opacity="0.5"><line x2="5.081" fill="none" stroke="#7983a6" stroke-miterlimit="10" stroke-width="1"/><line x2="294.217" transform="translate(15.057)" fill="none" stroke="#7983a6" stroke-miterlimit="10" stroke-width="1" stroke-dasharray="11.78 11.78"/><line x2="5.081" transform="translate(314.262)" fill="none" stroke="#7983a6" stroke-miterlimit="10" stroke-width="1"/></g><g transform="translate(250.807 165.626)" opacity="0.5"><line x2="5.081" fill="none" stroke="#7983a6" stroke-miterlimit="10" stroke-width="1"/><line x2="294.217" transform="translate(15.057)" fill="none" stroke="#7983a6" stroke-miterlimit="10" stroke-width="1" stroke-dasharray="11.78 11.78"/><line x2="5.081" transform="translate(314.262)" fill="none" stroke="#7983a6" stroke-miterlimit="10" stroke-width="1"/></g><g transform="translate(266.702 235.111)" opacity="0.3"><rect width="22.916" height="69.485" fill="#f4a50f"/></g><rect width="22.916" height="104.969" transform="translate(330.64 199.992)" fill="#f4a50f"/><g transform="translate(394.587 269.477)" opacity="0.3"><rect width="22.916" height="35.848" fill="#f4a50f"/></g><rect width="22.916" height="140.452" transform="translate(458.525 164.517)" fill="#f4a50f"/><g transform="translate(522.463 198.518)" opacity="0.3"><rect width="22.916" height="106.078" fill="#f4a50f"/></g><circle cx="5.911" cy="5.911" r="5.911" transform="translate(272.249 314.572)" fill="#f4a50f"/><circle cx="5.911" cy="5.911" r="5.911" transform="translate(336.56 314.572)" fill="#f4a50f"/><circle cx="5.911" cy="5.911" r="5.911" transform="translate(400.87 314.572)" fill="#f4a50f"/><circle cx="5.911" cy="5.911" r="5.911" transform="translate(465.181 314.572)" fill="#f4a50f"/><circle cx="5.911" cy="5.911" r="5.911" transform="translate(529.492 314.572)" fill="#f4a50f"/><line x2="319.343" transform="translate(250.807 527.837)" fill="none" stroke="#7983a6" stroke-miterlimit="10" stroke-width="1"/><g transform="translate(250.807 493.091)" opacity="0.5"><line x2="5.081" fill="none" stroke="#7983a6" stroke-miterlimit="10" stroke-width="1"/><line x2="294.217" transform="translate(15.057)" fill="none" stroke="#7983a6" stroke-miterlimit="10" stroke-width="1" stroke-dasharray="11.78 11.78"/><line x2="5.081" transform="translate(314.262)" fill="none" stroke="#7983a6" stroke-miterlimit="10" stroke-width="1"/></g><g transform="translate(250.807 458.352)" opacity="0.5"><line x2="5.081" fill="none" stroke="#7983a6" stroke-miterlimit="10" stroke-width="1"/><line x2="294.217" transform="translate(15.057)" fill="none" stroke="#7983a6" stroke-miterlimit="10" stroke-width="1" stroke-dasharray="11.78 11.78"/><line x2="5.081" transform="translate(314.262)" fill="none" stroke="#7983a6" stroke-miterlimit="10" stroke-width="1"/></g><g transform="translate(250.807 423.606)" opacity="0.5"><line x2="5.081" fill="none" stroke="#7983a6" stroke-miterlimit="10" stroke-width="1"/><line x2="294.217" transform="translate(15.057)" fill="none" stroke="#7983a6" stroke-miterlimit="10" stroke-width="1" stroke-dasharray="11.78 11.78"/><line x2="5.081" transform="translate(314.262)" fill="none" stroke="#7983a6" stroke-miterlimit="10" stroke-width="1"/></g><g transform="translate(250.807 388.867)" opacity="0.5"><line x2="5.081" fill="none" stroke="#7983a6" stroke-miterlimit="10" stroke-width="1"/><line x2="294.217" transform="translate(15.057)" fill="none" stroke="#7983a6" stroke-miterlimit="10" stroke-width="1" stroke-dasharray="11.78 11.78"/><line x2="5.081" transform="translate(314.262)" fill="none" stroke="#7983a6" stroke-miterlimit="10" stroke-width="1"/></g><rect width="22.916" height="69.485" transform="translate(266.702 458.352)" fill="#f4a50f"/><rect width="22.916" height="70.222" transform="translate(330.64 457.98)" fill="#f4a50f"/><rect width="22.916" height="35.848" transform="translate(394.587 492.726)" fill="#f4a50f"/><rect width="22.916" height="140.452" transform="translate(458.525 387.758)" fill="#f4a50f"/><rect width="22.916" height="106.078" transform="translate(609.69 304.892)" fill="#f4a50f"/><g transform="translate(272.249 537.813)" opacity="0.7"><circle cx="5.911" cy="5.911" r="5.911" fill="#f4a50f"/></g><g transform="translate(336.56 537.813)" opacity="0.7"><circle cx="5.911" cy="5.911" r="5.911" fill="#f4a50f"/></g><g transform="translate(400.87 537.813)" opacity="0.7"><circle cx="5.911" cy="5.911" r="5.911" fill="#f4a50f"/></g><g transform="translate(465.181 537.813)" opacity="0.7"><circle cx="5.911" cy="5.911" r="5.911" fill="#f4a50f"/></g><g transform="translate(529.492 537.813)" opacity="0.7"><circle cx="5.911" cy="5.911" r="5.911" fill="#f4a50f"/></g><path d="M296.5,788.644a9.883,9.883,0,0,0,3.243-4.895c.423-1.948-.407-4.277-2.27-4.988-2.083-.8-4.311.644-6,2.109s-3.625,3.125-5.835,2.812a8.875,8.875,0,0,0,2.744-8.308,3.472,3.472,0,0,0-.762-1.694c-1.16-1.236-3.252-.7-4.641.271-4.4,3.1-5.632,9.078-5.657,14.464-.44-1.939-.068-3.963-.085-5.928s-.559-4.234-2.236-5.267a6.775,6.775,0,0,0-3.387-.8c-1.982-.076-4.183.127-5.538,1.575-1.694,1.8-1.245,4.819.22,6.775s3.684,3.218,5.733,4.59a12.7,12.7,0,0,1,4.1,3.9,3.867,3.867,0,0,1,.3.694h12.407a34.574,34.574,0,0,0,7.656-5.31Z" transform="translate(-137.25 -175.866)" fill="#7ea44b"/><path d="M1008.5,776.644a9.882,9.882,0,0,0,3.243-4.895c.423-1.948-.406-4.277-2.27-4.988-2.083-.8-4.311.644-6,2.109s-3.625,3.125-5.835,2.812a8.875,8.875,0,0,0,2.744-8.308,3.472,3.472,0,0,0-.762-1.694c-1.16-1.236-3.252-.7-4.641.271-4.4,3.1-5.632,9.078-5.657,14.464-.44-1.939-.068-3.963-.085-5.928s-.559-4.234-2.236-5.267a6.775,6.775,0,0,0-3.387-.8c-1.982-.076-4.183.127-5.538,1.575-1.694,1.8-1.245,4.819.22,6.775s3.684,3.218,5.733,4.59a12.7,12.7,0,0,1,4.1,3.9,3.872,3.872,0,0,1,.3.694h12.407A34.581,34.581,0,0,0,1008.5,776.644Z" transform="translate(-246.285 -174.029)" fill="#7ea44b"/><path d="M897.965,532.183l-6.191-.72L844.35,525.95c-28.785-9.1-10.577-22.95-10.577-22.95l19.164,18.208c5.53,1.109,27.21-1.474,36.923-2.718,2.913-.381,4.751-.635,4.751-.635Z" transform="translate(-223.482 -134.525)" fill="#fdc2cc"/><path d="M955.681,459.735s-12.457-10.061-31.139,22.518-22.992,27.3-22.992,27.3,3.836,14.4,1.914,17.251c0,0,12.932-.957,17.725,0s34.493-36.415,34.493-36.415S971.018,469.287,955.681,459.735Z" transform="translate(-234.731 -127.675)" fill="#7ea44b"/></g></svg>