<svg xmlns="http://www.w3.org/2000/svg" width="642.274" height="585.554" viewBox="0 0 642.274 585.554"><g transform="translate(-0.004 -0.08)"><rect width="1.487" height="104.115" transform="translate(501.719 323.07)" fill="#f2f2f2" stroke="#fff" stroke-width="1"/><rect width="1.487" height="104.115" transform="translate(501.719 209.287)" fill="#f2f2f2" stroke="#fff" stroke-width="1"/><rect width="1.487" height="104.115" transform="translate(501.719 65.014)" fill="#f2f2f2" stroke="#fff" stroke-width="1"/><circle cx="18.592" cy="18.592" r="18.592" transform="translate(483.87 304.478)" fill="#fff"/><circle cx="34.953" cy="34.953" r="34.953" transform="translate(467.509 163.923)" fill="#fff"/><circle cx="46.852" cy="46.852" r="46.852" transform="translate(455.611 18.162)" fill="#f2f2f2"/><circle cx="7.437" cy="7.437" r="7.437" transform="translate(476.434 36.754)" fill="#f4a50f"/><circle cx="4.462" cy="4.462" r="4.462" transform="translate(509.155 56.089)" fill="#f4a50f"/><circle cx="4.462" cy="4.462" r="4.462" transform="translate(498 79.887)" fill="#f4a50f"/><path d="M458.5,559.352a329.594,329.594,0,0,1-125.063-24.643A265.233,265.233,0,0,1,187.884,188.68C232.2,80,356.227,27.823,464.906,72.139A170.159,170.159,0,0,1,558.22,293.951a136.275,136.275,0,0,1-177.643,74.733,109.168,109.168,0,0,1-59.868-142.308A87.583,87.583,0,0,1,434.75,178.4a70.215,70.215,0,0,1,38.462,91.426,56.257,56.257,0,0,1-73.335,30.851,45.154,45.154,0,0,1-24.763-58.862A36.314,36.314,0,0,1,422.4,221.924a29.2,29.2,0,0,1,15.995,38.021,23.509,23.509,0,0,1-30.61,12.878A18.956,18.956,0,0,1,397.4,248.139a15.312,15.312,0,0,1,19.94-8.388,12.4,12.4,0,0,1,6.792,16.145,10.069,10.069,0,0,1-13.11,5.515,8.2,8.2,0,0,1-4.494-10.682,6.711,6.711,0,0,1,8.74-3.677,5.518,5.518,0,0,1,3.023,7.185,4.562,4.562,0,0,1-5.942,2.5,3.8,3.8,0,0,1-2.081-4.948,3.185,3.185,0,0,1,4.152-1.747,2.7,2.7,0,0,1,1.479,3.515,2.306,2.306,0,0,1-3.007,1.264,1.993,1.993,0,0,1-1.093-2.6,1.743,1.743,0,0,1,.389-.584,1.688,1.688,0,0,0-.544.711,2.312,2.312,0,0,0,1.266,3.009,3.075,3.075,0,0,0,4-1.684,4.03,4.03,0,0,0-2.207-5.247,5.225,5.225,0,0,0-6.8,2.861,6.716,6.716,0,0,0,3.678,8.744,8.582,8.582,0,0,0,11.172-4.7,10.912,10.912,0,0,0-5.977-14.207,13.825,13.825,0,0,0-18,7.573,17.448,17.448,0,0,0,9.568,22.744,22.022,22.022,0,0,0,28.672-12.062A27.712,27.712,0,0,0,421.836,223.3a34.827,34.827,0,0,0-45.345,19.076A43.667,43.667,0,0,0,400.439,299.3a54.77,54.77,0,0,0,71.4-30.035,68.728,68.728,0,0,0-37.647-89.488,86.1,86.1,0,0,0-112.1,47.16,107.683,107.683,0,0,0,59.052,140.37,134.788,134.788,0,0,0,175.7-73.917,168.671,168.671,0,0,0-92.5-219.873C356.6,29.581,233.2,81.495,189.261,189.241c-54.958,134.778,9.981,289.139,144.758,344.1,168.567,68.736,361.628-12.483,430.364-181.05l1.377.562A332.007,332.007,0,0,1,462.829,559.324C461.388,559.343,459.943,559.352,458.5,559.352ZM413.412,252.627a.262.262,0,0,0-.1.02.257.257,0,0,0-.138.139.506.506,0,0,0,.277.66.819.819,0,0,0,1.068-.448,1.209,1.209,0,0,0-.536-1.516l-.475,1.164A.251.251,0,0,0,413.412,252.627Z" transform="translate(-168.162 -56.272)" fill="#f4a50f"/><circle cx="36.84" cy="36.84" r="36.84" transform="translate(327.24 136.364)" fill="#2f2e41"/><path d="M525.688,380.894l4.462,14.13-58.007,8.924.744-14.874Z" transform="translate(-121.02 -97.611)" fill="#a0616a"/><path d="M616.65,585.166l-2.231,45.364s-12.643,23.054-11.155,55.776.744,33.465.744,33.465l-.744,11.9,11.9,1.487V717.541s17.1-43.133,18.592-64.7l17.1-64.7Z" transform="translate(-279.656 -191.819)" fill="#a0616a"/><path d="M722.515,585.166l2.231,45.364s12.643,23.054,11.155,55.776-.744,33.465-.744,33.465l.744,11.9L724,733.158V717.541s-17.1-43.133-18.592-64.7l-17.1-64.7Z" transform="translate(-301.485 -191.819)" fill="#a0616a"/><path d="M687.8,450.166s-53.545,8.18-61.725,5.949l-26.772,92.96a128.808,128.808,0,0,0,54.288,6.693,25.928,25.928,0,0,1,17.848,2.975c8.924,5.206,35.7-8.924,35.7-8.924l18.592-3.718Z" transform="translate(-278.673 -157.216)" fill="#2e5987"/><rect width="59.494" height="67.675" transform="translate(369.348 302.997)" fill="#f4a50f"/><rect width="59.494" height="67.675" transform="translate(360.415 310.421)" fill="#f2f2f2"/><path d="M605.049,388.654l-.744,10.411,13.386,46.108s5.206,32.722,15.617,52.057c0,0,5.949,29.747,17.1,26.029s-5.206-32.722-5.206-32.722l-11.9-44.621-14.13-58.751Z" transform="translate(-279.954 -141.067)" fill="#a0616a"/><circle cx="22.31" cy="22.31" r="22.31" transform="translate(344.803 163.923)" fill="#a0616a"/><path d="M633.652,324.166s6.693,20.079-6.693,23.8-26.772,11.9-23.8,25.285l1.487,2.975,92.96-22.31a20.406,20.406,0,0,0-20.079-9.668s-20.68-.548-19.264-14.032l-2.3-5.3Z" transform="translate(-279.553 -124.919)" fill="#a0616a"/><path d="M721.692,362.166s3.719,0,13.386,12.643a212.012,212.012,0,0,0,16.361,19.336s8.924,4.462,3.718,14.874-23.8,20.823-23.8,20.823S712.768,452.151,710.536,441s15.617-17.1,15.617-17.1,13.386-12.643,12.642-20.079l-30.491-25.285Z" transform="translate(-306.612 -134.659)" fill="#a0616a"/><path d="M601.264,379.733s92.216-21.567,94.447-21.567l4.678,7.249s-.96,5.394-12.115,6.881a43.66,43.66,0,0,1-2.231,22.31v27.516s-52.057,5.949-56.52,10.411l-8.01-39.723s-10.582-6.385-18.019-1.18C603.5,391.632,600.521,381.964,601.264,379.733Z" transform="translate(-279.144 -133.634)" fill="#7ea44b"/><path d="M611.5,778.48s-7.731-9.427-13.161-2.111l-6.918,14.01s-19.336,32.722.744,34.953,21.567-5.206,21.567-5.206-1.487-8.924,0-10.411,2.975-2.231,2.975-5.206S611.5,778.48,611.5,778.48Z" transform="translate(-274.503 -240.115)" fill="#2f2e41"/><path d="M732.511,778.48s7.731-9.427,13.161-2.111l6.918,14.01s19.336,32.722-.744,34.953-21.567-5.206-21.567-5.206,1.487-8.924,0-10.411-2.975-2.231-2.975-5.206S732.511,778.48,732.511,778.48Z" transform="translate(-311.482 -240.115)" fill="#2f2e41"/><circle cx="10.974" cy="10.974" r="10.974" transform="translate(319.402 135.581)" fill="#2f2e41"/><circle cx="10.974" cy="10.974" r="10.974" transform="translate(386.811 132.445)" fill="#2f2e41"/><path d="M686.423,238.989a10.973,10.973,0,0,1,9.8-10.909,10.974,10.974,0,1,0,0,21.818,10.974,10.974,0,0,1-9.8-10.909Z" transform="translate(-300.395 -100.273)" fill="#2f2e41"/><path d="M594.254,260.2a10.974,10.974,0,0,1-.636-14.649,10.974,10.974,0,1,0,15.269,15.584A10.974,10.974,0,0,1,594.254,260.2Z" transform="translate(-276.141 -104.768)" fill="#2f2e41"/><path d="M649.623,265.96c-12.987,0-23.515,6.141-23.515,13.717,0,3.39,2.116,6.488,5.609,8.881l4.527-3.28-1.231,5.139c.511.237,1.032.466,1.576.678l6.763-7.89V292.9a39.475,39.475,0,0,0,6.271.5c12.987,0,23.515-6.141,23.515-13.717S662.61,265.96,649.623,265.96Z" transform="translate(-285.542 -109.999)" fill="#2f2e41"/><path d="M688.259,249.1s-1.7,7.838,8.946,10.974" transform="translate(-301.448 -105.677)" fill="#f4a50f"/><path d="M623.406,251.014s3.919,8.763-7.838,12.682" transform="translate(-282.841 -106.168)" fill="#f4a50f"/><ellipse cx="1.859" cy="4.462" rx="1.859" ry="4.462" transform="translate(342.182 186.902) rotate(-15.639)" fill="#a0616a"/><ellipse cx="4.462" cy="1.859" rx="4.462" ry="1.859" transform="translate(387.665 191.315) rotate(-86.476)" fill="#a0616a"/><rect width="59.494" height="67.675" transform="translate(582.784 221.193)" fill="#2e5987"/><rect width="59.494" height="67.675" transform="translate(152.194 88.074)" fill="#f4a50f"/><path d="M1002.76,431.841l-60.982-.036.041-69.162,60.981.035Zm-59.493-1.522,58.007.033.038-66.187-58.007-.034Z" transform="translate(-366.456 -134.781)" fill="#3f3d56"/><rect width="38.671" height="4.462" transform="translate(162.601 99.966)" fill="#f2f2f2"/><rect width="38.671" height="4.462" transform="translate(162.601 112.609)" fill="#f2f2f2"/><rect width="38.671" height="4.462" transform="translate(162.601 125.251)" fill="#f2f2f2"/><path d="M446.761,229.841l-60.982-.035.04-69.162,60.981.035Zm-59.494-1.522,58.007.034.038-66.187-58.007-.034Z" transform="translate(-223.941 -83.004)" fill="#3f3d56"/><rect width="59.494" height="67.675" transform="translate(16.845 340.181)" fill="#f2f2f2"/><rect width="38.671" height="32.722" transform="translate(27.252 355.792)" fill="#2e5987"/><path d="M264.761,568.841l-60.982-.036.04-69.162,60.981.036Zm-59.493-1.522,58.007.033.038-66.187-58.007-.033Z" transform="translate(-177.29 -169.897)" fill="#3f3d56"/><circle cx="8.924" cy="8.924" r="8.924" transform="translate(37.664 363.228)" fill="#f4a50f"/></g></svg>