<svg xmlns="http://www.w3.org/2000/svg" xmlns:xlink="http://www.w3.org/1999/xlink" width="550.636" height="501.117" viewBox="0 0 550.636 501.117"><defs><linearGradient id="a" x1="0.5" y1="1" x2="0.5" gradientUnits="objectBoundingBox"><stop offset="0" stop-color="gray" stop-opacity="0.251"/><stop offset="0.54" stop-color="gray" stop-opacity="0.122"/><stop offset="1" stop-color="gray" stop-opacity="0.102"/></linearGradient><linearGradient id="c" xlink:href="#a"/><linearGradient id="g" xlink:href="#a"/></defs><g transform="translate(154.117 34.668)" opacity="0.5"><rect width="247.722" height="342.272" fill="url(#a)"/></g><rect width="241.419" height="334.708" transform="translate(157.269 37.19)" fill="#fff"/><rect width="119.764" height="29.008" transform="translate(218.411 28.353)" fill="url(#a)"/><path d="M594.9,52.5a17.15,17.15,0,1,0,16.742,17.145A16.947,16.947,0,0,0,594.9,52.5Zm0,27.035a9.89,9.89,0,1,1,9.632-9.89,9.777,9.777,0,0,1-9.632,9.89Z" transform="translate(-316.608 -52.5)" fill="url(#c)"/><rect width="117.243" height="27.735" transform="translate(219.672 28.365)" fill="#f4a50f"/><path d="M595.109,54.5A16.389,16.389,0,1,0,611.5,70.889,16.389,16.389,0,0,0,595.109,54.5Zm0,25.844a9.455,9.455,0,1,1,9.455-9.455A9.455,9.455,0,0,1,595.109,80.344Z" transform="translate(-316.815 -53.239)" fill="#f4a50f"/><rect width="51.688" height="51.688" transform="translate(168.615 91.399)" fill="url(#a)"/><rect width="51.688" height="51.688" transform="translate(168.791 193.828)" fill="url(#a)"/><rect width="51.688" height="51.688" transform="translate(168.968 294.997)" fill="url(#a)"/><rect width="47.906" height="47.906" transform="translate(170.506 93.29)" fill="#2e5987"/><rect width="47.906" height="47.906" transform="translate(170.506 194.774)" fill="#f4a50f"/><rect width="47.906" height="47.906" transform="translate(170.506 296.258)" fill="#f4a50f"/><rect width="65.662" height="4.583" transform="translate(249.928 108.077)" fill="#e0e0e0"/><rect width="108.418" height="4.583" transform="translate(249.928 114.954)" fill="#e0e0e0"/><rect width="100.784" height="4.583" transform="translate(249.928 121.825)" fill="#e0e0e0"/><rect width="65.662" height="4.583" transform="translate(249.928 209.562)" fill="#e0e0e0"/><rect width="108.418" height="4.583" transform="translate(249.928 216.438)" fill="#e0e0e0"/><rect width="100.784" height="4.583" transform="translate(249.928 223.309)" fill="#e0e0e0"/><rect width="65.662" height="4.583" transform="translate(249.928 311.046)" fill="#e0e0e0"/><rect width="108.418" height="4.583" transform="translate(249.928 317.923)" fill="#e0e0e0"/><rect width="100.784" height="4.583" transform="translate(249.928 324.793)" fill="#e0e0e0"/><path d="M289.124,175.522l8.7,7.98,12.323-18.122L314.5,169l-16.672,21.747L285.5,176.978Z" transform="translate(-105.539 -61.135)" fill="url(#g)"/><path d="M291.652,176.825l7.564,6.934L309.931,168l3.782,3.152-14.5,18.91L288.5,178.085Z" transform="translate(-106.648 -62.104)" fill="#fff"/><path d="M291.652,338.825l7.564,6.934L309.931,330l3.782,3.152-14.5,18.91L288.5,340.085Z" transform="translate(-106.648 -121.989)" fill="#fff"/><path d="M291.652,500.825l7.564,6.934L309.931,492l3.782,3.152-14.5,18.91L288.5,502.085Z" transform="translate(-106.648 -181.875)" fill="#fff"/><g transform="translate(409.827 134.629)" opacity="0.5"><line x2="4" transform="translate(0.173 86.371)" fill="none" stroke="#2e5987" stroke-miterlimit="10" stroke-width="5"/><line x2="83.639" transform="translate(11.577 86.619)" fill="none" stroke="#2e5987" stroke-miterlimit="10" stroke-width="5" stroke-dasharray="11.54 11.54"/><path d="M807,348.782h3.782V345" transform="translate(-708.146 -262.163)" fill="none" stroke="#2e5987" stroke-miterlimit="10" stroke-width="5"/><line y1="68.593" transform="translate(102.636 7.026)" fill="none" stroke="#2e5987" stroke-miterlimit="10" stroke-width="5" stroke-dasharray="11.45 11.45"/><line y1="4" transform="translate(103.173 0.371)" fill="none" stroke="#2e5987" stroke-miterlimit="10" stroke-width="5"/></g><path d="M181.965,182.5H97.5v79.422" transform="translate(-36.042 -67.464)" fill="none" stroke="#2e5987" stroke-miterlimit="10" stroke-width="5" stroke-dasharray="12" opacity="0.5"/><path d="M308.5,611.5v45.384H434.567" transform="translate(-114.041 -226.049)" fill="none" stroke="#2e5987" stroke-miterlimit="10" stroke-width="5" stroke-dasharray="12" opacity="0.5"/><g transform="translate(453.489 26.474)" opacity="0.5"><path d="M816.587,83.029,768.014,42,720.2,82.94l-.429-.24v.328h-.328l.328.183v53.969H816.26l-.586-.328h.914Z" transform="translate(-719.44 -42)" fill="url(#a)"/></g><path d="M816.159,136.084H723.5V84.4L769.515,45l46.645,39.4Z" transform="translate(-267.452 -16.635)" fill="#fff"/><path d="M722.5,107.5l46.015,25.844L815.159,107.5" transform="translate(-267.082 -39.739)" fill="#e0e0e0"/><g transform="translate(474.013 43.493)" opacity="0.5"><path d="M780.378,118.462,752,136.446V69h56.1v34.3Z" transform="translate(-752 -69)" fill="url(#a)"/></g><path d="M781.1,119.536,754,137.185V71h53.579v33.66Z" transform="translate(-278.727 -26.246)" fill="#fafafa"/><path d="M723,158.688h92.659L723,107Z" transform="translate(-267.267 -39.554)" opacity="0.05"/><path d="M723,159.688h92.659L723,108Z" transform="translate(-267.267 -39.924)" fill="#f5f5f5"/><rect width="39" height="3" transform="translate(482 54)" fill="#fff"/><rect width="39" height="3" transform="translate(482 59)" fill="#fff"/><rect width="39" height="2" transform="translate(482 65)" fill="#f4a50f"/><rect width="39" height="3" transform="translate(482 69)" fill="#fff"/><rect width="39" height="2" transform="translate(482 75)" fill="#f4a50f"/><path d="M822.831,124.261V123L795.26,138.323l.75.416Z" transform="translate(-293.979 -45.469)" opacity="0.05"/><g transform="translate(341.024 390.808)" opacity="0.5"><rect width="109.647" height="110.309" fill="url(#a)"/></g><rect width="104" height="105" transform="translate(344 393)" fill="#f5f5f5"/><rect width="92" height="81" transform="translate(350 396)" fill="#fff"/><path d="M811.249,760c-25.434,0-46.015-6.486-46.015-14.5-25.434,0-46.015,5.642-46.015,12.607v30.256h92.029Z" transform="translate(-368.753 -308.677)" fill="#e0e0e0"/><circle cx="9.5" cy="9.5" r="9.5" transform="translate(418 405)" fill="#f4a50f"/><g transform="translate(0 201.55)" opacity="0.5"><rect width="128.589" height="91.084" fill="url(#a)"/></g><rect width="121" height="86" transform="translate(4 204)" fill="#fff"/><path d="M255.492,410.84a23.5,23.5,0,0,0-3.026.2l3.026,23.121-23.266-1.551c-.032.511-.057,1.027-.057,1.551a23.322,23.322,0,1,0,23.322-23.322Z" transform="translate(-188.708 -184.965)" fill="#e0e0e0"/><path d="M244.5,404.16a23.322,23.322,0,0,0-20.24,21.57l23.266,1.551Z" transform="translate(-185.784 -182.496)" fill="#f4a50f"/></svg>