<svg xmlns="http://www.w3.org/2000/svg" width="578" height="597" viewBox="0 0 578 597"><g transform="translate(-1056 -4705)"><rect width="188" height="597" transform="translate(1056 4705)" fill="#727677" opacity="0.034"/><rect width="130" height="597" transform="translate(1244 4705)" fill="#727677" opacity="0.086"/><rect width="130" height="597" transform="translate(1374 4705)" fill="#727677" opacity="0.03"/><rect width="130" height="597" transform="translate(1504 4705)" fill="#2e5987"/><text transform="translate(1092 4728)" fill="#727677" font-size="18" font-family="Heebo-Medium, Heebo" font-weight="500"><tspan x="11.342" y="19">Form Count </tspan><tspan x="20.681" y="42">per Order</tspan></text><text transform="translate(1092 4816)" fill="#727677" font-size="18" font-family="Heebo-Regular, Heebo"><tspan x="0" y="19">1 - 100</tspan><tspan x="0" y="65">101 - 250</tspan><tspan x="0" y="111">251 - 500</tspan><tspan x="0" y="157">501 - 1000</tspan><tspan x="0" y="203">1001 - 2500</tspan><tspan x="0" y="249">2501 - 5000</tspan><tspan x="0" y="295">5001 - 10000</tspan><tspan x="0" y="341">10001 - 25000</tspan><tspan x="0" y="387">25001 - 50000</tspan><tspan x="0" y="433">50000 +</tspan></text><text transform="translate(1267 4816)" fill="#727677" font-size="18" font-family="Heebo-Regular, Heebo"><tspan x="0" y="19" xml:space="preserve">$4.00      </tspan><tspan x="0" y="65" xml:space="preserve">$3.50      </tspan><tspan x="0" y="111" xml:space="preserve">$3.00      </tspan><tspan x="0" y="157" xml:space="preserve">$2.50      </tspan><tspan x="0" y="203" xml:space="preserve">$2.10  </tspan><tspan x="0" y="249" xml:space="preserve">$1.85      </tspan><tspan x="0" y="295" xml:space="preserve">$1.65      </tspan><tspan x="0" y="341" xml:space="preserve">$1.45      </tspan><tspan x="0" y="387" xml:space="preserve">$1.30      </tspan><tspan x="0" y="433" xml:space="preserve">$1.15      </tspan></text><text transform="translate(1396 4816)" fill="#727677" font-size="18" font-family="Heebo-Regular, Heebo"><tspan x="0" y="19" xml:space="preserve">$3.00      </tspan><tspan x="0" y="65" xml:space="preserve">$2.50      </tspan><tspan x="0" y="111" xml:space="preserve">$2.00      </tspan><tspan x="0" y="157" xml:space="preserve">$1.50      </tspan><tspan x="0" y="203" xml:space="preserve">$1.10      </tspan><tspan x="0" y="249" xml:space="preserve">$0.85      </tspan><tspan x="0" y="295" xml:space="preserve">$0.65      </tspan><tspan x="0" y="341" xml:space="preserve">$0.45      </tspan><tspan x="0" y="387" xml:space="preserve">$0.35      </tspan><tspan x="0" y="433">$0.20</tspan></text><text transform="translate(1524 4816)" fill="#fff" font-size="18" font-family="Heebo-Regular, Heebo"><tspan x="0" y="19" xml:space="preserve">$1.00      </tspan><tspan x="0" y="65" xml:space="preserve">$0.85      </tspan><tspan x="0" y="111" xml:space="preserve">$0.70      </tspan><tspan x="0" y="157" xml:space="preserve">$0.65      </tspan><tspan x="0" y="203">$0.50</tspan><tspan x="0" y="249" xml:space="preserve">$0.40      </tspan><tspan x="0" y="295" xml:space="preserve">$0.35      </tspan><tspan x="0" y="341" xml:space="preserve">$0.30      </tspan><tspan x="0" y="387" xml:space="preserve">$0.28      </tspan><tspan x="0" y="433" xml:space="preserve">$0.25      </tspan></text><text transform="translate(1245 4728)" fill="#727677" font-size="18" font-family="Heebo-Medium, Heebo" font-weight="500"><tspan x="5.213" y="19">E-File + Print &amp; </tspan><tspan x="47.133" y="42">Mail</tspan></text><text transform="translate(1397 4728)" fill="#727677" font-size="18" font-family="Heebo-Medium, Heebo" font-weight="500"><tspan x="19.982" y="19">E-File </tspan><tspan x="24.566" y="42">Only</tspan></text><text transform="translate(1504 4728)" fill="#fff" font-size="18" font-family="Heebo-Medium, Heebo" font-weight="500"><tspan x="23.195" y="19">TIN Check</tspan></text></g></svg>