<svg xmlns="http://www.w3.org/2000/svg" xmlns:xlink="http://www.w3.org/1999/xlink" width="634.04" height="448.972" viewBox="0 0 634.04 448.972"><defs><linearGradient id="a" x1="0.5" y1="1" x2="0.5" gradientUnits="objectBoundingBox"><stop offset="0" stop-color="gray" stop-opacity="0.251"/><stop offset="0.54" stop-color="gray" stop-opacity="0.122"/><stop offset="1" stop-color="gray" stop-opacity="0.102"/></linearGradient><linearGradient id="b" x1="0.5" y1="1" x2="0.5" y2="0" xlink:href="#a"/></defs><g transform="translate(0.005 0.006)"><ellipse cx="55.89" cy="8.977" rx="55.89" ry="8.977" transform="translate(155.039 430.761)" fill="#2e5987" opacity="0.1"/><ellipse cx="69.742" cy="8.977" rx="69.742" ry="8.977" transform="translate(444.998 431.013)" fill="#2e5987" opacity="0.1"/><path d="M60.193,396.83h58.213v79.344H64.455c-.143.814-.281,1.635-.43,2.455h54.382v63.989c-.1-.029-.184-.063-.275-.1-1.537-.608-3.063-1.25-4.589-1.939l-.975-.442q-2.294-1.084-4.589-2.294c-.533-.281-1.067-.574-1.595-.872A95.454,95.454,0,0,1,83.509,519.1c-.2-.189-.379-.39-.574-.574-.929-1.01-1.841-2.03-2.725-3.074l-.975-1.147c-1.044-1.279-2.053-2.593-3.034-3.923-.143-.2-.281-.39-.43-.574a85.4,85.4,0,0,1-9.866-17.839c-.08-.189-.149-.4-.224-.574q-1.182-3.04-2.094-6.137c-.264-.866-.516-1.721-.734-2.621-.08-.264-.149-.522-.212-.78C59.384,469.142,59,455.932,59,442.814v-4.589c0-5.306.063-10.646.155-15.98,0-1.382.057-2.759.086-4.147q.12-5.283.344-10.565c.034-.981.08-1.956.132-2.931a16.6,16.6,0,0,1,.086-1.686C59.941,400.874,60.055,398.849,60.193,396.83Z" transform="translate(-52.05 -202.846)" fill="#2e5987" opacity="0.1"/><path d="M138.832,212.808H106.9a242.055,242.055,0,0,1,16.984-23.379c4.743-5.828,9.751-11.506,14.948-16.978Z" transform="translate(-72.475 -107.167)" fill="#2e5987" opacity="0.1"/><path d="M119.43,247.09v83.434H61.4c0-.241.04-.488.057-.728.052-.66.1-1.319.161-1.973.063-.769.132-1.543.206-2.294s.155-1.669.241-2.5.166-1.675.264-2.507.184-1.663.287-2.489.2-1.663.3-2.489c.086-.688.178-1.371.27-2.059.132-.969.27-1.944.419-2.908a2.682,2.682,0,0,1,.063-.43A198.406,198.406,0,0,1,67.945,289.2a154.913,154.913,0,0,1,7.2-21.223,159.319,159.319,0,0,1,10.829-20.856Z" transform="translate(-53.073 -138.995)" fill="#2e5987" opacity="0.1"/><path d="M186.8,252.608v79.35H311.136v-79.35Zm0,81.8V402.55c.711.149,1.417.293,2.117.413.952.184,1.9.35,2.868.493.184.029.373.057.574.075.379.063.769.115,1.147.166.958.132,1.91.241,2.868.327.453.046.912.086,1.371.12l1.107.086h0c.6.046,1.2.08,1.79.1.367,0,.734.034,1.113.046h4.09c.493,0,.987,0,1.474-.046h.034a7.73,7.73,0,0,0,1.027-.046,2.4,2.4,0,0,0,.287,0,5.928,5.928,0,0,0,.849-.04h.2l1.922-.149c.631-.057,1.268-.132,1.91-.2l1.308-.155a114.4,114.4,0,0,0,15.745-3.35c11.6-3.235,22.943-7.761,34.536-11.076,14.988-4.273,31.547-6.373,46.03-1.147V334.408ZM311.136,164.27V58.633a159.842,159.842,0,0,0-40.4,4.738c-31.484,7.91-59.733,25.066-83.939,46.977v53.917h6.241v2.449H186.8v83.445H311.136V166.72H218.663V164.27Zm159.7-35.683a51.5,51.5,0,0,1-22.536-6.55c-13.393-7.285-24.091-18.533-36.044-28.025-24.836-19.772-55.638-31.7-87.237-34.662V164.27h177.5l.442-.465Zm16.169-2.868,17.145,18.814V120.787c-5.742.711-10.772,2.4-17.122,4.91ZM504.154,419.47V334.408H467.622c-.1-.361-.2-.728-.31-1.1.109.367.2.734.3,1.1H325.046v61.517c1.354,1,2.69,2.059,4.015,3.132h0c1.428,1.147,2.839,2.357,4.256,3.545l1.428,1.182c.683.574,1.371,1.147,2.065,1.686q2.065,1.675,4.17,3.3c.694.574,1.405,1.09,2.111,1.629a287.5,287.5,0,0,0,35.35,23.121q4.147,2.294,8.369,4.48c1.876.958,3.763,1.91,5.656,2.833q4.267,2.082,8.6,4.015h0a315.956,315.956,0,0,0,83.744,24.395q9.63,1.423,19.336,2.237V419.465h.574ZM325.046,166.72v83.44H504.177V166.72Zm0,85.889v79.35H504.177v-79.35ZM518.08,120.684v26.488l21.882-24.01q-10.875-1.755-21.882-2.507Zm0,131.953v79.321H692.307v-79.35Zm173.59,173.131.614-91.361H518.08V472.4a312.438,312.438,0,0,0,33.67-.4h.2q8.03-.5,15.986-1.468h.12a294.389,294.389,0,0,0,82.138-21.917M725.9,265.675c-.654-1.543-1.336-3.074-2.031-4.589-1.3-2.868-2.667-5.656-4.078-8.443H706.2v79.316h34.369c-.017-22.462-5.7-45.405-14.649-66.312Zm-19.7,68.762v78.581a112.571,112.571,0,0,0,23.752-32.035c7.084-14.615,10.325-30.44,10.588-46.558Zm0-104.92v20.649H718.52a223.713,223.713,0,0,0-12.3-20.678ZM588.041,136.251c-.906-.344-1.813-.694-2.725-1.032a248.715,248.715,0,0,0-29.431-8.845L522.4,163.123h0l-.642.683.43.47h119.18a254.905,254.905,0,0,0-53.309-28.054Zm56.819,30.5H520.524l-2.443,2.237v81.174H692.33V210.84a248.249,248.249,0,0,0-47.453-44.12Z" transform="translate(-106.546 -58.63)" fill="#2e5987" opacity="0.1"/><path d="M119.43,320.46v41.35H61.4c0-.241.04-.488.057-.728.052-.66.1-1.319.161-1.973.063-.769.132-1.543.206-2.294s.155-1.669.241-2.5.166-1.675.264-2.507.184-1.663.287-2.489.2-1.663.3-2.489c.086-.688.178-1.371.27-2.059.132-.969.27-1.944.419-2.908a2.681,2.681,0,0,1,.063-.43,198.4,198.4,0,0,1,4.273-20.947Z" transform="translate(-53.073 -170.281)" fill="#2e5987" opacity="0.1"/><path d="M60.193,396.83h58.213v79.344H64.455c-.143.814-.281,1.635-.43,2.455h54.382v63.989c-.1-.029-.184-.063-.275-.1-1.537-.608-3.063-1.25-4.589-1.939l-.975-.442q-2.294-1.084-4.589-2.294c-.533-.281-1.067-.574-1.595-.872A95.454,95.454,0,0,1,83.509,519.1c-.2-.189-.379-.39-.574-.574-.929-1.01-1.841-2.03-2.725-3.074l-.975-1.147c-1.044-1.279-2.053-2.593-3.034-3.923-.143-.2-.281-.39-.43-.574a85.4,85.4,0,0,1-9.866-17.839c-.08-.189-.149-.4-.224-.574q-1.182-3.04-2.094-6.137c-.264-.866-.516-1.721-.734-2.621-.08-.264-.149-.522-.212-.78C59.384,469.142,59,455.932,59,442.814v-4.589c0-5.306.063-10.646.155-15.98,0-1.382.057-2.759.086-4.147q.12-5.283.344-10.565c.034-.981.08-1.956.132-2.931a16.6,16.6,0,0,1,.086-1.686C59.941,400.874,60.055,398.849,60.193,396.83Z" transform="translate(-52.05 -202.846)" fill="#2e5987" opacity="0.1"/><path d="M183.33,191.285v71.492H139.56V191.285H145.8V167.08h25.616v24.205Z" transform="translate(-59.306 -71.248)" fill="#2e5987" opacity="0.1"/><rect width="43.765" height="79.344" transform="translate(80.26 193.978)" fill="#2e5987" opacity="0.1"/><path d="M186.8,539.44h43.77V605.4a114.209,114.209,0,0,1-15.745,3.344l-1.308.161c-.642.075-1.279.138-1.91.2s-1.285.109-1.922.149h-.2c-.275,0-.574.034-.843.04h-.293c-.344,0-.688.034-1.032.046h0c-.488.029-.975.034-1.474.04h-4.061l-1.107-.04c-.574,0-1.193-.063-1.79-.1h0l-1.1-.08-1.371-.126c-.964-.086-1.922-.2-2.868-.327l-1.147-.161-.574-.08c-.958-.149-1.9-.31-2.868-.493-.706-.12-1.405-.27-2.117-.413Z" transform="translate(-106.546 -263.657)" fill="#2e5987" opacity="0.1"/><rect width="36.09" height="79.929" transform="translate(361.541 111.594)" fill="#2e5987" opacity="0.1"/><path d="M559.717,338.19v79.35H380.58V383.314H476V403.5h47.625V338.19Z" transform="translate(-162.08 -144.212)" fill="#2e5987" opacity="0.1"/><path d="M607.525,623.7h-.574v52.053q-9.694-.82-19.33-2.231a315.965,315.965,0,0,1-83.778-24.446q-11.546-5.2-22.622-11.345a288.683,288.683,0,0,1-35.356-23.121q-4.221-3.235-8.334-6.619c-1.9-1.566-3.786-3.172-5.7-4.732-1.325-1.073-2.661-2.128-4.015-3.137V538.625H570.385c-.1-.367-.2-.734-.3-1.1.109.361.212.729.31,1.1h36.555v85.04C607.146,623.671,607.335,623.688,607.525,623.7Z" transform="translate(-209.32 -262.842)" fill="#2e5987" opacity="0.1"/><path d="M886.737,221.2H863.22v-7.307h10.543V192.12q1.371.5,2.73,1.027v20.741h10.244Z" transform="translate(-394.98 -115.555)" fill="#2e5987" opacity="0.1"/><path d="M901.241,330.524H785.789l.04.029-.052-.029H764.36V250.595h6.069v59.079h27.733V274.685H821.07v-27.6h23.517v27.618H867.5V309.7h33.744Z" transform="translate(-352.825 -138.995)" fill="#2e5987" opacity="0.1"/><path d="M764.36,396.82v79.35H901.241V396.82ZM938.4,569.573l.189-62.808H901.241V478.659H764.36V616.607a312.43,312.43,0,0,0,33.67-.4h.2q8.03-.5,15.986-1.468h.12a294.381,294.381,0,0,0,82.138-21.917" transform="translate(-352.825 -202.842)" fill="#2e5987" opacity="0.1"/><path d="M1094.779,539.44h31.932c-.281,16.112-3.516,31.937-10.594,46.552a112.609,112.609,0,0,1-23.746,32.035V567.551h2.409Z" transform="translate(-492.693 -263.657)" fill="#2e5987" opacity="0.1"/><path d="M1128.519,485.862H1096.57V419.55h17.288C1122.806,440.457,1128.49,463.4,1128.519,485.862Z" transform="translate(-494.484 -212.534)" fill="#2e5987" opacity="0.1"/><rect width="19.336" height="25.06" transform="translate(378.301 133.815)" fill="#2e5987" opacity="0.1"/><rect width="19.336" height="5.77" transform="translate(378.301 185.759)" fill="#2e5987" opacity="0.1"/><rect width="19.336" height="16.835" transform="translate(378.301 193.978)" fill="#2e5987" opacity="0.1"/><rect width="19.336" height="25.06" transform="translate(378.301 237.703)" fill="#2e5987" opacity="0.1"/><rect width="19.336" height="25.06" transform="translate(378.301 289.647)" fill="#2e5987" opacity="0.1"/><path d="M725.75,673.4a3.177,3.177,0,0,1,.574.034h-.574v5.822H706.42V654.17h19.33Z" transform="translate(-328.119 -312.579)" fill="#2e5987" opacity="0.1"/><path d="M725.75,744.71v19.359q-9.694-.82-19.33-2.231V744.71Z" transform="translate(-328.119 -351.187)" fill="#2e5987" opacity="0.1"/><rect width="82.866" height="1.841" transform="translate(218.5 271.487)" fill="#2e5987" opacity="0.1"/><rect width="82.866" height="7.055" transform="translate(218.5 275.778)" fill="#2e5987" opacity="0.1"/><rect width="82.866" height="11.346" transform="translate(218.5 305.96)" fill="#2e5987" opacity="0.1"/><path d="M513.661,652.15V663.5H448.846q-4.222-3.223-8.34-6.619c-1.9-1.566-3.78-3.172-5.7-4.726Z" transform="translate(-212.301 -311.718)" fill="#2e5987" opacity="0.1"/><path d="M550.379,712.227v11.334h-6.843Q532,718.359,520.92,712.21Z" transform="translate(-249.019 -337.328)" fill="#2e5987" opacity="0.1"/><rect width="16.313" height="16.313" transform="translate(445.21 201.67)" fill="#2e5987" opacity="0.1"/><rect width="16.313" height="16.313" transform="translate(92.007 125.664)" fill="#2e5987" opacity="0.1"/><rect width="16.313" height="16.313" transform="translate(92.007 163.555)" fill="#2e5987" opacity="0.1"/><rect width="16.313" height="16.313" transform="translate(92.007 201.446)" fill="#2e5987" opacity="0.1"/><rect width="16.313" height="16.313" transform="translate(92.007 239.332)" fill="#2e5987" opacity="0.1"/><rect width="16.313" height="16.313" transform="translate(92.007 277.223)" fill="#2e5987" opacity="0.1"/><rect width="16.313" height="16.313" transform="translate(92.007 315.114)" fill="#2e5987" opacity="0.1"/><rect width="16.313" height="16.313" transform="translate(507.484 201.67)" fill="#2e5987" opacity="0.1"/><rect width="16.313" height="16.313" transform="translate(445.21 241.907)" fill="#2e5987" opacity="0.1"/><rect width="16.313" height="16.313" transform="translate(507.484 241.907)" fill="#2e5987" opacity="0.1"/><rect width="16.313" height="16.313" transform="translate(445.21 282.139)" fill="#2e5987" opacity="0.1"/><rect width="16.313" height="16.313" transform="translate(507.484 282.139)" fill="#2e5987" opacity="0.1"/><rect width="16.313" height="16.313" transform="translate(445.21 322.376)" fill="#2e5987" opacity="0.1"/><rect width="16.313" height="16.313" transform="translate(507.484 322.376)" fill="#2e5987" opacity="0.1"/><rect width="16.313" height="16.313" transform="translate(445.21 362.613)" fill="#2e5987" opacity="0.1"/><rect width="16.313" height="16.313" transform="translate(507.484 362.613)" fill="#2e5987" opacity="0.1"/><path d="M775.83,712.85V702.33h16.307v9.022Z" transform="translate(-330.62 -299.486)" fill="#2e5987" opacity="0.1"/><path d="M65.24,357v9.332h55.827V357Zm5.564,8.747H66.25v-8.174h4.589Zm5.558,0H71.773v-8.174h4.589Zm5.547,0H77.32v-8.174h4.589Zm5.558,0H82.884v-8.174h4.589Zm5.552,0H88.43v-8.174h4.589Zm5.558,0H93.988v-8.174h4.589Zm5.558,0H99.546v-8.174h4.589Zm5.552,0H105.1v-8.174h4.589Zm5.552,0h-4.589v-8.174h4.589Zm5.552,0H116.2v-8.174h4.589Z" transform="translate(-54.711 -185.862)" fill="#2e5987" opacity="0.1"/><path d="M65.24,404.34v9.332h55.827V404.34Zm5.564,8.741H66.25v-8.151h4.589Zm5.558,0H71.773v-8.151h4.589Zm5.547,0H77.32v-8.151h4.589Zm5.558,0H82.884v-8.151h4.589Zm5.552,0H88.43v-8.151h4.589Zm5.558,0H93.988v-8.151h4.589Zm5.558,0H99.546v-8.151h4.589Zm5.552,0H105.1v-8.151h4.589Zm5.552,0h-4.589v-8.151h4.589Zm5.552,0H116.2v-8.151h4.589Z" transform="translate(-54.711 -206.048)" fill="#2e5987" opacity="0.1"/><path d="M65.24,451.7v9.349h55.827V451.7Zm5.564,8.741H66.25v-8.156h4.589Zm5.558,0H71.773v-8.156h4.589Zm5.547,0H77.32v-8.156h4.589Zm5.558,0H82.884v-8.156h4.589Zm5.552,0H88.43v-8.156h4.589Zm5.558,0H93.988v-8.156h4.589Zm5.558,0H99.546v-8.156h4.589Zm5.552,0H105.1v-8.156h4.589Zm5.552,0h-4.589v-8.156h4.589Zm5.552,0H116.2v-8.156h4.589Z" transform="translate(-54.711 -226.243)" fill="#2e5987" opacity="0.1"/><path d="M65.24,499.06v9.321h55.827V499.06ZM70.8,507.8H66.25v-8.162h4.589Zm5.558,0H71.773v-8.162h4.589Zm5.547,0H77.32v-8.162h4.589Zm5.558,0H82.884v-8.162h4.589Zm5.552,0H88.43v-8.162h4.589Zm5.558,0H93.988v-8.162h4.589Zm5.558,0H99.546v-8.162h4.589Zm5.552,0H105.1v-8.162h4.589Zm5.552,0h-4.589v-8.162h4.589Zm5.552,0H116.2v-8.162h4.589Z" transform="translate(-54.711 -246.438)" fill="#2e5987" opacity="0.1"/><path d="M65.66,546.41c.224.878.476,1.755.74,2.621V547h4.589v8.156H68.534c.075.189.149.4.224.574h52.489V546.41Zm10.9,8.741H71.969V547h4.589Zm5.547,0H77.516V547H82.1Zm5.558,0h-4.6V547h4.589Zm5.552,0H88.626V547h4.589Zm5.558,0H94.184V547h4.589Zm5.558,0H99.742V547h4.589Zm5.552,0h-4.589V547h4.589Zm5.552,0h-4.589V547h4.589Zm5.552,0H116.4V547h4.589Z" transform="translate(-54.89 -266.629)" fill="#2e5987" opacity="0.1"/><path d="M88.26,593.77c.143.184.281.39.43.574h3.034v3.918c.327.39.648.78.981,1.147v-5.088h4.589v8.185H95.436c.184.189.361.39.574.574H130.9V593.77Zm14.575,8.736H98.246v-8.151h4.589Zm5.558,0H103.8v-8.151h4.589Zm5.558,0h-4.589v-8.151h4.589Zm5.552,0h-4.589v-8.151H119.5Zm5.552,0h-4.589v-8.151h4.589Zm5.552,0h-4.589v-8.151h4.589Z" transform="translate(-64.527 -286.824)" fill="#2e5987" opacity="0.1"/><path d="M141.65,641.12c.522.3,1.055.574,1.595.872v-.287h4.589v2.581l.975.453v-3.034H153.4v4.962a1.439,1.439,0,0,0,.275.1v-5.65Z" transform="translate(-87.293 -307.014)" fill="#2e5987" opacity="0.1"/><path d="M544.166,328.686ZM508.833,497.974Zm-36.864-86.135c.109.367.2.734.3,1.1h0C472.181,412.573,472.083,412.206,471.969,411.839Zm72.2-83.17ZM197.72,242.78v2.449h25.622V242.78ZM508.833,497.974Zm-36.864-86.135c.109.367.2.734.3,1.1h0C472.181,412.573,472.083,412.206,471.969,411.839Zm72.2-83.17ZM508.833,497.957Zm-36.864-86.118c.109.367.2.734.3,1.1h0C472.181,412.573,472.083,412.206,471.969,411.839Z" transform="translate(-111.202 -137.157)" fill="#2e5987" opacity="0.1"/><path d="M417.92,344.429s-2.26-.315-2.26-3.608-1.618-9.441-1.618-9.441h0c0-.029-1.4-10.709-3.333-12.407s-4.417-11.667-4.417-11.667-.424-5.409-1.291-6.573-2.036-4.015-3.763-8.082-8.925-6.883-8.925-6.883-13.015-7.548-16.7-10.009h0a5.657,5.657,0,0,1-.935-.706c-.642-.843-3.441-.86-3.441-.86a56.4,56.4,0,0,1-.665-5.891,4.488,4.488,0,0,0-.029-.619,19.846,19.846,0,0,0,8.724-10.795c.069-.218.126-.447.189-.665a1.864,1.864,0,0,0,1.119-1.009,21.043,21.043,0,0,1,.751-2.294,8.641,8.641,0,0,1,2.122-1.864c1.824-1.549,2.294-4.158,2.208-6.533-.057-1.922-.367-3.86-.247-5.77l.034-.482c.034-.287.075-.574.126-.849.281-1.422.895-2.765,1.239-4.176a5.372,5.372,0,0,0-.424-4.216c-1.176-1.784-3.625-2.139-5.776-2.323-2.438-.206-4.617.063-6.177-1.962a22.019,22.019,0,0,0-2.455-2.965c-.321-.3-3.442-2.2-3.442-2.329a13.944,13.944,0,0,0-9.722-.746c-1.617.47-3.143,1.239-4.784,1.623-3.539.837-7.612-.069-10.617,1.956a12.479,12.479,0,0,0-3.619,4.749q-1.147,2.2-2.329,4.388a28.426,28.426,0,0,0-3.092,7.508,11.921,11.921,0,0,0-.206,1.755h0v.935a3.09,3.09,0,0,0,.034.574c.034.178.029.235.046.356s.046.39.08.574.1.5.172.757c.029.109.069.212.1.315.057.2.126.384.2.574.04.1.08.2.126.3a5.37,5.37,0,0,0,.293.574c.046.08.08.155.126.229a7.62,7.62,0,0,0,.528.769c1.227,1.531,3.034,2.507,4.371,3.941v.642a19.634,19.634,0,0,0,8.936,16.032c0,.218.029.442.04.66a32.814,32.814,0,0,1-.063,5.111,2.409,2.409,0,0,0-1.9-.849,2.747,2.747,0,0,0-.734.063l-.052-.04h0v.052c-1.262.31-2.816,1.623-4.3,5.357,0,0-4.52,5.093-7.961,4.881s-12.154,5.3-12.154,5.3-8.5,5.518-10.325,11.139a78.494,78.494,0,0,1-3.659,9.338l-10.508,21.653h0L295.62,347.1s1.073,7.64.86,8.8,4.411,11.667,4.411,11.667,15.275,26.838,21.515,28.215l.447-.315a3.659,3.659,0,0,0,.843.315l1.285-.906a14.006,14.006,0,0,1-.1,3.029c-.86,2.65.321,19.944,1.824,23.333s.969,47.837.969,47.837L327.466,473a1.665,1.665,0,0,0,.052.344l-.052.929.155.08a11.047,11.047,0,0,1-.155,3.734,41.52,41.52,0,0,0-.757,6.585s-4.3,27.463-2.26,32.981,3.768,11.563,3.768,11.563,2.151,6.883.1,8.059-7.87,3.149-6.671,6.017c1.09,2.65,5.225,9.751,5.839,10.789l-.052.545-.843,9.137a11.47,11.47,0,0,0,.969,3.487,6.009,6.009,0,0,0,6.132,3.831c.574-.04,1.239-.109,1.881-.2a81.3,81.3,0,0,0,13.938-3.625,5.684,5.684,0,0,1-1.09-.9h0a3.149,3.149,0,0,1-.958-2.294c.092-1.663-3.023-9.59-3.8-11.541-.12-.281-.184-.442-.184-.442s7.1-7.422,5.919-14c0,0-7.858-4.589-5.271-7.107s7.21-9.751,7.21-9.751.212-27.045,0-31.083a33.443,33.443,0,0,1,.4-8.392c.086-.419.189-.826.3-1.228a74.87,74.87,0,0,0,10.806.82c1.319,0,2.661,0,4.015-.08q0,.574.052,1.239c.3,6.7.855,18.447,1.308,22.812.642,6.258,4.193,23.121,4.193,23.121s-6.774,4.348,1.182,15.062c0,0,0,3.883-.528,4.445h0a48.633,48.633,0,0,0-1.359,5.6c-.333,2.019-.47,4.061.069,5.122,1.291,2.535,9.034,2.329,9.034,2.329h0l.189-.034a11.1,11.1,0,0,1,8.2,2.472c2.943,2.363,14.11,1.325,20.156.574,2.369-.3,3.952-.574,3.952-.574a2.3,2.3,0,0,0,.08-.826h0c-.063-1.486-1.227-4.744-9.12-7.652,0,0-7.422-4.99-7.319-9.338h-1.015a8.1,8.1,0,0,1,1.027,0s-2.908-10.611-1.721-11.472-2.369-12.619-2.369-12.619-2.036-19.731-2.145-21.114a12.046,12.046,0,0,1,.533-3.5l-.533-10.818s-.1-3.6,0-4.767a23.82,23.82,0,0,0-.247-3.034c-.052-.4-.1-.82-.161-1.233,2.782-.706,4.589-1.359,4.589-1.359l-.321-37.656c2.363-4.589,2.8-14.655,2.788-21.8,0-4.589-.206-7.984-.206-7.984l3.229-5.271s.746-6.309-.436-7.692a1.324,1.324,0,0,1,.143-1.807,6,6,0,0,1,.706-.482s-.034-.052-.075-.126a5.7,5.7,0,0,1,.717-.511s-1.147-1.778-.12-2.529c.964.654,1.824,1.147,2.478,1.549-.046.419-.092.66-.092.66l.275-.574,1.015.574s5.059-10.078,4.95-11.563,3.442-7.743,3.442-7.743.43-3.287,2.369-4.663,1.5-11.351,1.5-11.351.539-5.2,1.83-7.319S417.92,344.429,417.92,344.429Zm-96.8-4.422.1,2.4-.987-1.589Z" transform="translate(-152.948 -126.658)" fill="url(#a)"/><path d="M476.874,502.513l-1.239,5.277s-9.923-5.065-11.713-11.5,2.994-8.879,2.994-8.879l9.246,3.918Z" transform="translate(-224.543 -241.47)" fill="#fff"/><path d="M476.874,502.513l-1.239,5.277s-9.923-5.065-11.713-11.5,2.994-8.879,2.994-8.879l9.246,3.918Z" transform="translate(-224.543 -241.47)" opacity="0.1"/><path d="M373.02,811.316s-9.177,3.373-15.487,3.8a5.892,5.892,0,0,1-6.017-3.809,11.528,11.528,0,0,1-.946-3.47l.82-9.091.436-4.841,13.4-3.482,1.9,5.8.178.442c.763,1.939,3.82,9.826,3.728,11.472a3.132,3.132,0,0,0,.941,2.266,5.455,5.455,0,0,0,1.044.912Z" transform="translate(-176.379 -370.678)" fill="#fff"/><path d="M468.373,806.245a2.293,2.293,0,0,1-.08.82s-19.628,3.275-23.643,0a10.635,10.635,0,0,0-8.26-2.42s-7.594.206-8.862-2.294c-.528-1.05-.39-3.086-.063-5.093a48.52,48.52,0,0,1,1.331-5.57l.3-.241L430.906,790l21.154-.625h.161c-.1,4.325,7.181,9.286,7.181,9.286C467.14,801.524,468.281,804.765,468.373,806.245Z" transform="translate(-209.045 -370.23)" fill="#fff"/><path d="M468.375,812.108a2.34,2.34,0,0,1-.086.82s-19.622,3.275-23.637,0a10.634,10.634,0,0,0-8.254-2.421s-7.6.207-8.862-2.294c-.528-1.055-.4-3.086-.069-5.093,2.925.292,7.543,1.021,9.355,2.759,2.742,2.644,7.388,5.283,10.239,5.489C449.292,811.512,462.639,811.936,468.375,812.108Z" transform="translate(-209.047 -376.094)" opacity="0.1"/><path d="M373.728,826.193s-9.177,3.373-15.487,3.8a5.877,5.877,0,0,1-6.011-3.814c2.335.786,5.575,1.612,7.279.855,2.019-.895,9.177-1.474,13.192-1.721a5.65,5.65,0,0,0,1.027.883Z" transform="translate(-177.087 -385.556)" opacity="0.1"/><path d="M402.106,327.415c-7.571-2.943-17.311-12.665-14.879-17.208a10.163,10.163,0,0,0,.946-3.648,33.3,33.3,0,0,0,.069-5.162,70.688,70.688,0,0,0-1.015-8.4s23.638.533,22.261,4.015a13.018,13.018,0,0,0-.356,4.778c.109,1.985.4,4.227.694,6.126.413,2.6.826,4.589.826,4.589s-1.445,2.025-2.294,2.134S412.97,331.608,402.106,327.415Z" transform="translate(-191.848 -158.571)" fill="#cf6f80"/><path d="M367.887,796.666l-.178.2c-7.067-8.546-15.613,2.105-15.613,2.105l-.126-.224.436-4.841,13.4-3.482,1.9,5.8Z" transform="translate(-176.976 -370.678)" opacity="0.1"/><path d="M453.439,789.955s-5.162-.109-7.915,2.323-16.06.528-15.487,0a1.888,1.888,0,0,0,.3-.872l1.807-1.451,21.154-.625C453.376,789.714,453.439,789.955,453.439,789.955Z" transform="translate(-210.257 -370.213)" opacity="0.1"/><path d="M372.34,664.988a15.959,15.959,0,0,0-.872,2.943,33.675,33.675,0,0,0-.4,8.351c.212,4.015,0,30.922,0,30.922s-4.537,7.176-7.067,9.705,5.162,7.072,5.162,7.072c1.147,6.539-5.8,13.927-5.8,13.927-7.067-8.546-15.613,2.111-15.613,2.111s-4.646-8.03-5.8-10.9,4.537-4.853,6.539-6.017-.1-8.03-.1-8.03-1.692-6.017-3.7-11.506,2.214-32.815,2.214-32.815a42.349,42.349,0,0,1,.74-6.545,10.945,10.945,0,0,0,.155-3.717c-.034-.419-.075-.769-.1-1s-.052-.344-.052-.344l.08-.138,2.868-5.346S373.716,661.621,372.34,664.988Z" transform="translate(-172.636 -312.362)" fill="#2e5987"/><path d="M448.83,735.643s-5.162-.109-7.915,2.294-16.06.528-15.487,0,.528-4.434.528-4.434c-7.807-10.657-1.147-14.982-1.147-14.982s-3.487-16.777-4.118-23c-.442-4.348-.987-16.032-1.279-22.7-.126-2.868-.2-4.841-.2-4.841l6.378-1.285.82-.166,15.384-3.086s.424,2.868.711,5.214a24.36,24.36,0,0,1,.241,3.023c-.1,1.147,0,4.738,0,4.738l.522,10.766a12.227,12.227,0,0,0-.522,3.482c.1,1.371,2.105,21,2.105,21s3.482,11.713,2.294,12.556S448.83,735.643,448.83,735.643Z" transform="translate(-205.648 -316.532)" fill="#2e5987"/><path d="M409.771,297.015a13.018,13.018,0,0,0-.356,4.778,19.645,19.645,0,0,1-20.89-.39,70.695,70.695,0,0,0-1.015-8.4S411.147,293.522,409.771,297.015Z" transform="translate(-192.131 -158.571)" opacity="0.1"/><path d="M413.075,263.308a19.427,19.427,0,0,1-.964,6.086,19.628,19.628,0,0,1-38.281-5.615v-.47a19.627,19.627,0,1,1,39.253,0Z" transform="translate(-186.298 -137.541)" fill="#cf6f80"/><path d="M402.106,337.5c-7.571-2.943-17.311-12.665-14.879-17.208a10.164,10.164,0,0,0,.946-3.648l10.365,8.518,6.413,5.26,4.875-12.412c.413,2.6.826,4.589.826,4.589s-1.445,2.025-2.294,2.134S412.97,341.689,402.106,337.5Z" transform="translate(-191.848 -168.652)" opacity="0.1"/><path d="M376.384,315.832l-8.655,145.4-11.288.74-29.23-84.311,4.8-100.1,1.009-21.148,13,10.674,6.418,5.26,5.019-12.774,9.332,8.133Z" transform="translate(-139.322 -109.344)" fill="#2e5987"/><path d="M376.693,665.022a15.961,15.961,0,0,0-.872,2.943,83.17,83.17,0,0,1-23.666-7.394l-.155-.08.052-.923.029-.482,2.868-5.346S378.07,661.655,376.693,665.022Z" transform="translate(-176.989 -312.396)" opacity="0.1"/><path d="M425.695,674.563a58.076,58.076,0,0,1-6.344.723c-.126-2.868-.2-4.841-.2-4.841l6.378-1.285Z" transform="translate(-205.623 -318.971)" opacity="0.1"/><path d="M447.795,668.7c-4.078,1.061-10.376,2.254-16.015,1.509l-.08-3.637,15.384-3.086S447.508,666.329,447.795,668.7Z" transform="translate(-210.974 -316.553)" opacity="0.1"/><path d="M376.371,522.278c-23.517,4.015-45.055-7.5-45.055-7.5l.206-3.9s.533-44.218-.946-47.608-2.633-20.58-1.8-23.219-3.057-42.2-3.057-42.2l-.631-16.06L302,372.435l10.325-21.521a77.658,77.658,0,0,0,3.591-9.292c1.8-5.587,10.13-11.076,10.13-11.076s8.546-5.483,11.925-5.277,7.806-4.853,7.806-4.853c3.269-8.334,6.229-4.56,6.229-4.56a7.446,7.446,0,0,1-.161,1.233c-1.147,9.149,18.55,38.057,18.831,38.568h0l1.876,45.692,1.9,57.823Z" transform="translate(-155.669 -167.954)" opacity="0.1"/><path d="M375.258,522.253c-23.517,4.015-45.061-7.5-45.061-7.5l.212-3.9s.533-44.218-.952-47.608-2.633-20.58-1.79-23.219-3.057-42.2-3.057-42.2l-.637-16.06-23.1-9.39,10.325-21.521a78.88,78.88,0,0,0,3.591-9.292c1.79-5.587,10.13-11.076,10.13-11.076s8.546-5.483,11.919-5.277,7.807-4.853,7.807-4.853c3.275-8.334,6.883-4.56,6.883-4.56,0,.4-.344.574-.161,1.233,2.524,8.873,17.919,38.057,18.2,38.568h0l1.9,45.692,1.9,57.823Z" transform="translate(-155.187 -167.928)" fill="#fff"/><path d="M403.4,357.887c-2.53-1.055-15.928-16.353-15.928-16.353v-3.482c-.488-1.147-3.384-.447-5.736.356l1.01-21.148,1.147.952C386.409,327.08,403.112,357.377,403.4,357.887Z" transform="translate(-189.671 -168.916)" opacity="0.1"/><path d="M404.51,355.677c-2.535-1.055-15.934-16.353-15.934-16.353v-3.482c-.488-1.147-3.384-.447-5.736.356l1.015-21.148L385,316C387.521,324.87,404.229,355.172,404.51,355.677Z" transform="translate(-190.14 -167.974)" fill="#fff"/><path d="M352.151,517.636c.315,0,16.353-1.686,16.353-1.686s9.711,19.095,9.074,23.741-1.79,8.759-5.7,8.03-21.022.574-21.022.574Z" transform="translate(-176.503 -253.64)" opacity="0.1"/><path d="M351.041,515.426c.315,0,16.353-1.686,16.353-1.686s9.705,19.1,9.074,23.741-1.8,8.759-5.7,8.03-21.022.574-21.022.574Z" transform="translate(-176.03 -252.698)" fill="#fff"/><path d="M366.55,501.05s14.718,7.91,15.034,10.325-7.491-1.055-9.177-1.474a21,21,0,0,0-3.378-.528l-11.248.3Z" transform="translate(-179.454 -247.287)" fill="#cf6f80"/><circle cx="1.549" cy="1.549" r="1.549" transform="translate(208.078 186.86)" opacity="0.1"/><circle cx="1.549" cy="1.549" r="1.549" transform="translate(208.078 186.229)" fill="#3f3d56"/><circle cx="1.549" cy="1.549" r="1.549" transform="translate(210.929 253.901)" opacity="0.1"/><circle cx="1.549" cy="1.549" r="1.549" transform="translate(210.929 253.264)" fill="#3f3d56"/><circle cx="1.549" cy="1.549" r="1.549" transform="translate(209.621 220.381)" opacity="0.1"/><circle cx="1.549" cy="1.549" r="1.549" transform="translate(209.621 219.75)" fill="#3f3d56"/><path d="M455.8,431.363s1.055,1.583,0,2.323.1,2.53.1,2.53-2.633,1.543-1.474,2.931.424,7.657.424,7.657l-3.166,5.243s.189,3.378.2,7.944c0,7.124-.419,17.139-2.736,21.7l.321,37.461s-11.087,4.049-20.368,2.816l-1.377-60.112s2.008-34.088,2.747-40.627A68.077,68.077,0,0,0,431,410.994s-.315-10.233-1.377-14.982c0,0-1.147-20.575-1.262-26.27-.052-2.725.092-10.674.252-18.234.178-8.265.379-16.06.379-16.06L426.9,318.882s2.094-.212,2.725.631a6.039,6.039,0,0,0,.918.706h0c3.614,2.443,16.382,9.957,16.382,9.957s7.067,2.811,8.759,6.837,2.868,6.883,3.688,8.03,1.268,6.539,1.268,6.539,2.432,9.923,4.331,11.6,3.287,12.372,3.287,12.372l-16.777,13.193S450,410.7,449.689,411.545,455.8,431.363,455.8,431.363Z" transform="translate(-208.928 -169.598)" fill="#fff"/><path d="M456.4,431.227s1.05,1.583,0,2.323.1,2.53.1,2.53-2.616,1.56-1.468,2.948.424,7.657.424,7.657l-3.166,5.243s.189,3.378.206,7.944c0,7.124-.419,17.139-2.736,21.7l.315,37.461s-11.1,4.05-20.374,2.816l-1.371-60.112s2.008-34.088,2.747-40.627a67.438,67.438,0,0,0,.522-10.238s-.315-10.233-1.371-14.982c0,0-1.147-20.575-1.268-26.27-.052-2.725.1-10.674.252-18.234.178-8.265.379-16.06.379-16.06L426.83,318.54s2.765,0,3.4.855a5.444,5.444,0,0,0,.918.706h0c3.614,2.443,16.387,9.957,16.387,9.957s7.061,2.811,8.753,6.837,2.868,6.883,3.694,8.03,1.262,6.539,1.262,6.539,2.432,9.923,4.331,11.6,3.269,12.349,3.269,12.349l-16.777,13.192s-1.474,21.945-1.8,22.794S456.4,431.227,456.4,431.227Z" transform="translate(-208.898 -169.462)" fill="#fff"/><path d="M436.785,341.132l1.514,4.417-7.973,8.03c.178-8.26.379-16.06.379-16.06L427.94,320.73s2.765,0,3.4.855a5.232,5.232,0,0,0,.918.7h0l6.78,19.559Z" transform="translate(-209.371 -170.396)" opacity="0.1"/><path d="M435.675,338.922l1.52,4.417-7.973,8.03c.178-8.265.379-16.06.379-16.06l-2.77-16.789s2.77,0,3.4.855a5.735,5.735,0,0,0,.918.706h0l6.785,19.554Z" transform="translate(-208.898 -169.453)" fill="#fff"/><path d="M413.075,263.308a19.427,19.427,0,0,1-.964,6.086.82.82,0,0,1-.619-.155c-.149-5.162-2.69-10.009-5.816-14.133a14.85,14.85,0,0,0-3.155-3.269,6.172,6.172,0,0,0-4.279-1.21c-1.721.235-3.241,1.405-4.979,1.554-2.294.189-4.348-1.4-6.625-1.48a6.51,6.51,0,0,0-4.87,2.26,13.358,13.358,0,0,0-2.61,4.841,28.325,28.325,0,0,0-1.457,8.351c-.029,1.606-.184,3.619-1.675,4.2a8.569,8.569,0,0,0-2.162-6.545l-.034-.034v-.47a19.627,19.627,0,1,1,39.253,0Z" transform="translate(-186.298 -137.541)" opacity="0.1"/><path d="M397.123,222.614a13.514,13.514,0,0,0-9.533-.746c-1.589.47-3.086,1.233-4.7,1.618-3.441.832-7.457-.069-10.411,1.944a12.45,12.45,0,0,0-3.545,4.721l-2.294,4.371a28.362,28.362,0,0,0-3.034,7.457,9.52,9.52,0,0,0,1.463,7.7c1.216,1.543,3.011,2.512,4.331,3.963a8.6,8.6,0,0,1,2.157,6.539c1.5-.574,1.64-2.593,1.675-4.2a28.324,28.324,0,0,1,1.457-8.351,13.313,13.313,0,0,1,2.61-4.841,6.522,6.522,0,0,1,4.87-2.26c2.294.08,4.354,1.663,6.625,1.474,1.721-.143,3.247-1.319,4.979-1.549a6.149,6.149,0,0,1,4.279,1.21,14.7,14.7,0,0,1,3.149,3.269c3.132,4.124,5.673,8.959,5.822,14.133.648.476,1.583-.143,1.9-.878a20.97,20.97,0,0,1,.74-2.294,8.459,8.459,0,0,1,2.076-1.847c1.79-1.543,2.237-4.141,2.168-6.5s-.528-4.749-.08-7.067c.27-1.423.878-2.753,1.21-4.159a5.437,5.437,0,0,0-.413-4.193c-1.147-1.778-3.562-2.128-5.667-2.294-2.392-.207-4.531.057-6.057-1.956a21.968,21.968,0,0,0-2.409-2.948C400.192,224.633,397.123,222.741,397.123,222.614Z" transform="translate(-181.841 -128.01)" fill="#3c3c3c"/><path d="M307.653,426.212l-5.994-11.082-1.9,17.1s1.055,7.594.843,8.759,4.325,11.6,4.325,11.6,14.988,26.695,21.108,28.071l20.678-14.776-5.483-6.963s-1.9-.74-2.375,0c0,0-10.181-17.517-11.237-18.785s-.849-3.8-.849-3.8-1.583-1.686-1.055-3.269S322.658,426,322.658,426l3.269-3.057Z" transform="translate(-154.713 -210.649)" opacity="0.1"/><path d="M301.032,412.93l-1.583,1.262-1.9,17.1s1.055,7.594.843,8.759,4.331,11.6,4.331,11.6,14.982,26.695,21.1,28.071l20.684-14.776-5.489-6.963s-1.9-.74-2.375,0c0,0-10.181-17.517-11.237-18.785s-.843-3.8-.843-3.8-1.583-1.686-1.055-3.269-3.063-7.072-3.063-7.072L323.717,422Z" transform="translate(-153.771 -209.711)" fill="#fff"/><path d="M465.994,522.116c1.147,1.394.424,7.652.424,7.652l-3.166,5.243s.189,3.384.2,7.944l-5.323,1.663a3.16,3.16,0,0,1-4.1-3.115l.918-29.6,12.418,4.749c-1.055.734.1,2.535.1,2.535S464.835,520.722,465.994,522.116Z" transform="translate(-220.495 -251.913)" opacity="0.1"/><path d="M467.1,521.01c1.147,1.394.424,7.657.424,7.657l-3.166,5.243s.189,3.378.206,7.944l-5.42,1.692a3.1,3.1,0,0,1-4.015-3.052l.923-29.695,12.424,4.749c-1.061.734.1,2.53.1,2.53S465.953,519.622,467.1,521.01Z" transform="translate(-220.964 -251.444)" fill="#fff"/><path d="M475.785,500.566s-.843,5.386-2.954,5.7-3.057,8.713-5.162,8.414-.711-7.806-.637-9.263-2.294-7.491-.522-8.862,7.382,0,7.382,0Z" transform="translate(-225.536 -245.111)" fill="#cf6f80"/><path d="M478.666,425.72l3.981-8.03s1.583,6.12,1.583,9.39,2.214,3.591,2.214,3.591,2.426,2.868,1.147,4.956-1.8,7.285-1.8,7.285.419,9.917-1.48,11.288-2.294,4.646-2.294,4.646-3.487,6.223-3.378,7.7-4.853,11.5-4.853,11.5,2.426-12.453-11.713-17.833c0,0-.109-4.227.946-5.386s2.7-1.686,1.669-7.543-.3-12.854-.3-14.259,3.166-10.17,3.166-10.17Z" transform="translate(-223.926 -211.741)" opacity="0.1"/><path d="M481.278,415.69l3.476,1.147s1.589,6.12,1.589,9.39,2.214,3.591,2.214,3.591,2.426,2.868,1.147,4.956-1.79,7.285-1.79,7.285.419,9.917-1.48,11.288-2.323,4.646-2.323,4.646-3.482,6.223-3.373,7.7-4.858,11.5-4.858,11.5,2.432-12.453-11.713-17.833c0,0-.1-4.227.952-5.386s2.7-1.686,1.669-7.543-.3-12.854-.3-14.259,3.166-10.17,3.166-10.17Z" transform="translate(-224.818 -210.888)" fill="#fff"/><path d="M360.15,777.167s5.541-3.482,9.177-.952S360.15,777.167,360.15,777.167Z" transform="translate(-180.464 -364.228)" opacity="0.1"/><path d="M435.21,759.767a11.216,11.216,0,0,1,9.022,3.8C448.351,768,435.21,759.767,435.21,759.767Z" transform="translate(-212.471 -357.594)" opacity="0.1"/><g transform="translate(181.541 105.921)" opacity="0.1"><path d="M417.854,266.058a8.509,8.509,0,0,0-2.082,1.853,20.981,20.981,0,0,0-.734,2.294c-.321.746-1.256,1.354-1.9.883-.149-5.162-2.7-10.009-5.822-14.139a14.7,14.7,0,0,0-3.149-3.269,6.166,6.166,0,0,0-4.285-1.21c-1.721.235-3.235,1.405-4.973,1.549-2.294.2-4.354-1.394-6.631-1.474a6.493,6.493,0,0,0-4.864,2.266,13.284,13.284,0,0,0-2.61,4.835A28.358,28.358,0,0,0,379.343,268c-.034,1.6-.184,3.6-1.663,4.193a7.846,7.846,0,0,1,0,1.273c1.491-.574,1.64-2.593,1.675-4.2a28.324,28.324,0,0,1,1.457-8.351,13.313,13.313,0,0,1,2.61-4.841,6.51,6.51,0,0,1,4.864-2.26c2.294.08,4.359,1.663,6.631,1.474,1.721-.143,3.246-1.319,4.973-1.549a6.166,6.166,0,0,1,4.285,1.21,14.694,14.694,0,0,1,3.149,3.269c3.126,4.124,5.673,8.959,5.822,14.133.648.476,1.583-.143,1.9-.878a22.244,22.244,0,0,1,.734-2.294,8.488,8.488,0,0,1,2.082-1.847c1.79-1.543,2.237-4.141,2.168-6.5v-.218A7.53,7.53,0,0,1,417.854,266.058Z" transform="translate(-369.48 -247.198)"/><path d="M369.416,269.035c-1.319-1.451-3.12-2.421-4.331-3.958a8.4,8.4,0,0,1-1.669-4.7,8.833,8.833,0,0,0,1.669,5.96c1.21,1.543,3.011,2.512,4.331,3.963a8.6,8.6,0,0,1,2.162,5.116,8.6,8.6,0,0,0-2.162-6.384Z" transform="translate(-363.385 -250.583)"/><path d="M452.423,244.436c-.338,1.405-.941,2.742-1.216,4.159a13.249,13.249,0,0,0-.178,2.868,11.135,11.135,0,0,1,.178-1.629c.275-1.422.878-2.753,1.216-4.158a7.055,7.055,0,0,0,.189-2.375,7.967,7.967,0,0,1-.189,1.136Z" transform="translate(-400.751 -243.3)"/></g><ellipse cx="55.89" cy="8.977" rx="55.89" ry="8.977" transform="translate(20.447 418.308)" fill="#2e5987" opacity="0.1"/><rect width="3.596" height="80.973" transform="translate(74.541 255.323)" fill="#535461"/><path d="M186.237,640.425l-.224,3.648-.321,5.162-.132,2.145-.315,5.162-.138,2.145-.321,5.162L181.161,722.4a9.923,9.923,0,0,1-9.9,9.3H152.413a9.917,9.917,0,0,1-9.894-9.3l-3.608-58.586-.321-5.162-.132-2.145-.321-5.162L138,649.2l-.321-5.162-.229-3.648a5.162,5.162,0,0,1,5.162-5.455h38.551a5.128,5.128,0,0,1,5.07,5.495Z" transform="translate(-85.5 -304.375)" fill="#3f3d56"/><path d="M138.933,592.24l-.321,5.145H90.9l-.321-5.145Z" transform="translate(-38.42 -252.542)" fill="#9d9cb5"/><path d="M138.817,604.95,138.5,610.1H91.691l-.321-5.151Z" transform="translate(-38.757 -257.962)" fill="#9d9cb5"/><path d="M138.7,617.68l-.315,5.145h-45.9l-.321-5.145Z" transform="translate(-39.094 -263.39)" fill="#9d9cb5"/><path d="M93.924,544.775c20.942,15.154,29.683,38.855,29.683,38.855s-25.238-.866-46.185-16.02S47.75,528.76,47.75,528.76,72.976,529.62,93.924,544.775Z" transform="translate(-47.253 -259.103)" fill="#7ea44b"/><path d="M47.72,528.76s26.2,14.54,34.6,26.58,41.27,28.289,41.27,28.289" transform="translate(-47.24 -259.103)" fill="none" stroke="#535461" stroke-miterlimit="10" stroke-width="2"/><path d="M133.135,496.979c11.4,8.242,16.164,21.142,16.164,21.142s-13.737-.47-25.14-8.713S108,488.26,108,488.26,121.732,488.73,133.135,496.979Z" transform="translate(-72.944 -241.833)" fill="#7ea44b"/><path d="M108,488.26s14.259,7.915,18.831,14.466,22.467,15.4,22.467,15.4" transform="translate(-72.944 -241.833)" fill="none" stroke="#535461" stroke-miterlimit="10" stroke-width="2"/><path d="M197.055,525.108c-13.095,14.391-15.865,33.2-15.865,33.2s18.464-4.531,31.547-18.928,15.865-33.2,15.865-33.2S210.15,510.717,197.055,525.108Z" transform="translate(-104.153 -249.474)" fill="#7ea44b"/><path d="M228.614,506.19s-17.058,14.753-21.395,24.917-26.029,27.205-26.029,27.205" transform="translate(-104.153 -249.478)" fill="none" stroke="#535461" stroke-miterlimit="10" stroke-width="2"/><path d="M951.206,416.643s-9.47-47.114-5.845-52.976c0,0,.132-5.449-.086-12.4v-.8a17.639,17.639,0,0,0,1.99,1.147,16.106,16.106,0,0,0,10.841,1.4l-2.868-3.195a5.3,5.3,0,0,1-1.554-2.6,5.444,5.444,0,0,1,.619-2.811c2.725-6.883,2.868-15.538-2.38-20.793-4.434-4.417-5.512-10.118-10.325-14.15-3.516-2.954-5.449-7.285-7.273-11.472a64.519,64.519,0,0,1-3.981-10.858c-.688-2.931-.964-5.965-1.91-8.827s-2.719-5.644-5.489-6.923a20.711,20.711,0,0,1-2.983-1.314,12.881,12.881,0,0,1-2.747-3.229c-4.342-5.736-18.882-2.357-25.766-.029a14.5,14.5,0,0,0-5.093,2.822l.063-.1c.052-.086.115-.172.172-.258a9.052,9.052,0,0,0-1.927,2.151c-1,1.589-1.423,3.441-2.26,5.162-1.01,2.036-6.625,7.72-4.21,10.009a2.034,2.034,0,0,0,.574.367,4.962,4.962,0,0,0,2.868.287l-.1.247a16.765,16.765,0,0,0-1.245,6.361,17.216,17.216,0,0,0,17.368,17.064,17.533,17.533,0,0,0,5.317-.82c.04.218.075.436.115.654a2.018,2.018,0,0,0,.04.258h0l-.3.424a.572.572,0,0,0-.052-.075l-9.005,12.584c-1.377.969-9.3,6.705-9.751,11.007-.47,4.709-.941,10.221-.941,10.221l-.063,1.182a3.545,3.545,0,0,1-2.868.774c-2.811-.459-2.811,10.325-2.811,10.325s-1.87,1.721-3.155.229-4.68,3.562-4.68,3.562l-21.28.918h0l-.488.029-1.147-3.55a1.5,1.5,0,0,0-1.876-.958,1.728,1.728,0,0,0-.258.109l-.08.046-.149.1-.074.069a1.144,1.144,0,0,0-.115.12l-.069.08-.034.034h0a1.446,1.446,0,0,0-.206,1.285l.986,3.046c-4.107.826-8.306,3.155-4.881,9.567L822.47,368.95l5.615,4.715,28.989,5.982c-.384.688-.132,1.686,1.067,3.092,5.162,6.063,14.569,7.709,18.355,8.133a32.59,32.59,0,0,0,3.723,6.309l-.327,6.04s-9.585,46.036-11.34,48.371a27.267,27.267,0,0,0,2.426-3.195c-2.782,9.458-6.671,22.4-7.692,24.343-1.64,3.1-3.16,15.63-1.291,16.433.574.247,2.214.126,4.554-.052v1.038l-.1,39.342s.47,24.131-.82,26.431-1.635,7.124-1.635,7.124-5.162,9.516-9.252,13.342a.612.612,0,0,1-.092.08l-.126-.895s-4.916,6.206-15.791,5.856c0,0-6.545,4.256,3.16,4.485s22.1-.344,22.1-.344,8.655-13.193,15.905-11.472v10h2.22V573.949a9.1,9.1,0,0,0,3.952-5.983,7.273,7.273,0,0,0-2.593-6.728,4.3,4.3,0,0,1-1.417-3.143l-.08.069a6.045,6.045,0,0,0-.075-.619c-.637-5.162-1.434-15.814,1.382-23.695,3.86-10.806,5.03-25.857,2.22-34.817a80.048,80.048,0,0,1-2.231-8.724c-.069-.373-.132-.728-.189-1.061a45.217,45.217,0,0,1,5.7,1.147c6.51,1.8,20.752,2.128,32.912,2.031.029.333.063.683.1,1.032a37.575,37.575,0,0,0,1.354,7.181c1.526,4.589,2.226,24.819,2.226,24.819s1.967,16.634.895,23.4c-.574,3.763-1.147,7.543-1.474,11.34v.075s-3.224,9.177-5.581,14.162c-.057.126-.12.252-.178.373a7.454,7.454,0,0,0-1.841.407s-3.16,6.31-6.309,7.353-2.105,4.48,5.025,3.218,17.9-2.294,17.9-2.294l.465-6.436,2.191-2.742-.574,6.418,2.335-.459-.31-7.807,3.585-4.485s4.331-3.854-2.105-11.437v.166c-.069-.109-.132-.224-.206-.333v-.034c-1.067-1.652-1.916-4.732-.361-10.2,2.811-9.877,4.445-18.842,4.445-18.842s6.275-24.016-1.268-35.379h.333a19.114,19.114,0,0,1-1.623-5.048q-.057-.31-.1-.637c5.581-.321,11.059-1.331,15.527-3.51C956.121,482.709,953.431,425.717,951.206,416.643Zm-70.855-39.75v.115l-1.147.057Zm-3.935.545a1.268,1.268,0,0,0-.516.247,5.093,5.093,0,0,0-.9,2.357l-1.79-.4s-1.256-.27-3.063-.574l-.855-.86C871.644,378.012,874.087,377.725,876.416,377.439Z" transform="translate(-377.604 -146.074)" fill="url(#b)"/><path d="M972,742.677l-.683,8.128,2.289-.459-.344-8.816Z" transform="translate(-413.98 -316.201)" fill="#1d2366"/><path d="M905.52,698.707c-2.759,7.858-1.979,18.464-1.359,23.615.229,1.9.442,3.063.442,3.063s-4.124,9.4-4.468,9.751S888,742.69,888,742.69l-8.242,4.812s-8.363-3.665-4.353-4.927a6.086,6.086,0,0,0,2.162-1.474c4.015-3.814,9.057-13.3,9.057-13.3s.344-4.812,1.606-7.1.8-26.339.8-26.339l.1-39.2V650.05l15.688.115a35.512,35.512,0,0,0,.677,5.162,78.9,78.9,0,0,0,2.185,8.7C910.442,672.965,909.294,687.941,905.52,698.707Z" transform="translate(-399.711 -310.822)" fill="#ffb0b1"/><path d="M904.6,779.122s-4.124,9.4-4.468,9.751S888,796.427,888,796.427l-8.242,4.812s-8.363-3.665-4.353-4.927a6.086,6.086,0,0,0,2.162-1.474l.356,2.507,2.747-.115,23.517-21.16C904.39,777.963,904.6,779.122,904.6,779.122Z" transform="translate(-399.711 -364.559)" opacity="0.1"/><path d="M893.484,777l-23.649,21.3-2.747.115-.574-4.015s-4.807,6.183-15.487,5.839c0,0-6.413,4.239,3.092,4.468s21.641-.344,21.641-.344,8.478-13.192,15.573-11.472v9.963h2.18V792.8a9.056,9.056,0,0,0,3.866-5.965,7.307,7.307,0,0,0-2.53-6.7A4.319,4.319,0,0,1,893.484,777Z" transform="translate(-388.879 -364.956)" fill="#1d2366"/><path d="M1007.715,710.641c-1.526,5.449-.694,8.518.35,10.164v.034a18.784,18.784,0,0,1,2.742,6.694l.092.516-10.76,15.688-5.839,2.294s-9.39-3.206-7.675-4.124a8.787,8.787,0,0,0,1.87-3.063c2.294-4.962,5.461-14.116,5.461-14.116v-.075c.333-3.78.86-7.548,1.446-11.3,1.05-6.751-.878-23.322-.878-23.322s-.688-20.15-2.18-24.733a37.827,37.827,0,0,1-1.336-7.135c-.31-2.868-.379-5.231-.379-5.231s6.183-8.6,17.517.688a12.465,12.465,0,0,1,2.369,2.57c7.83,11.139,1.526,35.677,1.526,35.677S1010.463,700.793,1007.715,710.641Z" transform="translate(-447.513 -310.505)" fill="#ffb0b1"/><path d="M1010.929,781.1l-10.76,15.688-5.839,2.294s-9.39-3.206-7.675-4.124a8.792,8.792,0,0,0,1.87-3.063c3.975-.034,6.034,3.751,6.034,3.751l5.036-.8s6.642-13.055,8.133-13.852.229-5.96.229-5.96V773.72c.04.046.075.1.12.143v.034a18.781,18.781,0,0,1,2.742,6.694Z" transform="translate(-447.525 -363.557)" opacity="0.1"/><path d="M989.148,796.234s-2.868-5.266-8.363-3.321c0,0-3.092,6.309-6.183,7.33s-2.059,4.463,4.927,3.206,17.517-2.294,17.517-2.294l.459-6.418,7.1-9.045s4.233-3.837-2.065-11.391v1.314s1.262,5.162-.229,5.96-8.11,13.858-8.11,13.858Z" transform="translate(-441.771 -363.804)" fill="#1d2366"/><path d="M915.845,650.145a35.512,35.512,0,0,0,.677,5.162,71.954,71.954,0,0,0-16.382-.166V650.03Z" transform="translate(-410.724 -310.814)" opacity="0.1"/><path d="M1014.3,657.615s-9.177.447-20.121.539c-.31-2.868-.379-5.231-.379-5.231s6.183-8.6,17.517.688a12.468,12.468,0,0,1,2.369,2.57,14.019,14.019,0,0,0,.614,1.434Z" transform="translate(-450.662 -310.501)" opacity="0.1"/><path d="M970.426,581.89s-40.2,1.945-52.449-1.491-24.395-.459-26.224-1.256-.344-13.284,1.262-16.376,10.416-34.358,10.416-34.358l8.478-44.2,8.931-2.461.631-.178,15.561-4.29,11.4-3.149s22.674,88.522,20.729,95.049a16.714,16.714,0,0,0-.333,7.68A19.174,19.174,0,0,0,970.426,581.89Z" transform="translate(-406.788 -235.808)" fill="#2e5987"/><path d="M872.859,439s-8.03,8.6-1.95,13.4,10.078.459,10.078.459Z" transform="translate(-397.289 -220.828)" fill="#c7daf5"/><path d="M872.859,439s-8.03,8.6-1.95,13.4,10.078.459,10.078.459Z" transform="translate(-397.289 -220.828)" opacity="0.1"/><path d="M976.339,328.721s-.941.895-2.357,2.214c-2.019,1.887-5.007,4.646-7.657,6.958-3.671,3.195-6.7,5.541-5.615,3.539s.878-5.489.338-8.753c-.04-.218-.075-.436-.115-.648a60.115,60.115,0,0,0-1.772-7.09s5.931-7.663,9.212-10.686c1.222-1.147,2.076-1.617,2.128-.82a26.648,26.648,0,0,0,1.858,5.954c.029.08.057.155.092.235.665,1.721,1.417,3.487,2.076,5.013C975.536,326.977,976.339,328.721,976.339,328.721Z" transform="translate(-435.891 -167.116)" fill="#ffb0b1"/><path d="M972.45,319.629a17.024,17.024,0,0,1-11.4,13.055,59.7,59.7,0,0,0-1.887-7.738s11.168-14.426,11.34-11.506A27.291,27.291,0,0,0,972.45,319.629Z" transform="translate(-435.891 -167.121)" opacity="0.1"/><path d="M944.545,352.486l1.445-2.036s.958,5.839,4.48,3.264,3.694,19.381,3.694,19.381l-3.78,56.515-27.314-1.635.774-27.308,3.092-13.766,7.646-20.012,4.549-6.613Z" transform="translate(-420.501 -183.069)" opacity="0.1"/><path d="M954.177,373.684l-3.442,51.1-.361,5.415-15.229-.912-.574-.034-11.472-.688.774-27.314,3.092-13.766,7.646-20.012,4.549-6.613,5.415-7.818,1.445-2.031s.958,5.839,4.48,3.264l.075-.052h0C954.016,352.043,954.177,373.684,954.177,373.684Z" transform="translate(-420.514 -183.308)" fill="#2e5987"/><path d="M904.2,406.26s-1.371,2.868-4.124,2.4-2.747,10.325-2.747,10.325-1.83,1.721-3.092.229-4.589,3.55-4.589,3.55l-20.844.918s9.275,4.239,7.457,17.064c0,0,31.49-1.95,32.522-4.927S904.2,406.26,904.2,406.26Z" transform="translate(-397.36 -206.867)" fill="#fff"/><path d="M904.2,406.26s-1.371,2.868-4.124,2.4-2.747,10.325-2.747,10.325-1.83,1.721-3.092.229-4.589,3.55-4.589,3.55l-20.844.918s9.275,4.239,7.457,17.064c0,0,31.49-1.95,32.522-4.927S904.2,406.26,904.2,406.26Z" transform="translate(-397.36 -206.867)" opacity="0.03"/><path d="M777.66,389.76l5.495,4.692,45.233,9.5-5.61-5.724Z" transform="translate(-331.4 -166.202)" fill="#fff"/><path d="M936.316,353.163c-.751,1.147-2.9,7.021-4.7,12.149-1.5,4.273-2.747,8.03-2.747,8.03s-2.92,19.009-4.411,22.444-.683,16.835-.683,16.835l-5.558,33.09s-2.518,17.064-6.407,27.257C907.975,483,903.7,487.7,903.57,487.853c1.721-2.329,11.1-48.181,11.1-48.181l3.1-57.829s.453-5.495.912-10.193,9.751-11.11,9.751-11.11l8.959-12.739C938.289,349,937.687,351.1,936.316,353.163Z" transform="translate(-412.186 -181.939)" fill="#fff"/><path d="M904.478,477.29s-13.193-.574-19.582-8.248,14.77-3.063,14.77-3.063l5.5,1.262Z" transform="translate(-403.711 -231.746)" fill="#ffb0b1"/><path d="M991.415,519a16.715,16.715,0,0,0-.333,7.68C976.691,527.7,961.3,523.81,961.3,523.81c-2.868,2.638-10.422,6.527-10.422,6.527l-4.118-51.049c-2.633-6.883-3.665-42.944-3.665-42.944s.235-1.887.574-4.715a.544.544,0,0,1,.029-.212c1.027-7.9,3.063-22.725,4.061-24.727,1.377-2.753-4.233-10.078-4.233-10.078l2.552-21.768.31-2.627c5.38-2.4,9.5-10.078,9.5-10.078l3.166-5.547h0c3.441-2.208,3.619,19.433,3.619,19.433l-3.442,51.1,11.4-3.149S993.359,512.47,991.415,519Z" transform="translate(-429.038 -185.621)" opacity="0.1"/><path d="M1006.7,512.362c-15.688,7.789-44.2.574-44.2.574-2.868,2.638-10.422,6.527-10.422,6.527l-4.124-51.049c-2.627-6.883-3.659-42.944-3.659-42.944s3.315-26.907,4.692-29.654a4.418,4.418,0,0,0-.27-3.281,41.516,41.516,0,0,1-2.512-19.209l1.1-9.355.3-2.621c5.386-2.409,9.51-10.084,9.51-10.084l2.868-5.025,5.277-9.258,2.5-4.382.424.384,3.241,2.937,3.442,2.868c4.491,3.786,12.252,10.451,16.255,14.529,3.522,3.591,4.635,17.557,4.956,28.071.212,6.923.086,12.349.086,12.349-3.55,5.845,5.736,52.77,5.736,52.77C1004.063,455.577,1006.7,512.362,1006.7,512.362Z" transform="translate(-429.55 -175.457)" fill="#fff"/><path d="M964.7,364.339s-10.766,20.494-9.516,28.284,4.807,16.605,3.092,18.664a6.338,6.338,0,0,1-5.042,2.518c-1.721.115-6.31,3.321-6.31,3.665s-4.239.344-8.03,1.95a50,50,0,0,1-9.39,2.518s-10.9-.344-11.913.688-2.059,7.21.115,12.137,4.589,8.6,6.413,9.275,13.4-3.206,22.789-4.124,19.582-8.357,19.582-8.357,11.225-4.015,13.192-10.766-2.4-43.856-2.4-43.856S973.979,359.641,964.7,364.339Z" transform="translate(-417.671 -188.646)" opacity="0.03"/><path d="M962.317,361.34s-10.766,20.5-9.5,28.284,4.807,16.605,3.086,18.67a6.309,6.309,0,0,1-5.036,2.518c-1.721.115-6.309,3.321-6.309,3.665s-4.239.344-8.03,1.944a50.49,50.49,0,0,1-9.39,2.518s-10.9-.344-11.908.688-2.065,7.216.115,12.137,4.589,8.6,6.413,9.275,13.4-3.206,22.789-4.118,19.582-8.363,19.582-8.363,11.219-4.015,13.164-10.76-2.4-43.862-2.4-43.862S971.591,356.648,962.317,361.34Z" transform="translate(-416.66 -187.368)" opacity="0.03"/><path d="M964.123,362.544s-10.766,20.5-9.5,28.284,4.807,16.605,3.092,18.665a6.309,6.309,0,0,1-5.042,2.524c-1.721.115-6.31,3.321-6.31,3.659s-4.233.344-8.03,1.95a50.113,50.113,0,0,1-9.39,2.518s-10.9-.344-11.913.688-2.059,7.216.115,12.137,4.589,8.6,6.413,9.275,13.4-3.206,22.789-4.124,19.582-8.357,19.582-8.357,11.225-4.015,13.193-10.766-2.375-43.856-2.375-43.856S973.392,357.876,964.123,362.544Z" transform="translate(-417.428 -187.884)" fill="#fff"/><path d="M994.949,458.619s-8.6-1.721-5.61,1.147,2.977,5.38,6.642,5.265S994.949,458.619,994.949,458.619Z" transform="translate(-448.49 -228.975)" opacity="0.1"/><path d="M1024.185,566.58s-3.889,2.633,3.55,8.7S1024.185,566.58,1024.185,566.58Z" transform="translate(-463.185 -275.23)" opacity="0.1"/><path d="M1011.876,604.31c0,.344-1.377,12.619,3.774,15.688S1011.876,604.31,1011.876,604.31Z" transform="translate(-458.298 -291.318)" opacity="0.1"/><path d="M862.152,436.59c-4.153.143-13.124,1.411-8.472,10.089,4.113,7.68,11.024,2.547,14.913-1.348a14.655,14.655,0,0,0-6.441-8.741Z" transform="translate(-390.357 -219.8)" fill="#ffb0b1"/><path d="M881.39,451Z" transform="translate(-402.728 -225.945)" fill="#ffb0b1"/><path d="M880.74,451.578l.172-.178Z" transform="translate(-402.451 -226.115)" fill="#ffb0b1"/><path d="M977.107,339.39c-4.405,3.011-8.1,5.552-8.822,6.08-1.973,1.463-5.736,10.049-8.162,14.431-1.933,3.528-8.214,4.434-10.583,4.658l.3-2.621c5.386-2.409,9.51-10.084,9.51-10.084L970,333.19l3.665,3.333Z" transform="translate(-431.789 -175.709)" opacity="0.1"/><path d="M977.107,338.79c-4.405,3.011-8.1,5.552-8.822,6.086-1.973,1.457-5.736,10.044-8.162,14.426-1.933,3.528-8.214,4.434-10.583,4.658l.3-2.621c5.386-2.409,9.51-10.084,9.51-10.084L970,332.59l3.665,3.321S975.042,337.047,977.107,338.79Z" transform="translate(-431.789 -175.453)" fill="#dce7ff"/><path d="M957.523,305.274a17.013,17.013,0,1,1-14.463-16.817A16.985,16.985,0,0,1,957.523,305.274Z" transform="translate(-420.683 -156.551)" fill="#ffb0b1"/><path d="M988.131,362.489a15.12,15.12,0,0,1-5.489-5.9c-.958-1.893-1.595-4.078-3.229-5.42-1.474-1.2-3.441-1.5-5.277-2.036-6.034-1.784-11.093-7.29-11.283-13.577-.092-2.96.832-5.914.413-8.845a9.8,9.8,0,0,0-1.916-4.56,15.7,15.7,0,0,0-1.658-1.784c-.8-.757-1.646-1.491-2.38-2.294a8.907,8.907,0,0,1-1.2-1.635,7.863,7.863,0,0,1-.66-1.52c-1.147-3.51-.1-7.675-1.365-11.225l-.069-.2c-.476-1.262-1.445-2.524-2.793-2.621s-2.5,1.021-3.786,1.52c-2.69,1.044-5.592-.734-7.835-2.547s-4.772-3.883-7.623-3.482c-1.887.27-3.378,1.554-5.116,2.22a7.172,7.172,0,0,1-1.21.35,17.007,17.007,0,0,1,32.792,6.338,16.825,16.825,0,0,1-.373,3.55c.029.08.057.155.092.235.665,1.721,1.417,3.487,2.076,5.013l3.241,2.937,3.442,2.868c4.491,3.786,12.252,10.451,16.255,14.529C986.7,338.014,987.8,351.975,988.131,362.489Z" transform="translate(-421.601 -156.551)" opacity="0.1"/><path d="M923.91,278.407c.82-1.669,1.227-3.539,2.208-5.122a12.2,12.2,0,0,1,6.533-4.652c6.74-2.323,20.982-5.7,25.238,0a12.417,12.417,0,0,0,2.69,3.212,19.977,19.977,0,0,0,2.92,1.313c2.713,1.273,4.445,4.05,5.369,6.883s1.2,5.874,1.876,8.793a64.666,64.666,0,0,0,3.9,10.824c1.784,4.164,3.677,8.483,7.118,11.426,4.7,4.015,5.736,9.7,10.1,14.1,5.162,5.231,5,13.864,2.335,20.718a5.688,5.688,0,0,0-.608,2.8,5.49,5.49,0,0,0,1.52,2.593l2.822,3.183a15.869,15.869,0,0,1-17.34-8c-.958-1.893-1.595-4.072-3.235-5.42-1.468-1.2-3.441-1.491-5.271-2.031-6.034-1.79-11.093-7.3-11.282-13.588-.092-2.954.832-5.908.413-8.833a9.753,9.753,0,0,0-1.922-4.589c-1.577-2.059-3.958-3.441-5.243-5.736-2.174-3.837-.522-8.822-2.088-12.94-.482-1.262-1.445-2.524-2.793-2.621s-2.5,1.021-3.791,1.52c-2.684,1.044-5.587-.728-7.829-2.547s-4.772-3.883-7.629-3.476c-1.887.264-3.373,1.549-5.111,2.22-1.285.493-3.889.935-5.013-.149C917.417,286.11,922.918,280.449,923.91,278.407Z" transform="translate(-418.852 -146.846)" fill="#727677"/><path d="M982.089,348.741c-.964-1.893-1.595-4.072-3.235-5.415-1.468-1.2-3.442-1.5-5.277-2.036-6.028-1.784-11.087-7.3-11.282-13.583-.092-2.954.832-5.914.419-8.839a9.809,9.809,0,0,0-1.922-4.56c-1.583-2.059-3.964-3.442-5.243-5.736-2.174-3.832-.522-8.816-2.094-12.94-.476-1.256-1.445-2.518-2.788-2.621s-2.507,1.027-3.791,1.526c-2.684,1.044-5.592-.734-7.829-2.547s-4.778-3.883-7.629-3.482c-1.887.27-3.378,1.554-5.111,2.22-1.285.493-3.895.941-5.019-.143-2.363-2.294,3.137-7.944,4.124-9.975.82-1.675,1.227-3.539,2.214-5.122.052-.086.109-.172.166-.258a9.108,9.108,0,0,0-1.887,2.145c-.981,1.583-1.388,3.442-2.208,5.122-.992,2.031-6.493,7.7-4.124,9.975,1.147,1.09,3.728.642,5.013.149,1.721-.671,3.224-1.956,5.111-2.22,2.868-.407,5.392,1.663,7.629,3.476s5.162,3.591,7.835,2.547c1.285-.5,2.409-1.623,3.786-1.52s2.294,1.359,2.793,2.621c1.566,4.118-.086,9.1,2.088,12.94,1.285,2.254,3.665,3.665,5.243,5.736a9.751,9.751,0,0,1,1.922,4.589c.419,2.925-.5,5.879-.413,8.833.189,6.309,5.248,11.8,11.283,13.588,1.818.539,3.8.826,5.271,2.031,1.646,1.348,2.294,3.528,3.235,5.42a15.868,15.868,0,0,0,17.339,8l-1.331-1.5A16.04,16.04,0,0,1,982.089,348.741Z" transform="translate(-418.76 -150.994)" opacity="0.1"/><path d="M954.184,353.72c-.751,1.147-2.9,7.021-4.7,12.149-1.681-.654-3.206-4.824-3.206-4.824l8.96-12.745C956.157,349.562,955.555,351.655,954.184,353.72Z" transform="translate(-430.398 -182.152)" opacity="0.1"/><path d="M954.784,353.125c-.751,1.147-2.9,7.021-4.7,12.149-1.68-.648-3.206-4.824-3.206-4.824l8.959-12.739C956.757,348.966,956.155,351.065,954.784,353.125Z" transform="translate(-430.654 -181.9)" fill="#dce7ff"/><path d="M866.1,446.246l-4.967-15.665a1.463,1.463,0,0,1,.952-1.841h0a1.468,1.468,0,0,1,1.835.952l4.967,15.647-.493,3.275Z" transform="translate(-394.059 -216.424)" fill="#be8b87"/><path d="M861.774,429.222h0a1.468,1.468,0,0,1,1.841.952l4.967,15.647-.373,2.455.361.379.493-3.275-5-15.647a1.468,1.468,0,0,0-1.836-.952h0a1.468,1.468,0,0,0-.763.574,1.994,1.994,0,0,1,.3-.132Z" transform="translate(-394.234 -216.441)" fill="#fff" opacity="0.1"/><path d="M822.6,400.023l2.788-.883-.407,2.684-.086.591-.814-.849Z" transform="translate(-350.563 -170.202)" fill="#efc8c4"/><path d="M872.42,461.86a.573.573,0,0,1,.178-.149.252.252,0,0,1,.27,0,.714.714,0,0,1,.1.155.493.493,0,0,0,.356.235l-.086.574Z" transform="translate(-398.903 -230.495)" fill="#727a9c"/><path d="M861.13,441.7s9.963-.057,7.617,4.181a8.961,8.961,0,0,1-6.011,4.749Z" transform="translate(-394.089 -221.979)" fill="#ffb0b1"/><path d="M655.66,110.05h-.43a49.061,49.061,0,0,0-40.96,22.421,49.061,49.061,0,0,0-40.96-22.421h-.43a48.755,48.755,0,0,0-48.29,48.726c0,15.951,6.986,38.585,20.609,57.209,25.955,35.488,69.071,66.536,69.071,66.536s43.117-31.043,69.065-66.536c13.628-18.624,20.609-41.258,20.609-57.209A48.755,48.755,0,0,0,655.66,110.05Zm-6.155,108.666a9.665,9.665,0,0,1-8.988-6.206H630.285a3.235,3.235,0,0,1-3.046-2.2l-3.143-9.47-9.946,34.754a3.218,3.218,0,0,1-3.086,2.323h-.2a3.178,3.178,0,0,1-2.983-2.661L597.63,173.6l-7.491,36.48a3.2,3.2,0,0,1-3.1,2.426H572.622a3.206,3.206,0,1,1,0-6.407h11.89l10.611-49.047a3.218,3.218,0,0,1,6.31.264L611.9,220.207l8.914-31.094a3.155,3.155,0,0,1,3-2.294h.063a3.2,3.2,0,0,1,3.04,2.2l5.684,17.1h7.789a9.613,9.613,0,1,1,9.132,12.619Z" transform="translate(-250.584 -80.559)" fill="#f4a50f"/></g></svg>