<svg xmlns="http://www.w3.org/2000/svg" width="708.5" height="385" viewBox="0 0 708.5 385"><g transform="translate(-156 -4705)"><g transform="translate(36 -47)"><rect width="188" height="385" transform="translate(120 4752)" fill="#727677" opacity="0.034"/><rect width="130" height="385" transform="translate(308 4752)" fill="#727677" opacity="0.086"/><rect width="130" height="385" transform="translate(438 4752)" fill="#727677" opacity="0.03"/><rect width="130" height="385" transform="translate(568 4752)" fill="#727677" opacity="0.09"/><rect width="130" height="385" transform="translate(698 4752)" fill="#2e5987"/><text transform="translate(156 4775)" fill="#727677" font-size="18" font-family="Heebo-Medium, Heebo" font-weight="500"><tspan x="11.342" y="19">Form Count </tspan><tspan x="20.681" y="42">per Order</tspan></text><text transform="translate(156 4863)" fill="#727677" font-size="18" font-family="Heebo-Regular, Heebo"><tspan x="0" y="19">1 - 50</tspan><tspan x="0" y="65">51 - 100</tspan><tspan x="0" y="111">101 - 250</tspan><tspan x="0" y="157" xml:space="preserve"> 251 - 500</tspan><tspan x="0" y="203">501 - 1000</tspan><tspan x="0" y="249">1001 +</tspan></text><text transform="translate(331 4863)" fill="#727677" font-size="18" font-family="Heebo-Regular, Heebo"><tspan x="0" y="19" xml:space="preserve">$3.50      </tspan><tspan x="0" y="65" xml:space="preserve">$3.00      </tspan><tspan x="0" y="111" xml:space="preserve">$2.50      </tspan><tspan x="0" y="157" xml:space="preserve">$2.00      </tspan><tspan x="0" y="203" xml:space="preserve">$1.50      </tspan><tspan x="0" y="249">$1.25</tspan></text><text transform="translate(460 4863)" fill="#727677" font-size="18" font-family="Heebo-Regular, Heebo"><tspan x="0" y="19" xml:space="preserve">$2.00      </tspan><tspan x="0" y="65" xml:space="preserve">$1.75      </tspan><tspan x="0" y="111" xml:space="preserve">$1.50      </tspan><tspan x="0" y="157" xml:space="preserve">$1.25      </tspan><tspan x="0" y="203" xml:space="preserve">$1.00      </tspan><tspan x="0" y="249">$0.75</tspan></text><text transform="translate(589 4863)" fill="#727677" font-size="18" font-family="Heebo-Regular, Heebo"><tspan x="0" y="19" xml:space="preserve">$3.00      </tspan><tspan x="0" y="65" xml:space="preserve">$2.50      </tspan><tspan x="0" y="111" xml:space="preserve">$2.00      </tspan><tspan x="0" y="157" xml:space="preserve">$1.50      </tspan><tspan x="0" y="203" xml:space="preserve">$1.25      </tspan><tspan x="0" y="249">$1.00</tspan></text><text transform="translate(718 4863)" fill="#fff" font-size="18" font-family="Heebo-Regular, Heebo"><tspan x="0" y="19" xml:space="preserve">$1.00      </tspan><tspan x="0" y="65" xml:space="preserve">$0.85      </tspan><tspan x="0" y="111" xml:space="preserve">$0.70      </tspan><tspan x="0" y="157" xml:space="preserve">$0.55      </tspan><tspan x="0" y="203" xml:space="preserve">$0.40      </tspan><tspan x="0" y="249">$0.25</tspan></text><text transform="translate(309 4775)" fill="#727677" font-size="18" font-family="Heebo-Medium, Heebo" font-weight="500"><tspan x="5.213" y="19">E-File + Print &amp; </tspan><tspan x="47.133" y="42">Mail</tspan></text><text transform="translate(461 4775)" fill="#727677" font-size="18" font-family="Heebo-Medium, Heebo" font-weight="500"><tspan x="19.982" y="19">E-File </tspan><tspan x="24.566" y="42">Only</tspan></text><text transform="translate(587 4775)" fill="#727677" font-size="18" font-family="Heebo-Medium, Heebo" font-weight="500"><tspan x="19.219" y="19">Print &amp; </tspan><tspan x="8.958" y="42">Mail Only</tspan></text><text transform="translate(698 4775)" fill="#fff" font-size="18" font-family="Heebo-Medium, Heebo" font-weight="500"><tspan x="23.195" y="19">TIN Check</tspan></text></g><line x2="708" transform="translate(156.5 4789.5)" fill="none" stroke="#f4a50f" stroke-width="1"/></g></svg>