<svg xmlns="http://www.w3.org/2000/svg" width="612.009" height="356.607" viewBox="0 0 612.009 356.607"><ellipse cx="174" cy="173.5" rx="174" ry="173.5" transform="translate(24)" fill="#2e5987" opacity="0.082"/><path d="M698.009,635.721a8.16,8.16,0,0,1-.1,1.262c-4.251,26.052-139.583,46.961-305.9,46.961S90.352,663.035,86.1,636.983a8.141,8.141,0,0,1-.1-1.262c0-.119,0-.244.012-.363,0-.066.006-.125.006-.191a.291.291,0,0,0,.006-.071c.024-.268.06-.524.107-.786,1.941-10.651,25.808-20.438,64.737-28.279,31.839-6.412,73.757-11.526,122-14.741C309.484,588.85,349.741,587.5,392,587.5c34.006,0,66.714.875,97.267,2.483h.012q9.591.509,18.9,1.113c42.466,2.75,80.151,6.96,110.513,12.228,18.676,3.245,34.589,6.894,47.145,10.847h.006c19.325,6.09,30.72,12.919,32.035,20.14.048.262.083.518.107.786a.3.3,0,0,0,.006.071c0,.065.006.125.006.19C698.009,635.477,698.009,635.6,698.009,635.721Z" transform="translate(-86 -327.337)" fill="#f4a50f"/><ellipse cx="98.5" cy="14.5" rx="98.5" ry="14.5" transform="translate(200 326)" opacity="0.1"/><path d="M940.1,616.614c-3.435.982-7.3,1.893-11.549,2.727-17.479,3.441-41.328,5.555-67.589,5.555-29.338,0-55.635-2.637-73.453-6.811-14.788-3.465-23.742-7.972-23.742-12.919,0-4.346,6.93-8.371,18.676-11.627,42.466,2.75,80.151,6.96,110.513,12.228C911.635,609.012,927.548,612.661,940.1,616.614Z" transform="translate(-360.267 -329.781)" opacity="0.1"/><path d="M446.424,610.165c0,9.007-56.51,16.312-126.212,16.312S194,619.172,194,610.165a2.6,2.6,0,0,1,.572-1.56c31.839-6.412,73.757-11.526,122-14.741q1.813-.009,3.638-.006C389.914,593.858,446.424,601.157,446.424,610.165Z" transform="translate(-129.703 -329.91)" opacity="0.1"/><rect width="24.817" height="80.123" transform="translate(247.942 199.424)" fill="#7ea44b"/><rect width="24.817" height="117.703" transform="translate(166.401 161.844)" fill="#7ea44b"/><rect width="24.817" height="117.703" transform="translate(85.568 161.844)" fill="#7ea44b"/><rect width="24.817" height="80.123" transform="translate(125.985 161.844)" fill="#7ea44b"/><rect width="24.817" height="23.399" transform="translate(206.817 161.844)" fill="#7ea44b"/><rect width="24.817" height="80.123" transform="translate(206.817 199.424)" fill="#fff"/><rect width="65.233" height="23.399" transform="translate(247.942 161.844)" fill="#7ea44b"/><path d="M717.527,636.825c0,29.015-40.444,20.041-89.964,20.041S538.2,665.841,538.2,636.825,578.639,601.5,628.158,601.5,717.527,607.81,717.527,636.825Z" transform="translate(-268.988 -333.002)" opacity="0.1"/><path d="M717.527,624.825c0,29.015-40.444,20.041-89.964,20.041S538.2,653.841,538.2,624.825,578.639,589.5,628.158,589.5,717.527,595.81,717.527,624.825Z" transform="translate(-268.988 -328.146)" fill="#f4a50f"/><path d="M819.05,561.07l2.044,8.432a.528.528,0,0,1-.01.285l-9.273,28.977a.527.527,0,0,1-1.025-.1L809.5,587.374a.526.526,0,0,1,.023-.223l8.511-26.121a.527.527,0,0,1,1.013.039Z" transform="translate(-378.772 -316.479)" fill="#2f2e41"/><path d="M732.719,412.038l1.888,7.235-8.179,26.422-1.887-8.178Z" transform="translate(-293.193 -166.736)" fill="#f2f2f2"/><path d="M755.024,618.749c.315.944,32.713-.314,33.028-.629a6.821,6.821,0,0,0,.692-1.258c.3-.629.566-1.258.566-1.258l-1.258-10.185-32.084-1.139s-.8,8.631-.966,12.582a9.445,9.445,0,0,0,.022,1.887Z" transform="translate(-356.704 -334.127)" fill="#2f2e41"/><path d="M708.479,458.005l.629,8.807H694.953v-8.807Z" transform="translate(-281.22 -185.337)" opacity="0.1"/><path d="M681.469,462.749l.085-.017-.4,3.791h-7.864v-3.774Z" transform="translate(-272.454 -187.249)" opacity="0.1"/><path d="M755.024,627.3c.315.944,32.713-.315,33.028-.629a6.82,6.82,0,0,0,.692-1.258H755a9.445,9.445,0,0,0,.022,1.887Z" transform="translate(-356.704 -342.68)" opacity="0.1"/><path d="M665.71,566.209h8.807l21.7-8.493s15.413-6.291,14.155,5.662-3.46,27.995-3.46,27.995-6.92-3.145-10.695-2.2-1.258-19.188-1.258-19.188-30.826,14.784-33.657,12.9-3.46-15.1-3.46-15.1Z" transform="translate(-317.404 -314.616)" fill="#2f2e41"/><path d="M665.71,566.209h8.807l21.7-8.493s15.413-6.291,14.155,5.662-3.46,27.995-3.46,27.995-6.92-3.145-10.695-2.2-1.258-19.188-1.258-19.188-30.826,14.784-33.657,12.9-3.46-15.1-3.46-15.1Z" transform="translate(-317.404 -314.616)" opacity="0.1"/><path d="M688.994,526.777l10.659,15.314,24.85,20.76s22.962,5.347,19.817,9.122-22.333-3.775-22.333-3.775-28.624-20.76-29.568-22.333-11.324-16.357-11.324-16.357Z" transform="translate(-326.811 -302.765)" fill="#a0616a"/><path d="M688.994,526.777l10.659,15.314,24.85,20.76s22.962,5.347,19.817,9.122-22.333-3.775-22.333-3.775-28.624-20.76-29.568-22.333-11.324-16.357-11.324-16.357Z" transform="translate(-326.811 -302.765)" opacity="0.1"/><circle cx="14.155" cy="14.155" r="14.155" transform="translate(346.419 178.932)" fill="#a0616a"/><path d="M675.431,487.679s-4.718,8.178-5.662,12.582-14.155-8.807-14.155-8.807l-1.73-4.561s12.425-5.819,11.481-10.537S675.431,487.679,675.431,487.679Z" transform="translate(-315.8 -282.01)" fill="#a0616a"/><path d="M676.68,506.005l6.92,13.526s-1.573,6.606-4.089,7.235-13.211-8.178-13.211-8.178Z" transform="translate(-320.825 -294.36)" fill="#7ea44b"/><path d="M684.04,537.178l12.9,16.986,30.826,22.962s22.333,4.718,17.3,8.178-19.5-3.145-19.5-3.145-31.14-16.671-37.746-23.591-18.873-18.558-18.873-18.558Z" transform="translate(-321.894 -306.974)" fill="#a0616a"/><path d="M646.215,580.222l3.775,5.976,22.527-7.087a17.713,17.713,0,0,1,14.747,1.779c3.932,2.477,6.448,6.409.786,12.228-11.324,11.638-18.873,5.347-18.873,5.347s-38.061,17.929-44.352,9.122-6.606-13.211-6.606-13.211S642.44,579.278,646.215,580.222Z" transform="translate(-301.368 -323.595)" fill="#2f2e41"/><path d="M722.047,614.507s10.066,6.606-1.887,9.751S699.4,623,699.4,623s-10.38,0-10.38-5.347,3.46-5.976,3.46-5.976l10.695,1.573S716.071,609.789,722.047,614.507Z" transform="translate(-330.018 -337.121)" fill="#d0cde1"/><path d="M690.545,457.184a10.554,10.554,0,0,0,2.966,1.062,2.708,2.708,0,0,0,2.736-1.172,3.68,3.68,0,0,0,.311-1.664c.038-1.727-.087-3.594-1.182-4.931-.7-.851-1.714-1.387-2.435-2.217a10.479,10.479,0,0,1-1.231-2.011c-1.4-2.634-3.479-5.165-6.364-5.924a13.8,13.8,0,0,0-3.715-.284l-7.267.1a12.653,12.653,0,0,0-3.5.376c-2.339.707-4.042,2.674-5.6,4.555a28.491,28.491,0,0,0-3.213,4.434,15.557,15.557,0,0,0-1.844,7.623,7.132,7.132,0,0,0,.261,2.017,11.2,11.2,0,0,0,.793,1.741c1.363,2.677,2.172,6.02.637,8.6a16.527,16.527,0,0,0,7.062-4.8,13.227,13.227,0,0,1,2.452-2.963c1.049-.749,2.757-.814,3.43.285a3.074,3.074,0,0,1,.347,1.44,6.6,6.6,0,0,0,.4,2.43,1.821,1.821,0,0,0,1.978,1.129c1.37-.386,1.238-2.488,2.293-3.443.8-.725,2.037-.587,3.066-.916a4.55,4.55,0,0,0,2.612-2.572c.39-.874.384-3.161,1.121-3.634C687.585,455.858,689.688,456.8,690.545,457.184Z" transform="translate(-318.359 -267.657)" fill="#2f2e41"/><path d="M636.19,492.054a3.733,3.733,0,0,1,1.943,0c2.019.542,6.546,1.977,7.516,4.161,1.258,2.831,5.662,7.235,5.662,7.235s5.976,5.976,4.718,10.066-5.977,8.807-5.977,8.807,1.258,19.5-5.033,24.535-8.807,1.573-8.807,6.291-19.5,19.5-23.277,10.38c0,0,1.887-16.986,1.258-22.962C613.574,534.681,614.482,497.931,636.19,492.054Z" transform="translate(-299.23 -288.663)" fill="#7ea44b"/><path d="M658.961,504.915s19.188,14.155,15.727,20.131c0,0-11.638,5.662-14.155,5.347s-12.267-11.324-14.784-12.267S641.976,500.2,658.961,504.915Z" transform="translate(-311.913 -293.584)" fill="#7ea44b"/><path d="M565.033,525.674c-2.984,1.008-5.688,3.365-6.3,6.455-.283,1.432-.11,2.921-.348,4.362-.553,3.341-3.175,5.892-5.594,8.262s-4.917,5.124-5.093,8.505c-.193,3.7,2.492,7.172,2.027,10.851-.54,4.274-5.054,7.044-6.17,11.2-.745,2.778.168,5.771,1.67,8.224,2.863,4.675,7.756,7.849,12.967,9.55s10.761,2.059,16.242,2.117c6.674.07,13.921-.5,18.935-4.908a15.169,15.169,0,0,0,5.036-9.876c.476-5.1-1.653-10.375-.184-15.284.924-3.09,3.243-5.912,2.9-9.118-.338-3.135-3.077-5.358-4.955-7.89a32.074,32.074,0,0,1-3.861-7.911l-3.569-9.42c-.7-1.852-1.472-3.8-3.036-5.015-2.927-2.275-7.634-1.828-11.056-1.359C571.467,524.858,568.086,524.643,565.033,525.674Z" transform="translate(-271.048 -301.659)" fill="#2f2e41"/><path d="M571.311,572.573s1.582,5.142-10.284,11.075,1.187,12.261,1.187,12.261l13.843,3.164s14.239-1.978,15.821-4.351,4.351-10.284,3.56-11.47a18.494,18.494,0,0,0-1.978-2.373s-9.493-1.582-9.1-5.933S571.311,572.573,571.311,572.573Z" transform="translate(-276.209 -321.115)" fill="#ffb9b9"/><path d="M571.311,572.573s1.582,5.142-10.284,11.075,1.187,12.261,1.187,12.261l13.843,3.164s14.239-1.978,15.821-4.351,4.351-10.284,3.56-11.47a18.494,18.494,0,0,0-1.978-2.373s-9.493-1.582-9.1-5.933S571.311,572.573,571.311,572.573Z" transform="translate(-276.209 -321.115)" opacity="0.1"/><circle cx="12.657" cy="12.657" r="12.657" transform="translate(290.159 234.252)" fill="#ffb9b9"/><path d="M572.424,600.35s-15.243-1.115-15.532-11.632c0,0-5.431-.629-7.013.953s-6.724,2.769-6.724,6.724,8.7,15.821,8.7,15.821,4.746,15.821,2.769,18.59-2.373,9.888-2.373,9.888,19.776-1.582,22.94,0,15.821,1.582,16.612,0-.791-21.358-.791-21.358,3.56-4.746,2.769-10.284l9.493-11.075s-3.56-10.679-9.1-10.679c0,0-7.515-1.978-7.713-.989S590.222,598.372,572.424,600.35Z" transform="translate(-270.992 -326.743)" fill="#2e5987"/><path d="M532.525,665.321s3.56,5.537,12.657,6.724,10.679-1.978,9.888-2.769-10.284-4.351-10.284-4.351l-5.537-4.351Z" transform="translate(-266.691 -356.908)" fill="#ffb9b9"/><path d="M628.049,660.574l-10.284,5.933s-13.448-.791-8.306,3.164,14.634,2.373,14.634,2.373l9.1-4.351Z" transform="translate(-297.349 -356.908)" fill="#ffb9b9"/><path d="M552.606,677.848s-9.493,23.336,1.978,26.9,43.112,2.769,50.232-1.978,9.1-11.075,7.911-13.052-9.1-7.515-14.634-7.911S552.606,677.848,552.606,677.848Z" transform="translate(-273.324 -363.898)" fill="#2f2e41"/><path d="M552.606,677.848s-9.493,23.336,1.978,26.9,43.112,2.769,50.232-1.978,9.1-11.075,7.911-13.052-9.1-7.515-14.634-7.911S552.606,677.848,552.606,677.848Z" transform="translate(-273.324 -363.898)" opacity="0.05"/><path d="M609.331,677.076s33.506-12.129,33.111,2.505-21.358,18.59-21.358,18.59l-6.328.791-34.806,1.187s1.187-6.328-1.582-7.119c0,0,9.1-2.373,9.493-2.769s22.94-8.306,24.523-8.7,6.328-3.56,9.888-3.164c0,0,3.955-3.164,8.306-2.373l-12.261.791Z" transform="translate(-285.241 -361.676)" fill="#2f2e41"/><path d="M609.331,677.076s33.506-12.129,33.111,2.505-21.358,18.59-21.358,18.59l-6.328.791-34.806,1.187s1.187-6.328-1.582-7.119c0,0,9.1-2.373,9.493-2.769s22.94-8.306,24.523-8.7,6.328-3.56,9.888-3.164c0,0,3.955-3.164,8.306-2.373l-12.261.791Z" transform="translate(-285.241 -361.676)" opacity="0.1"/><path d="M534.434,529.147l4.225,9.638,25.709-9.1,1.978-5.141-6.724-1.187L546.1,525.734l-5.863,1.582Z" transform="translate(-216.264 -211.783)" fill="#2f2e41"/><path d="M534.434,529.147l4.225,9.638,25.709-9.1,1.978-5.141-6.724-1.187L546.1,525.734l-5.863,1.582Z" transform="translate(-216.264 -211.783)" opacity="0.1"/><path d="M523.7,689.682s7.515,9.493,16.217,11.866,13.448-.791,13.448-.791L550.6,689.682l-1.187-7.119L544.267,679l-10.284-4.746L521.722,670.3s-5.142-.791-5.142,0,4.746,12.657,4.746,12.657Z" transform="translate(-260.239 -360.701)" fill="#2f2e41"/><path d="M543.819,711.689s1.582,11.47,3.56,12.261,7.911-.791,9.493-1.582,6.96-4.441,6.96-4.441S545.006,710.9,543.819,711.689Z" transform="translate(-271.261 -377.567)" fill="#f2f2f2"/><path d="M515.722,563.223l7.515,1.187-.791,9.1-10.482-2.546Z" transform="translate(-207.172 -227.914)" fill="#ffb9b9"/><path d="M611.129,715.226s-3.522,4.192.038,6.565l2.373,1.978s7.911,1.582,8.7,2.373,3.955-1.187,3.955-1.187.4-11.866,0-12.657-5.142-1.582-5.537-.791-5.142,1.978-7.911,1.187Z" transform="translate(-297.87 -377.386)" fill="#f2f2f2"/><path d="M534.193,674.621s-27.687-16.217-32.038-10.284-9.1,14.239,3.56,20.567,52.209,19.381,52.209,19.381,5.933-9.1,5.933-11.47c0,0-20.963-9.493-24.523-10.284s-17.8-9.888-19.776-10.679a22.961,22.961,0,0,1-4.746-3.164Z" transform="translate(-252.538 -357.902)" fill="#2f2e41"/><path d="M538.806,600.117l-1.582,1.187s-3.56,9.1-3.955,14.239-5.142,20.963-4.746,22.941a8.121,8.121,0,0,0,3.164,5.537s3.164-7.12,8.7-5.933l6.724-24.523Z" transform="translate(-265.062 -332.443)" fill="#2e5987"/><path d="M633.716,600.117l3.164,3.56s1.978,4.746,1.978,5.933,3.955,18.59,4.351,19.381,1.978,10.679,0,13.052A17.789,17.789,0,0,1,637.671,646s2.373-8.306-5.142-8.7l.791-3.164L626.2,610.4Z" transform="translate(-304.598 -332.443)" fill="#2e5987"/><path d="M547.141,642.453v20.834a5.009,5.009,0,0,0,4.935,5.008l43.57.646a5.009,5.009,0,0,0,5.079-4.816l.8-20.836a5.009,5.009,0,0,0-4.933-5.2l-44.371-.643a5.009,5.009,0,0,0-5.081,5.008Z" transform="translate(-272.605 -347.548)" fill="#3f3d56"/><ellipse cx="13.624" cy="7.336" rx="13.624" ry="7.336" transform="translate(289.934 231.831)" fill="#2f2e41"/><circle cx="3.164" cy="3.164" r="3.164" transform="translate(298.069 302.678)" fill="#f2f2f2"/></svg>