<svg xmlns="http://www.w3.org/2000/svg" xmlns:xlink="http://www.w3.org/1999/xlink" width="826.844" height="651.571" viewBox="0 0 826.844 651.571"><defs><linearGradient id="a" x1="0.5" y1="1" x2="0.5" gradientUnits="objectBoundingBox"><stop offset="0" stop-color="gray" stop-opacity="0.251"/><stop offset="0.54" stop-color="gray" stop-opacity="0.122"/><stop offset="1" stop-color="gray" stop-opacity="0.102"/></linearGradient><linearGradient id="b" x1="2.524" y1="1" x2="2.524" xlink:href="#a"/></defs><g transform="translate(-120 -2475.448)"><path d="M912.568,2439.972c-256.4,5.837-21.521-8.512-335.286-171.913-95.385-49.674-180.328-71.966-245.048-92.113.09-4.486.743,546.672,0,553.189,69.865,11.7,149.7,16.8,245.048,16.86,274.763.172,67.914-135.769,387.443-38.708S1168.972,2434.135,912.568,2439.972Z" transform="translate(-212.234 381.022)" fill="#2e5987" opacity="0.039"/><g transform="translate(113.006 2451.998)"><path d="M317.6,548.25s-26.748-14.663-34.674-37.174a46.226,46.226,0,0,0-17.8-23.206,77.752,77.752,0,0,0-12.51-6.76" transform="translate(-104.796 -127.021)" fill="none" stroke="#7ea44b" stroke-miterlimit="10" stroke-width="2"/><path d="M242.715,462.213c2.531,2.547,5.255,14.5,5.255,14.5s-11.939-2.8-14.47-5.34a6.5,6.5,0,1,1,9.215-9.161Z" transform="translate(-100 -122.27)" fill="#7ea44b"/><path d="M270.239,469.645c.772,3.511-3.473,15.026-3.473,15.026s-8.489-8.836-9.261-12.348a6.5,6.5,0,1,1,12.71-2.678Z" transform="translate(-105.869 -123.18)" fill="#7ea44b"/><path d="M300.916,500.328c-1.134,3.4-10.58,11.221-10.58,11.221s-2.879-11.923-1.744-15.327a6.506,6.506,0,0,1,12.348,4.106Z" transform="translate(-112.947 -129.454)" fill="#7ea44b"/><path d="M318.589,529.844c-.54,3.542-8.535,12.849-8.535,12.849s-4.846-11.26-4.306-14.809a6.5,6.5,0,0,1,12.842,1.96Z" transform="translate(-116.914 -136.481)" fill="#2e5987"/><path d="M255.772,499.958c3.589-.039,13.891-6.652,13.891-6.652s-10.472-6.374-14.061-6.336a6.5,6.5,0,0,0,.147,12.988Z" transform="translate(-104.058 -128.359)" fill="#7ea44b"/><path d="M276.4,533.894c3.411-1.111,11.283-10.511,11.283-10.511s-11.9-2.948-15.311-1.837a6.5,6.5,0,0,0,4.028,12.348Z" transform="translate(-108.331 -136.194)" fill="#7ea44b"/><path d="M301.794,563.847c3.55-.517,12.9-8.489,12.9-8.489s-11.236-4.916-14.786-4.4a6.513,6.513,0,0,0,1.891,12.888Z" transform="translate(-114.318 -142.957)" fill="#7ea44b"/><path d="M354.542,460.439S336.02,436.184,337.9,412.407a46.227,46.227,0,0,0-6.868-28.423,77.748,77.748,0,0,0-8.7-11.244" transform="translate(-120.709 -102.283)" fill="none" stroke="#7ea44b" stroke-miterlimit="10" stroke-width="2"/><path d="M319.986,351.994c1.281,3.349-1.065,15.388-1.065,15.388s-9.785-7.393-11.067-10.742a6.5,6.5,0,1,1,12.132-4.63Z" transform="translate(-117.284 -96.54)" fill="#7ea44b"/><path d="M342.144,370.063c-.772,3.511-9.261,12.348-9.261,12.348s-4.19-11.522-3.45-15.033a6.5,6.5,0,1,1,12.711,2.7Z" transform="translate(-122.31 -99.884)" fill="#7ea44b"/><path d="M356.873,410.436c-2.415,2.655-14.223,5.973-14.223,5.973s2.2-12.062,4.63-14.717a6.5,6.5,0,1,1,9.608,8.744Z" transform="translate(-125.347 -108.377)" fill="#7ea44b"/><path d="M361.664,444.634c-1.929,3.025-13,8.288-13,8.288s.131-12.263,2.061-15.288a6.5,6.5,0,0,1,10.943,6.992Z" transform="translate(-126.719 -116.46)" fill="#2e5987"/><path d="M316.634,391.853c3.3,1.412,15.435-.448,15.435-.448s-7-10.071-10.295-11.483a6.5,6.5,0,0,0-5.124,11.939Z" transform="translate(-118.547 -103.816)" fill="#7ea44b"/><path d="M321.778,431.175c3.565.363,14.578-5.039,14.578-5.039s-9.693-7.517-13.258-7.879a6.5,6.5,0,0,0-1.32,12.919Z" transform="translate(-119.308 -112.67)" fill="#7ea44b"/><path d="M332.769,468.878c3.457.965,15.218-2.508,15.218-2.508s-8.281-9.045-11.738-10.032a6.5,6.5,0,1,0-3.48,12.517Z" transform="translate(-121.972 -121.302)" fill="#2e5987"/><path d="M806.641,500.3s-3.743-30.283,9.863-49.869a46.226,46.226,0,0,0,8.4-28.006,77.746,77.746,0,0,0-1.837-14.1" transform="translate(-231.156 -110.407)" fill="none" stroke="#7ea44b" stroke-miterlimit="10" stroke-width="2"/><path d="M835.276,390.076c-.586,3.542-8.682,12.749-8.682,12.749s-4.715-11.321-4.129-14.856a6.5,6.5,0,0,1,12.818,2.115Z" transform="translate(-234.864 -104.555)" fill="#7ea44b"/><path d="M844.415,416.762c-2.416,2.655-14.215,5.981-14.215,5.981s2.192-12.062,4.63-14.717a6.5,6.5,0,0,1,9.608,8.736Z" transform="translate(-236.642 -109.895)" fill="#7ea44b"/><path d="M836.338,459.512c-3.426,1.073-15.288-2.014-15.288-2.014s7.987-9.307,11.406-10.38a6.5,6.5,0,0,1,3.859,12.394Z" transform="translate(-234.553 -119.214)" fill="#7ea44b"/><path d="M823.045,491.057c-3.195,1.636-15.435.594-15.435.594s6.3-10.526,9.492-12.162a6.5,6.5,0,1,1,5.919,11.576Z" transform="translate(-231.485 -126.488)" fill="#2e5987"/><path d="M812.277,422.673c2.13,2.886,13.536,7.393,13.536,7.393s-.957-12.224-3.087-15.11a6.5,6.5,0,0,0-10.449,7.717Z" transform="translate(-232.286 -111.353)" fill="#7ea44b"/><path d="M796.843,459.219c2.894,2.115,15.126,3,15.126,3s-4.576-11.375-7.47-13.49a6.5,6.5,0,0,0-7.656,10.5Z" transform="translate(-228.451 -119.369)" fill="#2e5987"/><path d="M787.321,497.3c2.5,2.578,14.4,5.51,14.4,5.51s-2.585-11.985-5.086-14.562a6.5,6.5,0,1,0-9.322,9.045Z" transform="translate(-226.399 -128.165)" fill="#2e5987"/><path d="M409.25,179,197.65,376.153V666.462H620.842V376.153Z" transform="translate(-15.075 -35.508)" fill="url(#a)"/><path d="M617.652,662.788H203.52v-284.1L410.59,185.76,617.652,378.692Z" transform="translate(-16.415 -37.051)" fill="#e8eaf1"/><rect width="412.257" height="283.51" transform="translate(187.391 341.818)" opacity="0.1"/><rect width="61.121" height="61.121" rx="11.85" transform="translate(528.124 115.44) rotate(180)" fill="#2e5987"/><rect width="61.121" height="61.121" rx="11.85" transform="translate(463.299 191.069) rotate(180)" fill="#f4a50f"/><rect width="61.121" height="61.121" rx="11.85" transform="translate(629.992 84.571) rotate(180)" fill="#7ea44b"/><path d="M473.652,552.2H459.391V539.235a9.145,9.145,0,0,0-9.145-9.145H407.415a9.145,9.145,0,0,0-9.145,9.145v42.831a9.145,9.145,0,0,0,9.145,9.145h14.262v12.965a9.145,9.145,0,0,0,9.145,9.145h42.831a9.145,9.145,0,0,0,9.145-9.145V561.345A9.145,9.145,0,0,0,473.652,552.2Z" transform="translate(-138.044 -138.202)" fill="#f4a50f"/><path d="M700.49,521.66H657.659a9.145,9.145,0,0,0-9.145,9.145v20.111H627.1a9.145,9.145,0,0,0-9.145,9.145v20.767H597.835a9.145,9.145,0,0,0-9.145,9.145V632.8a9.145,9.145,0,0,0,9.145,9.145h42.8a9.145,9.145,0,0,0,9.145-9.145V612.045h20.181a9.145,9.145,0,0,0,9.145-9.145V582.789h21.415a9.145,9.145,0,0,0,9.114-9.16V530.8A9.145,9.145,0,0,0,700.49,521.66Z" transform="translate(-181.512 -136.277)" fill="#2e5987"/><path d="M453.972,423.933a8.867,8.867,0,0,0,5.232,4.877c1.034.332,2.13.448,3.187.718,5.039,1.25,8.6,5.6,13.189,8.011a2.539,2.539,0,0,0,1.219.378h.154a1.5,1.5,0,0,0,.286,0,2.439,2.439,0,0,0,1.289-.54l.208-.154a15.435,15.435,0,0,1,.224,6.236c-1.821,0-13.652.725-12.031,14.663,1.752,15.126,19.293,36.271,19.293,36.271s12.27,12.533,8.327,55.31l-.44,20.744s4.715-.71,10.727-1.42q.208.417.424.818a32.289,32.289,0,0,0,6.475,8L521.7,601.6s.857,1.543,2.122,3.982a17.7,17.7,0,0,1-3,9.415c-19.293,5.618-27.173,25.922-27.173,25.922s-10.881,6.521-13.235,13.806c-4.63,3.72-4.283,13.891-4.283,13.891s16.206,8.643,28.052,13.4a19.53,19.53,0,0,0,4.268,1.173l-2.632,5.4h0c-2.747.988-2.948,14.563-2.948,14.563s28.924,20.744,37.691,22.041,16.206-4.754,7.015-9.076c-7.416-3.48-15.682-16.77-18.614-21.809,3.673-5.032,15.249-21.338,15.983-27.883.88-7.779,11.831-14.262,11.831-14.262,15.782-16.855,5.263-36.727,3.944-47.075a4.007,4.007,0,0,0-.093-.641,113.441,113.441,0,0,0-3.712-13.281c1.721-10.874,3.087-27.859,3.928-39.073,3.481,1.119,6.892,2.446,6.892,2.446,6.4-12.988-15.334-66.477-21.608-81.294,3.65-1.2,9.94-3.087,18.961-5.124,15.342-3.457,16.206-11.236,16.206-11.236l11.831-31.973a8.09,8.09,0,0,1-4.36.116v-.864c.093-3.033.378-7.879,1.273-8.759,0,0-2.909,0-6.444-.316v-.432l1.59-19.563s-2.192-21.608-9.639-18.583c-5.981,2.431-5.186,21.84-4.63,29.4a13.118,13.118,0,0,0,1.659,5.5l.5.887.347.61a7.355,7.355,0,0,1-.942-.54v6.691c-.826-.394-1.312-.641-1.312-.641.44,7.347-8.767,31.973-8.767,31.973s-16.206-1.729-21.477,1.729c-3.859,2.539-8.89-2.369-11.306-5.163l11.375-24.68a32.33,32.33,0,0,1-4.036-.988c.054-.3.108-.617.17-.942.571-3.087,1.605-7.463,2.994-8.011a49.177,49.177,0,0,0-6.228-2.855c.054-.247.1-.509.162-.772.818-4.322,2.107-13.66-.509-20.1-3.5-8.643-4.823-25.467-11.4-21.608-5.217,3.087-5.464,21.686-5.348,29.225a12.965,12.965,0,0,0,1.5,5.857l2.531,4.8.347.664-.347.062v5.9c-1.111-.7-1.752-1.15-1.752-1.15-.224,8.3-5.718,19.378-11.09,28.292l-2.732-2.014-.671-.478a1.674,1.674,0,0,1,0-.262s-1.127-.316-2.9-.679a45.68,45.68,0,0,1-4.129-13.444c-.069-.44-.139-.864-.2-1.281a17.433,17.433,0,0,0,1.543-7.154,17.8,17.8,0,0,0-15.01-17.449c.54-.594.772-.772.941-.772h.116a3.286,3.286,0,0,0,1.983-.533c1.343-.656,2.956-1.682,2.948-3.21a3.515,3.515,0,0,0-1.829-2.67c-2.261-1.543-2.315-4.129-4.43-3.936a2.794,2.794,0,0,0-1.2.162c-1.929.633-3.6,1.837-5.479,2.608a12.98,12.98,0,0,1-4.121.942,17.047,17.047,0,0,0-2.7.216,7.926,7.926,0,0,0-2.037.826c-3.959,2.161-8.528,5.448-9.8,9.731-1.188,4.013.455,9.214-2.608,12.1a11.312,11.312,0,0,0-1.543,1.474,5.116,5.116,0,0,0-.772,1.968A11.785,11.785,0,0,0,453.972,423.933ZM534.1,631.721c.17,2.068-.224,3.535-1.435,4.013-6.575,2.593-14.022,26.354-14.022,26.354l-4.985,10.287a132.645,132.645,0,0,1-11.329-9.593l.54-3.727s14.022-10.372,14.9-13.4C518.473,643.227,529.809,634.831,534.1,631.721Z" transform="translate(-150.552 -100.844)" fill="url(#b)"/><path d="M567.861,498.64s29.8,68.985,22.565,83.895c0,0-11.923-4.684-13.629-3.859s-18.738-89-18.738-89Z" transform="translate(-174.519 -128.977)" fill="#727677"/><path d="M567.861,498.64s29.8,68.985,22.565,83.895c0,0-11.923-4.684-13.629-3.859s-18.738-89-18.738-89Z" transform="translate(-174.519 -128.977)" fill="#727677" opacity="0.05"/><path d="M542.611,784.865s10.218,19.162,19.162,23.422,1.706,10.218-6.814,8.944-36.618-21.716-36.618-21.716.193-13.382,2.863-14.354S542.611,784.865,542.611,784.865Z" transform="translate(-165.452 -195.484)" fill="#575988"/><path d="M508.064,743.543S522.541,758.02,528.9,759.3s-5.533,9.793-17.032,5.109-27.25-13.2-27.25-13.2-.424-13.629,6.814-14.9S508.064,743.543,508.064,743.543Z" transform="translate(-157.754 -185.247)" fill="#575988"/><path d="M568.837,591.2s-2.979,51.953-6.814,59.192-18.313,29.38-18.313,29.38-16.608,11.923-17.456,14.9-14.478,13.2-14.478,13.2l-.849,5.958s-22.565-1.281-21.292-8.944,13.2-14.9,13.2-14.9,7.663-20.011,26.4-25.552c0,0,5.958-8.489.849-15.326,0,0-12.772-31.934-20.011-35.77s2.987-25.961,2.987-25.961Z" transform="translate(-158.888 -151.277)" fill="#3c3c3c"/><path d="M533.709,713.128,520.08,741.682c2.13,7.239,22.565,4.684,22.565,4.684s15.759-21.292,16.608-28.955,11.5-14.053,11.5-14.053c15.327-16.608,5.109-36.194,3.859-46.412a4.044,4.044,0,0,0-.093-.633c-1.134-6.853-8.026-26.571-13.382-41.334-3.612-9.948-6.536-17.649-6.536-17.649s-28.554,1.281-34.489,11.5c-2.732,4.677-1.543,9.554.617,13.459a31.709,31.709,0,0,0,6.3,7.887l9.693,23.368s17.032,31.085,10.642,33.64S533.709,713.128,533.709,713.128Z" transform="translate(-165.495 -153.551)" fill="#3c3c3c"/><path d="M603.993,411.545a13.059,13.059,0,0,0,1.613,5.4l.486.88,2.4,4.329h7.663l.162-2.014,1.543-19.293s-2.13-21.292-9.369-18.313C602.681,384.959,603.46,404.09,603.993,411.545Z" transform="translate(-184.922 -104.454)" fill="#f7c4a7"/><path d="M606.82,428.37l2.4,4.329h7.663l.162-2.014C613.48,430.4,609.236,429.713,606.82,428.37Z" transform="translate(-185.65 -114.982)" opacity="0.1"/><path d="M606.07,428.46v9.793l15.759,4.26s0-1.019.046-2.439c.093-2.987.37-7.764,1.235-8.628C623.1,431.439,610.33,431.439,606.07,428.46Z" transform="translate(-185.479 -115.003)" fill="#e6e6f0"/><path d="M606.07,435.9v4.052l15.759,4.26s0-1.019.046-2.439C616.62,440.854,609.049,437.351,606.07,435.9Z" transform="translate(-185.479 -116.701)" opacity="0.1"/><path d="M484.956,451.244c3.087,8.975-.934,13.019-.934,13.019s38.324,2.554,28.955-4.26c-5.472-3.982-7.895-12.757-8.96-19.363a66.03,66.03,0,0,1-.833-8.311s-30.622-.448-24.271,8.088a41,41,0,0,1,6.043,10.827Z" transform="translate(-156.255 -115.885)" fill="#f7c4a7"/><path d="M478.913,440.414c3.087,4.2,4.136,4.816,5.194,7.848a17.12,17.12,0,0,0,2.9.239c7.3,0,14.408-1.5,16.978-7.872a66.031,66.031,0,0,1-.833-8.311S472.554,431.871,478.913,440.414Z" transform="translate(-156.254 -115.882)" opacity="0.1"/><circle cx="17.456" cy="17.456" r="17.456" transform="translate(314.139 298.988)" fill="#f7c4a7"/><path d="M587.92,436.19s16.608,8.489,21.292,6.39l-11.5,31.51s-.849,7.663-15.759,11.074-22.141,6.374-22.141,6.374L532.14,458.748l14.053,3.859s7.239,10.218,12.348,6.814,20.837-1.706,20.837-1.706S588.368,443.429,587.92,436.19Z" transform="translate(-168.603 -116.767)" fill="#727677"/><path d="M587.92,436.19s16.608,8.489,21.292,6.39l-11.5,31.51s-.849,7.663-15.759,11.074-22.141,6.374-22.141,6.374L532.14,458.748l14.053,3.859s7.239,10.218,12.348,6.814,20.837-1.706,20.837-1.706S588.368,443.429,587.92,436.19Z" transform="translate(-168.603 -116.767)" fill="#727677" opacity="0.05"/><path d="M513.19,461.718s-22.511-6.436-24.88,5.518c0,0,10.4-5.07,25.3,3.859,1.119.671,2.215,1.389,3.28,2.138,13.119,9.191,22.272,23.437,25.953,39.559l9.515,41.673.849,11.206s13.629,2.693,16.206-1.343.849-17.48-2.979-21.963-9.816-23.715-9.816-23.715L552.9,507.466a74.779,74.779,0,0,0-14.586-25.575h0l-.9-1.057a55.9,55.9,0,0,0-20.79-15.558C514.472,464.327,512.89,463.13,513.19,461.718Z" transform="translate(-158.597 -122.199)" opacity="0.1"/><path d="M513.19,460.618s-22.511-6.436-24.88,5.518c0,0,10.4-5.07,25.3,3.859,1.119.671,2.215,1.389,3.28,2.138,13.119,9.191,22.272,23.437,25.953,39.559l9.515,41.673.849,11.206s13.629,2.693,16.206-1.343.849-17.48-2.979-21.963-9.793-23.761-9.793-23.761L552.9,506.366a74.78,74.78,0,0,0-14.586-25.575h0l-.9-1.088a55.9,55.9,0,0,0-20.783-15.527C514.472,463.219,512.89,462.061,513.19,460.618Z" transform="translate(-158.597 -121.948)" fill="#e6e6f0"/><path d="M577.092,547.117l-.193,7.331-5.958-3.859s-10.619-38.648-18.1-49.182c-.88-1.242-1.3-3.087-2.13-3.4l-30.445-29.38V461.81s15.543,11.5,16.816,13.629c.54.9,8.713,5.4,13.629,12.348a154.352,154.352,0,0,1,11.707,20.227l10.218,23Z" transform="translate(-165.893 -122.615)" opacity="0.1"/><path d="M520.27,461.29v6.6l30.869,29.6c.818.316,1.25,2.169,2.13,3.4,7.478,10.542,18.1,49.182,18.1,49.182l5.958,3.859.185-7.331-4.437-16.075-10.218-23A154.343,154.343,0,0,0,551.147,487.3c-4.916-6.946-13.119-11.445-13.629-12.348-1.1-1.837-13.119-10.627-16.407-13.019Z" transform="translate(-165.893 -122.497)" fill="#3c3c3c"/><path d="M488.668,405.445c1.351-.664,2.871-1.659,2.863-3.164a3.473,3.473,0,0,0-1.775-2.632c-2.431-1.659-2.246-4.63-5.039-3.72-1.868.625-3.5,1.814-5.325,2.57a12.463,12.463,0,0,1-4.005.926,16.326,16.326,0,0,0-2.624.208,7.638,7.638,0,0,0-1.983.818,17.1,17.1,0,0,0-8.041,10.032c-1.158,3.951-1.042,8.636-4.021,11.476a11.064,11.064,0,0,0-1.482,1.451,5.087,5.087,0,0,0-.772,1.937,11.769,11.769,0,0,0,.586,7.069,8.659,8.659,0,0,0,5.078,4.808c1,.332,2.068.448,3.087.7,4.893,1.235,8.358,5.526,12.811,7.895a2.439,2.439,0,0,0,1.181.37,2.315,2.315,0,0,0,1.25-.532,6.637,6.637,0,0,0,3.087-5.263,10.635,10.635,0,0,0-1.142-3.789,36.737,36.737,0,0,1-2.13-6.861,3.342,3.342,0,0,1-.046-1.659c.324-1.034,1.466-1.544,2.261-2.246,1.543-1.4,1.69-3.781,1.134-5.765a37.859,37.859,0,0,0-2.6-5.6,4.407,4.407,0,0,1-.517-1.814c0-2.493,3.365-3.859,4.785-5.487C487.255,404.967,486.036,406.749,488.668,405.445Z" transform="translate(-151.261 -107.538)" opacity="0.1"/><path d="M488.118,405.445c1.351-.664,2.871-1.659,2.863-3.164a3.473,3.473,0,0,0-1.775-2.632c-2.431-1.659-2.246-4.63-5.039-3.72-1.868.625-3.5,1.814-5.325,2.57a12.465,12.465,0,0,1-4.005.926c-.88.054-3.72-1.289-4.576-1.088a7.641,7.641,0,0,0-1.983.818,17.1,17.1,0,0,0-8.041,10.032c-1.158,3.951-.347,8.9-3.326,11.738-.5.478.178,1.929-.224,2.493a5.086,5.086,0,0,0-.772,1.937,11.768,11.768,0,0,0,.586,7.069,8.659,8.659,0,0,0,5.078,4.808c1,.332,2.068.448,3.087.7,4.893,1.235,8.358,5.526,12.811,7.895a2.439,2.439,0,0,0,1.181.37,2.315,2.315,0,0,0,1.25-.532,6.637,6.637,0,0,0,3.087-5.263,10.633,10.633,0,0,0-1.142-3.789,36.735,36.735,0,0,1-2.13-6.861,3.341,3.341,0,0,1-.046-1.659c.324-1.034,1.466-1.543,2.261-2.246,1.543-1.4,1.69-3.781,1.134-5.765a37.862,37.862,0,0,0-2.6-5.6,4.406,4.406,0,0,1-.517-1.814c0-2.493,3.365-3.859,4.785-5.487C486.706,404.967,485.486,406.749,488.118,405.445Z" transform="translate(-151.136 -107.538)" fill="#b96b6b"/><path d="M520.7,622.257c7.787-.926,17.634-1.829,21.948-1.1,6.946,1.158,16.708-5.039,18.46-6.174-3.612-9.948-6.537-17.649-6.537-17.649s-28.554,1.281-34.488,11.5C517.343,613.482,518.57,618.352,520.7,622.257Z" transform="translate(-165.489 -153.551)" opacity="0.1"/><path d="M473.056,481.763c1.706,14.9,18.738,35.77,18.738,35.77s11.923,12.348,8.088,54.507l-.424,20.435s25.12-3.859,32.791-2.554,18.738-6.39,18.738-6.39,4.26-73.669-14.053-89a108.178,108.178,0,0,0-7.355-10.032c-4.916-5.95-11.576-12.656-17.858-14.308a11.171,11.171,0,0,0-2.462-.378s-19.162-10.642-24.271-2.554C484.98,467.286,471.351,466.861,473.056,481.763Z" transform="translate(-155.082 -123.168)" fill="#727677"/><path d="M558.918,586.46s-6.783-2.971-18.305-2.13S508.64,575,508.64,575" transform="translate(-163.238 -148.454)" opacity="0.1"/><path d="M557.788,712.89s-.424,1.281,5.109,2.979,7.239,3.4,7.239,3.4" transform="translate(-174.456 -179.93)" opacity="0.05"/><rect width="61.121" height="61.121" rx="11.85" transform="translate(369.503 242.505)" fill="#2e5987"/><path d="M535.884,399.167a12.919,12.919,0,0,0,1.459,5.773l2.462,4.731,1.706,3.272,10.642.849s.224-.88.494-2.315c.772-4.26,2.045-13.459-.494-19.81-3.4-8.489-4.684-25.12-11.074-21.292C536.008,373.406,535.768,391.727,535.884,399.167Z" transform="translate(-169.453 -101.614)" fill="#f7c4a7"/><path d="M541,421.2v.131l1.706,3.272,10.642.849s.224-.88.494-2.315C550.006,421.651,545.013,420.3,541,421.2Z" transform="translate(-170.625 -113.28)" opacity="0.1"/><path d="M541,422.3v7.663l15.327,8.088s.177-1.389.5-3.18c.556-3.087,1.543-7.355,2.909-7.887C559.707,426.989,548.632,420.6,541,422.3Z" transform="translate(-170.625 -113.531)" fill="#e6e6f0"/><path d="M484.94,503.314a18.035,18.035,0,0,0,13.768,4.407c26.949-2.74,27.72-12.263,27.72-12.263l4.136-9.16c-4.916-5.95-11.576-12.656-17.858-14.308-4.468,7.2-8.427,12.394-8.427,12.394s-20.011-15.327-25.976-.849C474.815,491.962,480,498.946,484.94,503.314Z" transform="translate(-156.053 -124.939)" opacity="0.05"/><path d="M541,428.47v2.971l15.327,8.088s.177-1.389.5-3.18A70.365,70.365,0,0,1,541,428.47Z" transform="translate(-170.625 -115.005)" opacity="0.1"/><path d="M524.572,428.46s11.5,8.088,21.292,9.793l-20.011,44.282s-.733,9.523-27.69,12.263a18.051,18.051,0,0,1-13.768-4.407c-4.939-4.368-10.133-11.352-6.66-19.779,5.958-14.478,25.976.849,25.976.849S524.14,444.643,524.572,428.46Z" transform="translate(-155.926 -115.003)" fill="#727677"/><path d="M203.52,435.76,410.59,577.812,203.52,719.856Z" transform="translate(-16.415 -94.119)" fill="#e8eaf1"/><path d="M678.9,435.76,471.84,577.812,678.9,719.856Z" transform="translate(-77.665 -94.119)" fill="#e8eaf1"/><path d="M303.52,786.492,502.464,631.707a13.119,13.119,0,0,1,16.245,0L717.652,786.492Z" transform="translate(-116.415 -160.755)" fill="url(#a)"/><path d="M303.52,788.531,502.464,640.514a13.606,13.606,0,0,1,16.245,0L717.652,788.531Z" transform="translate(-116.415 -162.794)" fill="#e8eaf1"/></g></g></svg>