<svg xmlns="http://www.w3.org/2000/svg" xmlns:xlink="http://www.w3.org/1999/xlink" width="594.672" height="450.618" viewBox="0 0 594.672 450.618"><defs><linearGradient id="a" y1="0.5" x2="1" y2="0.5" gradientUnits="objectBoundingBox"><stop offset="0" stop-color="#dadada"/><stop offset="1" stop-color="#fff"/></linearGradient></defs><rect width="16.475" height="21.183" transform="translate(76.332 80.941) rotate(-177.779)" fill="#f4a50f"/><path d="M361.218,312.307s22.8-10.893,22.434-1.485-22.981,15.6-22.981,15.6Z" transform="translate(-226.263 -179.039)" fill="#ffb9b9"/><path d="M298.742,425.818s10.756,26.326,14.73,45.324,10.026,45.141,2.241,63.683-29.919,73.035-30.147,78.914,1.9,11.85-2.808,11.668-30.3-8.241-31.34-11.815,8.733-12.616,8.733-12.616l24.131-75.615L259.106,476.1l-18.16,73.491-3.557,91.723s-17.457-5.388-19.991-.775c0,0-7.821-10.9-8.815-15.652s3.694-95.25,3.694-95.25-16.024-103.081-3.088-102.579S272.79,396.547,298.742,425.818Z" transform="translate(-176.295 -212.953)" fill="#2f2e41"/><path d="M302.8,714.193s11.932,26.372,13.062,27.594,8.906,13.3,3.026,13.072-19.763-6.655-29.981-16.473-23.691-26.828-22.47-27.958,9.59-4.339,9.59-4.339Z" transform="translate(-196.157 -306.442)" fill="#2f2e41"/><path d="M239.312,738.5s.72,11.8,2.889,16.6,1.9,11.851-3.984,11.623-21.076-3.173-21.076-3.173-.9-7.1.319-8.232,6.427-13.883,4.212-17.5S239.312,738.5,239.312,738.5Z" transform="translate(-180.342 -316.107)" fill="#2f2e41"/><path d="M228.42,176.768S215.885,196.3,211,200.825s8.86,14.476,8.86,14.476l24.6,3.309s-.31-22.388.958-24.695S228.42,176.768,228.42,176.768Z" transform="translate(-178.148 -137.468)" fill="#ffb9b9"/><path d="M246.031,211.792s-5.069,9.225-9.772,9.043-29.033-10.547-30.073-14.121-8.059,25.6-8.059,25.6L257.66,337.079l14.522-10.036-7.036-61.513-5.779-33.2Z" transform="translate(-174.375 -146.93)" fill="#f4a50f"/><path d="M195.27,302.236a32.945,32.945,0,0,1,3.652,15.452c-.009.235-.018.47-.039.705-.563,10.884-4.573,23.471-6.011,32.625-1.044,6.566-.747,11.359,3.1,12.486,9.316,2.717-1.358,4.658,34.685,16.655s42.333,1.642,42.425-.71-5.1-20.219-3.883-21.349,17.092,14.8,21.887,12.626.547-14.111.547-14.111-10.8-25.151-10.574-31.03-16.362-33.61-16.362-33.61l-11.284-73.455s-4.339-9.59-10.173-10.994a14.452,14.452,0,0,0-10.675,1.941l9.763,21.577,10.3,38.086L250.9,283.2s-11.978-25.2-19.844-34.923-24.639-32.753-24.639-32.753-3.916-13.213-.96-17.161-12.331-4.553-18.849,11.682c-3.455,8.6-9.063,21.436-12.577,33.383-3.131,10.584-4.61,20.478-1.508,26.134C177.265,278.2,189.191,289.552,195.27,302.236Z" transform="translate(-165.655 -143.612)" fill="#2e5987"/><path d="M172.524,290.417c4.741,8.64,16.666,20,22.746,32.68,1.588-5.721,3.525-11.64,3.525-11.64s7.43-39.754-14.548-50.027a14.709,14.709,0,0,0-10.215,2.854C170.9,274.867,169.422,284.762,172.524,290.417Z" transform="translate(-165.655 -164.472)" opacity="0.1"/><path d="M300.632,300.362l18.632,5.433,25.87,1,2.661,22.479L305.28,332.34S294.661,302.486,300.632,300.362Z" transform="translate(-206.516 -176.923)" fill="#2e5987"/><path d="M252.854,411.388s24.927,4.136,19.237,11.637-27.771-.385-27.771-.385Z" transform="translate(-189.121 -212.365)" fill="#ffb9b9"/><path d="M209.228,375.78c-.563,10.884-4.573,23.471-6.011,32.625,7.941,7.515,15.492,14.144,18.337,14.255,5.88.228,15.333-.583,18.815.73s5.525-20.984,5.525-20.984-2.078-7.147-11.349-11.039C228.288,388.731,216.293,381.589,209.228,375.78Z" transform="translate(-175.999 -200.998)" opacity="0.1"/><path d="M182.1,251.06s-19.9-3.127-18.825,29.89-2.1,54.093,5.906,60.292,34,34.294,39.881,34.522,15.333-.583,18.815.73,5.525-20.984,5.525-20.984-2.078-7.147-11.349-11.039-31.112-17.694-30.929-22.4,5.525-20.984,5.525-20.984S204.081,261.334,182.1,251.06Z" transform="translate(-163.236 -161.159)" fill="#2e5987"/><circle cx="25.89" cy="25.89" r="25.89" transform="translate(41.929 16.447)" fill="#ffb9b9"/><path d="M266.424,124.268a5,5,0,0,0,2.177,1.092,1.553,1.553,0,0,0,1.8-1.247,6.454,6.454,0,0,0,2.47,3.168c1.209.63,3.079.1,3.254-1.251a5.708,5.708,0,0,0,1.314,2.773,1.968,1.968,0,0,0,2.766.092c-.53,2.894-.2,5.871-.369,8.809s-.95,6.052-3.169,7.984c-3.237,2.817-8.1,2.122-12.362,1.588a3.752,3.752,0,0,0-1.937.106c-1.594.679-1.522,2.9-1.543,4.631a12.868,12.868,0,0,1-11.268,12.22,6.451,6.451,0,0,1-4.794-1.17c-1.209-1.025-1.826-2.695-3.212-3.465-2.253-1.252-4.986.574-6.634,2.557s-3.271,4.422-5.823,4.785c-3.375.48-5.946-2.96-7.208-6.127a35.72,35.72,0,0,1,.71-27.755C229.642,117.695,253.718,115.265,266.424,124.268Z" transform="translate(-181.172 -119.039)" fill="#2f2e41"/><path d="M194.425,85.877,656.738,8.825V236.312L194.425,250.989Z" transform="translate(-62.066 -2.817)" fill="#f4a50f"/><path d="M468.752,329.972c0-25.85-11.617-45.214-25.684-43.287-13.783,1.888-24.754,23.587-24.754,48.5s10.971,44.345,24.754,43.383C457.135,377.587,468.752,355.821,468.752,329.972Z" transform="translate(-244.665 -172.514)" fill="#fff"/><path d="M657.65,155.518,381.182,186.17V169L657.65,135.028Z" transform="translate(-121.684 -43.105)" fill="url(#a)"/><path d="M657.65,220.195,381.182,250.847V233.681L657.65,199.7Z" transform="translate(-121.684 -63.751)" fill="url(#a)"/><path d="M258.7,227.585l10.2-1.57,10.2,10.2,11.77-21.971h12.555l-24.325,30.6Z" transform="translate(-82.585 -68.393)" fill="#f4a50f"/><path d="M258.7,227.585l10.2-1.57,10.2,10.2,11.77-21.971h12.555l-24.325,30.6Z" transform="translate(-82.585 -68.393)" opacity="0.2"/></svg>