<?xml version="1.0" encoding="utf-8"?>
<!-- Generator: Adobe Illustrator 23.0.6, SVG Export Plug-In . SVG Version: 6.00 Build 0)  -->
<svg version="1.1" id="Layer_1" xmlns="http://www.w3.org/2000/svg" xmlns:xlink="http://www.w3.org/1999/xlink" x="0px" y="0px"
	 viewBox="0 0 902.2 585.6" style="enable-background:new 0 0 902.2 585.6;" xml:space="preserve">
<style type="text/css">
	.st0{opacity:3.900000e-02;fill:#2E5987;enable-background:new    ;}
	.st1{fill:#F2F2F2;stroke:#FFFFFF;}
	.st2{fill:#FFFFFF;}
	.st3{fill:#F2F2F2;}
	.st4{fill:#F4A50F;}
	.st5{fill:#2F2E41;}
	.st6{fill:#A0616A;}
	.st7{fill:#2E5987;}
	.st8{fill:#7EA44B;}
	.st9{fill:#3F3D56;}
</style>
<g transform="translate(-1020.2 -3320)">
	<path class="st0" d="M1247.4,3595c236.4,5.8,19.9-8.5,309-171.9c144.9-81.9,271.6-104.8,364.6-96.5c-1.1,4,3.7,496.6,0,496.5
		c-99.8,41.9-234.2,77.9-364.6,78c-253.3,0.2-62.6-135.8-357.1-38.7S1011.1,3589.1,1247.4,3595z"/>
	<g transform="translate(1093.996 3319.92)">
		<rect x="501.7" y="323.1" class="st1" width="1.5" height="104.1"/>
		<rect x="501.7" y="209.3" class="st1" width="1.5" height="104.1"/>
		<rect x="501.7" y="65" class="st1" width="1.5" height="104.1"/>
		
			<ellipse transform="matrix(0.1602 -0.9871 0.9871 0.1602 103.0804 767.3566)" class="st2" cx="502.5" cy="323.1" rx="18.6" ry="18.6"/>
		<circle class="st2" cx="502.5" cy="198.9" r="35"/>
		
			<ellipse transform="matrix(0.2298 -0.9732 0.9732 0.2298 323.788 539.1237)" class="st3" cx="502.5" cy="65" rx="46.9" ry="46.9"/>
		<circle class="st4" cx="483.9" cy="44.2" r="7.4"/>
		<circle class="st4" cx="513.6" cy="60.6" r="4.5"/>
		<circle class="st4" cx="502.5" cy="84.3" r="4.5"/>
		<path class="st4" d="M290.3,503.1c-42.9,0-85.4-8.4-125.1-24.6C29.6,423.2-35.6,268.5,19.6,132.8c0.1-0.1,0.1-0.3,0.2-0.4
			C64,23.7,188.1-28.4,296.7,15.9c87,35.5,128.8,134.8,93.3,221.8c-28.4,69.7-108,103.2-177.6,74.7l0,0
			c-55.8-22.8-82.6-86.5-59.9-142.3l0,0c18.3-44.7,69.3-66.2,114-48c35.8,14.7,53,55.6,38.5,91.4c-11.7,28.8-44.6,42.6-73.3,30.9
			l0,0c-23.1-9.4-34.2-35.8-24.8-58.9l0,0c7.6-18.5,28.7-27.4,47.3-19.9c14.9,6.1,22.1,23.1,16,38c-4.9,12-18.6,17.8-30.6,12.9
			c-9.7-4-14.3-15-10.4-24.7c3.2-7.8,12.1-11.6,19.9-8.4c6.3,2.6,9.4,9.8,6.8,16.1c-2.1,5.1-8,7.6-13.1,5.5
			c-4.2-1.7-6.2-6.5-4.5-10.7c1.4-3.4,5.3-5.1,8.7-3.7c2.8,1.2,4.2,4.4,3,7.2c-1,2.3-3.6,3.4-5.9,2.5c-1.9-0.8-2.9-3-2.1-4.9
			c0.7-1.6,2.5-2.4,4.2-1.7l0,0c1.4,0.6,2,2.1,1.5,3.5c-0.5,1.2-1.8,1.7-3,1.3l0,0c-1-0.4-1.5-1.6-1.1-2.6l0,0
			c0.1-0.2,0.2-0.4,0.4-0.6c-0.2,0.2-0.4,0.4-0.5,0.7c-0.5,1.2,0.1,2.5,1.3,3c1.6,0.6,3.4-0.1,4-1.7c0.8-2.1-0.2-4.4-2.2-5.2
			c-2.7-1.1-5.7,0.2-6.8,2.9c-1.4,3.4,0.3,7.3,3.7,8.7c4.4,1.8,9.4-0.3,11.2-4.7c2.3-5.6-0.4-11.9-6-14.2c-7.1-2.9-15.1,0.5-18,7.6
			c-3.6,8.9,0.6,19.1,9.6,22.7c11.2,4.6,24.1-0.8,28.7-12.1c5.8-14.2-1-30.3-15.2-36.1c-17.8-7.2-38.1,1.3-45.3,19.1
			c-9.1,22.3,1.6,47.8,23.9,56.9l0,0c28,11.4,60-2,71.4-30l0,0c14.3-35.1-2.6-75.1-37.6-89.5c-44-17.9-94.1,3.2-112.1,47.2
			c-22.5,55.1,4,117.9,59.1,140.4c68.9,28.1,147.6-5,175.7-73.9c35.2-86.3-6.2-184.7-92.5-219.9l0,0C188.4-26.7,65,25.2,21.1,133
			c-55,134.8,10,289.1,144.8,344.1c168.6,68.7,361.6-12.5,430.4-181l1.4,0.6c-50.5,123.3-169.8,204.6-303,206.4
			C293.2,503.1,291.8,503.1,290.3,503.1z M245.2,196.4h-0.1c-0.1,0-0.1,0.1-0.1,0.1c-0.1,0.3,0,0.6,0.3,0.7l0,0
			c0.4,0.2,0.9,0,1.1-0.4c0.2-0.6,0-1.2-0.5-1.5L245.2,196.4C245.3,196.4,245.3,196.4,245.2,196.4z"/>
		<circle class="st5" cx="364.1" cy="173.2" r="36.8"/>
		<path class="st6" d="M404.7,283.3l4.5,14.1l-58,8.9l0.7-14.9L404.7,283.3z"/>
		<path class="st6" d="M337,393.3l-2.2,45.4c0,0-12.6,23.1-11.2,55.8s0.7,33.5,0.7,33.5l-0.7,11.9l11.9,1.5v-15.6
			c0,0,17.1-43.1,18.6-64.7l17.1-64.7L337,393.3z"/>
		<path class="st6" d="M421,393.3l2.2,45.4c0,0,12.6,23.1,11.2,55.8s-0.7,33.5-0.7,33.5l0.7,11.9l-11.9,1.5v-15.6
			c0,0-17.1-43.1-18.6-64.7l-17.1-64.7L421,393.3z"/>
		<path class="st7" d="M409.1,292.9c0,0-53.5,8.2-61.7,5.9l-26.8,93c17.4,6.1,35.9,8.4,54.3,6.7c6.1-1.2,12.4-0.1,17.8,3
			c8.9,5.2,35.7-8.9,35.7-8.9l18.6-3.7L409.1,292.9z"/>
		<rect x="369.3" y="303" class="st4" width="59.5" height="67.7"/>
		<rect x="360.4" y="310.4" class="st3" width="59.5" height="67.7"/>
		<path class="st6" d="M325.1,247.6l-0.7,10.4l13.4,46.1c0,0,5.2,32.7,15.6,52.1c0,0,5.9,29.7,17.1,26s-5.2-32.7-5.2-32.7
			l-11.9-44.6l-14.1-58.8L325.1,247.6z"/>
		<circle class="st6" cx="367.1" cy="186.2" r="22.3"/>
		<path class="st6" d="M354.1,199.2c0,0,6.7,20.1-6.7,23.8s-26.8,11.9-23.8,25.3l1.5,3l93-22.3c-4.2-6.9-12.1-10.7-20.1-9.7
			c0,0-20.7-0.5-19.3-14l-2.3-5.3L354.1,199.2z"/>
		<path class="st6" d="M415.1,227.5c0,0,3.7,0,13.4,12.6c5.1,6.8,10.5,13.2,16.4,19.3c0,0,8.9,4.5,3.7,14.9s-23.8,20.8-23.8,20.8
			s-18.6,22.3-20.8,11.2s15.6-17.1,15.6-17.1s13.4-12.6,12.6-20.1l-30.5-25.3L415.1,227.5z"/>
		<path class="st8" d="M322.1,246.1c0,0,92.2-21.6,94.4-21.6l4.7,7.2c0,0-1,5.4-12.1,6.9c1.2,7.5,0.4,15.2-2.2,22.3v27.5
			c0,0-52.1,5.9-56.5,10.4l-8-39.7c0,0-10.6-6.4-18-1.2C324.4,258,321.4,248.3,322.1,246.1z"/>
		<path class="st5" d="M337,538.4c0,0-7.7-9.4-13.2-2.1l-6.9,14c0,0-19.3,32.7,0.7,35s21.6-5.2,21.6-5.2s-1.5-8.9,0-10.4
			s3-2.2,3-5.2S337,538.4,337,538.4z"/>
		<path class="st5" d="M421,538.4c0,0,7.7-9.4,13.2-2.1l6.9,14c0,0,19.3,32.7-0.7,35s-21.6-5.2-21.6-5.2s1.5-8.9,0-10.4
			s-3-2.2-3-5.2S421,538.4,421,538.4z"/>
		<circle class="st5" cx="330.4" cy="146.6" r="11"/>
		<circle class="st5" cx="397.8" cy="143.4" r="11"/>
		<path class="st5" d="M386,138.7c0-5.6,4.2-10.3,9.8-10.9c-6-0.7-11.4,3.7-12.1,9.7s3.7,11.4,9.7,12.1c0.8,0.1,1.6,0.1,2.4,0
			C390.3,149,386,144.3,386,138.7L386,138.7z"/>
		<path class="st5" d="M318.1,155.4c-3.9-4-4.2-10.3-0.6-14.6c-4.8,3.7-5.6,10.6-1.8,15.4c3.7,4.8,10.6,5.6,15.4,1.8
			c0.6-0.5,1.2-1.1,1.7-1.7C328.3,159.8,322,159.4,318.1,155.4z"/>
		<path class="st5" d="M364.1,156c-13,0-23.5,6.1-23.5,13.7c0,3.4,2.1,6.5,5.6,8.9l4.5-3.3l-1.2,5.1c0.5,0.2,1,0.5,1.6,0.7l6.8-7.9
			v9.7c2.1,0.3,4.2,0.5,6.3,0.5c13,0,23.5-6.1,23.5-13.7S377.1,156,364.1,156z"/>
		<path class="st4" d="M386.8,143.4c0,0-1.7,7.8,8.9,11"/>
		<path class="st4" d="M340.6,144.8c0,0,3.9,8.8-7.8,12.7"/>
		
			<ellipse transform="matrix(0.963 -0.2696 0.2696 0.963 -38.6266 100.1269)" class="st6" cx="345.2" cy="190.7" rx="1.9" ry="4.5"/>
		
			<ellipse transform="matrix(6.146723e-02 -0.9981 0.9981 6.146723e-02 179.2346 564.5631)" class="st6" cx="389.8" cy="187" rx="4.5" ry="1.9"/>
		<rect x="582.8" y="221.2" class="st7" width="59.5" height="67.7"/>
		<rect x="152.2" y="88.1" class="st4" width="59.5" height="67.7"/>
		<path class="st9" d="M636.3,297.1h-61v-69.2h61V297.1z M576.8,295.5h58v-66.2h-58V295.5z"/>
		<rect x="162.6" y="100" class="st3" width="38.7" height="4.5"/>
		<rect x="162.6" y="112.6" class="st3" width="38.7" height="4.5"/>
		<rect x="162.6" y="125.3" class="st3" width="38.7" height="4.5"/>
		<path class="st9" d="M222.8,146.8h-61V77.6h61V146.8z M163.3,145.3h58V79.1h-58V145.3z"/>
		<rect x="16.8" y="340.2" class="st3" width="59.5" height="67.7"/>
		<rect x="27.3" y="355.8" class="st7" width="38.7" height="32.7"/>
		<path class="st9" d="M87.5,398.9h-61v-69.2h61V398.9z M28,397.4h58v-66.2H28V397.4z"/>
		<circle class="st4" cx="46.6" cy="372.2" r="8.9"/>
	</g>
</g>
</svg>
