<svg xmlns="http://www.w3.org/2000/svg" width="759.549" height="564.952" viewBox="0 0 759.549 564.952"><g transform="translate(0)"><circle cx="32.707" cy="32.707" r="32.707" transform="translate(223.161 312.892)" fill="#f4a50f"/><path d="M521.093,578.314c0,42.5-25.268,57.346-56.438,57.346s-56.439-14.841-56.439-57.346,56.439-96.577,56.439-96.577S521.093,535.81,521.093,578.314Z" transform="translate(-167.833 -176.194)" fill="#7ea44b"/><path d="M397.034,567.808l.578-35.572,24.056-44.008L397.7,526.655l.26-15.995,16.579-31.84-16.51,27.607h0l.467-28.768,17.753-25.348-17.68,20.825.292-52.749-1.835,69.831.151-2.881-18.05-27.628,17.76,33.158L395.208,525l-.049-.853L374.35,495.068,395.1,527.155l-.21,4.018-.038.06.017.33L390.6,613.076h5.7l.684-42.1,20.695-32.009Z" transform="translate(-102.268 -114.844)" fill="#3f3d56"/><path d="M934.021,620.581c0,31.557-18.76,42.576-41.9,42.576s-41.9-11.019-41.9-42.576,41.9-71.7,41.9-71.7S934.021,589.024,934.021,620.581Z" transform="translate(-288.581 -194.536)" fill="#7ea44b"/><path d="M821.959,596.979l.429-26.41,17.86-32.674-17.792,28.53.193-11.875,12.309-23.64-12.258,20.5h0l.347-21.358,13.181-18.82L823.1,526.692l.217-39.163-1.362,51.845.112-2.138-13.4-20.512,13.186,24.618L820.6,565.194l-.037-.633-15.449-21.586,15.4,23.823-.156,2.983-.028.045.013.245-3.168,60.518h4.233l.507-31.259,15.364-23.764Z" transform="translate(-219.947 -133.186)" fill="#3f3d56"/><ellipse cx="56.641" cy="2.863" rx="56.641" ry="2.863" transform="translate(552.508 531.606)" fill="#727677"/><ellipse cx="56.641" cy="2.863" rx="56.641" ry="2.863" transform="translate(347.547 559.225)" fill="#727677"/><ellipse cx="129.404" cy="6.541" rx="129.404" ry="6.541" transform="translate(119.285 532.39)" fill="#727677"/><path d="M613.765,328.163s-24.372,20.82-26.14,25.754-23.539,29.255-25.873,30.988-28.74,22.253-21.355,28.538S568.1,394.674,568.1,394.674s34.158-30.8,38.109-36.455,17.521-16.636,17.521-16.636Z" transform="translate(-203.588 -134.24)" fill="#a0616a"/><path d="M613.765,328.163s-24.372,20.82-26.14,25.754-23.539,29.255-25.873,30.988-28.74,22.253-21.355,28.538S568.1,394.674,568.1,394.674s34.158-30.8,38.109-36.455,17.521-16.636,17.521-16.636Z" transform="translate(-203.588 -134.24)" opacity="0.1"/><path d="M633.345,511.437s-1.454,23.258-3.634,27.619-1.454,12.356-.727,13.083,30.526,11.629,37.794,18.17,29.072,18.9,31.253,18.9,11.629,33.433,11.629,33.433l-34.887-26.165s-13.083-8-16.717-8-45.062-17.443-49.423-18.17,6.541-63.96,6.541-63.96Z" transform="translate(-222.303 -182.918)" fill="#a0616a"/><path d="M633.345,511.437s-1.454,23.258-3.634,27.619-1.454,12.356-.727,13.083,30.526,11.629,37.794,18.17,29.072,18.9,31.253,18.9,11.629,33.433,11.629,33.433l-34.887-26.165s-13.083-8-16.717-8-45.062-17.443-49.423-18.17,6.541-63.96,6.541-63.96Z" transform="translate(-222.303 -182.918)" opacity="0.1"/><path d="M581.015,512.328l-8,50.877,9.449,29.073s7.995,36.341,9.449,42.155,0,54.511,0,54.511,13.083-.727,13.809-1.454,10.9-34.887,10.9-34.887-7.995-4.361-6.541-18.9-4.462-54.928-6.955-61.261,4.775-41.22,16.4-55.029S581.015,512.328,581.015,512.328Z" transform="translate(-212.855 -183.809)" fill="#a0616a"/><path d="M615.171,706.459s-5.815,29.8-21.8,33.433c0,0-11.629,5.814-9.449,8.722s22.531,1.454,24.712,0,10.175-22.531,10.175-22.531l4.361,15.99,8.722-5.088-3.634-21.078S621.712,697.737,615.171,706.459Z" transform="translate(-215.758 -236.938)" fill="#2f2e41"/><path d="M593.439,403.8V438.69s-15.263,46.516-11.629,47.97,40.7,8.722,42.882,5.088,20.351,1.454,23.258-2.18,0-52.331-2.18-58.145-4.361-29.072-4.361-29.072Z" transform="translate(-215.103 -154.507)" fill="#2f2e41"/><circle cx="23.258" cy="23.258" r="23.258" transform="translate(387.058 102.48)" fill="#a0616a"/><path d="M625.935,251.988s7.268,22.531-.727,25.438,8.722,15.263,9.448,15.263,15.263-15.263,15.263-15.263l5.815-11.629s-7.268-12.356-3.634-20.351S625.935,251.988,625.935,251.988Z" transform="translate(-226.522 -110.987)" fill="#a0616a"/><path d="M645.824,269.349A66.749,66.749,0,0,1,634.2,279.525c-6.541,4.361-17.444,8.722-17.444,6.541s2.907-5.088,0-5.088-10.9,6.541-10.9,7.995-5.088,15.263-9.448,17.444-8.722,16.717-8.722,21.8-3.634,39.248,3.634,41.428,11.629,5.088,16.717,2.907,7.995-5.088,14.536-3.634,16.717-2.18,20.351.727,10.9,1.454,12.356-.727,9.449-81.4,6.541-82.857-9.449-8.722-10.9-10.9a54.563,54.563,0,0,0-5.088-5.815Z" transform="translate(-216.611 -118.173)" fill="#2e5987"/><path d="M726.021,618.649s15.263,28.346,12.356,32.707-4.361,15.263-2.18,15.263,19.624-13.809,15.99-21.078-8.722-18.17-8.722-18.17l15.99,5.088,2.907-9.449-20.351-8.722S729.654,612.835,726.021,618.649Z" transform="translate(-254.653 -212.361)" fill="#2f2e41"/><path d="M670.021,365.349s2.18,31.98,5.088,36.341,9.449,36.341,9.449,39.248.727,36.341,10.175,34.16,1.454-33.433,1.454-33.433-4.361-45.789-6.541-52.331-2.907-23.985-2.907-23.985Z" transform="translate(-239.354 -144.399)" fill="#a0616a"/><path d="M689,243.961c-4.716-7.1-8.61-18.518-12.812-28.575-1.362-3.259-2.606-6.561-3.824-9.877-2.455-6.683-13.145-15.309-27.144-15.309-16,0-28.972,8.052-28.972,14.808,0,5.586,8.87,10.293,20.985,11.758-4.256,9.5-6.82,20.044-6.82,27.194,0,16.179,13.115,9.336,29.294,9.336S697.955,257.438,689,243.961Z" transform="translate(-224.665 -96.551)" fill="#2f2e41"/><path d="M670.383,293.8s-15.263,26.892-14.536,37.794-2.907,21.8,2.907,21.8,24.712,0,26.165-2.907.727-37.067,0-41.428-3.634-16.717-3.634-16.717Z" transform="translate(-235.355 -124.456)" fill="#7ea44b"/><path d="M685.041,399.521H898V290.5" transform="translate(-187.144 -79.361)" fill="none" stroke="#2e5987" stroke-miterlimit="10" stroke-width="2"/><path d="M317,166.5H104.041V275.521" transform="translate(-28.423 -45.485)" fill="none" stroke="#2e5987" stroke-miterlimit="10" stroke-width="2"/><path d="M1085.467,176.71l-57.906-7.3c-2.625-21.831,1.34-43.145,8.11-64.34l57.906,7.3A119.084,119.084,0,0,0,1085.467,176.71Z" transform="translate(-336.806 -73.294)" fill="#f2f2f2"/><rect width="35.667" height="3.832" transform="matrix(0.992, 0.125, -0.125, 0.992, 706.956, 39.479)" fill="#f4a50f"/><rect width="48.342" height="1.916" transform="matrix(0.992, 0.125, -0.125, 0.992, 698.776, 47.807)" fill="#f4a50f" opacity="0.3"/><rect width="48.342" height="1.916" transform="matrix(0.992, 0.125, -0.125, 0.992, 698.002, 53.948)" fill="#f4a50f" opacity="0.3"/><rect width="48.342" height="1.916" transform="matrix(0.992, 0.125, -0.125, 0.992, 697.228, 60.09)" fill="#f4a50f" opacity="0.3"/><rect width="48.342" height="1.916" transform="matrix(0.992, 0.125, -0.125, 0.992, 696.454, 66.231)" fill="#f4a50f" opacity="0.3"/><rect width="48.342" height="1.916" transform="matrix(0.992, 0.125, -0.125, 0.992, 695.679, 72.373)" fill="#f4a50f" opacity="0.3"/><rect width="48.342" height="1.916" transform="matrix(0.992, 0.125, -0.125, 0.992, 694.905, 78.515)" fill="#f4a50f" opacity="0.3"/><rect width="48.342" height="1.916" transform="matrix(0.992, 0.125, -0.125, 0.992, 694.131, 84.656)" fill="#f4a50f" opacity="0.3"/><path d="M1049.447,143.259l-54.175-21.714c2.985-21.785,12.214-41.4,24.127-60.194l54.175,21.714a119.085,119.085,0,0,0-24.127,60.194Z" transform="translate(-328.209 -61.35)" fill="#e6e6e6"/><rect width="35.667" height="3.832" transform="translate(697.072 9.499) rotate(21.841)" fill="#f4a50f"/><rect width="48.342" height="1.916" transform="translate(687.051 15.485) rotate(21.841)" fill="#f4a50f" opacity="0.3"/><rect width="48.342" height="1.916" transform="translate(684.748 21.231) rotate(21.841)" fill="#f4a50f" opacity="0.3"/><rect width="48.342" height="1.916" transform="translate(682.445 26.977) rotate(21.841)" fill="#f4a50f" opacity="0.3"/><rect width="48.342" height="1.916" transform="translate(680.142 32.723) rotate(21.841)" fill="#f4a50f" opacity="0.3"/><rect width="48.342" height="1.916" transform="translate(677.839 38.469) rotate(21.841)" fill="#f4a50f" opacity="0.3"/><rect width="48.342" height="1.916" transform="translate(675.536 44.215) rotate(21.841)" fill="#f4a50f" opacity="0.3"/><rect width="48.342" height="1.916" transform="translate(673.233 49.961) rotate(21.841)" fill="#f4a50f" opacity="0.3"/><path d="M1028.109,156.866H969.744c-5.334-21.332-4.066-42.974,0-64.85h58.365a119.086,119.086,0,0,0,0,64.85Z" transform="translate(-320.267 -69.728)" fill="#f2f2f2"/><rect width="35.667" height="3.832" transform="translate(658.467 28.921)" fill="#f4a50f"/><rect width="48.342" height="1.916" transform="translate(651.393 38.206)" fill="#f4a50f" opacity="0.3"/><rect width="48.342" height="1.916" transform="translate(651.393 44.396)" fill="#f4a50f" opacity="0.3"/><rect width="48.342" height="1.916" transform="translate(651.393 50.587)" fill="#f4a50f" opacity="0.3"/><rect width="48.342" height="1.916" transform="translate(651.393 56.777)" fill="#f4a50f" opacity="0.3"/><rect width="48.342" height="1.916" transform="translate(651.393 62.967)" fill="#f4a50f" opacity="0.3"/><rect width="48.342" height="1.916" transform="translate(651.393 69.157)" fill="#f4a50f" opacity="0.3"/><rect width="48.342" height="1.916" transform="translate(651.393 75.347)" fill="#f4a50f" opacity="0.3"/><path d="M984,157.12l-20.107-15.632a2.3,2.3,0,0,0-1.99-1.151H951.052a2.3,2.3,0,0,0-2.3,2.3v95.784a7.445,7.445,0,0,0,7.445,7.445h111.4a7.445,7.445,0,0,0,7.445-7.445V163.887a6.767,6.767,0,0,0-6.767-6.767Z" transform="translate(-315.501 -82.928)" fill="#2e5987"/><rect width="20.207" height="7.072" transform="translate(735.553 96.405)" fill="#f4a50f"/><path d="M213.772,579.738H92.67A14.974,14.974,0,0,1,77.7,564.764V509.281a5.932,5.932,0,0,1,1.851-4.305l64.172-60.83a13.811,13.811,0,0,1,19,0l61.185,58a15.506,15.506,0,0,1,4.838,11.253v51.367a14.974,14.974,0,0,1-14.974,14.974Z" transform="translate(-77.539 -164.89)" fill="#3c3c3c"/><path d="M.216,475.091H150.007v48.663a20.883,20.883,0,0,1-20.883,20.883H21.1A20.883,20.883,0,0,1,.216,523.753Z" transform="translate(-0.059 -129.789)" opacity="0.1"/><path d="M77.48,531.461" transform="translate(-77.48 -189.778)" fill="none" stroke="#3f3d56" stroke-miterlimit="10" stroke-width="1"/><rect width="111.399" height="111.399" rx="11.336" transform="translate(19.825 297.627)" fill="#f4a50f"/><path d="M138.676,478.533v61.222H27.277V478.533l55.7,26.921Z" transform="translate(-7.452 -130.729)" opacity="0.1"/><path d="M153,568.612,81.635,534.117a2.9,2.9,0,0,0-4.156,2.607v59.35a9.042,9.042,0,0,0,9.042,9.042H219.487a9.042,9.042,0,0,0,9.042-9.042V537.74a3.534,3.534,0,0,0-5.071-3.181Z" transform="translate(-77.48 -190.425)" fill="#2e5987"/><rect width="31.154" height="4.406" transform="translate(29.423 307.854)" fill="#f2f2f2"/><rect width="92.518" height="2.517" transform="translate(26.906 323.903)" fill="#f2f2f2"/><rect width="92.518" height="2.517" transform="translate(26.906 332.4)" fill="#f2f2f2"/><rect width="92.518" height="2.517" transform="translate(26.906 340.896)" fill="#f2f2f2"/><ellipse cx="12.902" cy="12.926" rx="12.902" ry="12.926" transform="translate(11.486 286.456)" fill="#fff"/><path d="M105.239,452.445a15.42,15.42,0,1,0,15.42,15.42A15.42,15.42,0,0,0,105.239,452.445Zm-3.165,23.641-7.9-7.9,2.217-2.217,5.693,5.693L114.1,459.643l2.217,2.217-14.241,14.226Z" transform="translate(-80.851 -168.192)" fill="#57b894"/></g></svg>