<?xml version="1.0" encoding="utf-8"?>
<!-- Generator: Adobe Illustrator 23.0.6, SVG Export Plug-In . SVG Version: 6.00 Build 0)  -->
<svg version="1.1" id="Layer_1" xmlns="http://www.w3.org/2000/svg" xmlns:xlink="http://www.w3.org/1999/xlink" x="0px" y="0px"
	 viewBox="0 0 612 356.6" style="enable-background:new 0 0 612 356.6;" xml:space="preserve">
<style type="text/css">
	.st0{opacity:8.200000e-02;fill:#2E5987;enable-background:new    ;}
	.st1{fill:#F4A50F;}
	.st2{opacity:0.1;enable-background:new    ;}
	.st3{fill:#7EA44B;}
	.st4{fill:#FFFFFF;}
	.st5{fill:#2F2E41;}
	.st6{fill:#F2F2F2;}
	.st7{fill:#A0616A;}
	.st8{fill:#D0CDE1;}
	.st9{fill:#FFB9B9;}
	.st10{fill:#2E5987;}
	.st11{opacity:5.000000e-02;enable-background:new    ;}
	.st12{fill:#3F3D56;}
</style>
<g transform="translate(-1020.2 -4688.392)">
	<g transform="translate(1100 4795)">
		<ellipse class="st0" cx="118.2" cy="66.9" rx="174" ry="173.5"/>
		<path class="st1" d="M532.2,201.8c0,0.4,0,0.8-0.1,1.3c-4.3,26.1-139.6,47-305.9,47s-301.7-20.9-305.9-47
			c-0.1-0.4-0.1-0.8-0.1-1.3c0-0.1,0-0.2,0-0.4c0-0.1,0-0.1,0-0.2c0,0,0,0,0-0.1c0-0.3,0.1-0.5,0.1-0.8
			c1.9-10.7,25.8-20.4,64.7-28.3c31.8-6.4,73.8-11.5,122-14.7c36.6-2.4,76.9-3.8,119.1-3.8c34,0,66.7,0.9,97.3,2.5h0
			c6.4,0.3,12.7,0.7,18.9,1.1c42.5,2.8,80.2,7,110.5,12.2c18.7,3.2,34.6,6.9,47.1,10.8h0c19.3,6.1,30.7,12.9,32,20.1
			c0,0.3,0.1,0.5,0.1,0.8c0,0,0,0,0,0.1c0,0.1,0,0.1,0,0.2C532.2,201.5,532.2,201.7,532.2,201.8z"/>
		<ellipse class="st2" cx="218.7" cy="233.9" rx="98.5" ry="14.5"/>
		<path class="st2" d="M500,180.2c-3.4,1-7.3,1.9-11.5,2.7c-17.5,3.4-41.3,5.6-67.6,5.6c-29.3,0-55.6-2.6-73.5-6.8
			c-14.8-3.5-23.7-8-23.7-12.9c0-4.3,6.9-8.4,18.7-11.6c42.5,2.8,80.2,7,110.5,12.2C471.6,172.6,487.5,176.3,500,180.2z"/>
		<path class="st2" d="M236.9,173.6c0,9-56.5,16.3-126.2,16.3s-126.2-7.3-126.2-16.3c0-0.6,0.2-1.1,0.6-1.6
			c31.8-6.4,73.8-11.5,122-14.7c1.2,0,2.4,0,3.6,0C180.4,157.3,236.9,164.6,236.9,173.6z"/>
		<rect x="168.1" y="92.8" class="st3" width="24.8" height="80.1"/>
		<rect x="86.6" y="55.2" class="st3" width="24.8" height="117.7"/>
		<rect x="5.8" y="55.2" class="st3" width="24.8" height="117.7"/>
		<rect x="46.2" y="55.2" class="st3" width="24.8" height="80.1"/>
		<rect x="127" y="55.2" class="st3" width="24.8" height="23.4"/>
		<rect x="127" y="92.8" class="st4" width="24.8" height="80.1"/>
		<rect x="168.1" y="55.2" class="st3" width="65.2" height="23.4"/>
		<path class="st2" d="M368.7,197.2c0,29-40.4,20-90,20s-89.4,9-89.4-20s40.4-35.3,90-35.3S368.7,168.2,368.7,197.2z"/>
		<path class="st1" d="M368.7,190.1c0,29-40.4,20-90,20s-89.4,9-89.4-20s40.4-35.3,90-35.3S368.7,161.1,368.7,190.1z"/>
		<path class="st5" d="M360.5,138l2,8.4c0,0.1,0,0.2,0,0.3l-9.3,29c-0.1,0.3-0.4,0.4-0.7,0.3c-0.2-0.1-0.3-0.2-0.4-0.4l-1.3-11.3
			c0-0.1,0-0.2,0-0.2l8.5-26.1c0.1-0.3,0.4-0.4,0.7-0.3C360.3,137.7,360.4,137.8,360.5,138L360.5,138z"/>
		<path class="st6" d="M359.7,138.7l1.9,7.2l-8.2,26.4l-1.9-8.2L359.7,138.7z"/>
		<path class="st5" d="M318.5,178c0.3,0.9,32.7-0.3,33-0.6c0.3-0.4,0.5-0.8,0.7-1.3c0.3-0.6,0.6-1.3,0.6-1.3l-1.3-10.2l-32.1-1.1
			c0,0-0.8,8.6-1,12.6C318.4,176.8,318.4,177.4,318.5,178z"/>
		<path class="st2" d="M347.5,166.1l0.6,8.8h-14.2v-8.8H347.5z"/>
		<path class="st2" d="M329.2,168.9L329.2,168.9l-0.3,3.8H321v-3.8H329.2z"/>
		<path class="st2" d="M318.5,178c0.3,0.9,32.7-0.3,33-0.6c0.3-0.4,0.5-0.8,0.7-1.3h-33.7C318.4,176.8,318.4,177.4,318.5,178
			L318.5,178z"/>
		<path class="st5" d="M268.5,145h8.8l21.7-8.5c0,0,15.4-6.3,14.2,5.7s-3.5,28-3.5,28s-6.9-3.1-10.7-2.2s-1.3-19.2-1.3-19.2
			s-30.8,14.8-33.7,12.9s-3.5-15.1-3.5-15.1L268.5,145z"/>
		<path class="st2" d="M268.5,145h8.8l21.7-8.5c0,0,15.4-6.3,14.2,5.7s-3.5,28-3.5,28s-6.9-3.1-10.7-2.2s-1.3-19.2-1.3-19.2
			s-30.8,14.8-33.7,12.9s-3.5-15.1-3.5-15.1L268.5,145z"/>
		<path class="st7" d="M282.4,117.4l10.7,15.3l24.8,20.8c0,0,23,5.3,19.8,9.1s-22.3-3.8-22.3-3.8s-28.6-20.8-29.6-22.3
			s-11.3-16.4-11.3-16.4L282.4,117.4z"/>
		<path class="st2" d="M282.4,117.4l10.7,15.3l24.8,20.8c0,0,23,5.3,19.8,9.1s-22.3-3.8-22.3-3.8s-28.6-20.8-29.6-22.3
			s-11.3-16.4-11.3-16.4L282.4,117.4z"/>
		<circle class="st7" cx="280.8" cy="86.5" r="14.2"/>
		<path class="st7" d="M279.8,99.1c0,0-4.7,8.2-5.7,12.6s-14.2-8.8-14.2-8.8l-1.7-4.6c0,0,12.4-5.8,11.5-10.5S279.8,99.1,279.8,99.1
			z"/>
		<path class="st3" d="M276.1,105l6.9,13.5c0,0-1.6,6.6-4.1,7.2s-13.2-8.2-13.2-8.2L276.1,105z"/>
		<path class="st7" d="M282.3,123.6l12.9,17l30.8,23c0,0,22.3,4.7,17.3,8.2s-19.5-3.1-19.5-3.1s-31.1-16.7-37.7-23.6
			s-18.9-18.6-18.9-18.6L282.3,123.6z"/>
		<path class="st5" d="M265,150l3.8,6l22.5-7.1c4.9-1.6,10.3-0.9,14.7,1.8c3.9,2.5,6.4,6.4,0.8,12.2c-11.3,11.6-18.9,5.3-18.9,5.3
			s-38.1,17.9-44.4,9.1s-6.6-13.2-6.6-13.2S261.3,149.1,265,150z"/>
		<path class="st8" d="M312.2,170.8c0,0,10.1,6.6-1.9,9.8s-20.8-1.3-20.8-1.3s-10.4,0-10.4-5.3s3.5-6,3.5-6l10.7,1.6
			C293.4,169.5,306.3,166.1,312.2,170.8z"/>
		<path class="st5" d="M292.4,82.9c0.9,0.5,1.9,0.9,3,1.1c1.1,0.2,2.1-0.3,2.7-1.2c0.2-0.5,0.3-1.1,0.3-1.7c0-1.7-0.1-3.6-1.2-4.9
			c-0.7-0.9-1.7-1.4-2.4-2.2c-0.5-0.6-0.9-1.3-1.2-2c-1.4-2.6-3.5-5.2-6.4-5.9c-1.2-0.3-2.5-0.4-3.7-0.3l-7.3,0.1
			c-1.2,0-2.4,0.1-3.5,0.4c-2.3,0.7-4,2.7-5.6,4.6c-1.2,1.4-2.3,2.9-3.2,4.4c-1.3,2.3-1.9,5-1.8,7.6c0,0.7,0.1,1.4,0.3,2
			c0.2,0.6,0.5,1.2,0.8,1.7c1.4,2.7,2.2,6,0.6,8.6c2.7-1,5.2-2.6,7.1-4.8c0.7-1.1,1.5-2.1,2.5-3c1-0.7,2.8-0.8,3.4,0.3
			c0.2,0.4,0.4,0.9,0.3,1.4c0,0.8,0.1,1.7,0.4,2.4c0.3,0.8,1.1,1.3,2,1.1c1.4-0.4,1.2-2.5,2.3-3.4c0.8-0.7,2-0.6,3.1-0.9
			c1.2-0.5,2.1-1.4,2.6-2.6c0.4-0.9,0.4-3.2,1.1-3.6C289.4,81.6,291.5,82.5,292.4,82.9z"/>
		<path class="st3" d="M257.2,96.8c0.6-0.2,1.3-0.2,1.9,0c2,0.5,6.5,2,7.5,4.2c1.3,2.8,5.7,7.2,5.7,7.2s6,6,4.7,10.1
			c-1.3,4.1-6,8.8-6,8.8s1.3,19.5-5,24.5s-8.8,1.6-8.8,6.3s-19.5,19.5-23.3,10.4c0,0,1.9-17,1.3-23
			C234.5,139.4,235.5,102.7,257.2,96.8z"/>
		<path class="st3" d="M267.2,104.7c0,0,19.2,14.2,15.7,20.1c0,0-11.6,5.7-14.2,5.3s-12.3-11.3-14.8-12.3S250.3,100,267.2,104.7z"/>
		<path class="st5" d="M214.2,117.4c-3,1-5.7,3.4-6.3,6.5c-0.3,1.4-0.1,2.9-0.3,4.4c-0.6,3.3-3.2,5.9-5.6,8.3s-4.9,5.1-5.1,8.5
			c-0.2,3.7,2.5,7.2,2,10.9c-0.5,4.3-5.1,7-6.2,11.2c-0.7,2.8,0.2,5.8,1.7,8.2c2.9,4.7,7.8,7.8,13,9.5s10.8,2.1,16.2,2.1
			c6.7,0.1,13.9-0.5,18.9-4.9c2.9-2.5,4.7-6.1,5-9.9c0.5-5.1-1.7-10.4-0.2-15.3c0.9-3.1,3.2-5.9,2.9-9.1c-0.3-3.1-3.1-5.4-5-7.9
			c-1.6-2.4-2.9-5.1-3.9-7.9l-3.6-9.4c-0.7-1.9-1.5-3.8-3-5c-2.9-2.3-7.6-1.8-11.1-1.4C220.6,116.6,217.2,116.4,214.2,117.4z"/>
		<path class="st9" d="M215.3,144.9c0,0,1.6,5.1-10.3,11.1s1.2,12.3,1.2,12.3l13.8,3.2c0,0,14.2-2,15.8-4.4s4.4-10.3,3.6-11.5
			c-0.6-0.8-1.3-1.6-2-2.4c0,0-9.5-1.6-9.1-5.9S215.3,144.9,215.3,144.9z"/>
		<path class="st2" d="M215.3,144.9c0,0,1.6,5.1-10.3,11.1s1.2,12.3,1.2,12.3l13.8,3.2c0,0,14.2-2,15.8-4.4s4.4-10.3,3.6-11.5
			c-0.6-0.8-1.3-1.6-2-2.4c0,0-9.5-1.6-9.1-5.9S215.3,144.9,215.3,144.9z"/>
		<circle class="st9" cx="223" cy="140.3" r="12.7"/>
		<path class="st10" d="M221.6,167c0,0-15.2-1.1-15.5-11.6c0,0-5.4-0.6-7,1s-6.7,2.8-6.7,6.7s8.7,15.8,8.7,15.8s4.7,15.8,2.8,18.6
			s-2.4,9.9-2.4,9.9s19.8-1.6,22.9,0s15.8,1.6,16.6,0s-0.8-21.4-0.8-21.4s3.6-4.7,2.8-10.3l9.5-11.1c0,0-3.6-10.7-9.1-10.7
			c0,0-7.5-2-7.7-1S239.4,165,221.6,167z"/>
		<path class="st9" d="M186,201.8c0,0,3.6,5.5,12.7,6.7s10.7-2,9.9-2.8s-10.3-4.4-10.3-4.4l-5.5-4.4L186,201.8z"/>
		<path class="st9" d="M250.9,197.1l-10.3,5.9c0,0-13.4-0.8-8.3,3.2s14.6,2.4,14.6,2.4l9.1-4.4L250.9,197.1z"/>
		<path class="st5" d="M199.5,207.3c0,0-9.5,23.3,2,26.9s43.1,2.8,50.2-2s9.1-11.1,7.9-13.1s-9.1-7.5-14.6-7.9
			S199.5,207.3,199.5,207.3z"/>
		<path class="st11" d="M199.5,207.3c0,0-9.5,23.3,2,26.9s43.1,2.8,50.2-2s9.1-11.1,7.9-13.1s-9.1-7.5-14.6-7.9
			S199.5,207.3,199.5,207.3z"/>
		<path class="st5" d="M244.3,208.8c0,0,33.5-12.1,33.1,2.5S256,229.9,256,229.9l-6.3,0.8l-34.8,1.2c0,0,1.2-6.3-1.6-7.1
			c0,0,9.1-2.4,9.5-2.8s22.9-8.3,24.5-8.7s6.3-3.6,9.9-3.2c0,0,4-3.2,8.3-2.4l-12.3,0.8L244.3,208.8z"/>
		<path class="st2" d="M244.3,208.8c0,0,33.5-12.1,33.1,2.5S256,229.9,256,229.9l-6.3,0.8l-34.8,1.2c0,0,1.2-6.3-1.6-7.1
			c0,0,9.1-2.4,9.5-2.8s22.9-8.3,24.5-8.7s6.3-3.6,9.9-3.2c0,0,4-3.2,8.3-2.4l-12.3,0.8L244.3,208.8z"/>
		<path class="st5" d="M238.4,210.8l4.2,9.6l25.7-9.1l2-5.1l-6.7-1.2l-13.5,2.4l-5.9,1.6L238.4,210.8z"/>
		<path class="st2" d="M238.4,210.8l4.2,9.6l25.7-9.1l2-5.1l-6.7-1.2l-13.5,2.4l-5.9,1.6L238.4,210.8z"/>
		<path class="st5" d="M183.7,222.4c0,0,7.5,9.5,16.2,11.9s13.4-0.8,13.4-0.8l-2.8-11.1l-1.2-7.1l-5.1-3.6l-10.3-4.7l-12.3-4
			c0,0-5.1-0.8-5.1,0s4.7,12.7,4.7,12.7L183.7,222.4z"/>
		<path class="st6" d="M192.8,227.5c0,0,1.6,11.5,3.6,12.3s7.9-0.8,9.5-1.6s7-4.4,7-4.4S193.9,226.7,192.8,227.5z"/>
		<path class="st9" d="M228.8,228.7l7.5,1.2l-0.8,9.1l-10.5-2.5L228.8,228.7z"/>
		<path class="st6" d="M233.5,231.2c0,0-3.5,4.2,0,6.6l2.4,2c0,0,7.9,1.6,8.7,2.4s4-1.2,4-1.2s0.4-11.9,0-12.7s-5.1-1.6-5.5-0.8
			s-5.1,2-7.9,1.2L233.5,231.2z"/>
		<path class="st5" d="M201.9,210.1c0,0-27.7-16.2-32-10.3s-9.1,14.2,3.6,20.6s52.2,19.4,52.2,19.4s5.9-9.1,5.9-11.5
			c0,0-21-9.5-24.5-10.3s-17.8-9.9-19.8-10.7c-1.7-0.9-3.3-1.9-4.7-3.2L201.9,210.1z"/>
		<path class="st10" d="M193.9,161.1l-1.6,1.2c0,0-3.6,9.1-4,14.2s-5.1,21-4.7,22.9c0.3,2.2,1.4,4.2,3.2,5.5c0,0,3.2-7.1,8.7-5.9
			l6.7-24.5L193.9,161.1z"/>
		<path class="st10" d="M249.3,161.1l3.2,3.6c0,0,2,4.7,2,5.9s4,18.6,4.4,19.4s2,10.7,0,13.1c-1.6,1.7-3.5,3-5.5,4
			c0,0,2.4-8.3-5.1-8.7l0.8-3.2l-7.1-23.7L249.3,161.1z"/>
		<path class="st12" d="M194.7,188.3v20.8c0,2.7,2.2,5,4.9,5l43.6,0.6c2.7,0,5-2.1,5.1-4.8l0.8-20.8c0.1-2.8-2-5.1-4.8-5.2
			c0,0-0.1,0-0.1,0l-44.4-0.6C197,183.3,194.8,185.5,194.7,188.3C194.7,188.3,194.7,188.3,194.7,188.3L194.7,188.3z"/>
		<ellipse class="st5" cx="223.8" cy="132.6" rx="13.6" ry="7.3"/>
		<circle class="st6" cx="221.4" cy="199.2" r="3.2"/>
	</g>
</g>
</svg>
